<?xml version="1.0" encoding="utf-8"?>
<!-- Generator: Adobe Illustrator 19.0.0, SVG Export Plug-In . SVG Version: 6.00 Build 0)  -->
<svg version="1.1" xmlns="http://www.w3.org/2000/svg" xmlns:xlink="http://www.w3.org/1999/xlink" x="0px" y="0px"
	 viewBox="0 0 1024 1024" style="enable-background:new 0 0 1024 1024;" xml:space="preserve">
<style type="text/css">
	.st0{display:none;}
	.st1{display:inline;}
	.st2{fill:#FFD02C;}
	.st3{display:inline;fill:none;}
	.st4{display:inline;fill:none;stroke:#FFD02C;stroke-width:2;stroke-miterlimit:10;}
	.st5{fill:#238E25;}
</style>
<g id="Layer_1" class="st0">
	<g id="XMLID_1_" class="st1">
		<g id="XMLID_81_">
			<path id="XMLID_82_" class="st2" d="M512,2c68.9,0,135.6,13.5,198.5,40.1c60.7,25.7,115.3,62.5,162.1,109.3
				s83.6,101.4,109.3,162.1c26.6,62.9,40.1,129.7,40.1,198.5s-13.5,135.6-40.1,198.5c-25.7,60.7-62.5,115.3-109.3,162.1
				s-101.4,83.6-162.1,109.3c-62.9,26.6-129.7,40.1-198.5,40.1s-135.6-13.5-198.5-40.1c-60.7-25.7-115.3-62.5-162.1-109.3
				S67.8,771.2,42.1,710.5C15.5,647.6,2,580.9,2,512s13.5-135.6,40.1-198.5c25.7-60.7,62.5-115.3,109.3-162.1S252.8,67.8,313.5,42.1
				C376.4,15.5,443.1,2,512,2 M512,0C229.2,0,0,229.2,0,512s229.2,512,512,512s512-229.2,512-512S794.8,0,512,0L512,0z"/>
		</g>
	</g>
	<circle id="XMLID_5_" class="st3" cx="32" cy="32" r="32"/>
	<rect id="XMLID_22_" x="160.5" y="160" class="st4" width="704" height="704"/>
	<circle id="XMLID_24_" class="st4" cx="512.5" cy="512" r="352"/>
	<rect id="XMLID_33_" x="288" y="288" class="st4" width="448" height="449.6"/>
	<circle id="XMLID_34_" class="st4" cx="512" cy="513.6" r="224"/>
	<rect id="XMLID_35_" x="352" y="352" class="st4" width="318.3" height="318.3"/>
	<circle id="XMLID_36_" class="st4" cx="511.2" cy="511.2" r="159.2"/>
</g>
<g id="Layer_2">
	<ellipse id="XMLID_89_" class="st5" cx="288.5" cy="261.5" rx="223.5" ry="65.8"/>
	<path id="XMLID_92_" class="st5" d="M507.5,309.3c-20,26.9-110.5,47.2-219.2,47.2c-107.5,0-197.3-19.8-218.7-46.3
		c-2.7,3.6-4.6,7.4-4.6,11.2V489c11,29,106.7,53,223.2,53S502,518,512,489c0,0,0-165.8,0-167.6C512,317.3,510.7,313.2,507.5,309.3z
		 M152,367.6L152,367.6C152,367.6,152,367.6,152,367.6L152,367.6z"/>
	<path id="XMLID_95_" class="st5" d="M287.8,572.1c-107.5,0-196.9-19.8-218.3-46.3c-2.7,3.6-4.5,7.5-4.5,11.4v167.2
		c11,30.6,106.5,53,222.9,53S502,735,512,704.4c0,0,0-165.6,0-167.4c0-4.2-1.7-8.2-4.8-12.1C487.1,551.8,396.5,572.1,287.8,572.1z
		 M151.3,583.1L151.3,583.1C151.3,583.1,151.3,583.1,151.3,583.1L151.3,583.1z"/>
	<path id="XMLID_98_" class="st5" d="M507.2,735c-20,29.8-110.6,52.4-219.4,52.4c-107.5,0-197.1-22-218.5-51.4
		c-2.7,4-4.3,8.2-4.3,12.5v185.1C75,967.2,170.6,993,287.8,993S503,967.2,512,933.6c0,0,0-183.3,0-185.1
		C512,743.9,510.3,739.4,507.2,735z M151.3,799.7L151.3,799.7C151.3,799.6,151.3,799.7,151.3,799.7L151.3,799.7z"/>
	<ellipse id="XMLID_56_" class="st5" cx="772" cy="88" rx="187" ry="55"/>
	<path id="XMLID_46_" class="st5" d="M955.3,128c-16.8,22.5-92.4,39.5-183.4,39.5c-90,0-165.1-16.6-183-38.7c-2.3,3-3.9,6.2-3.9,9.4
		v140.2c9,24.3,89.3,44.3,186.7,44.3s179.3-20,187.3-44.3c0,0,0-138.7,0-140.2C959,134.7,957.9,131.3,955.3,128z M657.8,176.8
		L657.8,176.8C657.8,176.8,657.8,176.8,657.8,176.8L657.8,176.8z"/>
	<path id="XMLID_40_" class="st5" d="M771.4,347.9c-90,0-164.8-16.6-182.7-38.7c-2.3,3-3.8,6.3-3.8,9.5v139.9
		c9,25.6,89.1,44.3,186.5,44.3S951,484.2,959,458.6c0,0,0-138.6,0-140.1c0-3.5-1.4-6.9-4-10.2C938.2,330.9,862.4,347.9,771.4,347.9z
		 M657.2,357.2L657.2,357.2C657.2,357.2,657.2,357.2,657.2,357.2L657.2,357.2z"/>
	<path id="XMLID_37_" class="st5" d="M955,484.2c-16.8,25-92.6,43.8-183.5,43.8c-90,0-164.9-18.4-182.8-43
		c-2.3,3.4-3.6,6.9-3.6,10.4v154.9c8,28.1,88.4,49.7,186.4,49.7S952,678.5,959,650.4c0,0,0-153.3,0-154.9
		C959,491.6,957.6,487.9,955,484.2z M657.2,538.3L657.2,538.3C657.2,538.3,657.2,538.3,657.2,538.3L657.2,538.3z"/>
</g>
</svg>
