<?xml version="1.0" encoding="utf-8"?>
<!-- Generator: Adobe Illustrator 19.0.0, SVG Export Plug-In . SVG Version: 6.00 Build 0)  -->
<svg version="1.1" xmlns="http://www.w3.org/2000/svg" xmlns:xlink="http://www.w3.org/1999/xlink" x="0px" y="0px"
	 viewBox="0 0 1024 1024" style="enable-background:new 0 0 1024 1024;" xml:space="preserve">
<style type="text/css">
	.st0{display:none;}
	.st1{display:inline;}
	.st2{fill:#FFD02C;}
	.st3{display:inline;fill:none;}
	.st4{display:inline;fill:none;stroke:#FFD02C;stroke-width:2;stroke-miterlimit:10;}
	.st5{fill:#238E25;}
</style>
<g id="Layer_1" class="st0">
	<g id="XMLID_1_" class="st1">
		<g id="XMLID_81_">
			<path id="XMLID_82_" class="st2" d="M512,2c68.9,0,135.6,13.5,198.5,40.1c60.7,25.7,115.3,62.5,162.1,109.3
				s83.6,101.4,109.3,162.1c26.6,62.9,40.1,129.7,40.1,198.5s-13.5,135.6-40.1,198.5c-25.7,60.7-62.5,115.3-109.3,162.1
				s-101.4,83.6-162.1,109.3c-62.9,26.6-129.7,40.1-198.5,40.1s-135.6-13.5-198.5-40.1c-60.7-25.7-115.3-62.5-162.1-109.3
				S67.8,771.2,42.1,710.5C15.5,647.6,2,580.9,2,512s13.5-135.6,40.1-198.5c25.7-60.7,62.5-115.3,109.3-162.1S252.8,67.8,313.5,42.1
				C376.4,15.5,443.1,2,512,2 M512,0C229.2,0,0,229.2,0,512s229.2,512,512,512s512-229.2,512-512S794.8,0,512,0L512,0z"/>
		</g>
	</g>
	<circle id="XMLID_5_" class="st3" cx="32" cy="32" r="32"/>
	<rect id="XMLID_22_" x="160.5" y="160" class="st4" width="704" height="704"/>
	<circle id="XMLID_24_" class="st4" cx="512.5" cy="512" r="352"/>
	<rect id="XMLID_33_" x="288" y="288" class="st4" width="448" height="449.6"/>
	<circle id="XMLID_34_" class="st4" cx="512" cy="513.6" r="224"/>
	<rect id="XMLID_35_" x="352" y="352" class="st4" width="318.3" height="318.3"/>
	<circle id="XMLID_36_" class="st4" cx="511.2" cy="511.2" r="159.2"/>
</g>
<g id="Layer_2">
	<g id="XMLID_66_">
		<ellipse id="XMLID_74_" class="st5" cx="719" cy="253.8" rx="140.5" ry="31.6"/>
		<path id="XMLID_77_" class="st5" d="M860.1,282.5c0-2-1.1-3.9-3.1-5.8c-12.6,12.9-69.6,22.6-137.9,22.6
			c-67.6,0-124-9.5-137.5-22.2c-1.7,1.7-2.6,3.5-2.6,5.4c0,0,0,79.3,0,80l0.1,0.5c6.6,14,66.7,25.4,139.9,25.4S852.6,377,859.2,363
			c0,0,0.8-1.9,0.8-2.7C860,359.6,860.1,283.4,860.1,282.5z M633.2,304.7L633.2,304.7C633.2,304.7,633.2,304.7,633.2,304.7
			L633.2,304.7z"/>
		<path id="XMLID_85_" class="st5" d="M718.6,402.8c-67.6,0-123.8-9.5-137.2-22.2c-1.7,1.7-2.4,3.5-2.4,5.4l-0.3,81
			c6.6,14,66.7,25.4,139.9,25.4S851.9,481,858.5,467c0,0,0.5-2.3,0.5-3.1c0-0.7,0.5-77.1,0.5-77.9c0-2-1-3.9-3-5.8
			C843.9,393.1,787,402.8,718.6,402.8z M632.8,408.1L632.8,408.1C632.8,408.1,632.8,408.1,632.8,408.1L632.8,408.1z"/>
		<path id="XMLID_88_" class="st5" d="M856.5,481c-12.6,14.3-69.5,25.1-137.9,25.1c-67.6,0-123.8-10.6-137.2-24.6
			c-1.7,1.9-2.4,3.9-2.4,6l-0.4,88.5c6,17,66.4,28.5,140,28.5s134-11.5,140-28.5c0,0,0.9-87.6,0.9-88.5
			C859.5,485.3,858.5,483.1,856.5,481z M632.8,512.1L632.8,512.1C632.8,512.1,632.8,512.1,632.8,512.1L632.8,512.1z"/>
		<ellipse id="XMLID_89_" class="st5" cx="354.2" cy="350.1" rx="191.6" ry="43"/>
		<path id="XMLID_92_" class="st5" d="M542.3,381.4c-17.2,17.6-94.8,30.9-188.1,30.9c-92.2,0-169.3-13-187.6-30.3
			c-2.3,2.4-3.7,4.8-3.7,7.3c0,0-0.6,105.1-0.6,106.1c0,1,1,3.6,1,3.6c9,19,91,34.7,190.8,34.7S536.1,518,545,499
			c0,0,0.8-2.6,0.8-3.6c0-1,0.6-104.9,0.6-106.1C546.5,386.6,545,384,542.3,381.4z M237.2,419.5L237.2,419.5
			C237.2,419.5,237.2,419.5,237.2,419.5L237.2,419.5z"/>
		<path id="XMLID_95_" class="st5" d="M353.6,553.4c-92.2,0-169-13-187.3-30.3c-2.3,2.4-3.4,4.8-3.4,7.3L162.8,640
			c9,20,91,34.7,190.8,34.7S535.5,660,544.4,640c0,0,0.8-2.5,0.8-3.5c0-1,0.6-104.9,0.6-106.1c0-2.7-1.4-5.4-4.2-7.9
			C524.5,540.1,446.9,553.4,353.6,553.4z M236.6,560.6L236.6,560.6C236.6,560.6,236.6,560.6,236.6,560.6L236.6,560.6z"/>
		<path id="XMLID_98_" class="st5" d="M541.7,660c-17.2,19.5-94.8,34.3-188.1,34.3c-92.2,0-169-14.4-187.3-33.6
			c-2.3,2.6-3.4,5.4-3.4,8.2L162.7,790c8.2,22,90.5,38.9,191,38.9s182.8-16.9,191-38.9c0,0,0.7-2.3,0.7-3.5
			c0-1.1,0.6-116.5,0.6-117.7C545.9,665.8,544.4,662.9,541.7,660z M236.6,702.3L236.6,702.3C236.6,702.3,236.6,702.3,236.6,702.3
			L236.6,702.3z"/>
	</g>
</g>
</svg>
