<?xml version="1.0" encoding="UTF-8"?>
<svg width="1200px" height="1200px" viewBox="0 0 1200 1200" version="1.1" xmlns="http://www.w3.org/2000/svg" xmlns:xlink="http://www.w3.org/1999/xlink">
    <!-- Generator: Sketch 46.2 (44496) - http://www.bohemiancoding.com/sketch -->
    <title>11</title>
    <desc>Created with Sketch.</desc>
    <defs>
        <polygon id="path-1" points="600 1070 280 910 600 750 920 910"></polygon>
        <filter x="-9.4%" y="-9.4%" width="118.8%" height="137.5%" filterUnits="objectBoundingBox" id="filter-2">
            <feMorphology radius="5" operator="dilate" in="SourceAlpha" result="shadowSpreadOuter1"></feMorphology>
            <feOffset dx="0" dy="30" in="shadowSpreadOuter1" result="shadowOffsetOuter1"></feOffset>
            <feGaussianBlur stdDeviation="10" in="shadowOffsetOuter1" result="shadowBlurOuter1"></feGaussianBlur>
            <feColorMatrix values="0 0 0 0 0   0 0 0 0 0   0 0 0 0 0  0 0 0 0.5 0" type="matrix" in="shadowBlurOuter1"></feColorMatrix>
        </filter>
    </defs>
    <g id="Page-1" stroke="none" stroke-width="1" fill="none" fill-rule="evenodd">
        <g id="11">
            <g id="Path-3">
                <use fill="black" fill-opacity="1" filter="url(#filter-2)" xlink:href="#path-1"></use>
                <use fill="#E1B029" fill-rule="evenodd" xlink:href="#path-1"></use>
            </g>
            <g id="Group-2" transform="translate(280.000000, 430.000000)">
                <polygon id="Path-3-Copy" fill="#AF881F" points="320 320 0 160 320 0"></polygon>
                <polygon id="Path-3-Copy-3" fill="#8D6D18" transform="translate(480.000000, 160.000000) scale(-1, 1) translate(-480.000000, -160.000000) " points="640 320 320 160 640 0"></polygon>
                <polygon id="Path-4-Copy" fill="#AF881F" points="320 320 320 640 640 480 640 160"></polygon>
                <polygon id="Path-4-Copy-2" fill="#CA9D23" transform="translate(160.000000, 400.000000) scale(-1, 1) translate(-160.000000, -400.000000) " points="1.13686838e-13 320 1.13686838e-13 640 320 480 320 160"></polygon>
            </g>
            <g id="Group" transform="translate(280.000000, 170.000000)">
                <polygon id="Path-4-Copy-4" fill="#AF881F" points="320 320 320 420 640 260 640 160"></polygon>
                <polygon id="Path-4-Copy-3" fill="#CA9D23" transform="translate(160.000000, 290.000000) scale(-1, 1) translate(-160.000000, -290.000000) " points="5.68434189e-14 320 1.70530257e-13 420 320 260 320 160"></polygon>
                <polygon id="Path-3-Copy-4" fill="#E1B029" points="320 320 -1.13686838e-13 160 320 5.68434189e-14 640 160"></polygon>
            </g>
        </g>
    </g>
</svg>