<?xml version="1.0" encoding="utf-8"?>
<!-- Generator: Adobe Illustrator 19.0.0, SVG Export Plug-In . SVG Version: 6.00 Build 0)  -->
<svg version="1.1" xmlns="http://www.w3.org/2000/svg" xmlns:xlink="http://www.w3.org/1999/xlink" x="0px" y="0px"
	 viewBox="0 0 1024 1024" style="enable-background:new 0 0 1024 1024;" xml:space="preserve">
<style type="text/css">
	.st0{display:none;}
	.st1{display:inline;}
	.st2{fill:#FFD02C;}
	.st3{display:inline;fill:none;}
	.st4{display:inline;fill:none;stroke:#FFD02C;stroke-width:2;stroke-miterlimit:10;}
	.st5{fill:#6D6529;}
</style>
<g id="Layer_1" class="st0">
	<g id="XMLID_1_" class="st1">
		<g id="XMLID_78_">
			<path id="XMLID_79_" class="st2" d="M512,2c68.9,0,135.6,13.5,198.5,40.1c60.7,25.7,115.3,62.5,162.1,109.3
				s83.6,101.4,109.3,162.1c26.6,62.9,40.1,129.7,40.1,198.5s-13.5,135.6-40.1,198.5c-25.7,60.7-62.5,115.3-109.3,162.1
				s-101.4,83.6-162.1,109.3c-62.9,26.6-129.7,40.1-198.5,40.1s-135.6-13.5-198.5-40.1c-60.7-25.7-115.3-62.5-162.1-109.3
				S67.8,771.2,42.1,710.5C15.5,647.6,2,580.9,2,512s13.5-135.6,40.1-198.5c25.7-60.7,62.5-115.3,109.3-162.1S252.8,67.8,313.5,42.1
				C376.4,15.5,443.1,2,512,2 M512,0C229.2,0,0,229.2,0,512s229.2,512,512,512s512-229.2,512-512S794.8,0,512,0L512,0z"/>
		</g>
	</g>
	<circle id="XMLID_5_" class="st3" cx="32" cy="32" r="32"/>
	<rect id="XMLID_22_" x="160.5" y="160" class="st4" width="704" height="704"/>
	<circle id="XMLID_24_" class="st4" cx="512.5" cy="512" r="352"/>
	<rect id="XMLID_33_" x="288" y="288" class="st4" width="448" height="449.6"/>
	<circle id="XMLID_34_" class="st4" cx="512" cy="513.6" r="224"/>
	<rect id="XMLID_35_" x="352" y="352" class="st4" width="318.3" height="318.3"/>
	<circle id="XMLID_36_" class="st4" cx="511.2" cy="511.2" r="159.2"/>
</g>
<g id="Layer_2">
	<g id="XMLID_41_">
		<path id="XMLID_46_" class="st5" d="M640.5,364.3c-53.3,0-96.5-5.3-96.5-11.8V705c0,8.8,43.2,16,96.5,16s96.5-7.2,96.5-16V352.5
			C737,359,693.8,364.3,640.5,364.3z"/>
		<path id="XMLID_57_" class="st5" d="M736.7,191c-3.5-11.9-38.6-127-98.5-127c-59.9,0-90.9,115.1-93.9,127H544v1v0.5V320h0.2
			c3.1,8.4,45,15,96.3,15s93.2-6.6,96.3-15h0.2V192.5V192v-1H736.7z"/>
		<path id="XMLID_60_" class="st5" d="M640.5,748.3c-53.3,0-96.5-5.3-96.5-11.8V800h0.7c-0.5,0.7-0.7,1.3-0.7,2
			c0,8.8,43.2,16,96.5,16s96.5-7.2,96.5-16c0-0.7-0.3-1.3-0.7-2h0.7v-63.5C737,743,693.8,748.3,640.5,748.3z"/>
		<path id="XMLID_61_" class="st5" d="M383.5,458.3c-53.3,0-96.5-5.3-96.5-11.8V799c0,8.8,43.2,16,96.5,16s96.5-7.2,96.5-16V446.5
			C480,453,436.8,458.3,383.5,458.3z"/>
		<path id="XMLID_64_" class="st5" d="M381.2,158c-59.9,0-90.9,115.1-93.9,127H287v1v0.5V414h0.2c3.1,8.4,45,15,96.3,15
			s93.2-6.6,96.3-15h0.2V286.5V286v-1h-0.3C476.2,273.1,441.1,158,381.2,158z"/>
		<path id="XMLID_65_" class="st5" d="M383.5,842.3c-53.3,0-96.5-5.3-96.5-11.8V894h0.7c-0.5,0.7-0.7,1.3-0.7,2
			c0,8.8,43.2,16,96.5,16s96.5-7.2,96.5-16c0-0.7-0.3-1.3-0.7-2h0.7v-63.5C480,837,436.8,842.3,383.5,842.3z"/>
	</g>
</g>
</svg>
