<?xml version="1.0" encoding="utf-8"?>
<!-- Generator: Adobe Illustrator 19.0.0, SVG Export Plug-In . SVG Version: 6.00 Build 0)  -->
<svg version="1.1" xmlns="http://www.w3.org/2000/svg" xmlns:xlink="http://www.w3.org/1999/xlink" x="0px" y="0px"
	 viewBox="0 0 1024 1024" style="enable-background:new 0 0 1024 1024;" xml:space="preserve">
<style type="text/css">
	.st0{display:none;}
	.st1{display:inline;}
	.st2{fill:#FFD02C;}
	.st3{display:inline;fill:none;}
	.st4{display:inline;fill:none;stroke:#FFD02C;stroke-width:2;stroke-miterlimit:10;}
	.st5{fill:#EA8711;}
</style>
<g id="Layer_1" class="st0">
	<g id="XMLID_1_" class="st1">
		<g id="XMLID_78_">
			<path id="XMLID_79_" class="st2" d="M512,2c68.9,0,135.6,13.5,198.5,40.1c60.7,25.7,115.3,62.5,162.1,109.3
				s83.6,101.4,109.3,162.1c26.6,62.9,40.1,129.7,40.1,198.5s-13.5,135.6-40.1,198.5c-25.7,60.7-62.5,115.3-109.3,162.1
				s-101.4,83.6-162.1,109.3c-62.9,26.6-129.7,40.1-198.5,40.1s-135.6-13.5-198.5-40.1c-60.7-25.7-115.3-62.5-162.1-109.3
				S67.8,771.2,42.1,710.5C15.5,647.6,2,580.9,2,512s13.5-135.6,40.1-198.5c25.7-60.7,62.5-115.3,109.3-162.1S252.8,67.8,313.5,42.1
				C376.4,15.5,443.1,2,512,2 M512,0C229.2,0,0,229.2,0,512s229.2,512,512,512s512-229.2,512-512S794.8,0,512,0L512,0z"/>
		</g>
	</g>
	<circle id="XMLID_5_" class="st3" cx="32" cy="32" r="32"/>
	<rect id="XMLID_22_" x="160.5" y="160" class="st4" width="704" height="704"/>
	<circle id="XMLID_24_" class="st4" cx="512.5" cy="512" r="352"/>
	<rect id="XMLID_33_" x="288" y="288" class="st4" width="448" height="449.6"/>
	<circle id="XMLID_34_" class="st4" cx="512" cy="513.6" r="224"/>
	<rect id="XMLID_35_" x="352" y="352" class="st4" width="318.3" height="318.3"/>
	<circle id="XMLID_36_" class="st4" cx="511.2" cy="511.2" r="159.2"/>
</g>
<g id="Layer_2">
	<g id="XMLID_51_">
		<path id="XMLID_57_" class="st5" d="M512.4,513c-80.2,0-145.2-21.3-145.2-47.7c0-0.1,0-0.3,0-0.3H367v433h1c0,0.1,0,0.2,0,0.3
			c0,26.3,64.4,47.7,143.9,47.7s143.9-21.4,143.9-47.7c0-0.1,0-0.2,0-0.3h1.1V469.7C650,494,588,513,512.4,513z"/>
		<path id="XMLID_61_" class="st5" d="M512.4,481.9c79.7,0,144.3-21.4,144.3-47.7c0-0.1,0-0.2,0-0.2h0.4l-0.4-0.7
			c-0.3-5.5-3.5-10.8-9.1-15.7L609.7,352c0,0,0,0,0,0c-0.4-0.1-0.7-0.1-1-0.2c0,0.1,0,0.2,0,0.3c0,17.8-43.1,32.1-96.4,32.1
			c-52.8,0-95.6-14.2-96.3-31.8c-0.4,0.1-0.8,0.2-1.3,0.2L377.9,417c-6.2,5.3-9.6,11-9.7,17l0,0h0c0,0.1,0,0.2,0,0.2
			C368.1,460.6,432.7,481.9,512.4,481.9z"/>
		<path id="XMLID_64_" class="st5" d="M-294.7,112c0,0,63.7,96-35.8,128c-132.7,64-33.2,138.1-33.2,138.1l69,53.9
			c0,0-35.8-32-2.7-64c32.4-20.1,108.9-52.9,85.8-156.6C-227.2,181.4-294.7,112-294.7,112z"/>
		<path id="XMLID_65_" class="st5" d="M512.4,352c53,0,96.1-14,96.3-32h0.3v-32h-0.3c0-0.1,0-0.2,0-0.2c0-12.5-21.2-23.3-52.3-28.6
			l-12.8-99.1c0-8.9-14.1-16.1-31.5-16.1s-31.5,7.2-31.5,16.1l-12.4,99.1c-31,5.3-52.2,16.1-52.2,28.6c0,0.1,0,0.2,0,0.2h0v32h0
			C416.3,338,459.3,352,512.4,352z"/>
	</g>
</g>
</svg>
