<?xml version="1.0" encoding="UTF-8"?>
<svg width="1200px" height="1200px" viewBox="0 0 1200 1200" version="1.1" xmlns="http://www.w3.org/2000/svg" xmlns:xlink="http://www.w3.org/1999/xlink">
    <!-- Generator: Sketch 46.2 (44496) - http://www.bohemiancoding.com/sketch -->
    <title>5</title>
    <desc>Created with Sketch.</desc>
    <defs>
        <polygon id="path-1" points="600 1140 200 940 600 740 1000 940"></polygon>
        <filter x="-7.5%" y="-7.5%" width="115.0%" height="130.0%" filterUnits="objectBoundingBox" id="filter-2">
            <feMorphology radius="5" operator="dilate" in="SourceAlpha" result="shadowSpreadOuter1"></feMorphology>
            <feOffset dx="0" dy="30" in="shadowSpreadOuter1" result="shadowOffsetOuter1"></feOffset>
            <feGaussianBlur stdDeviation="10" in="shadowOffsetOuter1" result="shadowBlurOuter1"></feGaussianBlur>
            <feColorMatrix values="0 0 0 0 0   0 0 0 0 0   0 0 0 0 0  0 0 0 0.5 0" type="matrix" in="shadowBlurOuter1"></feColorMatrix>
        </filter>
    </defs>
    <g id="Page-1" stroke="none" stroke-width="1" fill="none" fill-rule="evenodd">
        <g id="5">
            <g id="Path-3">
                <use fill="black" fill-opacity="1" filter="url(#filter-2)" xlink:href="#path-1"></use>
                <use fill="#FFA64A" fill-rule="evenodd" xlink:href="#path-1"></use>
            </g>
            <g id="Group-2" transform="translate(200.000000, 60.000000)">
                <polygon id="Path-2-Copy-3" fill="#CA7225" points="400 1080 800 880 800 300 400 500"></polygon>
                <polygon id="Path-2-Copy-5" fill="#FFA64A" points="1.70530257e-13 300 0 880 400 1080 400 500"></polygon>
                <polygon id="Path-Copy-2" fill="#FFA64A" points="2.84217094e-13 300 400 100 800 300 400 500"></polygon>
                <polygon id="Path-2-Copy-7" fill="#CA7225" transform="translate(500.000000, 250.000000) scale(-1, 1) translate(-500.000000, -250.000000) " points="400 100 400 300 600 400 600 200"></polygon>
                <polygon id="Path-2-Copy-6" fill="#FFA64A" points="200 100 200 300 400 400 400 200"></polygon>
                <polygon id="Path-Copy-3" fill="#FFA64A" points="200 100 400 0 600 100 400 200"></polygon>
            </g>
        </g>
    </g>
</svg>