<?xml version="1.0" encoding="utf-8"?>
<!-- Generator: Adobe Illustrator 19.0.0, SVG Export Plug-In . SVG Version: 6.00 Build 0)  -->
<svg version="1.1" xmlns="http://www.w3.org/2000/svg" xmlns:xlink="http://www.w3.org/1999/xlink" x="0px" y="0px"
	 viewBox="0 0 1024 1024" style="enable-background:new 0 0 1024 1024;" xml:space="preserve">
<style type="text/css">
	.st0{display:none;}
	.st1{display:inline;}
	.st2{fill:#FFD02C;}
	.st3{display:inline;fill:none;}
	.st4{display:inline;fill:none;stroke:#FFD02C;stroke-width:2;stroke-miterlimit:10;}
	.st5{fill:#EA8711;}
	.st6{fill:#E06919;}
</style>
<g id="Layer_1" class="st0">
	<g id="XMLID_1_" class="st1">
		<g id="XMLID_78_">
			<path id="XMLID_79_" class="st2" d="M512,2c68.9,0,135.6,13.5,198.5,40.1c60.7,25.7,115.3,62.5,162.1,109.3
				s83.6,101.4,109.3,162.1c26.6,62.9,40.1,129.7,40.1,198.5s-13.5,135.6-40.1,198.5c-25.7,60.7-62.5,115.3-109.3,162.1
				s-101.4,83.6-162.1,109.3c-62.9,26.6-129.7,40.1-198.5,40.1s-135.6-13.5-198.5-40.1c-60.7-25.7-115.3-62.5-162.1-109.3
				S67.8,771.2,42.1,710.5C15.5,647.6,2,580.9,2,512s13.5-135.6,40.1-198.5c25.7-60.7,62.5-115.3,109.3-162.1S252.8,67.8,313.5,42.1
				C376.4,15.5,443.1,2,512,2 M512,0C229.2,0,0,229.2,0,512s229.2,512,512,512s512-229.2,512-512S794.8,0,512,0L512,0z"/>
		</g>
	</g>
	<circle id="XMLID_5_" class="st3" cx="32" cy="32" r="32"/>
	<rect id="XMLID_22_" x="160.5" y="160" class="st4" width="704" height="704"/>
	<circle id="XMLID_24_" class="st4" cx="512.5" cy="512" r="352"/>
	<rect id="XMLID_33_" x="288" y="288" class="st4" width="448" height="449.6"/>
	<circle id="XMLID_34_" class="st4" cx="512" cy="513.6" r="224"/>
	<rect id="XMLID_35_" x="352" y="352" class="st4" width="318.3" height="318.3"/>
	<circle id="XMLID_36_" class="st4" cx="511.2" cy="511.2" r="159.2"/>
</g>
<g id="Layer_2">
	<path id="XMLID_40_" class="st5" d="M279.8,470.8c-102,0-184.7-25.1-184.7-56.4c0-0.1,0-0.2,0-0.2H95v512.2h1.3c0,0,0,0.6,0,0.7
		c0,31.2,49.8,96.9,183.1,96.9s183.1-65.8,183.1-97c0-0.1,0-0.6,0-0.6h1.3V419.6C455.4,448.3,376.1,470.8,279.8,470.8z"/>
	<path id="XMLID_39_" class="st6" d="M405,317c0,0,0-37.9,0-38c0-14.8-29.3-28.2-68.9-34.5l-16.4-117.4c0-10.5-18.1-19.1-40.2-19.1
		c-22.1,0-40.1,8.5-40.1,19.1l-15.8,117.5c-39.4,6.4-67.6,18.9-67.6,33.6c0,0.1,0,39.4,0,39.4s-61.1,96.5-61.1,96.6
		c0,31.1,83.9,62.5,185.4,62.5c101.3,0,183.9-25.9,183.9-57.2C464.2,419.5,405,317,405,317z"/>
	<path id="XMLID_38_" class="st5" d="M744.8,362.8c-102,0-184.7-25.1-184.7-56.4c0-0.1,0-0.2,0-0.2H560v512.2h1.3c0,0,0,0.6,0,0.7
		c0,31.2,49.8,96.9,183.1,96.9s183.1-65.8,183.1-97c0-0.1,0-0.6,0-0.6h1.3V311.6C920.4,340.3,841.1,362.8,744.8,362.8z"/>
	<path id="XMLID_37_" class="st6" d="M870,209c0,0,0-37.9,0-38c0-14.8-29.3-28.2-68.9-34.5L784.7,19.1C784.7,8.6,766.6,0,744.5,0
		c-22.1,0-40.1,8.5-40.1,19.1l-15.8,117.5c-39.4,6.4-67.6,18.9-67.6,33.6c0,0.1,0,39.4,0,39.4s-61.1,96.5-61.1,96.6
		c0,31.1,83.9,62.5,185.4,62.5c101.3,0,183.9-25.9,183.9-57.2C929.2,311.5,870,209,870,209z"/>
</g>
</svg>
