<?xml version="1.0" encoding="utf-8"?>
<!-- Generator: Adobe Illustrator 19.0.0, SVG Export Plug-In . SVG Version: 6.00 Build 0)  -->
<svg version="1.1" xmlns="http://www.w3.org/2000/svg" xmlns:xlink="http://www.w3.org/1999/xlink" x="0px" y="0px"
	 viewBox="0 0 1024 1024" style="enable-background:new 0 0 1024 1024;" xml:space="preserve">
<style type="text/css">
	.st0{display:none;}
	.st1{display:inline;}
	.st2{fill:#FFD02C;}
	.st3{display:inline;fill:none;}
	.st4{display:inline;fill:none;stroke:#FFD02C;stroke-width:2;stroke-miterlimit:10;}
	.st5{fill:#13E8B1;}
	.st6{fill:#00C7FC;}
</style>
<g id="Layer_1" class="st0">
	<g id="XMLID_1_" class="st1">
		<g id="XMLID_78_">
			<path id="XMLID_79_" class="st2" d="M512,2c68.9,0,135.6,13.5,198.5,40.1c60.7,25.7,115.3,62.5,162.1,109.3
				s83.6,101.4,109.3,162.1c26.6,62.9,40.1,129.7,40.1,198.5s-13.5,135.6-40.1,198.5c-25.7,60.7-62.5,115.3-109.3,162.1
				s-101.4,83.6-162.1,109.3c-62.9,26.6-129.7,40.1-198.5,40.1s-135.6-13.5-198.5-40.1c-60.7-25.7-115.3-62.5-162.1-109.3
				S67.8,771.2,42.1,710.5C15.5,647.6,2,580.9,2,512s13.5-135.6,40.1-198.5c25.7-60.7,62.5-115.3,109.3-162.1S252.8,67.8,313.5,42.1
				C376.4,15.5,443.1,2,512,2 M512,0C229.2,0,0,229.2,0,512s229.2,512,512,512s512-229.2,512-512S794.8,0,512,0L512,0z"/>
		</g>
	</g>
	<circle id="XMLID_5_" class="st3" cx="32" cy="32" r="32"/>
	<rect id="XMLID_22_" x="160.5" y="160" class="st4" width="704" height="704"/>
	<circle id="XMLID_24_" class="st4" cx="512.5" cy="512" r="352"/>
	<rect id="XMLID_33_" x="288" y="288" class="st4" width="448" height="449.6"/>
	<circle id="XMLID_34_" class="st4" cx="512" cy="513.6" r="224"/>
	<rect id="XMLID_35_" x="352" y="352" class="st4" width="318.3" height="318.3"/>
	<circle id="XMLID_36_" class="st4" cx="511.2" cy="511.2" r="159.2"/>
</g>
<g id="Layer_2">
	<g id="XMLID_46_">
		<ellipse id="XMLID_37_" class="st5" cx="512" cy="863.8" rx="224" ry="64.8"/>
		<polygon id="XMLID_41_" class="st5" points="176,289.6 288,864 736,864 848,289.4 		"/>
		<g id="XMLID_38_">
			<path id="XMLID_72_" class="st6" d="M512,366.6c-87.9,0-170.3-9.8-232-27.7c-57.7-16.7-84-37.4-84-49.5s26.3-32.8,84-49.5
				c61.7-17.8,144.1-27.7,232-27.7c87.9,0,170.3,9.8,232,27.7c57.7,16.7,84,37.4,84,49.5s-26.3,32.8-84,49.5
				C682.3,356.7,599.9,366.6,512,366.6z"/>
			<path id="XMLID_69_" class="st5" d="M512,232.2c77.3,0,151.8,7.9,209.6,22.3c54.7,13.6,76.1,28.1,83.6,34.8
				c-7.5,6.7-28.8,21.2-83.6,34.8c-57.8,14.4-132.3,22.4-209.6,22.4s-151.8-7.9-209.6-22.4c-54.7-13.6-76.1-28.1-83.6-34.8
				c7.5-6.7,28.8-21.2,83.6-34.8C360.2,240.2,434.7,232.2,512,232.2 M512,192.2c-185.6,0-336,43.5-336,97.2
				c0,53.7,150.4,97.2,336,97.2s336-43.5,336-97.2C848,235.7,697.6,192.2,512,192.2L512,192.2z"/>
		</g>
		<circle id="XMLID_39_" class="st6" cx="384" cy="576" r="80"/>
		<circle id="XMLID_40_" class="st6" cx="609" cy="737" r="80"/>
		<circle id="XMLID_42_" class="st6" cx="641" cy="480" r="80"/>
	</g>
</g>
</svg>
