<?xml version="1.0" encoding="UTF-8"?>
<svg width="1200px" height="1200px" viewBox="0 0 1200 1200" version="1.1" xmlns="http://www.w3.org/2000/svg" xmlns:xlink="http://www.w3.org/1999/xlink">
    <!-- Generator: Sketch 46.2 (44496) - http://www.bohemiancoding.com/sketch -->
    <title>7</title>
    <desc>Created with Sketch.</desc>
    <defs>
        <polygon id="path-1" points="600 1150 200 950 600 750 1000 950"></polygon>
        <filter x="-7.5%" y="-7.5%" width="115.0%" height="130.0%" filterUnits="objectBoundingBox" id="filter-2">
            <feMorphology radius="5" operator="dilate" in="SourceAlpha" result="shadowSpreadOuter1"></feMorphology>
            <feOffset dx="0" dy="30" in="shadowSpreadOuter1" result="shadowOffsetOuter1"></feOffset>
            <feGaussianBlur stdDeviation="10" in="shadowOffsetOuter1" result="shadowBlurOuter1"></feGaussianBlur>
            <feColorMatrix values="0 0 0 0 0   0 0 0 0 0   0 0 0 0 0  0 0 0 0.5 0" type="matrix" in="shadowBlurOuter1"></feColorMatrix>
        </filter>
    </defs>
    <g id="Page-1" stroke="none" stroke-width="1" fill="none" fill-rule="evenodd">
        <g id="7">
            <g id="Path-3">
                <use fill="black" fill-opacity="1" filter="url(#filter-2)" xlink:href="#path-1"></use>
                <use fill="#58887E" fill-rule="evenodd" xlink:href="#path-1"></use>
            </g>
            <polygon id="Path-3-Copy" fill="#465E55" points="600 1050 400 950 600 850 800 950"></polygon>
            <g id="Group-3" transform="translate(400.000000, 550.000000)">
                <polygon id="Path-2-Copy-4" fill="#465E55" points="2.58126853e-14 100 0 300 200 400 400 300 400 100 200 200"></polygon>
                <polygon id="Combined-Shape-Copy" fill="#58887E" points="0 100 200 2.84217094e-14 400 100 200 200"></polygon>
                <polygon id="Path-2-Copy-5" fill="#58887E" points="0 100 0 300 200 400 200 200"></polygon>
            </g>
            <g id="Group" transform="translate(200.000000, 50.000000)">
                <polygon id="Path-2-Copy-7" fill="#465E55" points="0 200 9.09494702e-13 400 400 600 800 400 800 200 400 400"></polygon>
                <polygon id="Path-2-Copy-6" fill="#465E55" transform="translate(400.000000, 200.000000) scale(1, -1) translate(-400.000000, -200.000000) " points="200 200 400 300 600 200 400 100"></polygon>
                <path d="M0,200 L400,0 L800,200 L400,400 L0,200 Z M200,200 L400,300 L600,200 L400,100 L200,200 Z" id="Combined-Shape-Copy-2" fill="#58887E"></path>
                <polygon id="Path-2-Copy-8" fill="#58887E" points="0 200 0 400 400 600 400 400"></polygon>
                <polygon id="Path-2-Copy-9" fill="#58887E" points="400 100 400 300 600 200"></polygon>
            </g>
        </g>
    </g>
</svg>