<?xml version="1.0" encoding="UTF-8"?>
<svg width="1200px" height="1200px" viewBox="0 0 1200 1200" version="1.1" xmlns="http://www.w3.org/2000/svg" xmlns:xlink="http://www.w3.org/1999/xlink">
    <!-- Generator: Sketch 46.2 (44496) - http://www.bohemiancoding.com/sketch -->
    <title>8</title>
    <desc>Created with Sketch.</desc>
    <defs>
        <polygon id="path-1" points="200 950 600 750 1000 950 600 1150"></polygon>
        <filter x="-7.5%" y="-7.5%" width="115.0%" height="130.0%" filterUnits="objectBoundingBox" id="filter-2">
            <feMorphology radius="5" operator="dilate" in="SourceAlpha" result="shadowSpreadOuter1"></feMorphology>
            <feOffset dx="0" dy="30" in="shadowSpreadOuter1" result="shadowOffsetOuter1"></feOffset>
            <feGaussianBlur stdDeviation="10" in="shadowOffsetOuter1" result="shadowBlurOuter1"></feGaussianBlur>
            <feColorMatrix values="0 0 0 0 0   0 0 0 0 0   0 0 0 0 0  0 0 0 0.5 0" type="matrix" in="shadowBlurOuter1"></feColorMatrix>
        </filter>
    </defs>
    <g id="Page-1" stroke="none" stroke-width="1" fill="none" fill-rule="evenodd">
        <g id="8">
            <g id="Path-Copy-2">
                <use fill="black" fill-opacity="1" filter="url(#filter-2)" xlink:href="#path-1"></use>
                <use fill="#CFCFCF" fill-rule="evenodd" xlink:href="#path-1"></use>
            </g>
            <polygon id="Path-2-Copy-2" fill="#909090" points="400 350 400 950 600 1050 800 950 800 350 600 450"></polygon>
            <polygon id="Path-2-Copy-5" fill="#CFCFCF" points="400 450 400 950 600 1050 600 550"></polygon>
            <g id="Group" transform="translate(200.000000, 50.000000)">
                <polygon id="Path-Copy-3" fill="#CFCFCF" points="1.13686838e-13 200 400 -1.42108547e-14 800 200 400 400"></polygon>
                <polygon id="Path-2-Copy-3" fill="#909090" points="0 200 9.09494702e-13 400 400 600 800 400 800 200 400 400"></polygon>
                <polygon id="Path-2-Copy-6" fill="#CFCFCF" points="2.77555756e-14 200 0 400 400 600 400 400"></polygon>
            </g>
        </g>
    </g>
</svg>