<svg xmlns="http://www.w3.org/2000/svg" viewBox="0 0 54 54"><path fill="#39b74e" fill-rule="evenodd" d="M30.75 41.19q-.31-.25-.56.06t.06.56.56-.06-.06-.56m-2-1q-.31-.25-.56.06t.06.56.56-.06-.06-.56m10.56-2.07q-.25.19 0 .57.25.37.81.37.57 0 .94.5.38.5.69.25t-.5-1.06-1.25-.81-.69.18m-6.62-.81q-.38-.25-.57 0-.18.25-.18.69t.37.69q.38.25.57 0 .18-.25.18-.69t-.37-.69m-2.94-.12q-.31-.25-.56.06t.06.56.56-.06-.06-.56m5.75-1.13q-.19 0-.38.25-.18.25-.18 1.19t.37 1.19q.38.25 1-.38.63-.62.63-.81t-.63-.81q-.62-.63-.81-.63m2.81-.94q-.25.19 0 .57.25.37.69.37t.69-.18q.25-.19 0-.57-.25-.37-.69-.37t-.69.18m-8.43-.68q-.07-.38-.38-.38t-.44.32q-.12.31-.56.62t-.38.62q.07.32.32.32t.56-.44.62-.56q.32-.13.26-.5m-3.19-1.13q-.38-.25-.57 0-.18.25-.18.69t.37.69q.38.25.57 0 .18-.25.18-.69t-.37-.69m8.81-3.12q-.31 0-.44 1.62-.12 1.63.25 1.88.38.25.57 0 .18-.25.18-1.69t-.12-1.62q-.13-.19-.44-.19m-6.81-1.88q-.38-.25-.57.44-.18.69.32 1.06.5.38.5 1 0 .63.37.88.38.25.57 0 .18-.25.18-.69t-.5-.81q-.5-.38-.5-1 0-.63-.37-.88m13.06-.12q-.31-.25-.56.06t.06.56.56-.06-.06-.56m-15.06-.07q-.25-.18-.5.13t.06.56.5-.12q.19-.38-.06-.57m9-1.81q-.38-.25-.57 0-.18.25-.18 1.19t.12 1.12q.13.19.44.19t.44-1.12q.12-1.13-.25-1.38m-3.94-.12q-.31-.25-.56.06t.06.56.56-.06-.06-.56m12.87-12.38q.07-.37-1.43-1.19-1.5-.81-2.38-1.5-.87-.68-1-1.56-.12-.87-.5-1.5-.37-.62-.37-1.12t-.19-.69-.56-.19q-.38 0-1.94 1.69t-2.19 1.5q-.62-.19-1.56-.19t-1.12.19q-.19.19.06.69t1.37 1.37q1.13.88 1.19 1.13t-.19.56-1.37 1.12q-1.13.82-2.13 1.19-1 .38-2.25.57-1.25.18-3.25 1.5-2 1.31-2.69 1.18-.68-.12-.93-.44-.25-.31-.31-.93-.07-.63-.32-.81-.25-.19-1 .18-.75.38-1.5.38T15 16t-3.38-.75q-1.06.19-1.5.63-.43.43-.43.68t1.43 1.56q1.44 1.32 1.13 1.94-.31.63-.81 1.13t-.56 1.69q-.07 1.18.06 1.43.12.25.5.38.37.12 1.56-.31 1.19-.44 1.88-.44.68 0 1.43-.75t1.19-.81q.44-.07.62.18.19.25.13.69t-1.63 1.81q-1.56 1.38-2.06 2.25-.5.88-.44 1.25.07.38.32.56.25.19 1.75 0 1.5-.18 2-.5.5-.31 1.5-.56t1.43-.68q.44-.44 1-.57.57-.12.94-.5.38-.37 1.44-.37t2-1 1.5-1 1-.5 1.06-.5q.63 0 .75-.38.13-.37-.06-.87t0-.94.94-.87q.75-.44 3.81-3.13T39.31 14t1.75.25 1.94.37q.94.07 1.25-.18t.37-.63"/><path fill="#253229" stroke="#458b05" stroke-linejoin="round" stroke-width="2.4" d="m35.5 20.75 10.60881 6.125v12.25L35.5 45.25l-10.60881-6.125v-12.25Z"/><path fill="#458b05" d="M28.31595 26.38007h5.30496l.81996-1.10509.2643.21307q.2643.21306.62184.51671.35755.30366.64677.58281-.0636.2736-.42715.2736h-7.10348Zm-.21958 2.13057h5.8718l.78513-.93913.24582.18579q.2458.1858.59068.44738t.62248.51347q-.01804.1368-.13515.2052t-.27825.0684h-7.57531Zm1.75886-1.79182q.89604.2246 1.25359.55968t.33648.65929-.2815.5271-.62101.17793-.67516-.38825q.06663-.3933.00283-.79746t-.17638-.66297Zm7.39317.6521h3.61352v.48111H37.2484Zm0 1.30978h3.61352v.48342H37.2484Zm2.89882-1.30978h-.1272l.77314-.87816 1.65327 1.2872q-.04985.0684-.15856.14766-.10872.07925-.28362.11345v1.01164q0 .0513-.27634.1345-.27634.08318-.63154.15043t-.61994.06725h-.3292Zm-9.10855-2.46795 2.34905.21537q-.0159.14142-.11193.24633-.09604.1049-.35473.1539v1.04404h-1.8824Zm-1.07596 4.86059h3.98224v.4811H29.9627Zm.0275 1.32131h3.98224v.48342h-3.98223Zm0 1.31115h3.98224v.48341h-3.98223Zm3.23018-2.63246h-.159l.81225-.99094 1.81871 1.45127q-.0636.10029-.23484.20289-.17125.1026-.4235.15159v2.70403q0 .5024-.12656.84649-.12657.3441-.54493.54237t-1.30066.28146q-.0159-.3143-.03716-.541-.02127-.2267-.10506-.37136-.07434-.12988-.21656-.2415t-.51008-.1754v-.21443l.14974.0097q.14974.0097.33923.02056.1895.01086.30509.01086.14739 0 .19036-.06955t.04297-.19387Zm-4.07939 0v-.8167l1.99067.8167h-.20455v4.72096q0 .09568-.39388.31892t-1.07678.22324H29.141Zm7.13099-4.831 2.37441.21306q-.0159.1562-.12461.2759t-.39492.15621v2.14118q0 .0513-.23874.15044-.23873.09914-.58599.17262-.34725.07349-.7104.07349h-.31975Zm.95535 1.20716h2.99516l.87498-1.1097.27332.21422q.27332.21422.65364.51788.38033.30365.6833.58511-.04984.2736-.425.2736h-5.0554Zm-.15558 3.74029h2.97926l.67472-.77694.20391.15553q.20392.15552.49787.37714t.53547.45408q-.06145.2736-.4091.2736h-4.48213Zm-.05502 1.11287h2.97068l.66096-.77463.20285.15553q.20284.15552.49464.38453t.53333.44438q-.06146.2736-.40911.2736h-4.45335Zm.09628 1.15724h3.00073l.67471-.77694.20392.15553q.20392.15552.49894.37714t.53654.45409q-.0636.2736-.41125.2736H37.113Zm-4.44738-5.4313 2.14362.46033q-.0202.15159-.16222.26158-.14202.11-.41018.11-.30082.2907-.74562.6401t-.83888.6253h-.24192q.06487-.42288.14564-1.0304t.10956-1.06691m1.79884 7.20927 2.59964.21307q-.0159.16869-.11452.27984t-.39643.16245v1.15818h-2.08869Zm-6.33456 1.63561h12.0216l.99573-1.26684.30297.23756q.30298.23756.72564.58165.42266.3441.77118.65745-.06145.2736-.4409.2736H28.25926Zm3.77553 1.8061 2.00832-.70947v2.7171q0 .0342-.42934.17656-.42933.14236-1.2085.14236h-.37048Zm1.9406-1.8061h2.62118v.2736q-.92005.72282-2.24536 1.22287t-2.91383.80067-3.338.45589L27.9 38.08288q1.23504-.26804 2.34458-.65348t2.03258-.85983 1.5689-1.00587m-4.115 3.44857q.6635-.03651 1.81089-.13518 1.14738-.09866 2.6016-.2424 1.45421-.14372 3.01543-.30223l.03395.23153q-.95528.40441-2.40023.93015t-3.56911 1.21487q-.0636.171-.18544.2639-.12183.09289-.24688.12709Zm6.31714-3.44857q.4336.88459 1.15812 1.4639t1.65467.9222 2.00555.5171 2.21288.2463l.0116.20289q-.59823.1969-.97255.73884t-.5226 1.35033q-1.44602-.4081-2.56415-1.02715-1.11813-.61907-1.9045-1.64831-.78638-1.02925-1.25305-2.65195Zm3.87563.14134 1.8862 1.50214q-.06788.1197-.20089.16014-.133.04044-.399-.03257-.68545.21674-1.65452.3556-.96906.13885-1.86765.18134l-.15168-.20981q.43359-.24958.8921-.6006t.85451-.71174.64093-.6445M36.272 28.6807v-.76308l1.88151.76308h-.02663v4.05219H36.272Zm0 3.91539h1.85488v.2907q0 .3568.08745.41664t.49568.05985h2.31052q.17061 0 .30361-.0097t.22411-.06332q.107-.0707.27118-.3154.16416-.2447.36228-.7124h.14524l.05931 1.00053q.44178.15946.5821.24773t.14031.29673q0 .3166-.17426.50795t-.65945.27223-1.4259.08089H38.5037q-.76367 0-1.21276-.05639t-.66677-.2267-.28492-.53429-.06726-.96435Z"/></svg>
