<svg xmlns="http://www.w3.org/2000/svg" viewBox="0 0 54 54"><path fill="#479b0c" d="M10.5 23.5q-.5-1.5 2.7-1.8L19 21l-.7-2.3-2.1-.4v-1.5h1.9L18 15l-1.7-.4v-1.4l1.7.2V8q0-1.5 1.2-1 1.3.5 2 3l4 10.2 11.8.3 1.5-1.2-.2-4.3q0-1.5 1-1.2.9.2 1.2 2.2l.5 4.5 3 2.5-2 1 1 2-4.5-.3-1.9-1.2-9.8.2-2.8 1.1-.9 2.5-1.6.1v-2.1l-2.3-.1-.4-1.2-4.8.2q-3 .1-3.5-1.7"/><rect width="28.2" height="15.2" x="17.9" y="27.9" fill="#292c30" stroke="#458900" stroke-width="1.9" rx="5.7"/><path fill="#458900" d="M20.61942 32.59647h8.35813l.81903-.95458.14974.10291q.14974.10292.3832.27038.23347.16747.49404.35696.26057.1895.47203.3642-.022.08967-.11482.13527-.0928.0456-.2226.0456H20.71542Zm.7198 5.89534h7.18102l.78682-.9287.14894.10214q.14895.10215.3765.26391.22757.16177.47714.3505t.45943.35202q-.0472.18086-.33742.18086h-8.99643ZM20.4 40.13033h8.58486l.90229-1.11389.16505.12264q.16505.12263.42403.31552.25898.19288.53486.40703t.50775.40704q-.0456.1824-.34762.1824H20.496Zm8.47205-10.0222 1.30065 1.2846q-.22644.18611-.78777-.04405-.78582.10414-1.76236.19425t-2.04667.14758-2.16038.08148-2.11524-.00248l-.01657-.18177q.97078-.1063 2.02927-.26884 1.0585-.16254 2.091-.36343 1.0325-.2009 1.93009-.41966.8976-.21877 1.53798-.42767m-3.7639 1.24636h1.58071v8.85718h-1.58071Zm-2.25588 5.61433h6.15117v.32074h-6.15117Zm0-1.53592h6.15914v.32074h-6.15914Zm5.59239-1.49032h-.1164l.69784-.74105 1.45723 1.06766q-.0488.06686-.16487.13449-.11609.06763-.3017.10183v2.86106q-.0016.04252-.22119.14159t-.51973.17687-.56645.0778h-.26473Zm-6.57095 0v-.61195l1.6413.61195h5.27822v.32074h-5.36784v3.2755q0 .06225-.19758.17687-.1976.11463-.50203.20306-.30444.08844-.62658.08844h-.2255Zm14.03539.60664h5.6735l.59672-.82393.18594.16177q.18593.16176.43518.38315.24924.22139.44188.41889-.0472.18086-.31542.18086h-6.9234Zm-.50646 1.26785H41.484l.69018-.85659.21735.16177q.21736.16176.51333.39455t.53103.44015q-.0354.1824-.31542.1824h-7.62344Zm1.61724-2.61767h4.89252v.32074h-4.89252Zm.1327-1.197h4.80065v.32228h-4.80066Zm1.57666 4.59882 1.69771.14358q-.01339.12386-.10779.19226t-.295.1026v2.54187q0 .40703-.09313.68234t-.40282.42798q-.3097.15268-.95426.20814-.0118-.24066-.037-.42707-.02519-.18642-.10938-.30412-.06378-.09799-.19405-.1872-.13028-.0892-.40168-.13326V39.694l.15627.01217q.15626.01217.33692.0194t.25305.00724q.15116 0 .15116-.1377Zm-1.40107-.78415h1.70095v.1824q-.59 1.01432-1.70082 1.73545-1.11082.72114-2.57183 1.17868l-.08897-.1445q.93314-.54104 1.61465-1.32288t1.04602-1.62915m-.37307 1.3822q.70995.07393 1.0469.29206.33695.21814.38972.46849.05278.25034-.09139.44291t-.40075.23818q-.2566.0456-.53407-.16701.00224-.32906-.1545-.66274t-.3653-.54042Zm3.00782 1.46136q.90382-.03762 1.4844.10842.5806.14603.89536.39714.31477.25112.39911.52457.08434.27346-.01534.50055t-.34367.32014-.5859-.02158q-.18974-.3115-.51262-.6341-.32288-.32258-.69455-.61328t-.7094-.48296Zm-4.27997.80103q.2832-.07148.76428-.20119.48109-.1297 1.08687-.30654.60578-.17685 1.22416-.3617l.04178.12016q-.3071.28192-.79359.71651-.48648.4346-1.17277.98767-.04242.2317-.24686.31458Zm-2.05869-9.17513 1.82498.16177q-.0236.13372-.1274.2143-.10382.08056-.30442.11476-.0118 1.51221-.0177 2.80257-.0059 1.29037-.10301 2.37368-.09712 1.08332-.37586 1.97668t-.81263 1.62219-1.42945 1.31177l-.12597-.16576q.66717-.8396.98625-1.86207t.41235-2.28741q.09328-1.26495.08307-2.81566t-.0102-3.44682m1.07934 5.93296q.67773.16205 1.03828.39883t.48684.4959.06823.48744-.24033.3628-.42787.12771-.49946-.2194q-.00478-.285-.08832-.5689-.08355-.28393-.20057-.55074-.11703-.26682-.24937-.47202Zm.8473-4.0483 1.37558.8156q-.0354.0684-.1475.11894-.1121.05053-.2875.00493-.24621.25912-.67803.66028-.43182.40117-.84323.73701l-.12118-.0647q.13074-.33954.26898-.76644t.25798-.83901.1749-.66661m-2.75199.42613.14797-.00986q.32055.58755.47716 1.14339.15662.55583.11676 1.01924-.03985.46341-.33232.75736-.24685.24002-.50312.23324-.25626-.00678-.42211-.18519t-.14735-.45557.30936-.58775q.1652-.22339.28574-.75887t.06791-1.156m7.86777 4.48886 1.3826.64797q-.0252.07826-.1188.11585-.0936.0376-.31302.01326-.1416.11554-.37521.27251-.23361.15698-.47902.3189-.24541.1619-.43421.2987l-.1078-.1026q.08195-.22338.1671-.51517.08513-.29178.15847-.5737t.11989-.47572m-.20409-1.26449q.31701.31025.82282.5427t1.0958.3646 1.14938.15217l.00703.14358q-.35052.31185-.52147.66744t-.20795.7913q-.54758-.25759-1.01813-.66445-.47056-.40687-.84751-.88937t-.64292-.95977ZM36.62123 30.794v-.57096l1.51724.57096h3.8323v.32228h-3.91172v2.4522q0 .05238-.18738.15715t-.4655.18257-.57986.0778h-.20508Zm4.38377 0h-.1078l.64841-.66216 1.34337.9592q-.03859.05853-.13426.11553t-.25066.08134v2.12867q0 .04406-.21019.12417t-.49931.14467-.52483.06455H41.005Zm-3.4816 2.82658 1.70952.13372q-.0118.114-.107.1995t-.328.12802v1.8964H37.5234Zm2.3616.01294 1.70952.13372q-.0118.114-.1078.1995t-.32721.12802v1.8964H39.885Z"/></svg>
