<svg xmlns="http://www.w3.org/2000/svg" viewBox="0 0 1024 1024">
  <path d="M265.695 288.45c5.746-12.258 19.537-28.347 18.205-57.154-1.333-28.807-17.057-68.491-48.85-99.52-31.795-31.027-79.296-52.48-124.498-38.69S22.446 155.908 7.123 197.281c-15.323 41.372-3.066 75.081 9.96 93.852 13.025 18.771 26.815 22.602 41.753 37.923 14.939 15.322 31.029 42.138 40.223 69.72 9.194 27.58 11.492 55.927 19.154 80.06 7.661 24.135 20.685 44.054 16.472 57.461-4.213 13.408-25.664 20.303-36.391 34.86-10.727 14.557-10.727 36.773-6.513 55.161 4.214 18.389 12.64 32.944 24.9 42.138 12.259 9.195 28.347 13.025 38.69 12.258 10.343-.767 14.94-6.13 6.516 15.698-8.425 21.827-29.883 70.875-42.908 108.033-13.025 37.158-17.621 62.44-9.576 83.893 8.045 21.453 28.73 39.073 54.012 44.82 25.284 5.745 55.163-.384 81.21-23.368 26.049-22.984 48.268-62.825 54.014-100.748 5.745-37.922-4.981-73.932-11.876-96.533-6.896-22.601-9.96-31.795 66.647-27.199 76.607 4.597 232.914 22.986 315.274 28.348 82.36 5.362 90.788-2.3 90.788 16.85 0 19.149-8.43 65.126-5.365 98.837 3.065 33.711 17.621 55.162 37.541 73.167 19.92 18.005 45.203 32.561 71.252 32.56 26.049 0 52.864-14.557 65.121-39.455 12.258-24.899 9.96-60.144 2.681-90.788-7.278-30.645-19.537-56.695-29.88-74.699-10.342-18.003-18.77-27.964-3.064-27.963 15.707 0 55.546 9.96 84.66 9.193 29.113-.767 47.5-12.259 39.84-36.39-7.66-24.131-41.374-60.91-59.395-73.856-18.02-12.947-20.285-2.378-34.461-32.646-14.176-30.267-40.22-101.507-77.761-158.583-37.54-57.077-86.574-99.981-139.437-126.413-52.863-26.432-109.557-36.391-166.635-36.391-57.077 0-114.537 9.959-153.993 28.346-39.457 18.387-60.908 45.201-78.913 53.63-18.006 8.427-32.561-1.532-40.989-10.726-8.428-9.194-10.726-17.622-4.98-29.88zM5539.287 304.534l-441.448 254.87v509.739l441.448 254.87 441.446-254.87V559.404zm-228.427 249.64c21.774.193 42.935 11.5 58.202 26.399 19.542 19.07 29.207 43.463 30.026 61.169.818 17.706-7.658 27.594-11.19 35.129-3.533 7.534-2.12 12.715 3.06 18.366s14.127 11.773 25.193 6.593c11.067-5.18 24.252-21.662 48.503-32.963 24.252-11.301 59.569-17.423 94.651-17.423 35.082 0 69.928 6.122 102.42 22.368 32.492 16.246 62.63 42.617 85.703 77.698 23.074 35.082 39.082 78.867 47.795 97.471 8.713 18.604 10.105 12.109 21.181 20.066 11.076 7.958 31.799 30.562 36.507 45.394 4.709 14.832-6.594 21.895-24.488 22.366-17.894.472-42.38-5.65-52.034-5.65-9.654 0-4.474 6.122 1.883 17.188 6.357 11.066 13.891 27.076 18.365 45.912 4.473 18.835 5.887 40.499-1.647 55.802-7.534 15.304-24.017 24.25-40.028 24.251-16.01 0-31.549-8.947-43.793-20.013-12.243-11.066-21.19-24.25-23.074-44.97-1.884-20.72 3.297-48.98 3.297-60.75 0-11.77-5.18-7.06-55.802-10.356-50.622-3.296-146.694-14.6-193.78-17.425-47.085-2.825-45.201 2.827-40.963 16.718 4.238 13.892 10.831 36.025 7.3 59.334-3.532 23.308-17.19 47.796-33.2 61.923-16.009 14.127-34.374 17.893-49.914 14.362-15.54-3.532-28.254-14.362-33.199-27.548-4.944-13.186-2.12-28.724 5.886-51.563 8.006-22.839 21.194-52.986 26.373-66.402 5.178-13.416 2.352-10.12-4.005-9.648-6.357.471-16.245-1.883-23.78-7.534s-12.714-14.597-15.304-25.9c-2.59-11.301-2.59-24.957 4.003-33.905 6.593-8.947 19.777-13.185 22.366-21.426 2.59-8.24-5.414-20.484-10.123-35.317-4.71-14.834-6.123-32.257-11.774-49.209-5.65-16.952-15.54-33.434-24.721-42.851-9.182-9.417-17.659-11.772-25.665-23.31-8.006-11.537-15.539-32.256-6.12-57.685 9.418-25.43 35.788-55.566 63.571-64.042 6.078-1.854 12.222-2.672 18.319-2.618z" fill="currentColor" fill-rule="evenodd"/>
</svg>
