<?xml version="1.0" encoding="UTF-8" standalone="no"?>
<!-- Generator: Adobe Illustrator 19.0.0, SVG Export Plug-In . SVG Version: 6.00 Build 0)  -->

<svg
   xmlns:dc="http://purl.org/dc/elements/1.1/"
   xmlns:cc="http://creativecommons.org/ns#"
   xmlns:rdf="http://www.w3.org/1999/02/22-rdf-syntax-ns#"
   xmlns:svg="http://www.w3.org/2000/svg"
   xmlns="http://www.w3.org/2000/svg"
   xmlns:sodipodi="http://sodipodi.sourceforge.net/DTD/sodipodi-0.dtd"
   xmlns:inkscape="http://www.inkscape.org/namespaces/inkscape"
   version="1.1"
   x="0px"
   y="0px"
   viewBox="0 0 1024 1024"
   style="enable-background:new 0 0 1024 1024;"
   xml:space="preserve"
   id="svg2"
   sodipodi:docname="-1.svg"
   inkscape:version="0.92.0 r15299"><metadata
     id="metadata8"><rdf:RDF><cc:Work
         rdf:about=""><dc:format>image/svg+xml</dc:format><dc:type
           rdf:resource="http://purl.org/dc/dcmitype/StillImage" /></cc:Work></rdf:RDF></metadata><defs
     id="defs6"><inkscape:path-effect
       effect="bspline"
       id="path-effect4498"
       is_visible="true"
       weight="33.333333"
       steps="2"
       helper_size="0"
       apply_no_weight="true"
       apply_with_weight="true"
       only_selected="false" /><inkscape:path-effect
       effect="bspline"
       id="path-effect4498-3"
       is_visible="true"
       weight="33.333333"
       steps="2"
       helper_size="0"
       apply_no_weight="true"
       apply_with_weight="true"
       only_selected="false" /></defs><sodipodi:namedview
     pagecolor="#ffffff"
     bordercolor="#666666"
     borderopacity="1"
     objecttolerance="10"
     gridtolerance="10"
     guidetolerance="10"
     inkscape:pageopacity="0"
     inkscape:pageshadow="2"
     inkscape:window-width="1920"
     inkscape:window-height="1016"
     id="namedview4"
     showgrid="false"
     inkscape:zoom="2.0114232"
     inkscape:cx="46.671149"
     inkscape:cy="888.70412"
     inkscape:window-x="0"
     inkscape:window-y="0"
     inkscape:window-maximized="1"
     inkscape:current-layer="svg2" /><path
     style="fill:#cccccc;fill-opacity:1;fill-rule:evenodd;stroke:none;stroke-width:1.49825406px;stroke-linecap:butt;stroke-linejoin:miter;stroke-opacity:1"
     d="m 265.69458,288.45064 c 5.74685,-12.25852 19.53733,-28.34738 18.20495,-57.15433 -1.33238,-28.80694 -17.05657,-68.49176 -48.85038,-99.51963 C 203.25535,100.74881 155.75382,79.296523 110.55173,93.086424 65.349647,106.87632 22.446491,155.90845 7.1230787,197.28078 c -15.323412,41.37232 -3.0655844,75.08139 9.9596293,93.85242 13.025214,18.77102 26.815209,22.60156 41.753736,37.92299 14.938527,15.32143 31.028591,42.13825 40.222349,69.71899 9.193757,27.58074 11.492177,55.92739 19.153797,80.06171 7.66163,24.13433 20.68534,44.05299 16.47242,57.46036 -4.21291,13.40737 -25.66444,20.30251 -36.391267,34.85962 -10.726824,14.5571 -10.726824,36.77325 -6.512912,55.16155 4.213912,18.38831 12.640899,32.94398 24.900029,42.13806 12.25913,9.19408 28.34755,13.02467 38.69039,12.25778 10.34284,-0.76688 14.93997,-6.13018 6.51537,15.69732 -8.42461,21.8275 -29.88296,70.87502 -42.90763,108.03323 -13.02468,37.15821 -17.62129,62.43983 -9.57625,83.89319 8.04505,21.45336 28.72944,39.07343 54.01269,44.81924 25.28325,5.74581 55.16275,-0.38331 81.21051,-23.36704 26.04776,-22.98372 48.26705,-62.82523 54.01267,-100.74786 5.74562,-37.92264 -4.9808,-73.93275 -11.87602,-96.53368 -6.89522,-22.60093 -9.95985,-31.7948 66.64718,-27.19834 76.60704,4.59646 232.91453,22.98558 315.27446,28.34775 82.35993,5.36217 90.78748,-2.29922 90.78764,16.84981 1.6e-4,19.14903 -8.42895,65.12591 -5.36439,98.83708 3.06457,33.71118 17.62071,55.1623 37.54084,73.16694 19.92014,18.00464 45.20236,32.56106 71.25145,32.56056 26.04908,-5e-4 52.86433,-14.55735 65.12171,-39.45591 12.25738,-24.89856 9.95881,-60.14326 2.68064,-90.78791 -7.27818,-30.64465 -19.53688,-56.69439 -29.87952,-74.69825 -10.34265,-18.00386 -18.77038,-27.96393 -3.06421,-27.96378 15.70616,1.4e-4 55.5459,9.96008 84.65924,9.19342 29.11337,-0.76666 47.50107,-12.25898 39.84047,-36.39009 -7.6606,-24.1311 -41.37398,-60.90931 -59.39482,-73.85601 -18.02085,-12.94669 -20.28563,-2.37771 -34.46164,-32.64551 C 914.22562,538.20061 888.18114,466.96133 850.64087,409.88474 813.1006,352.80814 764.06711,309.90381 711.20408,283.47211 658.34106,257.04042 601.64692,247.08064 544.56923,247.0805 c -57.07769,-1.4e-4 -114.53681,9.95944 -153.99343,28.34645 -39.45661,18.38701 -60.90787,45.20114 -78.9131,53.62925 -18.00524,8.42811 -32.56093,-1.53105 -40.98874,-10.72537 -8.42782,-9.19432 -10.72623,-17.62167 -4.97938,-29.88019 z"
     id="path4496"
     inkscape:connector-curvature="0"
     inkscape:path-effect="#path-effect4498"
     inkscape:original-d="m 257.64955,292.28262 c 13.79205,-16.09035 27.58239,-32.17934 41.37153,-48.2667 C 282.16926,202.64702 266.84482,162.80381 250.75432,122.19994 203.25619,100.74696 155.75464,79.294702 108.25263,57.844392 65.349688,106.87636 22.446636,155.90858 -20.458606,204.9428 c 12.2600305,33.70966 24.517872,67.41873 36.774619,101.13035 13.792412,3.82926 27.582392,7.65985 41.371521,11.49204 16.089162,26.8114 32.179296,53.62817 48.266636,80.44451 2.30003,28.34609 4.59836,56.69274 6.89536,85.04136 13.02635,19.91907 26.05013,39.83769 39.07295,59.75878 -21.45067,6.89389 -42.90221,13.789 -64.355561,20.68575 0,22.21838 0,44.43453 0,66.65401 8.429561,14.55612 16.856581,29.11178 25.282611,43.66989 16.09087,3.82934 32.1793,7.65989 48.26664,11.49209 4.598,-5.36413 9.19513,-10.72743 13.79058,-16.08891 -21.44411,49.01669 -42.90244,98.06421 -64.3558,147.09857 -4.59544,25.282 -9.1921,50.56361 -13.790346,75.84767 20.688516,17.62089 41.372996,35.24086 62.057106,52.86356 29.88073,-6.13057 59.76023,-12.25971 89.63828,-18.38732 22.2182,-39.8384 44.4375,-79.6799 66.654,-119.51757 -10.724,-36.0084 -21.45043,-72.01851 -32.17783,-108.02551 -3.06306,-9.19492 -6.12758,-18.38882 -9.19369,-27.58097 156.27854,18.38401 312.58603,36.77313 468.8766,55.16194 8.42907,-7.66282 16.85657,-15.32427 25.28261,-22.98415 -8.42433,45.95826 -16.85354,91.93512 -25.28261,137.9049 14.55872,21.45117 29.1149,42.90226 43.66997,64.35563 25.28443,14.55536 50.56667,29.11175 75.84769,43.66987 26.81584,-14.55785 53.63106,-29.11475 80.44448,-43.66987 -2.29665,-35.24154 -4.59533,-70.48623 -6.89524,-105.7271 -12.25626,-26.04916 -24.51496,-52.0989 -36.77462,-78.14611 -8.42578,-9.96105 -16.85353,-19.9211 -25.28248,-29.87937 39.84012,9.95815 79.67986,19.91809 119.51754,29.87937 18.38829,-11.49326 36.77599,-22.98564 55.16199,-34.47621 -33.7053,-36.77264 -67.41873,-73.55079 -101.13029,-110.32392 -3.06318,10.72441 -4.59545,21.45036 -6.89524,32.1778 C 914.2274,538.19996 888.18298,466.96066 862.13273,395.71129 813.10197,352.80657 764.06842,309.90231 715.03426,267.00003 658.34135,257.03874 601.64722,247.07895 544.95152,237.12064 c -57.4602,9.95846 -114.91931,19.9181 -172.38122,29.87939 -21.4509,26.8141 -42.90218,53.62821 -64.35553,80.44455 -14.55618,-9.96191 -29.11186,-19.92109 -43.66986,-29.87939 -2.29699,-8.42916 -4.59532,-16.85654 -6.89536,-25.28257 z" /><path
     style="fill:#cccccc;fill-opacity:1;fill-rule:evenodd;stroke:none;stroke-width:0.92088544px;stroke-linecap:butt;stroke-linejoin:miter;stroke-opacity:1"
     d="m 5539.2868,304.53413 -441.448,254.86998 V 1069.143 l 441.448,254.8699 441.4467,-254.8699 V 559.40411 Z m -228.427,249.64059 c 21.7746,0.19217 42.9351,11.49891 58.2021,26.39814 19.5418,19.07101 29.2066,43.46319 30.0256,61.169 0.8189,17.70582 -7.658,27.59434 -11.1901,35.12879 -3.5322,7.53467 -2.1197,12.71493 3.0603,18.36618 5.1801,5.65115 14.1269,11.77306 25.1936,6.5928 11.0667,-5.18037 24.2514,-21.66113 48.503,-32.96253 24.2516,-11.30139 59.5687,-17.42342 94.651,-17.4233 35.0821,0 69.9281,6.12202 102.4198,22.36795 32.4917,16.24594 62.6295,42.61678 85.7032,77.69823 23.0738,35.08158 39.0816,78.86746 47.7948,97.47122 8.7131,18.60379 10.1048,12.10831 21.181,20.06586 11.0763,7.95751 31.7985,30.56193 36.5071,45.39383 4.7086,14.8319 -6.594,21.89537 -24.4882,22.36655 -17.8943,0.47125 -42.3804,-5.64993 -52.0341,-5.64999 -9.6534,-7e-5 -4.4741,6.12144 1.883,17.18732 6.357,11.06585 13.8913,27.07654 18.3647,45.91195 4.4735,18.83538 5.887,40.49888 -1.6468,55.80248 -7.5339,15.3036 -24.0165,24.2505 -40.0273,24.2508 -16.0109,3e-4 -31.5493,-8.9466 -43.793,-20.0129 -12.2437,-11.0664 -21.1912,-24.2504 -23.0748,-44.9706 -1.8835,-20.7202 3.2978,-48.98004 3.2978,-60.74976 -1e-4,-11.76978 -5.1809,-7.05999 -55.8024,-10.35576 -50.6217,-3.2959 -146.6942,-14.59957 -193.7799,-17.42471 -47.0856,-2.82514 -45.2013,2.82646 -40.9633,16.71794 4.2382,13.89142 10.8311,36.02474 7.2995,59.33351 -3.5315,23.30868 -17.1887,47.79648 -33.1986,61.92318 -16.0098,14.1266 -34.3749,17.8933 -49.915,14.3616 -15.5401,-3.5316 -28.2537,-14.3611 -33.1985,-27.5471 -4.9447,-13.1861 -2.1195,-28.7245 5.886,-51.56336 8.0054,-22.83884 21.1942,-52.98633 26.3724,-66.40241 5.178,-13.41607 2.3526,-10.11898 -4.0045,-9.64766 -6.357,0.47138 -16.2451,-1.88319 -23.78,-7.53424 -7.535,-5.65103 -12.7144,-14.59686 -15.3045,-25.89901 -2.59,-11.30214 -2.59,-24.9579 4.0031,-33.90525 6.5931,-8.94743 19.7772,-13.18576 22.3666,-21.42649 2.5894,-8.24066 -5.4146,-20.48349 -10.1238,-35.31741 -4.7091,-14.83392 -6.1226,-32.25613 -11.7734,-49.20833 -5.6508,-16.9522 -15.5396,-33.43453 -24.7214,-42.85161 -9.1819,-9.41709 -17.6586,-11.77194 -25.6644,-23.30939 -8.0059,-11.53733 -15.5391,-32.25626 -6.1207,-57.68534 9.4183,-25.42908 35.7885,-55.56621 63.5713,-64.04208 6.0776,-1.85401 12.2218,-2.67201 18.3188,-2.6181 z"
     id="path4496-6"
     inkscape:connector-curvature="0" /></svg>