<?xml version="1.0" encoding="utf-8"?>
<!-- Generator: Adobe Illustrator 19.0.0, SVG Export Plug-In . SVG Version: 6.00 Build 0)  -->
<svg version="1.1" xmlns="http://www.w3.org/2000/svg" xmlns:xlink="http://www.w3.org/1999/xlink" x="0px" y="0px"
	 viewBox="0 0 1024 1024" style="enable-background:new 0 0 1024 1024;" xml:space="preserve">
<style type="text/css">
	.st0{display:none;}
	.st1{display:inline;}
	.st2{fill:#FFD02C;}
	.st3{display:inline;fill:none;}
	.st4{display:inline;fill:none;stroke:#FFD02C;stroke-width:2;stroke-miterlimit:10;}
	.st5{fill:#91D39B;}
</style>
<g id="Layer_1" class="st0">
	<g id="XMLID_1_" class="st1">
		<g id="XMLID_81_">
			<path id="XMLID_82_" class="st2" d="M512,2c68.9,0,135.6,13.5,198.5,40.1c60.7,25.7,115.3,62.5,162.1,109.3
				s83.6,101.4,109.3,162.1c26.6,62.9,40.1,129.7,40.1,198.5s-13.5,135.6-40.1,198.5c-25.7,60.7-62.5,115.3-109.3,162.1
				s-101.4,83.6-162.1,109.3c-62.9,26.6-129.7,40.1-198.5,40.1s-135.6-13.5-198.5-40.1c-60.7-25.7-115.3-62.5-162.1-109.3
				S67.8,771.2,42.1,710.5C15.5,647.6,2,580.9,2,512s13.5-135.6,40.1-198.5c25.7-60.7,62.5-115.3,109.3-162.1S252.8,67.8,313.5,42.1
				C376.4,15.5,443.1,2,512,2 M512,0C229.2,0,0,229.2,0,512s229.2,512,512,512s512-229.2,512-512S794.8,0,512,0L512,0z"/>
		</g>
	</g>
	<circle id="XMLID_5_" class="st3" cx="32" cy="32" r="32"/>
	<rect id="XMLID_22_" x="160.5" y="160" class="st4" width="704" height="704"/>
	<circle id="XMLID_24_" class="st4" cx="512.5" cy="512" r="352"/>
	<rect id="XMLID_33_" x="288" y="288" class="st4" width="448" height="449.6"/>
	<circle id="XMLID_34_" class="st4" cx="512" cy="513.6" r="224"/>
	<rect id="XMLID_35_" x="352" y="352" class="st4" width="318.3" height="318.3"/>
	<circle id="XMLID_36_" class="st4" cx="511.2" cy="511.2" r="159.2"/>
</g>
<g id="Layer_2">
	<g id="XMLID_37_">
		<path id="XMLID_42_" class="st5" d="M1004.3,796.7c-18.4-33.9-111-144.8-189.6-236.6c85-92,42.2-102.9,42.2-102.9
			s-10-40.9-97.1,39.2c-36.2-41.7-61.5-70.5-61.5-70.5s40-50.5,80.9-94.1c20.4-20.2,12.4-44,2.3-60.1c0,0,0.1-0.1,0.1-0.1
			c18.2-18.3,25.2-40.7,15.8-50.1c-9.4-9.4-31.7-2.2-49.9,16c-15.7-9.7-38.8-17-59.7,3.6c-43.1,39.7-94.4,80.6-94.4,80.6
			s-31.3-27.2-75.9-65.2c81-88.9,39.2-99.6,39.2-99.6s-10.5-42.8-103.5,45.1C363.6,126.6,258.1,40.2,225,22.5
			C163.8-10.2,119.5,9.2,164.4,96c26.1,50.3,111.5,143.5,179.9,220.1C249.5,420.6,153,538.7,165.4,551
			c12.2,12.2,127.3-82.2,230.3-176.3c23.7,28,39.8,49.4,41.3,58.9c3.2,19.4-104.6,165.9-197,291C176,707.9,45.6,662.3,33.1,664
			c-17.6,2.4-59,26.4,11.5,109.8C76.1,811,212,946.6,249.4,977.8c83.9,70,107.6,28.4,109.8,10.8c1.6-12.2-61-197.6-65-209.5
			c125-92.8,271.5-201.3,291-198.2c9.1,1.4,29.6,16.4,56.5,38.7c-93.8,103.7-188.3,219.5-176,231.7C478,863.5,596.5,766,700.7,670.5
			c77.9,68.6,173.8,155.7,225,181.7C1012.8,896.6,1037.4,857.6,1004.3,796.7z"/>
		<path id="XMLID_57_" class="st5" d="M635.9,116.2c6.3,18.1,134.4,97.8,159.8,103.8c0.3,0.3,0.5,0.7,0.9,1l6.9-21.1
			c-17-29.2-100-137.8-118.4-139.8C659.7,57.4,628.1,93.7,635.9,116.2z"/>
		<path id="XMLID_60_" class="st5" d="M899.4,380.6c22.6,7.7,58.7-24.1,55.8-49.5c-2.1-18.4-111.3-100.7-140.6-117.5l-21.1,7
			c0.3,0.3,0.7,0.6,1,0.9C800.7,246.8,881.2,374.4,899.4,380.6z"/>
	</g>
</g>
</svg>
