<?xml version="1.0" encoding="utf-8"?>
<!-- Generator: Adobe Illustrator 19.0.0, SVG Export Plug-In . SVG Version: 6.00 Build 0)  -->
<svg version="1.1" xmlns="http://www.w3.org/2000/svg" xmlns:xlink="http://www.w3.org/1999/xlink" x="0px" y="0px"
	 viewBox="0 0 1024 1024" style="enable-background:new 0 0 1024 1024;" xml:space="preserve">
<style type="text/css">
	.st0{display:none;}
	.st1{display:inline;}
	.st2{fill:#FFD02C;}
	.st3{display:inline;fill:none;}
	.st4{display:inline;fill:none;stroke:#FFD02C;stroke-width:2;stroke-miterlimit:10;}
	.st5{fill:#ABEFCC;}
</style>
<g id="Layer_1" class="st0">
	<g id="XMLID_1_" class="st1">
		<g id="XMLID_81_">
			<path id="XMLID_82_" class="st2" d="M512,2c68.9,0,135.6,13.5,198.5,40.1c60.7,25.7,115.3,62.5,162.1,109.3
				s83.6,101.4,109.3,162.1c26.6,62.9,40.1,129.7,40.1,198.5s-13.5,135.6-40.1,198.5c-25.7,60.7-62.5,115.3-109.3,162.1
				s-101.4,83.6-162.1,109.3c-62.9,26.6-129.7,40.1-198.5,40.1s-135.6-13.5-198.5-40.1c-60.7-25.7-115.3-62.5-162.1-109.3
				S67.8,771.2,42.1,710.5C15.5,647.6,2,580.9,2,512s13.5-135.6,40.1-198.5c25.7-60.7,62.5-115.3,109.3-162.1S252.8,67.8,313.5,42.1
				C376.4,15.5,443.1,2,512,2 M512,0C229.2,0,0,229.2,0,512s229.2,512,512,512s512-229.2,512-512S794.8,0,512,0L512,0z"/>
		</g>
	</g>
	<circle id="XMLID_5_" class="st3" cx="32" cy="32" r="32"/>
	<rect id="XMLID_22_" x="160.5" y="160" class="st4" width="704" height="704"/>
	<circle id="XMLID_24_" class="st4" cx="512.5" cy="512" r="352"/>
	<rect id="XMLID_33_" x="288" y="288" class="st4" width="448" height="449.6"/>
	<circle id="XMLID_34_" class="st4" cx="512" cy="513.6" r="224"/>
	<rect id="XMLID_35_" x="352" y="352" class="st4" width="318.3" height="318.3"/>
	<circle id="XMLID_36_" class="st4" cx="511.2" cy="511.2" r="159.2"/>
</g>
<g id="Layer_2">
	<g id="XMLID_39_">
		<path id="XMLID_40_" class="st5" d="M305.7,648.5c2.9-3.4,5.7-6.8,8.4-10.1c-48.2-12.5-133.8-34.2-143.3-32.9
			c-13.3,1.8-44.5,19.9,8.7,82.7c23.7,28.1,40.9,43.4,52.7,51.7C245.1,721.8,267.9,693.7,305.7,648.5z"/>
		<path id="XMLID_57_" class="st5" d="M372.7,715.6c-44.9,38.1-72.9,61-91,74.1c8.4,11.7,23.8,28.9,52.1,52.4
			c63.2,52.7,81.1,21.4,82.8,8.1c1.2-9.5-21-95-33.9-143.1C379.5,709.9,376.2,712.7,372.7,715.6z"/>
		<path id="XMLID_61_" class="st5" d="M902.8,705.6c-13.9-25.6-83.7-109.1-142.9-178.3c64.1-69.3,31.8-77.5,31.8-77.5
			s-7.6-30.8-73.2,29.5c-27.3-31.4-46.3-53.1-46.3-53.1s30.1-38,61-70.9c15.4-15.2,9.3-33.2,1.7-45.3c0,0,0.1-0.1,0.1-0.1
			c13.7-13.8,19-30.7,11.9-37.7c-7.1-7.1-23.9-1.6-37.6,12.1c-11.8-7.3-29.3-12.8-45,2.7c-32.5,29.9-71.2,60.8-71.2,60.8
			s-23.6-20.5-57.2-49.1c61-67,29.5-75,29.5-75s-7.9-32.3-78,34c-67.6-56.8-147-122-172-135.3c-46.1-24.6-79.5-10-45.7,55.4
			c19.6,37.9,84.1,108.2,135.6,165.9c-71.4,78.7-144.2,167.7-134.8,177c9.2,9.2,95.9-61.9,173.5-132.8c17.9,21.1,30,37.3,31.1,44.4
			c4.3,25.9-98.5,163.1-132.2,207.5c0,0,16.3-18.8,36.9,1.7s2.9,37.9,2.9,37.9c44.4-34.4,178.3-140.2,204.1-136.1
			c6.9,1.1,22.3,12.4,42.6,29.2c-70.7,78.1-141.9,165.4-132.7,174.6c9.4,9.3,98.7-64.2,177.2-136.2c58.7,51.7,131,117.3,169.5,137
			C909.1,780.9,927.7,751.5,902.8,705.6z"/>
		<path id="XMLID_64_" class="st5" d="M360.4,660.6c-13.4-13.3-35.6,3-35.6,3s-100.7,119.7-93.5,126.8
			c7.2,7.1,125.6-94.4,125.6-94.4S373.8,673.9,360.4,660.6z"/>
		<path id="XMLID_65_" class="st5" d="M718.3,243.8c0.2,0.3,0.4,0.5,0.6,0.8l5.2-15.9c-12.8-22-75.4-103.9-89.2-105.4
			c-19.1-2.1-42.9,25.3-37,42.3C602.7,179.2,699.3,239.2,718.3,243.8z"/>
		<path id="XMLID_66_" class="st5" d="M847.7,410.6c17,5.8,44.2-18.2,42-37.3c-1.6-13.8-83.9-75.9-106-88.5l-15.9,5.3
			c0.2,0.2,0.5,0.4,0.8,0.6C773.3,309.8,834,406,847.7,410.6z"/>
	</g>
</g>
</svg>
