<?xml version="1.0" encoding="utf-8"?>
<!-- Generator: Adobe Illustrator 19.0.0, SVG Export Plug-In . SVG Version: 6.00 Build 0)  -->
<svg version="1.1" xmlns="http://www.w3.org/2000/svg" xmlns:xlink="http://www.w3.org/1999/xlink" x="0px" y="0px"
	 viewBox="0 0 1024 1024" style="enable-background:new 0 0 1024 1024;" xml:space="preserve">
<style type="text/css">
	.st0{display:none;}
	.st1{fill:#DD9223;}
</style>
<g id="Layer_1" class="st0">
</g>
<g id="Layer_2">
	<g id="XMLID_1_">
		<path id="XMLID_36_" class="st1" d="M512,65C247.2,65,32.5,279.7,32.5,544.5S247.2,1024,512,1024s479.5-214.7,479.5-479.5
			S776.8,65,512,65z M108.3,665 M891.3,725.9C823.5,867.3,678.9,965,511.6,965s-312-97.7-379.8-239.1L108.3,665
			c-12-39.2-17.6-77.8-17.6-120.9c0-232.5,188.5-420.9,420.9-420.9s420.9,188.5,420.9,420.9c0,42-6.2,82.6-17.6,120.9L891.3,725.9z
			 M722.4,545l-30,60l-180-480l-120,330l-60-120l-81.6,210H62v60h225.3l48-111.7L392.5,605l120-300l162.2,440.6L752.4,605h197.8
			l0-60H722.4z M131.9,725.9"/>
		<polygon id="XMLID_5_" class="st1" points="347.9,859.8 272.9,859.5 272.9,785.9 347.9,785.9 		"/>
		<polygon id="XMLID_34_" class="st1" points="482.9,859.8 407.9,859.5 407.9,785.9 482.9,785.9 		"/>
		<polygon id="XMLID_38_" class="st1" points="618.4,859.8 543.4,859.5 543.4,785.9 618.4,785.9 		"/>
		<polygon id="XMLID_39_" class="st1" points="752.9,859.8 677.9,859.5 677.9,785.9 752.9,785.9 		"/>
	</g>
</g>
</svg>
