<?xml version="1.0" encoding="utf-8"?>
<!-- Generator: Adobe Illustrator 19.0.0, SVG Export Plug-In . SVG Version: 6.00 Build 0)  -->
<svg version="1.1" xmlns="http://www.w3.org/2000/svg" xmlns:xlink="http://www.w3.org/1999/xlink" x="0px" y="0px"
	 viewBox="0 0 1024 1024" style="enable-background:new 0 0 1024 1024;" xml:space="preserve">
<style type="text/css">
	.st0{display:none;}
	.st1{display:inline;}
	.st2{fill:#FFD02C;}
	.st3{display:inline;fill:none;}
	.st4{display:inline;fill:none;stroke:#FFD02C;stroke-width:2;stroke-miterlimit:10;}
	.st5{fill:#33FF94;}
</style>
<g id="Layer_1" class="st0">
	<g id="XMLID_1_" class="st1">
		<g id="XMLID_81_">
			<path id="XMLID_82_" class="st2" d="M512,2c68.9,0,135.6,13.5,198.5,40.1c60.7,25.7,115.3,62.5,162.1,109.3
				s83.6,101.4,109.3,162.1c26.6,62.9,40.1,129.7,40.1,198.5s-13.5,135.6-40.1,198.5c-25.7,60.7-62.5,115.3-109.3,162.1
				s-101.4,83.6-162.1,109.3c-62.9,26.6-129.7,40.1-198.5,40.1s-135.6-13.5-198.5-40.1c-60.7-25.7-115.3-62.5-162.1-109.3
				S67.8,771.2,42.1,710.5C15.5,647.6,2,580.9,2,512s13.5-135.6,40.1-198.5c25.7-60.7,62.5-115.3,109.3-162.1S252.8,67.8,313.5,42.1
				C376.4,15.5,443.1,2,512,2 M512,0C229.2,0,0,229.2,0,512s229.2,512,512,512s512-229.2,512-512S794.8,0,512,0L512,0z"/>
		</g>
	</g>
	<circle id="XMLID_5_" class="st3" cx="32" cy="32" r="32"/>
	<rect id="XMLID_22_" x="160.5" y="160" class="st4" width="704" height="704"/>
	<circle id="XMLID_24_" class="st4" cx="512.5" cy="512" r="352"/>
	<rect id="XMLID_33_" x="288" y="288" class="st4" width="448" height="449.6"/>
	<circle id="XMLID_34_" class="st4" cx="512" cy="513.6" r="224"/>
	<rect id="XMLID_35_" x="352" y="352" class="st4" width="318.3" height="318.3"/>
	<circle id="XMLID_36_" class="st4" cx="511.2" cy="511.2" r="159.2"/>
</g>
<g id="Layer_3">
	<g id="XMLID_38_">
		<path id="XMLID_40_" class="st5" d="M896.4,702.4c-2.3-2.5-5.3-4.3-8.9-5.4l1.3-1.2l-95.4-102.5c5,16.9-25.9,62.3-73.4,106.5
			c-51.4,47.9-102.9,76.2-115,63.3l-1.1,1l98.1,105.4l1.3-1.2c0.9,3.6,2.4,6.7,4.8,9.2c18.1,19.4,74.8-4.1,126.8-52.4
			C887,776.8,914.5,721.8,896.4,702.4z"/>
		<path id="XMLID_64_" class="st5" d="M617.9,400.2L443.5,212.8c-84.3-90.6-246.7-76.4-246.7-76.4s-25.7,161,58.5,251.5l174.4,187.4
			c12,12.9,63.9-15.8,115.9-64.1C597.6,462.8,629.9,413.1,617.9,400.2z M327.2,277.3c-12.9,12-33.2,11.3-45.2-1.6
			c-12-12.9-11.3-33.2,1.6-45.2s33.2-11.3,45.2,1.6C340.9,245,340.2,265.2,327.2,277.3z M391,392.8c-12.9,12-33.2,11.3-45.2-1.6
			c-12-12.9-11.3-33.2,1.6-45.2s33.2-11.3,45.2,1.6C404.7,360.5,404,380.7,391,392.8z M503.3,419.4c-12.9,12-33.2,11.3-45.2-1.6
			c-12-12.9-11.3-33.2,1.6-45.2s33.2-11.3,45.2,1.6C516.9,387.1,516.2,407.4,503.3,419.4z"/>
		<path id="XMLID_69_" class="st5" d="M771.2,564.9L643.8,428c5,16.9-26.3,62.7-74.3,107.4c-52,48.3-103.8,77.1-115.9,64.1l-0.7,0.7
			L583,740c12,12.9,63.9-15.8,115.9-64.1C750.8,627.5,783.2,577.9,771.2,564.9z"/>
		<circle id="XMLID_70_" class="st5" cx="294.1" cy="570.4" r="32"/>
		<circle id="XMLID_71_" class="st5" cx="580" cy="173.1" r="32"/>
		<circle id="XMLID_72_" class="st5" cx="446" cy="123" r="32"/>
	</g>
</g>
</svg>
