<?xml version="1.0" encoding="utf-8"?>
<!-- Generator: Adobe Illustrator 19.0.0, SVG Export Plug-In . SVG Version: 6.00 Build 0)  -->
<svg version="1.1" xmlns="http://www.w3.org/2000/svg" xmlns:xlink="http://www.w3.org/1999/xlink" x="0px" y="0px"
	 viewBox="0 0 1024 1024" style="enable-background:new 0 0 1024 1024;" xml:space="preserve">
<style type="text/css">
	.st0{display:none;}
	.st1{display:inline;}
	.st2{fill:#FFD02C;}
	.st3{display:inline;fill:none;}
	.st4{display:inline;fill:none;stroke:#FFD02C;stroke-width:2;stroke-miterlimit:10;}
	.st5{fill:#FF3333;}
</style>
<g id="Layer_1" class="st0">
	<g id="XMLID_1_" class="st1">
		<g id="XMLID_81_">
			<path id="XMLID_82_" class="st2" d="M512,2c68.9,0,135.6,13.5,198.5,40.1c60.7,25.7,115.3,62.5,162.1,109.3
				s83.6,101.4,109.3,162.1c26.6,62.9,40.1,129.7,40.1,198.5s-13.5,135.6-40.1,198.5c-25.7,60.7-62.5,115.3-109.3,162.1
				s-101.4,83.6-162.1,109.3c-62.9,26.6-129.7,40.1-198.5,40.1s-135.6-13.5-198.5-40.1c-60.7-25.7-115.3-62.5-162.1-109.3
				S67.8,771.2,42.1,710.5C15.5,647.6,2,580.9,2,512s13.5-135.6,40.1-198.5c25.7-60.7,62.5-115.3,109.3-162.1S252.8,67.8,313.5,42.1
				C376.4,15.5,443.1,2,512,2 M512,0C229.2,0,0,229.2,0,512s229.2,512,512,512s512-229.2,512-512S794.8,0,512,0L512,0z"/>
		</g>
	</g>
	<circle id="XMLID_5_" class="st3" cx="32" cy="32" r="32"/>
	<rect id="XMLID_22_" x="160.5" y="160" class="st4" width="704" height="704"/>
	<circle id="XMLID_24_" class="st4" cx="512.5" cy="512" r="352"/>
	<rect id="XMLID_33_" x="288" y="288" class="st4" width="448" height="449.6"/>
	<circle id="XMLID_34_" class="st4" cx="512" cy="513.6" r="224"/>
	<rect id="XMLID_35_" x="352" y="352" class="st4" width="318.3" height="318.3"/>
	<circle id="XMLID_36_" class="st4" cx="511.2" cy="511.2" r="159.2"/>
</g>
<g id="Layer_3">
	<g id="XMLID_37_">
		<path id="XMLID_39_" class="st5" d="M566.7,404.7C566.7,404.7,566.7,404.7,566.7,404.7L566.7,404.7l-35.4-35.4l-0.7,0.7
			c0,0-0.5-0.8-0.9-1.2c-44.9-44.9-95.6-73.7-136.6-81.6V239l-222.6-94.4L264.5,367h48.2c7.9,41,36.7,92,81.6,136.8
			c0.4,0.4,1.2,1.2,1.2,1.2l0,0l33.2,33.2c0.3,1.2,0.8,2.2,1.5,3c8.6,8.6,46.2-14.9,83.9-52.6C551.8,450.9,575.3,413.3,566.7,404.7z
			"/>
		<path id="XMLID_61_" class="st5" d="M582.2,420.2l0.5,0.5c-0.1-0.3-0.2-0.5-0.3-0.8L582.2,420.2z"/>
		<path id="XMLID_64_" class="st5" d="M672.1,510.1C672,510,672,510,672.1,510.1L672.1,510.1l-89.3-89.3c4.1,11-19,46.8-54.3,82.1
			c-35.3,35.3-71,58.4-82.4,54l89.6,89.6l0,0c0,0,0,0,0.1,0.1c8.6,8.6,46.2-14.9,83.9-52.6C657.1,556.2,680.7,518.7,672.1,510.1z"/>
		<path id="XMLID_65_" class="st5" d="M689,528.4l1.7,1.7c-0.1-1-0.3-1.9-0.7-2.6L689,528.4z"/>
		<path id="XMLID_66_" class="st5" d="M735,573c-0.8-0.8-1.8-1.3-3-1.5l-41.4-41.4c1.3,12.7-21.7,46.5-55.1,80
			c-35.1,35.1-70.7,57.3-82.8,53.7l45.7,45.7l0,0c0,0,0,0,0.1,0.1c8.6,8.6,46.2-14.9,83.9-52.6C720.1,619.2,743.6,581.6,735,573z"/>
		<path id="XMLID_67_" class="st5" d="M751.9,591.3l1.7,1.7c-0.1-1-0.3-1.9-0.7-2.6L751.9,591.3z"/>
		<path id="XMLID_68_" class="st5" d="M797.9,635.9c-0.8-0.8-1.8-1.3-3-1.5L753.6,593c1.3,12.7-21.7,46.5-55.1,80
			c-35.1,35.1-70.7,57.3-82.8,53.7l45.7,45.7l0,0c0,0,0,0,0.1,0.1c8.6,8.6,46.2-14.9,83.9-52.6C783,682.1,806.5,644.6,797.9,635.9z"
			/>
		<path id="XMLID_69_" class="st5" d="M817,656.4l1.7,1.7c-0.1-1-0.3-1.9-0.7-2.6L817,656.4z"/>
		<path id="XMLID_70_" class="st5" d="M892.1,731.3c-0.6-0.6-1.2-1.1-1.8-1.6l-28-28l-15.6-15.6l-28-28c1.3,12.7-21.7,46.5-55.1,80
			c-35.1,35.1-70.7,57.3-82.8,53.7l45.7,45.7l27.2,27.2c0.9,0.9,1.6,1.8,2.5,2.7c16.8,16.8,60.9,0,98.5-37.5
			S908.9,748.1,892.1,731.3z"/>
	</g>
</g>
</svg>
