<?xml version="1.0" encoding="utf-8"?>
<!-- Generator: Adobe Illustrator 19.0.0, SVG Export Plug-In . SVG Version: 6.00 Build 0)  -->
<svg version="1.1" xmlns="http://www.w3.org/2000/svg" xmlns:xlink="http://www.w3.org/1999/xlink" x="0px" y="0px"
	 viewBox="0 0 1024 1024" style="enable-background:new 0 0 1024 1024;" xml:space="preserve">
<style type="text/css">
	.st0{display:none;}
	.st1{display:inline;}
	.st2{fill:#FFD02C;}
	.st3{display:inline;fill:none;}
	.st4{display:inline;fill:none;stroke:#FFD02C;stroke-width:2;stroke-miterlimit:10;}
	.st5{fill:#FF3333;}
	.st6{fill:#DF605E;}
</style>
<g id="Layer_1" class="st0">
	<g id="XMLID_1_" class="st1">
		<g id="XMLID_81_">
			<path id="XMLID_82_" class="st2" d="M512,2c68.9,0,135.6,13.5,198.5,40.1c60.7,25.7,115.3,62.5,162.1,109.3
				s83.6,101.4,109.3,162.1c26.6,62.9,40.1,129.7,40.1,198.5s-13.5,135.6-40.1,198.5c-25.7,60.7-62.5,115.3-109.3,162.1
				s-101.4,83.6-162.1,109.3c-62.9,26.6-129.7,40.1-198.5,40.1s-135.6-13.5-198.5-40.1c-60.7-25.7-115.3-62.5-162.1-109.3
				S67.8,771.2,42.1,710.5C15.5,647.6,2,580.9,2,512s13.5-135.6,40.1-198.5c25.7-60.7,62.5-115.3,109.3-162.1S252.8,67.8,313.5,42.1
				C376.4,15.5,443.1,2,512,2 M512,0C229.2,0,0,229.2,0,512s229.2,512,512,512s512-229.2,512-512S794.8,0,512,0L512,0z"/>
		</g>
	</g>
	<circle id="XMLID_5_" class="st3" cx="32" cy="32" r="32"/>
	<rect id="XMLID_22_" x="160.5" y="160" class="st4" width="704" height="704"/>
	<circle id="XMLID_24_" class="st4" cx="512.5" cy="512" r="352"/>
	<rect id="XMLID_33_" x="288" y="288" class="st4" width="448" height="449.6"/>
	<circle id="XMLID_34_" class="st4" cx="512" cy="513.6" r="224"/>
	<rect id="XMLID_35_" x="352" y="352" class="st4" width="318.3" height="318.3"/>
	<circle id="XMLID_36_" class="st4" cx="511.2" cy="511.2" r="159.2"/>
</g>
<g id="Layer_3">
	<path id="XMLID_76_" class="st5" d="M604.7,445.2v1c0.2-0.3,0.3-0.7,0.4-1H604.7z"/>
	<path id="XMLID_78_" class="st5" d="M603,649.4c1-1,1.8-1.4,2.1-3.4H603V649.4z"/>
	<path id="XMLID_85_" class="st5" d="M603,767.1c1-1,1.8-2.1,2.1-3.1H603V767.1z"/>
	<path id="XMLID_88_" class="st5" d="M603,886v2.8c1-1,1.8-1.8,2.1-2.8H603z"/>
	<g id="XMLID_37_">
		<path id="XMLID_65_" class="st6" d="M454.2,454.8c49.9-49.9,81-99.5,69.6-110.9c0,0-0.1-0.1-0.1-0.1l-0.1,0.1l-46.8-46.8l-0.8,0.8
			c0,0-0.7-1-1.2-1.6C415.4,237,348.3,198.8,294,188.4l0-63.8L-0.5-0.2L124.1,294h63.8c10.4,55,48.5,121.6,107.9,181
			c0.6,0.6,1.6,1.6,1.6,1.6l-0.2,0.2l43.9,43.9c0,1.9,1.1,2.8,2.1,3.8C354.6,535.9,404.3,504.6,454.2,454.8z"/>
		<path id="XMLID_77_" class="st6" d="M606.6,607.2c49.9-49.9,81-99.5,69.6-110.9c0,0-0.1-0.1-0.1-0.1l-0.1,0.1L558,378.3
			c5.3,14.7-25.1,61.9-71.9,108.6c-46.7,46.7-93.9,77.2-109,71.5l118.5,118.5l0.1-0.1c0,0,0.1,0.1,0.1,0.1
			C507.1,688.2,556.8,657.1,606.6,607.2z"/>
		<path id="XMLID_86_" class="st6" d="M637.1,638c-46.5,46.5-93.5,75.8-109.5,71l60.5,60.5l0.1-0.1c0,0,0.1,0.1,0.1,0.1
			c11.4,11.4,61.1-19.8,110.9-69.6c49.9-49.9,80.9-99.4,69.5-110.8c-1-1-2.1-1.9-4-2L710,532.2C711.8,549,681.4,593.8,637.1,638z"/>
		<path id="XMLID_89_" class="st6" d="M943.5,765.8l-37.1-37.1c1.8,16.7-28.7,61.5-72.9,105.8c-46.5,46.5-93.5,75.8-109.5,71
			l60.5,60.5l0,0l35.9,35.9c1.1,1.1,2.2,2.4,3.3,3.5c22.3,22.3,80.7-0.1,130.3-49.7c49.6-49.6,71.8-107.9,49.6-130.2
			c-0.8-0.8-1.7-1.3-2.4-2.1l-37.1-37.1L943.5,765.8z"/>
		<path id="XMLID_38_" class="st6" d="M732.5,733.4c-46.5,46.5-93.5,75.8-109.5,71l60.5,60.5l0.1-0.1c0,0,0.1,0.1,0.1,0.1
			c11.4,11.4,61.1-19.8,110.9-69.6c49.9-49.9,80.9-99.4,69.5-110.8c-1-1-2.1-1.9-4-2l-54.8-54.8
			C807.2,644.4,776.8,689.2,732.5,733.4z"/>
	</g>
</g>
</svg>
