<?xml version="1.0" encoding="utf-8"?>
<!-- Generator: Adobe Illustrator 19.0.0, SVG Export Plug-In . SVG Version: 6.00 Build 0)  -->
<svg version="1.1" xmlns="http://www.w3.org/2000/svg" xmlns:xlink="http://www.w3.org/1999/xlink" x="0px" y="0px"
	 viewBox="0 0 1024 1024" style="enable-background:new 0 0 1024 1024;" xml:space="preserve">
<style type="text/css">
	.st0{display:none;}
	.st1{display:inline;}
	.st2{fill:#FFD02C;}
	.st3{display:inline;fill:none;}
	.st4{display:inline;fill:none;stroke:#FFD02C;stroke-width:2;stroke-miterlimit:10;}
	.st5{fill:#FFFFFF;}
	.st6{fill:#474747;}
</style>
<g id="Layer_1" class="st0">
	<g id="XMLID_1_" class="st1">
		<g id="XMLID_81_">
			<path id="XMLID_82_" class="st2" d="M512,2c68.9,0,135.6,13.5,198.5,40.1c60.7,25.7,115.3,62.5,162.1,109.3
				s83.6,101.4,109.3,162.1c26.6,62.9,40.1,129.7,40.1,198.5s-13.5,135.6-40.1,198.5c-25.7,60.7-62.5,115.3-109.3,162.1
				s-101.4,83.6-162.1,109.3c-62.9,26.6-129.7,40.1-198.5,40.1s-135.6-13.5-198.5-40.1c-60.7-25.7-115.3-62.5-162.1-109.3
				S67.8,771.2,42.1,710.5C15.5,647.6,2,580.9,2,512s13.5-135.6,40.1-198.5c25.7-60.7,62.5-115.3,109.3-162.1S252.8,67.8,313.5,42.1
				C376.4,15.5,443.1,2,512,2 M512,0C229.2,0,0,229.2,0,512s229.2,512,512,512s512-229.2,512-512S794.8,0,512,0L512,0z"/>
		</g>
	</g>
	<circle id="XMLID_5_" class="st3" cx="32" cy="32" r="32"/>
	<rect id="XMLID_22_" x="160.5" y="160" class="st4" width="704" height="704"/>
	<circle id="XMLID_24_" class="st4" cx="512.5" cy="512" r="352"/>
	<rect id="XMLID_33_" x="288" y="288" class="st4" width="448" height="449.6"/>
	<circle id="XMLID_34_" class="st4" cx="512" cy="513.6" r="224"/>
	<rect id="XMLID_35_" x="352" y="352" class="st4" width="318.3" height="318.3"/>
	<circle id="XMLID_36_" class="st4" cx="511.2" cy="511.2" r="159.2"/>
</g>
<g id="Layer_2">
	<g id="XMLID_40_">
		<path id="XMLID_67_" class="st5" d="M971.3,1001c-19.3,0-55.1-14-174.6-117.4c-99.1-85.8-240.7-220.5-421-400.4
			c-15.9,15.4-43.4,41.2-75.9,68c-69.4,57.2-125.6,89.2-167,95.3l-9.9,1.5l-51.1-51c-15.2-15.2-3.4-38.4,1-47.1
			c5.8-11.4,14.8-25.6,26.8-42.5c20.2-28.2,44.7-57.6,53.4-66.3l78.2-78.4c71-71,168.1-156.3,253.5-222.5
			c45.5-35.2,85.2-63.3,118-83.4C654.4,25,676,21.3,687.8,21.3c14.9,0,26.3,7.1,31.4,19.5c9,21.9,0.8,61.7-119.1,203.3
			c-46.7,55.2-95.2,107.6-118.2,132.1C666,560.1,804,705.7,892.1,808.9c40.4,47.3,69.7,85.2,87.2,112.5
			c9.1,14.3,15.1,25.8,18.3,35.2c6.5,19.2,0.9,30.2-5,36.1C988.7,996.5,982,1001,971.3,1001C971.3,1001,971.3,1001,971.3,1001z"/>
		<path id="XMLID_64_" class="st6" d="M687.8,41.3c6.5,0,10.9,2.3,12.9,7.1c20.3,49.5-246.9,328.5-246.9,328.5
			c1.5,1.2,11.7,11.2,11.7,11.2C857.2,779.3,999.9,957,978.4,978.5l0,0c-1.6,1.6-3.9,2.5-7.1,2.5c-38.6,0-197.5-128.5-584.1-514.5
			c0,0-10-10.2-11.3-11.7c0,0-155.1,158.5-246.2,171.9l-44-43.9c-14.2-14.2,67-113.4,81.2-127.6l78.2-78.4
			C386.5,235.3,627.4,41.3,687.8,41.3 M687.8,1.3c-15.4,0-40.1,4.4-95.7,38.4c-33.4,20.5-73.7,49-119.8,84.7
			c-86,66.7-183.9,152.5-255.4,224.2l-78.2,78.3c-9.2,9.2-34.7,39.8-55.5,68.8c-12.6,17.6-22.2,32.8-28.4,45.1
			c-4.7,9.2-7.7,17.2-9.3,24.6c-1.4,6.5-1.7,12.7-1,18.6c1.3,10.5,5.8,19.9,13,27.1l44,43.9l14.2,14.2l19.9-2.9
			c26.5-3.9,56.6-16.3,92-38c25.8-15.8,54.3-36.5,84.9-61.7c24.7-20.4,46.6-40.2,62.9-55.5c174.1,173.4,311.3,303.8,408.2,387.6
			c45.8,39.6,83.4,69.6,111.9,89.1c33.9,23.2,56.5,33.1,75.8,33.1c13.7,0,26.2-5,35.4-14.2c8.1-8.1,20.1-26.2,9.8-56.6
			c-3.7-11-10.4-23.9-20.3-39.5c-17.9-28.1-47.8-66.7-88.8-114.7c-86.2-101-220-242.4-397.6-420.2c25.6-27.6,65.9-71.8,105.6-118.8
			c38.3-45.2,68-83.6,88.5-114.2c13.2-19.7,22.6-36.1,28.7-50.2c6.5-15,14.1-37.5,5.1-59.4c-4.5-11-12.4-19.8-22.8-25.4
			C706.9,3.5,697.7,1.3,687.8,1.3L687.8,1.3z"/>
	</g>
</g>
</svg>
