<?xml version="1.0" encoding="utf-8"?>
<!-- Generator: Adobe Illustrator 16.0.0, SVG Export Plug-In . SVG Version: 6.00 Build 0)  -->
<!DOCTYPE svg PUBLIC "-//W3C//DTD SVG 1.1//EN" "http://www.w3.org/Graphics/SVG/1.1/DTD/svg11.dtd">
<svg version="1.1" id="レイヤー_1" xmlns="http://www.w3.org/2000/svg" xmlns:xlink="http://www.w3.org/1999/xlink" x="0px"
	 y="0px" width="1024px" height="1024px" viewBox="0 0 1024 1024" enable-background="new 0 0 1024 1024" xml:space="preserve">
<polygon fill="#62CC72" stroke="#62CC72" points="689.5,1024 289.5,1024 289.5,924 589.5,624 689.5,724 "/>
<rect x="-53.04" y="224.233" transform="matrix(-0.7071 -0.7071 0.7071 -0.7071 265.8132 598.5682)" fill="#62CC72" stroke="#62CC72" width="619.828" height="40"/>
<polygon fill="#62CC72" stroke="#62CC72" points="520.227,419.779 432.42,507.585 529.693,604.857 592.554,541.997 745.068,694.512 
	745.068,820.232 886.365,961.529 974.171,873.724 "/>
<path fill="#62CC72" stroke="#62CC72" d="M797.179,373.023c-5.578,23.183-14.596,46.664-27.226,69.433
	c-19.547,35.237-45.102,64.082-73.212,84.956l67.938,67.938c29.711-21.068,56.796-50.975,77.281-87.904
	c22.494-40.549,33.598-83.367,34.045-122.716L797.179,373.023z"/>
</svg>
