<?xml version="1.0" encoding="utf-8"?>
<!-- Generator: Adobe Illustrator 19.0.0, SVG Export Plug-In . SVG Version: 6.00 Build 0)  -->
<svg version="1.1" xmlns="http://www.w3.org/2000/svg" xmlns:xlink="http://www.w3.org/1999/xlink" x="0px" y="0px"
	 viewBox="0 0 1024 1024" style="enable-background:new 0 0 1024 1024;" xml:space="preserve">
<style type="text/css">
	.st0{display:none;}
	.st1{display:inline;}
	.st2{fill:#FFFFC5;}
	.st3{display:inline;fill:none;}
	.st4{display:inline;fill:none;stroke:#FFD02C;stroke-width:3;stroke-miterlimit:10;}
	.st5{fill:#62CC72;}
</style>
<g id="Layer_1" class="st0">
	<g id="XMLID_1_" class="st1">
		<path id="XMLID_64_" class="st2" d="M512,64c60.5,0,119.2,11.8,174.4,35.2c53.3,22.6,101.3,54.9,142.4,96
			c41.2,41.2,73.5,89.1,96,142.4C948.2,392.8,960,451.5,960,512s-11.8,119.2-35.2,174.4c-22.6,53.3-54.9,101.3-96,142.4
			c-41.2,41.2-89.1,73.5-142.4,96C631.2,948.2,572.5,960,512,960s-119.2-11.8-174.4-35.2c-53.3-22.6-101.3-54.9-142.4-96
			c-41.2-41.2-73.5-89.1-96-142.4C75.8,631.2,64,572.5,64,512s11.8-119.2,35.2-174.4c22.6-53.3,54.9-101.3,96-142.4
			s89.1-73.5,142.4-96C392.8,75.8,451.5,64,512,64 M512,0C229.2,0,0,229.2,0,512s229.2,512,512,512s512-229.2,512-512S794.8,0,512,0
			L512,0z"/>
	</g>
	<circle id="XMLID_5_" class="st3" cx="32" cy="32" r="32"/>
	<rect id="XMLID_22_" x="160.5" y="160" class="st4" width="704" height="704"/>
	<circle id="XMLID_24_" class="st4" cx="512.5" cy="512" r="352"/>
	<rect id="XMLID_33_" x="288" y="288" class="st4" width="448" height="449.6"/>
	<circle id="XMLID_34_" class="st4" cx="512" cy="513.6" r="224"/>
	<rect id="XMLID_35_" x="352" y="352" class="st4" width="318.3" height="318.3"/>
	<circle id="XMLID_36_" class="st4" cx="511.2" cy="511.2" r="159.2"/>
</g>
<g id="Layer_2">
	<polygon id="XMLID_51_" class="st5" points="367,576 783,576 944,737 944,896 815,1024 335,1024 207,896 207,737 	"/>
	
		<rect id="XMLID_40_" x="272.8" y="13.7" transform="matrix(0.7071 -0.7071 0.7071 0.7071 -118.1567 306.8107)" class="st5" width="76.9" height="564.7"/>
	<polygon id="XMLID_38_" class="st5" points="719,586.5 431,586.5 431,480 495,416 656,416 719,480 	"/>
</g>
</svg>
