<?xml version="1.0" encoding="UTF-8"?>
<svg width="640px" height="640px" viewBox="0 0 640 640" version="1.1" xmlns="http://www.w3.org/2000/svg" xmlns:xlink="http://www.w3.org/1999/xlink">
    <!-- Generator: Sketch 46.2 (44496) - http://www.bohemiancoding.com/sketch -->
    <title>17</title>
    <desc>Created with Sketch.</desc>
    <defs>
        <path d="M100,320 L320,100 L440,100 L500,160 L500,280 L280,500 L160,500 L100,440 L100,320 Z M120,340 L120,420 L180,480 L260,480 L320,420 L320,340 L260,280 L180,280 L120,340 Z" id="path-1"></path>
        <filter x="-3.8%" y="-3.7%" width="115.0%" height="115.0%" filterUnits="objectBoundingBox" id="filter-2">
            <feOffset dx="20" dy="20" in="SourceAlpha" result="shadowOffsetOuter1"></feOffset>
            <feGaussianBlur stdDeviation="5" in="shadowOffsetOuter1" result="shadowBlurOuter1"></feGaussianBlur>
            <feColorMatrix values="0 0 0 0 0   0 0 0 0 0   0 0 0 0 0  0 0 0 0.25 0" type="matrix" in="shadowBlurOuter1"></feColorMatrix>
        </filter>
        <linearGradient x1="75.1245117%" y1="0%" x2="75.1245141%" y2="74.6004232%" id="linearGradient-3">
            <stop stop-color="#72B8C5" offset="0%"></stop>
            <stop stop-color="#7ECCD8" offset="100%"></stop>
        </linearGradient>
    </defs>
    <g id="Page-1" stroke="none" stroke-width="1" fill="none" fill-rule="evenodd">
        <g id="17">
            <rect id="Rectangle-3" fill="#7ECCD8" x="340" y="500" width="40" height="40"></rect>
            <rect id="Rectangle-3-Copy" fill="#7ECCD8" x="420" y="420" width="40" height="40"></rect>
            <rect id="Rectangle-3-Copy-2" fill="#7ECCD8" x="500" y="340" width="40" height="40"></rect>
            <g id="Combined-Shape">
                <use fill="black" fill-opacity="1" filter="url(#filter-2)" xlink:href="#path-1"></use>
                <use fill="#7ECCD8" fill-rule="evenodd" xlink:href="#path-1"></use>
            </g>
            <polygon id="Path-49" fill="url(#linearGradient-3)" points="260 280 320 340 500 160 440 100"></polygon>
        </g>
    </g>
</svg>