<?xml version="1.0" encoding="utf-8"?>
<!-- Generator: Adobe Illustrator 19.0.0, SVG Export Plug-In . SVG Version: 6.00 Build 0)  -->
<svg version="1.1" xmlns="http://www.w3.org/2000/svg" xmlns:xlink="http://www.w3.org/1999/xlink" x="0px" y="0px"
	 viewBox="0 0 1024 1024" style="enable-background:new 0 0 1024 1024;" xml:space="preserve">
<style type="text/css">
	.st0{display:none;}
	.st1{fill:#7BCEDB;}
</style>
<g id="Layer_1" class="st0">
</g>
<g id="Layer_2">
	<g id="XMLID_1_">
		<path id="XMLID_36_" class="st1" d="M510.9,65C246.1,65,31.4,279.7,31.4,544.5S246.1,1024,510.9,1024s479.5-214.7,479.5-479.5
			S775.7,65,510.9,65z M107.1,665 M890.2,725.9C822.3,867.3,677.8,965,510.4,965s-312-97.7-379.8-239.1L107.1,665
			c-12-39.2-17.6-77.8-17.6-120.9c0-232.5,188.5-420.9,420.9-420.9s420.9,188.5,420.9,420.9c0,42-6.2,82.6-17.6,120.9L890.2,725.9z
			 M721.3,545l-30,60l-180-480l-120,330l-60-120l-81.6,210H61v60h225.2l48-111.7L391.3,605l120-300l162.2,440.6L751.3,605h197.8
			l0-60H721.3z M130.7,725.9"/>
		<polygon id="XMLID_5_" class="st1" points="346.8,859.8 271.8,859.5 271.8,785.9 346.8,785.9 		"/>
		<polygon id="XMLID_34_" class="st1" points="481.8,859.8 406.8,859.5 406.8,785.9 481.8,785.9 		"/>
		<polygon id="XMLID_38_" class="st1" points="617.3,859.8 542.3,859.5 542.3,785.9 617.3,785.9 		"/>
		<polygon id="XMLID_39_" class="st1" points="751.8,859.8 676.8,859.5 676.8,785.9 751.8,785.9 		"/>
	</g>
</g>
</svg>
