<?xml version="1.0" encoding="utf-8"?>
<!-- Generator: Adobe Illustrator 19.0.0, SVG Export Plug-In . SVG Version: 6.00 Build 0)  -->
<svg version="1.1" xmlns="http://www.w3.org/2000/svg" xmlns:xlink="http://www.w3.org/1999/xlink" x="0px" y="0px"
	 viewBox="0 0 1024 1024" style="enable-background:new 0 0 1024 1024;" xml:space="preserve">
<style type="text/css">
	.st0{display:none;}
	.st1{fill:#7FEBFF;}
</style>
<g id="Layer_1" class="st0">
</g>
<g id="Layer_2">
	<path id="XMLID_36_" class="st1" d="M511.5,0C229,0,0,229,0,511.5S229,1023,511.5,1023S1023,794,1023,511.5S794,0,511.5,0z M511,62
		c248,0,449,201,449,449c0,44.8-6.6,88.1-18.8,129H820.3l-88.7-177.8l-83.3,222.2l-130-575.3l-140,385.5L320,367.5L202,640H81.5
		l0.3,3.2C68.9,601.4,62,557,62,511C62,263,263,62,511,62z M511,960.1c-178.5,0-332.7-104.2-405.1-255.1h139.6L323,522.8l66,132.8
		l115.3-318.6l130,573.4l106-289.2l40.8,83.8h135C843.7,855.9,689.6,960.1,511,960.1z"/>
</g>
</svg>
