<?xml version="1.0" encoding="utf-8"?>
<!-- Generator: Adobe Illustrator 19.0.0, SVG Export Plug-In . SVG Version: 6.00 Build 0)  -->
<svg version="1.1" xmlns="http://www.w3.org/2000/svg" xmlns:xlink="http://www.w3.org/1999/xlink" x="0px" y="0px"
	 viewBox="0 0 1024 1024" style="enable-background:new 0 0 1024 1024;" xml:space="preserve">
<style type="text/css">
	.st0{display:none;}
	.st1{display:inline;}
	.st2{fill:#FFFFC5;}
	.st3{display:inline;fill:none;}
	.st4{display:inline;fill:none;stroke:#FFD02C;stroke-width:3;stroke-miterlimit:10;}
	.st5{display:inline;fill:none;stroke:#FFD02C;stroke-width:0.25;stroke-miterlimit:10;}
	.st6{fill:#FFD02C;}
</style>
<g id="Layer_1" class="st0">
	<g id="XMLID_1_" class="st1">
		<path id="XMLID_64_" class="st2" d="M512,64c60.5,0,119.2,11.8,174.4,35.2c53.3,22.6,101.3,54.9,142.4,96
			c41.2,41.2,73.5,89.1,96,142.4C948.2,392.8,960,451.5,960,512s-11.8,119.2-35.2,174.4c-22.6,53.3-54.9,101.3-96,142.4
			c-41.2,41.2-89.1,73.5-142.4,96C631.2,948.2,572.5,960,512,960s-119.2-11.8-174.4-35.2c-53.3-22.6-101.3-54.9-142.4-96
			c-41.2-41.2-73.5-89.1-96-142.4C75.8,631.2,64,572.5,64,512s11.8-119.2,35.2-174.4c22.6-53.3,54.9-101.3,96-142.4
			s89.1-73.5,142.4-96C392.8,75.8,451.5,64,512,64 M512,0C229.2,0,0,229.2,0,512s229.2,512,512,512s512-229.2,512-512S794.8,0,512,0
			L512,0z"/>
	</g>
	<circle id="XMLID_5_" class="st3" cx="32" cy="32" r="32"/>
	<rect id="XMLID_22_" x="160.5" y="160" class="st4" width="704" height="704"/>
	<circle id="XMLID_24_" class="st4" cx="512.5" cy="512" r="352"/>
	<rect id="XMLID_33_" x="288" y="288" class="st5" width="448" height="449.6"/>
	<circle id="XMLID_34_" class="st5" cx="512" cy="513.6" r="224"/>
	<rect id="XMLID_35_" x="352" y="352" class="st5" width="318.3" height="318.3"/>
	<circle id="XMLID_36_" class="st5" cx="511.2" cy="511.2" r="159.2"/>
</g>
<g id="Layer_2">
	<path id="XMLID_46_" class="st6" d="M864.5,511c0-6.9-0.2-13.8-0.6-20.7l-98.6-12.8l92-37.9c-2.8-13.6-6.4-27-10.7-40L748,412.9
		l78.9-60.3c-6.2-12.4-13.2-24.3-20.8-35.8L714.5,355l60.5-78.5c-9.2-10.3-19-20.1-29.4-29.3l-78.4,60.4l38-91.2
		c-11.6-7.6-23.6-14.5-36-20.7l-59.9,78.5l13.1-97.7c-13.1-4.3-26.5-7.8-40.3-10.6l-37.5,91L532,159.5c-6.5-0.4-13-0.5-19.5-0.5
		c-7.5,0-14.9,0.2-22.2,0.7l-12.6,97.2l-37.2-90.5c-13.8,2.9-27.2,6.5-40.4,10.9l13,96.9l-59.2-77.5c-12.5,6.3-24.6,13.4-36.2,21.1
		l37.4,89.8l-76.9-59.3c-10.4,9.3-20.3,19.3-29.6,29.8l59.2,76.9l-89.5-37.3c-7.7,11.7-14.7,23.8-21,36.4l77,58.8l-96-12.9
		c-4.4,13.2-8,26.8-10.8,40.6l89.5,36.8L161.1,490c-0.4,7-0.6,14-0.6,21c0,7.1,0.2,14.1,0.6,21l95.9,12.4l-89.5,36.8
		c2.8,13.9,6.4,27.4,10.8,40.6l96-12.9l-77,58.8c6.3,12.6,13.3,24.7,21,36.4l89.5-37.3l-59.2,76.9c9.3,10.5,19.2,20.4,29.6,29.8
		l76.9-59.3l-37.4,89.8c11.6,7.7,23.7,14.8,36.2,21.1l59.2-77.5l-13,96.9c13.1,4.4,26.6,8.1,40.4,10.9l37.2-90.5l12.6,97.2
		c7.3,0.5,14.8,0.7,22.2,0.7c6.6,0,13.1-0.2,19.5-0.5l12.6-97.3l37.5,91c13.7-2.8,27.2-6.3,40.3-10.6l-13.1-97.7l59.9,78.5
		c12.4-6.2,24.5-13.1,36-20.7l-38-91.2l78.4,60.4c10.4-9.2,20.2-18.9,29.4-29.3L714.5,667l91.6,38.2c7.6-11.5,14.6-23.4,20.8-35.8
		L748,609.1l98.6,13.2c4.3-13,7.9-26.3,10.7-40l-92-37.9l98.6-12.8C864.3,524.8,864.5,517.9,864.5,511z M511,734
		c-123.2,0-223-99.8-223-223s99.8-223,223-223s223,99.8,223,223S634.2,734,511,734z"/>
</g>
</svg>
