<?xml version="1.0" encoding="UTF-8"?>
<svg width="640px" height="640px" viewBox="0 0 640 640" version="1.1" xmlns="http://www.w3.org/2000/svg" xmlns:xlink="http://www.w3.org/1999/xlink">
    <!-- Generator: Sketch 46.2 (44496) - http://www.bohemiancoding.com/sketch -->
    <title>21</title>
    <desc>Created with Sketch.</desc>
    <defs>
        <filter x="-2.8%" y="-5.8%" width="111.1%" height="123.5%" filterUnits="objectBoundingBox" id="filter-1">
            <feOffset dx="20" dy="20" in="SourceAlpha" result="shadowOffsetOuter1"></feOffset>
            <feGaussianBlur stdDeviation="5" in="shadowOffsetOuter1" result="shadowBlurOuter1"></feGaussianBlur>
            <feColorMatrix values="0 0 0 0 0   0 0 0 0 0   0 0 0 0 0  0 0 0 0.25 0" type="matrix" in="shadowBlurOuter1" result="shadowMatrixOuter1"></feColorMatrix>
            <feMerge>
                <feMergeNode in="shadowMatrixOuter1"></feMergeNode>
                <feMergeNode in="SourceGraphic"></feMergeNode>
            </feMerge>
        </filter>
        <linearGradient x1="2.37571023%" y1="50%" x2="50%" y2="100%" id="linearGradient-2">
            <stop stop-color="#6CD37D" offset="0%"></stop>
            <stop stop-color="#57A965" offset="100%"></stop>
        </linearGradient>
        <path d="M420,155 L640,375 L420,595 L200,375 L420,155 Z M418.36,290.92 L333.88,372.54 L333.88,290.92 L315.84,290.92 L315.84,448 L333.88,448 L333.88,393 L358.3,369.9 L427.6,448 L451.8,448 L370.84,358.24 L441.9,290.92 L418.36,290.92 Z M514.94,331.18 C501.3,331.18 490.52,333.82 482.16,339.1 C472.92,344.82 466.98,353.84 464.56,365.72 L481.94,367.04 C483.7,359.78 487.44,354.28 493.38,350.76 C498.66,347.24 505.48,345.7 513.84,345.7 C533.64,345.7 543.54,355.16 543.54,374.3 L543.54,380.24 L516.26,380.68 C499.1,380.9 485.9,384.2 476.66,390.36 C466.1,396.96 461.04,406.64 461.04,419.62 C461.04,428.86 464.56,436.56 471.6,442.5 C478.42,448.22 487.44,451.08 498.88,451.08 C509.44,451.08 518.9,448.66 527.26,444.04 C534.3,440.08 540.24,435.02 544.64,428.86 L544.64,448 L561.14,448 L561.14,374.96 C561.14,361.76 557.62,351.42 551.02,343.94 C543.1,335.36 531.22,331.18 514.94,331.18 Z M543.54,393.44 L543.54,403.12 C543.54,411.92 539.36,419.84 531.22,426.66 C522.86,433.7 513.4,437.22 502.62,437.22 C495.58,437.22 489.86,435.46 485.46,432.16 C481.06,428.64 479.08,424.46 479.08,419.18 C479.08,402.68 491.84,394.32 517.36,393.88 L543.54,393.44 Z" id="path-3"></path>
        <filter x="-3.4%" y="-3.4%" width="113.6%" height="113.6%" filterUnits="objectBoundingBox" id="filter-4">
            <feOffset dx="20" dy="20" in="SourceAlpha" result="shadowOffsetOuter1"></feOffset>
            <feGaussianBlur stdDeviation="5" in="shadowOffsetOuter1" result="shadowBlurOuter1"></feGaussianBlur>
            <feColorMatrix values="0 0 0 0 0   0 0 0 0 0   0 0 0 0 0  0 0 0 0.25 0" type="matrix" in="shadowBlurOuter1"></feColorMatrix>
        </filter>
    </defs>
    <g id="Page-1" stroke="none" stroke-width="1" fill="none" fill-rule="evenodd">
        <g id="21">
            <g id="Group" filter="url(#filter-1)" transform="translate(20.000000, 45.000000)" fill="#57A965">
                <polygon id="Path-35" points="40 240 60 200 100 180 120 140 200 120 220 140 400 100 460 20 500 2.84217094e-14 460 120 240 240 60 260 20 260"></polygon>
                <polygon id="Path-34" points="140 180 0 80 20 60 80 60 180 140"></polygon>
                <polygon id="Path-37" points="428.712891 134.680664 520 160 540 140 440 116.074219"></polygon>
                <polygon id="Path-36" points="400 120 340 60 380 60 420 100"></polygon>
            </g>
            <g id="Combined-Shape">
                <use fill="black" fill-opacity="1" filter="url(#filter-4)" xlink:href="#path-3"></use>
                <use fill="url(#linearGradient-2)" fill-rule="evenodd" xlink:href="#path-3"></use>
            </g>
        </g>
    </g>
</svg>