<?xml version="1.0" encoding="utf-8"?>
<!-- Generator: Adobe Illustrator 19.0.0, SVG Export Plug-In . SVG Version: 6.00 Build 0)  -->
<svg version="1.1" xmlns="http://www.w3.org/2000/svg" xmlns:xlink="http://www.w3.org/1999/xlink" x="0px" y="0px"
	 viewBox="0 0 1024 1024" style="enable-background:new 0 0 1024 1024;" xml:space="preserve">
<style type="text/css">
	.st0{display:none;}
	.st1{display:inline;}
	.st2{fill:#FFD02C;}
	.st3{display:inline;fill:none;}
	.st4{display:inline;fill:none;stroke:#FFD02C;stroke-width:2;stroke-miterlimit:10;}
	.st5{fill:#00FF30;}
</style>
<g id="Layer_1" class="st0">
	<g id="XMLID_1_" class="st1">
		<g id="XMLID_81_">
			<path id="XMLID_82_" class="st2" d="M512,2c68.9,0,135.6,13.5,198.5,40.1c60.7,25.7,115.3,62.5,162.1,109.3
				s83.6,101.4,109.3,162.1c26.6,62.9,40.1,129.7,40.1,198.5s-13.5,135.6-40.1,198.5c-25.7,60.7-62.5,115.3-109.3,162.1
				s-101.4,83.6-162.1,109.3c-62.9,26.6-129.7,40.1-198.5,40.1s-135.6-13.5-198.5-40.1c-60.7-25.7-115.3-62.5-162.1-109.3
				S67.8,771.2,42.1,710.5C15.5,647.6,2,580.9,2,512s13.5-135.6,40.1-198.5c25.7-60.7,62.5-115.3,109.3-162.1S252.8,67.8,313.5,42.1
				C376.4,15.5,443.1,2,512,2 M512,0C229.2,0,0,229.2,0,512s229.2,512,512,512s512-229.2,512-512S794.8,0,512,0L512,0z"/>
		</g>
	</g>
	<circle id="XMLID_5_" class="st3" cx="32" cy="32" r="32"/>
	<rect id="XMLID_22_" x="160.5" y="160" class="st4" width="704" height="704"/>
	<circle id="XMLID_24_" class="st4" cx="512.5" cy="512" r="352"/>
	<rect id="XMLID_33_" x="288" y="288" class="st4" width="448" height="449.6"/>
	<circle id="XMLID_34_" class="st4" cx="512" cy="513.6" r="224"/>
	<rect id="XMLID_35_" x="352" y="352" class="st4" width="318.3" height="321"/>
	<circle id="XMLID_36_" class="st4" cx="511.2" cy="511.2" r="159.2"/>
</g>
<g id="Layer_2">
	<g id="XMLID_37_">
		<path id="XMLID_38_" class="st5" d="M278.9,850.4C256.3,873,219,900.8,219,900.8l79.5,79.5c0,0,11.2,11.4,38.9-16.3
			c27.7-27.7,16.3-38.9,16.3-38.9S288.7,860.1,278.9,850.4z"/>
		<path id="XMLID_66_" class="st5" d="M100.7,674.1c0,0-11.2-11.4-38.9,16.3s-16.3,38.9-16.3,38.9l79.6,79.6
			c0,0,28.1-36.9,50.7-59.6L100.7,674.1z"/>
		<path id="XMLID_67_" class="st5" d="M647.1,222.6c-6.9-6.9-16.3-8.7-21-4l-5.7,5.7c-4.7,4.7-2.9,14.1,4,21l42.8,42.8
			c6.9,6.9,16.3,8.7,21,4l5.7-5.7c4.7-4.7,2.9-14.1-4-21L647.1,222.6z"/>
		<polygon id="XMLID_68_" class="st5" points="964,335.7 964,335.7 964,335.7 		"/>
		<path id="XMLID_71_" class="st5" d="M964,335.7l-4.9,0.3c-1.4,0.4-3.4,0.9-5.7,1.5c-0.5,0.1-1,0.1-1.5,0.3l-23.3,6.2h0l0,0
			l-126.3,33.8l-42-41.9c-7-7-16.5-8.8-21.1-4.2l-5.7,5.7c-4.7,4.7-2.8,14.2,4.2,21.1l28.9,28.9l-74.7,20l12.3-16.1
			c7.6-13.8,15.8-35.3,7.4-54.6l2.1-2.1c8.5-8.5,30-37.8,22.7-45.3c-7.3-7.5-36.5,13.9-45.3,22.7c-0.6,0.6-1.2,1.2-1.8,1.8
			c-19.9-9.6-41.9-1.1-55.9,6.8l-51.7,40.3l-25.4,19.8l-7.9,6.2c0,0,4.2-1.8,10.9-3.2c14.5-3,41.1-4.2,64,18.8
			c6.4,6.4,10.9,13,14,19.6l-26.3,7c-15.8-23-46-31.2-71.1-19.5L308.7,178.3c49.1-35.3,150.6-98,251.9-98
			C727.4,80.3,911.3,186.9,964,335.7C910,167.1,747.1,45,560.5,45c-121,0-272.4,88.1-305.8,133.1c0,0,4.7,4.7,8.6,8.6l249.4,249.4
			c-8.5,16.9-8.1,36.7,1.7,53.8c4.4,7.5,10.1,13.8,16.8,18.4l-7.3,27.2c-6.8-3.1-13.6-7.6-20-13.9c-31.5-31.5-16.5-74-16.5-74
			S332.3,616,252.4,704.8c-47.4-70.6-75.3-155.4-75.3-241.1c0.4-194.3,51.8-254.6,76.9-284.8c0-0.1,0-0.3,0-0.4
			c-69.5,74.7-112,174.9-112,285c0,99.1,34.5,190.2,92.1,261.9c-14.5,16.3-24.3,27.7-27.1,31.5c0,0-81.5,98.1-58.9,120.7
			c22.6,22.6,123.4-56.2,123.4-56.2c3.8-2.8,15.4-12.9,31.8-27.7c71,55.4,160.2,88.4,257.2,88.4C791.6,882,979,694.6,979,463.5
			C979,419,976.9,375.9,964,335.7z M563.5,435c14.6,0,26.5,11.9,26.5,26.5S578.1,488,563.5,488S537,476.1,537,461.5
			S548.9,435,563.5,435z M504.6,608l-64.7,241.4c-1,3.7-0.1,7.5,2.1,10.4c-46.1-17.5-88.3-44.7-124.8-78.8
			C367,735.8,446.3,662.2,504.6,608z M944,463.8c0,211.8-172.6,417.9-384.3,417.9c-32.2,0-63.4-4.8-93.2-13.6
			c4.7-0.6,8.9-3.9,10.2-8.8l80.4-300.2c13.6-12.6,21.6-20.2,21.6-20.2s-6.8,2.2-17,3l6.3-23.5c8.3-0.6,16.7-3,24.4-7.5
			c16.9-9.8,26.9-26.9,28.4-45l22.4-6c-1.3,10.5-4.3,17.5-4.3,17.5L654,457l18.8-5l263.9-70.7C941.3,406,945.9,438.5,944,463.8z"/>
	</g>
</g>
</svg>
