<?xml version="1.0" encoding="UTF-8"?>
<svg width="640px" height="640px" viewBox="0 0 640 640" version="1.1" xmlns="http://www.w3.org/2000/svg" xmlns:xlink="http://www.w3.org/1999/xlink">
    <!-- Generator: Sketch 46.2 (44496) - http://www.bohemiancoding.com/sketch -->
    <title>22</title>
    <desc>Created with Sketch.</desc>
    <defs>
        <filter x="-2.8%" y="-5.8%" width="111.1%" height="123.5%" filterUnits="objectBoundingBox" id="filter-1">
            <feOffset dx="20" dy="20" in="SourceAlpha" result="shadowOffsetOuter1"></feOffset>
            <feGaussianBlur stdDeviation="5" in="shadowOffsetOuter1" result="shadowBlurOuter1"></feGaussianBlur>
            <feColorMatrix values="0 0 0 0 0   0 0 0 0 0   0 0 0 0 0  0 0 0 0.25 0" type="matrix" in="shadowBlurOuter1" result="shadowMatrixOuter1"></feColorMatrix>
            <feMerge>
                <feMergeNode in="shadowMatrixOuter1"></feMergeNode>
                <feMergeNode in="SourceGraphic"></feMergeNode>
            </feMerge>
        </filter>
        <linearGradient x1="0%" y1="50%" x2="50%" y2="100%" id="linearGradient-2">
            <stop stop-color="#94E4F0" offset="0%"></stop>
            <stop stop-color="#8CCFD9" offset="100%"></stop>
        </linearGradient>
        <path d="M420,180 L640,400 L420,620 L200,400 L420,180 Z M325.96,306.9 L325.96,329.34 L494.48,329.34 L494.48,306.9 L325.96,306.9 Z M340.92,382.14 L340.92,404.58 L479.3,404.58 L479.3,382.14 L340.92,382.14 Z M310.12,463.1 L310.12,485.98 L509.88,485.98 L509.88,463.1 L310.12,463.1 Z" id="path-3"></path>
        <filter x="-3.4%" y="-3.4%" width="113.6%" height="113.6%" filterUnits="objectBoundingBox" id="filter-4">
            <feOffset dx="20" dy="20" in="SourceAlpha" result="shadowOffsetOuter1"></feOffset>
            <feGaussianBlur stdDeviation="5" in="shadowOffsetOuter1" result="shadowBlurOuter1"></feGaussianBlur>
            <feColorMatrix values="0 0 0 0 0   0 0 0 0 0   0 0 0 0 0  0 0 0 0.25 0" type="matrix" in="shadowBlurOuter1"></feColorMatrix>
        </filter>
    </defs>
    <g id="Page-1" stroke="none" stroke-width="1" fill="none" fill-rule="evenodd">
        <g id="22">
            <g id="Group" filter="url(#filter-1)" transform="translate(20.000000, 45.000000)" fill="#8CCFD9">
                <polygon id="Path-35" points="40 240 60 200 100 180 120 140 200 120 220 140 400 100 460 20 500 2.84217094e-14 460 120 240 240 60 260 20 260"></polygon>
                <polygon id="Path-34" points="140 180 0 80 20 60 80 60 180 140"></polygon>
                <polygon id="Path-37" points="428.712891 134.680664 520 160 540 140 440 116.074219"></polygon>
                <polygon id="Path-36" points="400 120 340 60 380 60 420 100"></polygon>
            </g>
            <g id="Combined-Shape">
                <use fill="black" fill-opacity="1" filter="url(#filter-4)" xlink:href="#path-3"></use>
                <use fill="url(#linearGradient-2)" fill-rule="evenodd" xlink:href="#path-3"></use>
            </g>
        </g>
    </g>
</svg>