<?xml version="1.0" encoding="utf-8"?>
<!-- Generator: Adobe Illustrator 19.0.0, SVG Export Plug-In . SVG Version: 6.00 Build 0)  -->
<svg version="1.1" xmlns="http://www.w3.org/2000/svg" xmlns:xlink="http://www.w3.org/1999/xlink" x="0px" y="0px"
	 viewBox="0 0 1024 1024" style="enable-background:new 0 0 1024 1024;" xml:space="preserve">
<style type="text/css">
	.st0{display:none;}
	.st1{display:inline;}
	.st2{fill:#FFD02C;}
	.st3{display:inline;fill:none;}
	.st4{display:inline;fill:none;stroke:#FFD02C;stroke-width:2;stroke-miterlimit:10;}
	.st5{fill:#7DE2EF;}
</style>
<g id="Layer_1" class="st0">
	<g id="XMLID_1_" class="st1">
		<g id="XMLID_81_">
			<path id="XMLID_82_" class="st2" d="M512,2c68.9,0,135.6,13.5,198.5,40.1c60.7,25.7,115.3,62.5,162.1,109.3
				s83.6,101.4,109.3,162.1c26.6,62.9,40.1,129.7,40.1,198.5s-13.5,135.6-40.1,198.5c-25.7,60.7-62.5,115.3-109.3,162.1
				s-101.4,83.6-162.1,109.3c-62.9,26.6-129.7,40.1-198.5,40.1s-135.6-13.5-198.5-40.1c-60.7-25.7-115.3-62.5-162.1-109.3
				S67.8,771.2,42.1,710.5C15.5,647.6,2,580.9,2,512s13.5-135.6,40.1-198.5c25.7-60.7,62.5-115.3,109.3-162.1S252.8,67.8,313.5,42.1
				C376.4,15.5,443.1,2,512,2 M512,0C229.2,0,0,229.2,0,512s229.2,512,512,512s512-229.2,512-512S794.8,0,512,0L512,0z"/>
		</g>
	</g>
	<circle id="XMLID_5_" class="st3" cx="32" cy="32" r="32"/>
	<rect id="XMLID_22_" x="160.5" y="160" class="st4" width="704" height="704"/>
	<circle id="XMLID_24_" class="st4" cx="512.5" cy="512" r="352"/>
	<rect id="XMLID_33_" x="288" y="288" class="st4" width="448" height="449.6"/>
	<circle id="XMLID_34_" class="st4" cx="512" cy="513.6" r="224"/>
	<rect id="XMLID_35_" x="352" y="352" class="st4" width="318.3" height="321"/>
	<circle id="XMLID_36_" class="st4" cx="511.2" cy="511.2" r="159.2"/>
</g>
<g id="Layer_2">
	<g id="XMLID_38_">
		<path id="XMLID_39_" class="st5" d="M719.6,371c0,0,30.7-37.6,17-69.2l2.1-2.1c8.5-8.5,30-37.8,22.7-45.3
			c-7.3-7.5-36.5,13.9-45.3,22.7c-0.6,0.6-1.2,1.2-1.8,1.8c-32.4-15.7-70.3,16.6-70.3,16.6l-75,60.8l-67.9,67.9
			c0,0-149.4,160.5-190.8,217.9c0,0,32.4-14.3,55,8.4c22.6,22.6,9.5,56.2,9.5,56.2c57.2-41.6,216.8-191.9,216.8-191.9l67.9-67.9
			L719.6,371z"/>
		<path id="XMLID_64_" class="st5" d="M455.9,424.2l67.9-67.9l-249-249.1c0,0-11.7-10.6-45.2,22.8c-33.5,33.5-22.7,45.1-22.7,45.1
			L455.9,424.2z"/>
		<path id="XMLID_65_" class="st5" d="M342.1,673.7c-22.6-22.6-49.8-4.6-49.8-4.6c-35.1,52.9-70,109.7-62.6,117
			c7.3,7.3,65.5-26,118.2-61.4C347.9,724.8,364.7,696.4,342.1,673.7z"/>
		<path id="XMLID_66_" class="st5" d="M364.7,741.6c-5.9,4-11.6,8-17.6,12.1c-29.8,20.4-49.8,30.8-49.8,30.8l80.1,80.1
			c0,0,11.3,11.5,38.9-16.2c27.7-27.7,16.2-38.9,16.2-38.9L364.7,741.6z"/>
		<path id="XMLID_67_" class="st5" d="M909.3,741.8l-249.1-249l-67.9,67.9l249.1,249c0,0,11.6,10.8,45.1-22.7
			S909.3,741.8,909.3,741.8z"/>
		<path id="XMLID_68_" class="st5" d="M261.6,668.2c4.1-6,8-11.8,12.1-17.6l-67.9-67.9c0,0-11.3-11.5-38.9,16.2
			c-27.7,27.7-16.2,38.9-16.2,38.9l80.1,80.1C230.7,718,241.2,698.1,261.6,668.2z"/>
		<path id="XMLID_69_" class="st5" d="M529.4,316.6c9.4,9.4,20.8,13.2,25.5,8.5l28.3-28.3c4.7-4.7,0.9-16.1-8.5-25.5l-11.3-11.3
			c-9.4-9.4-20.8-13.2-25.5-8.5l-28.3,28.3c-4.7,4.7-0.9,16.1,8.5,25.5L529.4,316.6z"/>
		<path id="XMLID_70_" class="st5" d="M745.1,441.8c-9.3-9.3-20.8-13.2-25.5-8.5l-28.3,28.3c-4.7,4.7-0.8,16.1,8.5,25.5l11.3,11.3
			c9.3,9.3,20.8,13.2,25.5,8.5l28.3-28.3c4.7-4.7,0.8-16.1-8.5-25.5L745.1,441.8z"/>
		<path id="XMLID_71_" class="st5" d="M828.6,344.3c7,7,16.5,8.8,21.1,4.2l5.7-5.7c4.7-4.7,2.8-14.2-4.2-21.1L808,278.4
			c-7-7-16.5-8.8-21.1-4.2l-5.7,5.7c-4.7,4.7-2.8,14.2,4.2,21.1L828.6,344.3z"/>
		<path id="XMLID_72_" class="st5" d="M714.9,230.6c6.9,6.9,16.3,8.7,21,4l5.7-5.7c4.7-4.7,2.9-14.1-4-21l-42.8-42.8
			c-6.9-6.9-16.3-8.7-21-4l-5.7,5.7c-4.7,4.7-2.9,14.1,4,21L714.9,230.6z"/>
	</g>
</g>
</svg>
