<?xml version="1.0" encoding="UTF-8"?>
<svg width="640px" height="640px" viewBox="0 0 640 640" version="1.1" xmlns="http://www.w3.org/2000/svg" xmlns:xlink="http://www.w3.org/1999/xlink">
    <!-- Generator: Sketch 46.2 (44496) - http://www.bohemiancoding.com/sketch -->
    <title>23</title>
    <desc>Created with Sketch.</desc>
    <defs>
        <polygon id="path-1" points="80 360 80 400 240 560 280 560 560 280 560 240 400 80 360 80"></polygon>
        <filter x="-3.1%" y="-3.1%" width="112.5%" height="112.5%" filterUnits="objectBoundingBox" id="filter-2">
            <feOffset dx="20" dy="20" in="SourceAlpha" result="shadowOffsetOuter1"></feOffset>
            <feGaussianBlur stdDeviation="5" in="shadowOffsetOuter1" result="shadowBlurOuter1"></feGaussianBlur>
            <feColorMatrix values="0 0 0 0 0   0 0 0 0 0   0 0 0 0 0  0 0 0 0.25 0" type="matrix" in="shadowBlurOuter1"></feColorMatrix>
        </filter>
        <linearGradient x1="100%" y1="80.5517578%" x2="0%" y2="0%" id="linearGradient-3">
            <stop stop-color="#997EAE" offset="0%"></stop>
            <stop stop-color="#613E7D" offset="100%"></stop>
        </linearGradient>
    </defs>
    <g id="Page-1" stroke="none" stroke-width="1" fill="none" fill-rule="evenodd">
        <g id="23">
            <g id="Combined-Shape">
                <use fill="black" fill-opacity="1" filter="url(#filter-2)" xlink:href="#path-1"></use>
                <use fill="#997EAE" fill-rule="evenodd" xlink:href="#path-1"></use>
            </g>
            <polygon id="Path-13" points="360 160 340 180 360 200 380 180"></polygon>
            <polygon id="Path-13-Copy" points="180 340 160 360 180 380 200 360"></polygon>
            <polygon id="Path-13-Copy-2" points="270 250 250 270 270 290 290 270"></polygon>
            <polygon id="Path-13-Copy-5" points="460 260 440 280 460 300 480 280"></polygon>
            <polygon id="Path-13-Copy-4" points="280 440 260 460 280 480 300 460"></polygon>
            <polygon id="Path-13-Copy-3" points="370 350 350 370 370 390 390 370"></polygon>
            <polygon id="Path-43" fill="#7F5E99" points="160 360 180.177734 340 200 360 190 370 180 360 170 370"></polygon>
            <polygon id="Path-43" fill="#7F5E99" points="340 180 360.177734 160 380 180 370 190 360 180 350 190"></polygon>
            <polygon id="Path-43-Copy" fill="#7F5E99" points="250 270 270.177734 250 290 270 280 280 270 270 260 280"></polygon>
            <polygon id="Path-43-Copy-2" fill="#7F5E99" points="440 280 460.177734 260 480 280 470 290 460 280 450 290"></polygon>
            <polygon id="Path-43-Copy-3" fill="#7F5E99" points="350 370 370.177734 350 390 370 380 380 370 370 360 380"></polygon>
            <polygon id="Path-43-Copy-4" fill="#7F5E99" points="260 460 280.177734 440 300 460 290 470 280 460 270 470"></polygon>
            <polygon id="Path-43" fill="#7F5E99" points="160 360 180.177734 340 200 360 190 370 180 360 170 370"></polygon>
            <polygon id="Path-42" fill="url(#linearGradient-3)" transform="translate(450.000000, 370.000000) scale(-1, 1) translate(-450.000000, -370.000000) " points="340 240 340 292 560 500 560 448"></polygon>
        </g>
    </g>
</svg>