<?xml version="1.0" encoding="utf-8"?>
<!-- Generator: Adobe Illustrator 19.0.0, SVG Export Plug-In . SVG Version: 6.00 Build 0)  -->
<svg version="1.1" xmlns="http://www.w3.org/2000/svg" xmlns:xlink="http://www.w3.org/1999/xlink" x="0px" y="0px"
	 viewBox="0 0 1024 1024" style="enable-background:new 0 0 1024 1024;" xml:space="preserve">
<style type="text/css">
	.st0{display:none;}
	.st1{display:inline;}
	.st2{fill:#FFD02C;}
	.st3{display:inline;fill:none;}
	.st4{display:inline;fill:none;stroke:#FFD02C;stroke-width:3;stroke-miterlimit:10;}
	.st5{fill:#B778F9;}
	.st6{fill:#7A55AA;}
</style>
<g id="Layer_1" class="st0">
	<g id="XMLID_1_" class="st1">
		<g id="XMLID_68_">
			<path id="XMLID_69_" class="st2" d="M512,3c68.7,0,135.4,13.5,198.1,40c60.6,25.6,115,62.3,161.8,109.1
				c46.7,46.7,83.4,101.2,109.1,161.8c26.5,62.8,40,129.4,40,198.1s-13.5,135.4-40,198.1c-25.6,60.6-62.3,115-109.1,161.8
				c-46.7,46.7-101.2,83.4-161.8,109.1c-62.8,26.5-129.4,40-198.1,40s-135.4-13.5-198.1-40c-60.6-25.6-115-62.3-161.8-109.1
				C105.3,825.2,68.6,770.7,43,710.1C16.5,647.4,3,580.7,3,512s13.5-135.4,40-198.1c25.6-60.6,62.3-115,109.1-161.8
				S253.3,68.6,313.9,43C376.6,16.5,443.3,3,512,3 M512,0C229.2,0,0,229.2,0,512s229.2,512,512,512s512-229.2,512-512S794.8,0,512,0
				L512,0z"/>
		</g>
	</g>
	<circle id="XMLID_5_" class="st3" cx="32" cy="32" r="32"/>
	<rect id="XMLID_22_" x="160.5" y="160" class="st4" width="704" height="704"/>
	<circle id="XMLID_24_" class="st4" cx="512.5" cy="512" r="352"/>
	<rect id="XMLID_33_" x="288" y="288" class="st4" width="448" height="449.6"/>
	<circle id="XMLID_34_" class="st4" cx="512" cy="513.6" r="224"/>
	<rect id="XMLID_35_" x="352" y="352" class="st4" width="318.3" height="318.3"/>
	<circle id="XMLID_36_" class="st4" cx="511.2" cy="511.2" r="159.2"/>
</g>
<g id="Layer_2">
	<g id="XMLID_37_">
		<path id="XMLID_80_" class="st5" d="M576,33L63.5,641.5L447,947.1L960,320L576,33z M288,593c-26.5,0-48-21.5-48-48
			c0-26.5,21.5-48,48-48s48,21.5,48,48C336,571.5,314.5,593,288,593z M368,385c0-26.5,21.5-48,48-48s48,21.5,48,48
			c0,26.5-21.5,48-48,48S368,411.5,368,385z M495,770c-26.5,0-48-21.5-48-48c0-26.5,21.5-48,48-48s48,21.5,48,48
			C543,748.5,521.5,770,495,770z M495,224.5c0-26.8,21.7-48.5,48.5-48.5s48.5,21.7,48.5,48.5c0,26.8-21.7,48.5-48.5,48.5
			S495,251.3,495,224.5z M624,609c-26.5,0-48-21.5-48-48c0-26.5,21.5-48,48-48s48,21.5,48,48C672,587.5,650.5,609,624,609z M752,449
			c-26.5,0-48-21.5-48-48c0-26.5,21.5-48,48-48s48,21.5,48,48C800,427.5,778.5,449,752,449z"/>
		<polygon id="XMLID_65_" class="st6" points="63,642 63,674 447,986.6 960,353 960,320 447,947.1 		"/>
		<path id="XMLID_73_" class="st6" d="M543.8,197.5c23.4,0,43,16.3,48,38.2c0.8-3.5,1.2-7.2,1.2-11c0-27.2-22-49.2-49.2-49.2
			s-49.2,22-49.2,49.2c0,3.8,0.4,7.5,1.2,11C500.7,213.8,520.3,197.5,543.8,197.5z"/>
		<path id="XMLID_38_" class="st6" d="M751.8,374.5c23.4,0,43,16.3,48,38.2c0.8-3.5,1.2-7.2,1.2-11c0-27.2-22-49.2-49.2-49.2
			s-49.2,22-49.2,49.2c0,3.8,0.4,7.5,1.2,11C708.7,390.8,728.3,374.5,751.8,374.5z"/>
		<path id="XMLID_66_" class="st6" d="M415.8,358.5c23.4,0,43,16.3,48,38.2c0.8-3.5,1.2-7.2,1.2-11c0-27.2-22-49.2-49.2-49.2
			s-49.2,22-49.2,49.2c0,3.8,0.4,7.5,1.2,11C372.7,374.8,392.3,358.5,415.8,358.5z"/>
		<path id="XMLID_72_" class="st6" d="M288.8,519.5c23.4,0,43,16.3,48,38.2c0.8-3.5,1.2-7.2,1.2-11c0-27.2-22-49.2-49.2-49.2
			s-49.2,22-49.2,49.2c0,3.8,0.4,7.5,1.2,11C245.7,535.8,265.3,519.5,288.8,519.5z"/>
		<path id="XMLID_74_" class="st6" d="M622.8,534.5c23.4,0,43,16.3,48,38.2c0.8-3.5,1.2-7.2,1.2-11c0-27.2-22-49.2-49.2-49.2
			s-49.2,22-49.2,49.2c0,3.8,0.4,7.5,1.2,11C579.7,550.8,599.3,534.5,622.8,534.5z"/>
		<path id="XMLID_75_" class="st6" d="M494.8,695.5c23.4,0,43,16.3,48,38.2c0.8-3.5,1.2-7.2,1.2-11c0-27.2-22-49.2-49.2-49.2
			s-49.2,22-49.2,49.2c0,3.8,0.4,7.5,1.2,11C451.7,711.8,471.3,695.5,494.8,695.5z"/>
	</g>
</g>
</svg>
