<?xml version="1.0" encoding="utf-8"?>
<!-- Generator: Adobe Illustrator 19.0.0, SVG Export Plug-In . SVG Version: 6.00 Build 0)  -->
<svg version="1.1" xmlns="http://www.w3.org/2000/svg" xmlns:xlink="http://www.w3.org/1999/xlink" x="0px" y="0px"
	 viewBox="0 0 1024 1024" style="enable-background:new 0 0 1024 1024;" xml:space="preserve">
<style type="text/css">
	.st0{display:none;}
	.st1{display:inline;}
	.st2{fill:#FFD02C;}
	.st3{display:inline;fill:none;}
	.st4{display:inline;fill:none;stroke:#FFD02C;stroke-width:3;stroke-miterlimit:10;}
	.st5{fill:#A084B5;}
	.st6{fill:#7A55AA;}
</style>
<g id="Layer_1" class="st0">
	<g id="XMLID_1_" class="st1">
		<g id="XMLID_68_">
			<path id="XMLID_69_" class="st2" d="M512,3c68.7,0,135.4,13.5,198.1,40c60.6,25.6,115,62.3,161.8,109.1
				c46.7,46.7,83.4,101.2,109.1,161.8c26.5,62.8,40,129.4,40,198.1s-13.5,135.4-40,198.1c-25.6,60.6-62.3,115-109.1,161.8
				c-46.7,46.7-101.2,83.4-161.8,109.1c-62.8,26.5-129.4,40-198.1,40s-135.4-13.5-198.1-40c-60.6-25.6-115-62.3-161.8-109.1
				C105.3,825.2,68.6,770.7,43,710.1C16.5,647.4,3,580.7,3,512s13.5-135.4,40-198.1c25.6-60.6,62.3-115,109.1-161.8
				S253.3,68.6,313.9,43C376.6,16.5,443.3,3,512,3 M512,0C229.2,0,0,229.2,0,512s229.2,512,512,512s512-229.2,512-512S794.8,0,512,0
				L512,0z"/>
		</g>
	</g>
	<circle id="XMLID_5_" class="st3" cx="32" cy="32" r="32"/>
	<rect id="XMLID_22_" x="160.5" y="160" class="st4" width="704" height="704"/>
	<circle id="XMLID_24_" class="st4" cx="512.5" cy="512" r="352"/>
	<rect id="XMLID_33_" x="288" y="288" class="st4" width="448" height="449.6"/>
	<circle id="XMLID_34_" class="st4" cx="512" cy="513.6" r="224"/>
	<rect id="XMLID_35_" x="352" y="352" class="st4" width="318.3" height="318.3"/>
	<circle id="XMLID_36_" class="st4" cx="511.2" cy="511.2" r="159.2"/>
</g>
<g id="Layer_2">
	<path id="XMLID_80_" class="st5" d="M583.7,5l-573,639.6l428.8,299.6L1013,306.7L583.7,5z M261.7,593.7
		c-29.6,0-53.7-22.6-53.7-50.5c0-27.9,24-50.5,53.7-50.5s53.7,22.6,53.7,50.5C315.3,571.1,291.3,593.7,261.7,593.7z M351.1,375
		c0-27.9,24-50.5,53.7-50.5c29.6,0,53.7,22.6,53.7,50.5c0,27.9-24,50.5-53.7,50.5C375.1,425.5,351.1,402.9,351.1,375z M493.1,779.7
		c-29.6,0-53.7-22.6-53.7-50.5c0-27.9,24-50.5,53.7-50.5s53.7,22.6,53.7,50.5C546.8,757.1,522.8,779.7,493.1,779.7z M493.1,206.3
		c0-28.2,24.3-51,54.2-51c29.9,0,54.2,22.8,54.2,51c0,28.2-24.3,51-54.2,51C517.4,257.3,493.1,234.5,493.1,206.3z M637.3,610.5
		c-29.6,0-53.7-22.6-53.7-50.5c0-27.9,24-50.5,53.7-50.5c29.6,0,53.7,22.6,53.7,50.5C691,587.9,667,610.5,637.3,610.5z M780.4,442.3
		c-29.6,0-53.7-22.6-53.7-50.5c0-27.9,24-50.5,53.7-50.5s53.7,22.6,53.7,50.5C834.1,419.7,810.1,442.3,780.4,442.3z"/>
	<polygon id="XMLID_65_" class="st6" points="11,645.2 11,708.6 439.9,1021 1013,372.1 1013,306.7 439.9,944.2 	"/>
	<path id="XMLID_73_" class="st6" d="M547.6,177.9c26.2,0,48.1,17.2,53.7,40.2c0.9-3.7,1.4-7.6,1.4-11.6c0-28.6-24.7-51.8-55.1-51.8
		c-30.4,0-55.1,23.2-55.1,51.8c0,4,0.5,7.8,1.4,11.6C499.5,195.1,521.4,177.9,547.6,177.9z"/>
	<path id="XMLID_38_" class="st6" d="M780.2,364c26.2,0,48.1,17.2,53.7,40.2c0.9-3.7,1.4-7.6,1.4-11.6c0-28.6-24.7-51.8-55.1-51.8
		c-30.4,0-55.1,23.2-55.1,51.8c0,4,0.5,7.8,1.4,11.6C732.1,381.2,754,364,780.2,364z"/>
	<path id="XMLID_66_" class="st6" d="M404.5,347.2c26.2,0,48.1,17.2,53.7,40.2c0.9-3.7,1.4-7.6,1.4-11.6c0-28.6-24.7-51.8-55.1-51.8
		s-55.1,23.2-55.1,51.8c0,4,0.5,7.8,1.4,11.6C356.4,364.4,378.3,347.2,404.5,347.2z"/>
	<path id="XMLID_72_" class="st6" d="M262.5,516.4c26.2,0,48.1,17.2,53.7,40.2c0.9-3.7,1.4-7.6,1.4-11.6c0-28.6-24.7-51.8-55.1-51.8
		s-55.1,23.2-55.1,51.8c0,4,0.5,7.8,1.4,11.6C214.4,533.6,236.3,516.4,262.5,516.4z"/>
	<path id="XMLID_74_" class="st6" d="M635.9,532.2c26.2,0,48.1,17.2,53.7,40.2c0.9-3.7,1.4-7.6,1.4-11.6c0-28.6-24.7-51.8-55.1-51.8
		c-30.4,0-55.1,23.2-55.1,51.8c0,4,0.5,7.8,1.4,11.6C587.9,549.3,609.8,532.2,635.9,532.2z"/>
	<path id="XMLID_75_" class="st6" d="M492.8,701.4c26.2,0,48.1,17.2,53.7,40.2c0.9-3.7,1.4-7.6,1.4-11.6c0-28.6-24.7-51.8-55.1-51.8
		c-30.4,0-55.1,23.2-55.1,51.8c0,4,0.5,7.8,1.4,11.6C444.8,718.6,466.7,701.4,492.8,701.4z"/>
</g>
</svg>
