<?xml version="1.0" encoding="utf-8"?>
<!-- Generator: Adobe Illustrator 19.0.0, SVG Export Plug-In . SVG Version: 6.00 Build 0)  -->
<svg version="1.1" xmlns="http://www.w3.org/2000/svg" xmlns:xlink="http://www.w3.org/1999/xlink" x="0px" y="0px"
	 viewBox="0 0 1024 1024" style="enable-background:new 0 0 1024 1024;" xml:space="preserve">
<style type="text/css">
	.st0{display:none;}
	.st1{display:inline;}
	.st2{fill:#FFD02C;}
	.st3{display:inline;fill:none;}
	.st4{display:inline;fill:none;stroke:#FFD02C;stroke-width:2;stroke-miterlimit:10;}
	.st5{fill:#FFB531;}
</style>
<g id="Layer_1" class="st0">
	<g id="XMLID_1_" class="st1">
		<g id="XMLID_81_">
			<path id="XMLID_82_" class="st2" d="M512,2c68.9,0,135.6,13.5,198.5,40.1c60.7,25.7,115.3,62.5,162.1,109.3
				s83.6,101.4,109.3,162.1c26.6,62.9,40.1,129.7,40.1,198.5s-13.5,135.6-40.1,198.5c-25.7,60.7-62.5,115.3-109.3,162.1
				s-101.4,83.6-162.1,109.3c-62.9,26.6-129.7,40.1-198.5,40.1s-135.6-13.5-198.5-40.1c-60.7-25.7-115.3-62.5-162.1-109.3
				S67.8,771.2,42.1,710.5C15.5,647.6,2,580.9,2,512s13.5-135.6,40.1-198.5c25.7-60.7,62.5-115.3,109.3-162.1S252.8,67.8,313.5,42.1
				C376.4,15.5,443.1,2,512,2 M512,0C229.2,0,0,229.2,0,512s229.2,512,512,512s512-229.2,512-512S794.8,0,512,0L512,0z"/>
		</g>
	</g>
	<circle id="XMLID_5_" class="st3" cx="32" cy="32" r="32"/>
	<rect id="XMLID_22_" x="160.5" y="160" class="st4" width="704" height="704"/>
	<circle id="XMLID_24_" class="st4" cx="512.5" cy="512" r="352"/>
	<rect id="XMLID_33_" x="288" y="288" class="st4" width="448" height="449.6"/>
	<circle id="XMLID_34_" class="st4" cx="512" cy="513.6" r="224"/>
	<rect id="XMLID_35_" x="352" y="352" class="st4" width="318.3" height="318.3"/>
	<circle id="XMLID_36_" class="st4" cx="511.2" cy="511.2" r="159.2"/>
</g>
<g id="Layer_3">
	<path id="XMLID_61_" class="st5" d="M863.2,799h-2.8c-5-13-16.4-23.9-29.4-28.6V383.8c17,0,31.4-14.2,31.4-31.6l-0.1,0
		c0-17.4-14.3-31.6-31.6-31.6h0c-0.5,0-1,0-1.6,0C813.2,158.9,676.8,32.4,510.8,32.4S208.4,158.9,192.6,320.7c-0.5,0-1,0-1.6,0h0
		c-17.4,0-31.6,14.2-31.6,31.6l0,0c0,17.4,14.2,31.6,31.6,31.6v386.8c-13.6,4.7-24.5,15.4-29.4,28.4h-0.8
		c-26.2,0-47.6,21.7-47.6,47.9v0.2c0,26.2,21.4,47.9,47.6,47.9h702.5c26.2,0,47.6-21.5,47.6-47.8v-0.3
		C910.9,820.7,889.4,799,863.2,799z M510.8,672c104.8,0,197.9-50.4,256.2-128.4v193c0,15.6-11.3,28.4-26.1,31.4H281.1
		c-14.8-3-26.1-15.9-26.1-31.4V544.2C313.3,621.8,406.2,672,510.8,672z"/>
</g>
</svg>
