<?xml version="1.0" encoding="utf-8"?>
<!-- Generator: Adobe Illustrator 19.0.0, SVG Export Plug-In . SVG Version: 6.00 Build 0)  -->
<svg version="1.1" xmlns="http://www.w3.org/2000/svg" xmlns:xlink="http://www.w3.org/1999/xlink" x="0px" y="0px"
	 viewBox="0 0 1024 1024" style="enable-background:new 0 0 1024 1024;" xml:space="preserve">
<style type="text/css">
	.st0{display:none;}
	.st1{display:inline;}
	.st2{fill:#FFD02C;}
	.st3{display:inline;fill:none;}
	.st4{display:inline;fill:none;stroke:#FFD02C;stroke-width:2;stroke-miterlimit:10;}
	.st5{fill:#ADADAD;}
</style>
<g id="Layer_1" class="st0">
	<g id="XMLID_1_" class="st1">
		<g id="XMLID_81_">
			<path id="XMLID_82_" class="st2" d="M512,2c68.9,0,135.6,13.5,198.5,40.1c60.7,25.7,115.3,62.5,162.1,109.3
				s83.6,101.4,109.3,162.1c26.6,62.9,40.1,129.7,40.1,198.5s-13.5,135.6-40.1,198.5c-25.7,60.7-62.5,115.3-109.3,162.1
				s-101.4,83.6-162.1,109.3c-62.9,26.6-129.7,40.1-198.5,40.1s-135.6-13.5-198.5-40.1c-60.7-25.7-115.3-62.5-162.1-109.3
				S67.8,771.2,42.1,710.5C15.5,647.6,2,580.9,2,512s13.5-135.6,40.1-198.5c25.7-60.7,62.5-115.3,109.3-162.1S252.8,67.8,313.5,42.1
				C376.4,15.5,443.1,2,512,2 M512,0C229.2,0,0,229.2,0,512s229.2,512,512,512s512-229.2,512-512S794.8,0,512,0L512,0z"/>
		</g>
	</g>
	<circle id="XMLID_5_" class="st3" cx="32" cy="32" r="32"/>
	<rect id="XMLID_22_" x="160.5" y="160" class="st4" width="704" height="704"/>
	<circle id="XMLID_24_" class="st4" cx="512.5" cy="512" r="352"/>
	<rect id="XMLID_33_" x="288" y="288" class="st4" width="448" height="449.6"/>
	<circle id="XMLID_34_" class="st4" cx="512" cy="513.6" r="224"/>
	<rect id="XMLID_35_" x="352" y="352" class="st4" width="318.3" height="318.3"/>
	<circle id="XMLID_36_" class="st4" cx="511.2" cy="511.2" r="159.2"/>
</g>
<g id="Layer_2">
	<g id="XMLID_37_">
		<ellipse id="XMLID_39_" class="st5" cx="512.5" cy="152" rx="320.5" ry="72"/>
		<path id="XMLID_67_" class="st5" d="M834,217.7c0-4.6-2.4-9-6.9-13.3C798.3,233.8,668.4,256,512.5,256
			c-154.2,0-282.9-21.7-313.6-50.7c-3.9,4-5.9,8.1-5.9,12.3c0,0-1,175.7-1,177.4s1.4,5.9,1.4,5.9c15,32.5,152.1,58,319.1,58
			s304.1-25.5,319.1-58c0,0,1.4-4.2,1.4-5.9C833,393.4,834,219.6,834,217.7z M316.8,268.1L316.8,268.1
			C316.8,268.1,316.8,268.1,316.8,268.1L316.8,268.1z"/>
		<path id="XMLID_72_" class="st5" d="M511.5,492c-154.2,0-282.9-21.7-313.6-50.7c-3.9,4-5.9,8.1-5.9,12.3c0,0-1,175.7-1,177.4
			s1.4,5.9,1.4,5.9c15,32.5,152.1,58,319.1,58s304.1-25.5,319.1-58c0,0,1.4-4.2,1.4-5.9c0-1.7,1-175.4,1-177.4c0-4.6-2.4-9-6.9-13.3
			C797.3,469.8,667.4,492,511.5,492z M315.8,504.1L315.8,504.1C315.8,504.1,315.8,504.1,315.8,504.1L315.8,504.1z"/>
		<path id="XMLID_77_" class="st5" d="M826.1,670.4c-28.7,32.7-158.6,57.3-314.6,57.3c-154.2,0-282.9-24.1-313.6-56.2
			c-3.9,4.4-5.9,9-5.9,13.6c0,0-1,195-1,196.9s1.1,6,1.1,6c13.7,36.4,151.4,65,319.4,65s305.7-28.6,319.4-65h0.1l0-0.3
			c0.7-1.9,1-3.7,1-5.6c0-1.8,1-194.9,1-196.9C833,680.1,830.6,675.1,826.1,670.4z M315.8,741.1L315.8,741.1
			C315.8,741.1,315.8,741.1,315.8,741.1L315.8,741.1z"/>
	</g>
</g>
</svg>
