<?xml version="1.0" encoding="utf-8"?>
<!-- Generator: Adobe Illustrator 19.0.0, SVG Export Plug-In . SVG Version: 6.00 Build 0)  -->
<svg version="1.1" xmlns="http://www.w3.org/2000/svg" xmlns:xlink="http://www.w3.org/1999/xlink" x="0px" y="0px"
	 viewBox="0 0 1024 1024" style="enable-background:new 0 0 1024 1024;" xml:space="preserve">
<style type="text/css">
	.st0{display:none;}
	.st1{display:inline;}
	.st2{fill:#FFD02C;}
	.st3{display:inline;fill:none;stroke:#FFD02C;stroke-width:2;stroke-miterlimit:10;}
	.st4{fill:#B29E7D;}
</style>
<g id="Layer_1" class="st0">
	<g id="XMLID_1_" class="st1">
		<g id="XMLID_81_">
			<path id="XMLID_82_" class="st2" d="M512,2c68.9,0,135.6,13.5,198.5,40.1c60.7,25.7,115.3,62.5,162.1,109.3
				s83.6,101.4,109.3,162.1c26.6,62.9,40.1,129.7,40.1,198.5s-13.5,135.6-40.1,198.5c-25.7,60.7-62.5,115.3-109.3,162.1
				s-101.4,83.6-162.1,109.3c-62.9,26.6-129.7,40.1-198.5,40.1s-135.6-13.5-198.5-40.1c-60.7-25.7-115.3-62.5-162.1-109.3
				S67.8,771.2,42.1,710.5C15.5,647.6,2,580.9,2,512s13.5-135.6,40.1-198.5c25.7-60.7,62.5-115.3,109.3-162.1S252.8,67.8,313.5,42.1
				C376.4,15.5,443.1,2,512,2 M512,0C229.2,0,0,229.2,0,512s229.2,512,512,512s512-229.2,512-512S794.8,0,512,0L512,0z"/>
		</g>
	</g>
	<rect id="XMLID_22_" x="160.5" y="160" class="st3" width="704" height="704"/>
	<circle id="XMLID_24_" class="st3" cx="512.5" cy="512" r="352"/>
	<rect id="XMLID_33_" x="288" y="288" class="st3" width="448" height="449.6"/>
	<circle id="XMLID_34_" class="st3" cx="512" cy="513.6" r="224"/>
	<rect id="XMLID_35_" x="352" y="352" class="st3" width="318.3" height="318.3"/>
	<circle id="XMLID_36_" class="st3" cx="511.2" cy="511.2" r="159.2"/>
</g>
<g id="Layer_2">
	<path id="XMLID_46_" class="st4" d="M927,379.9V69h65V34H32v953h761v-70H462.5L860.8,69H894v318.6c0,0,62.3,3.9,62.3,58.1
		c0,37.3-27.6,67.1-61.7,67.1c-29.7,0-54.5-23.3-60.3-54c0,1.1-0.1,2.1-0.1,3.3c0,47.8,35.4,86.6,79,86.6c43.6,0,79-37.9,79-85.7
		C992.2,422.5,961,388.7,927,379.9z M694.2,105L329,847.3V387.6L112.5,105H694.2z M197.7,776H296v140.8L197.7,776z M267.2,917H98.4
		l82.8-122.4L267.2,917z M98.4,741l82.8-124.6L263.9,741H98.4z M197.7,599H296v142.5L197.7,599z M98.4,564l83.3-124l82.2,124H98.4z
		 M197.7,421H296v144.7L197.7,421z M297,387H98.4l99.3-123.5L297,387z M180.8,246L65,387.6V246H180.8z M65,422.9l99.3-1.1L65,564
		V422.9z M65,599h99.6L65,741.5V599z M164.6,776L65,916.8V776H164.6z M417.3,917h-87.2l151.3-132.8L417.3,917z M372.7,838.6
		l107.1-224.5l29.6,112.6L372.7,838.6z M534.9,671.7l-29.6-112.6l136.7-111.9L534.9,671.7z M533.4,501.8l107.1-224.5l29.6,112.6
		L533.4,501.8z M695.9,334.4L667,221.8l136-111.9L695.9,334.4z"/>
</g>
</svg>
