<?xml version="1.0" encoding="utf-8"?>
<!-- Generator: Adobe Illustrator 19.0.0, SVG Export Plug-In . SVG Version: 6.00 Build 0)  -->
<svg version="1.1" xmlns="http://www.w3.org/2000/svg" xmlns:xlink="http://www.w3.org/1999/xlink" x="0px" y="0px"
	 viewBox="0 0 1024 1024" style="enable-background:new 0 0 1024 1024;" xml:space="preserve">
<style type="text/css">
	.st0{display:none;}
	.st1{display:inline;}
	.st2{fill:#FFD02C;}
	.st3{display:inline;fill:none;stroke:#FFD02C;stroke-width:2;stroke-miterlimit:10;}
	.st4{fill:#B09D7F;}
</style>
<g id="Layer_1" class="st0">
	<g id="XMLID_1_" class="st1">
		<g id="XMLID_81_">
			<path id="XMLID_82_" class="st2" d="M512,2c68.9,0,135.6,13.5,198.5,40.1c60.7,25.7,115.3,62.5,162.1,109.3
				s83.6,101.4,109.3,162.1c26.6,62.9,40.1,129.7,40.1,198.5s-13.5,135.6-40.1,198.5c-25.7,60.7-62.5,115.3-109.3,162.1
				s-101.4,83.6-162.1,109.3c-62.9,26.6-129.7,40.1-198.5,40.1s-135.6-13.5-198.5-40.1c-60.7-25.7-115.3-62.5-162.1-109.3
				S67.8,771.2,42.1,710.5C15.5,647.6,2,580.9,2,512s13.5-135.6,40.1-198.5c25.7-60.7,62.5-115.3,109.3-162.1S252.8,67.8,313.5,42.1
				C376.4,15.5,443.1,2,512,2 M512,0C229.2,0,0,229.2,0,512s229.2,512,512,512s512-229.2,512-512S794.8,0,512,0L512,0z"/>
		</g>
	</g>
	<rect id="XMLID_22_" x="160.5" y="160" class="st3" width="704" height="704"/>
	<circle id="XMLID_24_" class="st3" cx="512.5" cy="512" r="352"/>
	<rect id="XMLID_33_" x="288" y="288" class="st3" width="448" height="449.6"/>
	<circle id="XMLID_34_" class="st3" cx="512" cy="513.6" r="224"/>
	<rect id="XMLID_35_" x="352" y="352" class="st3" width="318.3" height="318.3"/>
	<circle id="XMLID_36_" class="st3" cx="511.2" cy="511.2" r="159.2"/>
</g>
<g id="Layer_2">
	<path id="XMLID_41_" class="st4" d="M863.5,384h1.5V162.7l32-3.2V128H128v704v64h640v-64H609v-63l-134.9,0.3l313.5-599l45.4-4.5
		V384h7.4c24,3.8,42.3,24.6,42.3,49.7c0,27.8-22.5,50.3-50.3,50.3c-24.3,0-44.5-17.2-49.3-40c0,0.8-0.1,1.7-0.1,2.5
		c0,35.6,28.9,64.5,64.5,64.5s64.5-28.9,64.5-64.5C912,416.4,891.4,391.1,863.5,384z M384.3,210.2l284.2-28.1L383.6,726.5
		L384.3,210.2z M224,288l-63.6,97.6L160,288H224z M256.1,288.6L320,384H192L256.1,288.6z M160,416h64l-64,96V416z M256,416l64,96
		H192L256,416z M160,544h64l-64,96V544z M256,544l64,96h-64h-64L256,544z M160,673h64l-63.6,95.4L160,673z M192,769l64.3-96.3
		L320,769H192z M351.6,768.3L288,673h64L351.6,768.3z M352,640l-64-96h64V640z M352,512l-64-96h64V512z M351.6,385.6L288,288h64
		L351.6,385.6z M451.3,769.4l-67.8,0.2l111.3-83.3L451.3,769.4z M406.1,726.9l87.5-167.2l24.1,83.9L406.1,726.9z M538.6,602.7
		l-24.1-83.9l111.6-83.3L538.6,602.7z M537.4,476.2L624.9,309l24.1,83.9L537.4,476.2z M670.1,351.5l-23.6-83.9l111.1-83.3
		L670.1,351.5z"/>
</g>
</svg>
