<?xml version="1.0" encoding="UTF-8"?>
<svg width="640px" height="640px" viewBox="0 0 640 640" version="1.1" xmlns="http://www.w3.org/2000/svg" xmlns:xlink="http://www.w3.org/1999/xlink">
    <!-- Generator: Sketch 46.2 (44496) - http://www.bohemiancoding.com/sketch -->
    <title>26</title>
    <desc>Created with Sketch.</desc>
    <defs>
        <linearGradient x1="40.3432617%" y1="40.9246271%" x2="60.0514762%" y2="49.8864131%" id="linearGradient-1">
            <stop stop-color="#A9926D" offset="0%"></stop>
            <stop stop-color="#A4885C" offset="100%"></stop>
        </linearGradient>
        <path d="M200,360 L200,300 L160,300 L160,360 L200,360 Z M200,420 L160,420 L160,480 L200,480 L200,420 Z M200,240 L200,180 L160,180 L160,240 L200,240 Z M440,480 L440,540 L120,540 L120,140 L160,140 L160,100 L520,100 L520,300 L480,300 L479.40625,160 L460,160 L240,400 L240,480 L440,480 Z M400,160 L240,160 L240,340 L400,160 Z" id="path-2"></path>
        <filter x="-3.8%" y="-3.4%" width="115.0%" height="113.6%" filterUnits="objectBoundingBox" id="filter-3">
            <feOffset dx="20" dy="20" in="SourceAlpha" result="shadowOffsetOuter1"></feOffset>
            <feGaussianBlur stdDeviation="5" in="shadowOffsetOuter1" result="shadowBlurOuter1"></feGaussianBlur>
            <feColorMatrix values="0 0 0 0 0   0 0 0 0 0   0 0 0 0 0  0 0 0 0.25 0" type="matrix" in="shadowBlurOuter1"></feColorMatrix>
        </filter>
    </defs>
    <g id="Page-1" stroke="none" stroke-width="1" fill="none" fill-rule="evenodd">
        <g id="26">
            <g id="Combined-Shape">
                <use fill="black" fill-opacity="1" filter="url(#filter-3)" xlink:href="#path-2"></use>
                <use fill="url(#linearGradient-1)" fill-rule="evenodd" xlink:href="#path-2"></use>
            </g>
        </g>
    </g>
</svg>