<?xml version="1.0" encoding="UTF-8"?>
<svg width="640px" height="640px" viewBox="0 0 640 640" version="1.1" xmlns="http://www.w3.org/2000/svg" xmlns:xlink="http://www.w3.org/1999/xlink">
    <!-- Generator: Sketch 46.2 (44496) - http://www.bohemiancoding.com/sketch -->
    <title>27</title>
    <desc>Created with Sketch.</desc>
    <defs>
        <rect id="path-1" x="110" y="410" width="120" height="120"></rect>
        <filter x="-12.5%" y="-12.5%" width="150.0%" height="150.0%" filterUnits="objectBoundingBox" id="filter-2">
            <feOffset dx="20" dy="20" in="SourceAlpha" result="shadowOffsetOuter1"></feOffset>
            <feGaussianBlur stdDeviation="5" in="shadowOffsetOuter1" result="shadowBlurOuter1"></feGaussianBlur>
            <feColorMatrix values="0 0 0 0 0   0 0 0 0 0   0 0 0 0 0  0 0 0 0.25 0" type="matrix" in="shadowBlurOuter1"></feColorMatrix>
        </filter>
        <path d="M230,170 L230,390 L340,280 L230,170 Z M210,150 L230,150 L230,170 Z M490,430 L230,430 L210,410 L210,150 L250,110 L410,110 L530,230 L530,390 L490,430 Z M470,410 L360,300 L250,410 L470,410 Z" id="path-3"></path>
        <filter x="-5.4%" y="-19.6%" width="125.0%" height="135.7%" filterUnits="objectBoundingBox" id="filter-4">
            <feOffset dx="20" dy="20" in="SourceAlpha" result="shadowOffsetOuter1"></feOffset>
            <feGaussianBlur stdDeviation="5" in="shadowOffsetOuter1" result="shadowBlurOuter1"></feGaussianBlur>
            <feColorMatrix values="0 0 0 0 0   0 0 0 0 0   0 0 0 0 0  0 0 0 0.25 0" type="matrix" in="shadowBlurOuter1"></feColorMatrix>
        </filter>
        <linearGradient x1="50%" y1="0%" x2="50%" y2="100%" id="linearGradient-5">
            <stop stop-color="#FCA825" offset="0%"></stop>
            <stop stop-color="#CC881F" offset="100%"></stop>
        </linearGradient>
        <linearGradient x1="0%" y1="62.4273682%" x2="0%" y2="13.1170654%" id="linearGradient-6">
            <stop stop-color="#FCA825" offset="0%"></stop>
            <stop stop-color="#CC891F" offset="100%"></stop>
        </linearGradient>
    </defs>
    <g id="Page-1" stroke="none" stroke-width="1" fill="none" fill-rule="evenodd">
        <g id="27">
            <g id="Rectangle">
                <use fill="black" fill-opacity="1" filter="url(#filter-2)" xlink:href="#path-1"></use>
                <use fill="#FCA825" fill-rule="evenodd" xlink:href="#path-1"></use>
            </g>
            <g id="Combined-Shape">
                <use fill="black" fill-opacity="1" filter="url(#filter-4)" xlink:href="#path-3"></use>
                <use fill="#FCA825" fill-rule="evenodd" xlink:href="#path-3"></use>
            </g>
            <polygon id="Path-52" fill="url(#linearGradient-5)" points="110 410 110 530 230 410"></polygon>
            <polygon id="Path-51" fill="url(#linearGradient-6)" points="210 150 490 430 530 390 250 110"></polygon>
        </g>
    </g>
</svg>