<?xml version="1.0" encoding="utf-8"?>
<!-- Generator: Adobe Illustrator 19.0.0, SVG Export Plug-In . SVG Version: 6.00 Build 0)  -->
<svg version="1.1" xmlns="http://www.w3.org/2000/svg" xmlns:xlink="http://www.w3.org/1999/xlink" x="0px" y="0px"
	 viewBox="0 0 1024 1024" style="enable-background:new 0 0 1024 1024;" xml:space="preserve">
<style type="text/css">
	.st0{display:none;}
	.st1{display:inline;}
	.st2{fill:#FFD02C;}
	.st3{display:inline;fill:none;}
	.st4{display:inline;fill:none;stroke:#FFD02C;stroke-width:2;stroke-miterlimit:10;}
</style>
<g id="Layer_1" class="st0">
	<g id="XMLID_1_" class="st1">
		<g id="XMLID_81_">
			<path id="XMLID_82_" class="st2" d="M512,2c68.9,0,135.6,13.5,198.5,40.1c60.7,25.7,115.3,62.5,162.1,109.3
				s83.6,101.4,109.3,162.1c26.6,62.9,40.1,129.7,40.1,198.5s-13.5,135.6-40.1,198.5c-25.7,60.7-62.5,115.3-109.3,162.1
				s-101.4,83.6-162.1,109.3c-62.9,26.6-129.7,40.1-198.5,40.1s-135.6-13.5-198.5-40.1c-60.7-25.7-115.3-62.5-162.1-109.3
				S67.8,771.2,42.1,710.5C15.5,647.6,2,580.9,2,512s13.5-135.6,40.1-198.5c25.7-60.7,62.5-115.3,109.3-162.1S252.8,67.8,313.5,42.1
				C376.4,15.5,443.1,2,512,2 M512,0C229.2,0,0,229.2,0,512s229.2,512,512,512s512-229.2,512-512S794.8,0,512,0L512,0z"/>
		</g>
	</g>
	<circle id="XMLID_5_" class="st3" cx="32" cy="32" r="32"/>
	<rect id="XMLID_22_" x="160.5" y="160" class="st4" width="704" height="704"/>
	<circle id="XMLID_24_" class="st4" cx="512.5" cy="512" r="352"/>
	<rect id="XMLID_33_" x="288" y="288" class="st4" width="448" height="449.6"/>
	<circle id="XMLID_34_" class="st4" cx="512" cy="513.6" r="224"/>
	<rect id="XMLID_35_" x="352" y="352" class="st4" width="318.3" height="318.3"/>
	<circle id="XMLID_36_" class="st4" cx="511.2" cy="511.2" r="159.2"/>
</g>
<g id="Layer_2">
	<path id="XMLID_60_" class="st2" d="M749,78.8C548.3-33,312.6,7.5,222.5,169.2c-5.2,9.4-9.8,19-13.9,28.7l0.1,0.1c0,0,0,0,0,0
		c-0.1,0.1-0.1,0.3-0.2,0.4l0,0l0,0c-1,2.3-0.5,5.4,1.4,9.2L283,702.9c-24.5,11-45.8,29.7-59.9,55c-34.7,62.3-12.3,141,50,175.7
		c62.3,34.7,141,12.3,175.7-50c13.7-24.6,18.5-51.7,15.5-77.7l456.2-199.8c7.1,0.2,11.7-1.2,13.4-4.2c0.7-1.2,0.9-2.6,0.7-4.2
		c5.3-7.6,10.3-15.4,14.8-23.6C1039.4,412.3,949.7,190.6,749,78.8z M426.2,728.3c-4.1-4-8.4-7.7-13-11.1l149.2-267.9
		c43.7,24.1,85.9,46.2,125.2,65.7L426.2,728.3z M534,433.5L384.9,701.2c-5.1-2.1-10.3-3.8-15.5-5.2l43.7-333.8
		C450.2,385.2,490.9,409.2,534,433.5z M238.7,239.8c30,26.6,80.5,62.8,144.1,103.4l-45.6,348.4c-10.1-0.1-20.1,1-29.9,3.2
		L238.7,239.8z M458.6,780.1c-3-9.1-7.1-18-12.1-26.3l273.3-223.1c67.8,32.6,125,56.3,163.2,67.7L458.6,780.1z"/>
</g>
</svg>
