<?xml version="1.0" encoding="utf-8"?>
<!-- Generator: Adobe Illustrator 19.0.0, SVG Export Plug-In . SVG Version: 6.00 Build 0)  -->
<svg version="1.1" xmlns="http://www.w3.org/2000/svg" xmlns:xlink="http://www.w3.org/1999/xlink" x="0px" y="0px"
	 viewBox="0 0 1024 1024" style="enable-background:new 0 0 1024 1024;" xml:space="preserve">
<style type="text/css">
	.st0{display:none;}
	.st1{display:inline;}
	.st2{fill:#FFD02C;}
	.st3{display:inline;fill:none;}
	.st4{display:inline;fill:none;stroke:#FFD02C;stroke-width:2;stroke-miterlimit:10;}
	.st5{fill:#F7CC61;}
</style>
<g id="Layer_1" class="st0">
	<g id="XMLID_1_" class="st1">
		<g id="XMLID_81_">
			<path id="XMLID_82_" class="st2" d="M512,2c68.9,0,135.6,13.5,198.5,40.1c60.7,25.7,115.3,62.5,162.1,109.3
				s83.6,101.4,109.3,162.1c26.6,62.9,40.1,129.7,40.1,198.5s-13.5,135.6-40.1,198.5c-25.7,60.7-62.5,115.3-109.3,162.1
				s-101.4,83.6-162.1,109.3c-62.9,26.6-129.7,40.1-198.5,40.1s-135.6-13.5-198.5-40.1c-60.7-25.7-115.3-62.5-162.1-109.3
				S67.8,771.2,42.1,710.5C15.5,647.6,2,580.9,2,512s13.5-135.6,40.1-198.5c25.7-60.7,62.5-115.3,109.3-162.1S252.8,67.8,313.5,42.1
				C376.4,15.5,443.1,2,512,2 M512,0C229.2,0,0,229.2,0,512s229.2,512,512,512s512-229.2,512-512S794.8,0,512,0L512,0z"/>
		</g>
	</g>
	<circle id="XMLID_5_" class="st3" cx="32" cy="32" r="32"/>
	<rect id="XMLID_22_" x="160.5" y="160" class="st4" width="704" height="704"/>
	<circle id="XMLID_24_" class="st4" cx="512.5" cy="512" r="352"/>
	<rect id="XMLID_33_" x="288" y="288" class="st4" width="448" height="449.6"/>
	<circle id="XMLID_34_" class="st4" cx="512" cy="513.6" r="224"/>
	<rect id="XMLID_35_" x="352" y="352" class="st4" width="318.3" height="318.3"/>
	<circle id="XMLID_36_" class="st4" cx="511.2" cy="511.2" r="159.2"/>
</g>
<g id="Layer_2">
	<g id="XMLID_37_">
		<path id="XMLID_38_" class="st5" d="M776,891.7c-1,0.6-2,1.2-2.8,1.7C774,892.9,774.9,892.4,776,891.7z"/>
		<path id="XMLID_40_" class="st5" d="M773.2,893.4c-0.3,0.2-0.6,0.4-0.9,0.5C772.7,893.8,772.9,893.6,773.2,893.4z"/>
		<path id="XMLID_46_" class="st5" d="M777.1,891.1c-0.4,0.2-0.7,0.4-1.1,0.7C776.4,891.5,776.8,891.3,777.1,891.1z"/>
		<path id="XMLID_56_" class="st5" d="M772.4,893.9c-0.1,0.1-0.2,0.1-0.3,0.2C772.2,894,772.3,894,772.4,893.9z"/>
		<path id="XMLID_57_" class="st5" d="M784.5,886.7c-0.2,0.1-0.5,0.3-0.7,0.4C784,887,784.3,886.9,784.5,886.7z"/>
		<path id="XMLID_60_" class="st5" d="M783.8,887.1c-2.3,1.3-4.6,2.7-6.7,4C778.9,890,781.2,888.7,783.8,887.1z"/>
		<path id="XMLID_65_" class="st5" d="M804.3,713.1L528.4,423c7-13.8,11.2-30.5,12.7-50.8l0.7-84.2C541,213.8,527,175,416,160H234.6
			L224,192l166.9,79.2c21.8,14,27.9,42.6,12.7,63.1c-15.2,20.4-40.9,26.4-62.7,12.3L192,256c0,0-20.2,25.7-19,32l51,64
			c42.7,55.4,136.3,137.9,205.3,128.7c1.4,3.3,166.7,319.9,191.1,365.1s87.3,82.5,174.2,34.9c0,0-4.8,2.8-10.1,6
			c2.9-1.7,6.2-3.7,10.1-6C849.7,848,837.2,754,804.3,713.1z M704,801c-17.7,0-32-14.3-32-32c0-17.7,14.3-32,32-32s32,14.3,32,32
			C736,786.7,721.7,801,704,801z"/>
		<path id="XMLID_66_" class="st5" d="M770.2,895.2C770.1,895.3,770.1,895.3,770.2,895.2L770.2,895.2z"/>
		<path id="XMLID_67_" class="st5" d="M770.5,895c-0.1,0.1-0.2,0.1-0.3,0.2C770.3,895.2,770.4,895.1,770.5,895z"/>
		<path id="XMLID_68_" class="st5" d="M772.1,894.1c-0.1,0.1-0.3,0.2-0.4,0.2C771.8,894.3,771.9,894.2,772.1,894.1z"/>
		<path id="XMLID_69_" class="st5" d="M771.6,894.4c-0.2,0.1-0.4,0.3-0.6,0.4C771.2,894.6,771.4,894.5,771.6,894.4z"/>
		<path id="XMLID_70_" class="st5" d="M771,894.7c-0.2,0.1-0.4,0.2-0.5,0.3C770.7,894.9,770.8,894.8,771,894.7z"/>
	</g>
</g>
</svg>
