<?xml version="1.0" encoding="utf-8"?>
<!-- Generator: Adobe Illustrator 19.0.0, SVG Export Plug-In . SVG Version: 6.00 Build 0)  -->
<svg version="1.1" xmlns="http://www.w3.org/2000/svg" xmlns:xlink="http://www.w3.org/1999/xlink" x="0px" y="0px"
	 viewBox="0 0 1024 1024" style="enable-background:new 0 0 1024 1024;" xml:space="preserve">
<style type="text/css">
	.st0{display:none;}
	.st1{display:inline;}
	.st2{fill:#FFD02C;}
	.st3{fill:#CEA265;}
</style>
<g id="Layer_1" class="st0">
	<g id="XMLID_1_" class="st1">
		<g id="XMLID_81_">
			<path id="XMLID_82_" class="st2" d="M512,2c68.9,0,135.6,13.5,198.5,40.1c60.7,25.7,115.3,62.5,162.1,109.3
				s83.6,101.4,109.3,162.1c26.6,62.9,40.1,129.7,40.1,198.5s-13.5,135.6-40.1,198.5c-25.7,60.7-62.5,115.3-109.3,162.1
				s-101.4,83.6-162.1,109.3c-62.9,26.6-129.7,40.1-198.5,40.1s-135.6-13.5-198.5-40.1c-60.7-25.7-115.3-62.5-162.1-109.3
				S67.8,771.2,42.1,710.5C15.5,647.6,2,580.9,2,512s13.5-135.6,40.1-198.5c25.7-60.7,62.5-115.3,109.3-162.1S252.8,67.8,313.5,42.1
				C376.4,15.5,443.1,2,512,2 M512,0C229.2,0,0,229.2,0,512s229.2,512,512,512s512-229.2,512-512S794.8,0,512,0L512,0z"/>
		</g>
	</g>
</g>
<g id="Layer_2">
	<g id="XMLID_4_">
		<path id="XMLID_41_" class="st3" d="M176.4,41.3c9.3,4.7,18.1,10.9,25.9,18.6L347.3,205c39.4,39.4,39.6,104.4,0.2,143.7l-0.2,0.2
			c-39.4,39.4-104.4,39.2-143.8-0.2L58.4,203.7c-7.7-7.7-13.9-16.4-18.6-25.7C-20,257.1-13.9,371,58.2,443l97.7,97.7
			c78.7,78.7,207.4,78.3,286.1-0.4l97.7-97.7c78.7-78.7,79-207.4,0.4-286.1l-97.7-97.7C370-13.4,255.5-19.3,176.4,41.3z"/>
		<path id="XMLID_38_" class="st3" d="M562.3,420c-66.3-66.3-148.1-138-214.4-71.7l-0.4,0.4c-66.3,66.3,4.7,148.8,71,215.1
			l312.1,408c66.3,66.3,173.7,66.3,240,0l0.4-0.4c66.3-66.3,66.3-173.7,0-240L562.3,420z M923.3,924.8
			c-39.7,39.7-104.1,39.7-143.8,0c-39.7-39.7-39.7-104.1,0-143.8c39.7-39.7,104.1-39.7,143.8,0C963,820.7,963,885.1,923.3,924.8z"/>
	</g>
</g>
</svg>
