<?xml version="1.0" encoding="UTF-8"?>
<svg width="640px" height="640px" viewBox="0 0 640 640" version="1.1" xmlns="http://www.w3.org/2000/svg" xmlns:xlink="http://www.w3.org/1999/xlink">
    <!-- Generator: Sketch 46.2 (44496) - http://www.bohemiancoding.com/sketch -->
    <title>3</title>
    <desc>Created with Sketch.</desc>
    <defs>
        <polygon id="path-1" points="180 360 40 480 60 499.615234 200 380 220 400 80 520 100 540 240.462891 420.1875 260 440 120 560 140 580 280 460 320 460 380 460 600 260 600 200 400 60 340 100 340 140 200 260 180 320"></polygon>
        <filter x="-2.7%" y="-2.9%" width="110.7%" height="111.5%" filterUnits="objectBoundingBox" id="filter-2">
            <feOffset dx="20" dy="20" in="SourceAlpha" result="shadowOffsetOuter1"></feOffset>
            <feGaussianBlur stdDeviation="5" in="shadowOffsetOuter1" result="shadowBlurOuter1"></feGaussianBlur>
            <feColorMatrix values="0 0 0 0 0   0 0 0 0 0   0 0 0 0 0  0 0 0 0.25 0" type="matrix" in="shadowBlurOuter1"></feColorMatrix>
        </filter>
        <linearGradient x1="0%" y1="0%" x2="61.8027344%" y2="47.9421658%" id="linearGradient-3">
            <stop stop-color="#772424" offset="0%"></stop>
            <stop stop-color="#C22222" offset="100%"></stop>
        </linearGradient>
    </defs>
    <g id="Page-1" stroke="none" stroke-width="1" fill="none" fill-rule="evenodd">
        <g id="3">
            <g id="Path-3">
                <use fill="black" fill-opacity="1" filter="url(#filter-2)" xlink:href="#path-1"></use>
                <use fill="#C22222" fill-rule="evenodd" xlink:href="#path-1"></use>
            </g>
            <polygon id="Path-40" fill="url(#linearGradient-3)" points="340 100 540 240 540 280 340 140"></polygon>
        </g>
    </g>
</svg>