<?xml version="1.0" encoding="utf-8"?>
<!-- Generator: Adobe Illustrator 19.0.0, SVG Export Plug-In . SVG Version: 6.00 Build 0)  -->
<svg version="1.1" xmlns="http://www.w3.org/2000/svg" xmlns:xlink="http://www.w3.org/1999/xlink" x="0px" y="0px"
	 viewBox="0 0 1024 1024" style="enable-background:new 0 0 1024 1024;" xml:space="preserve">
<style type="text/css">
	.st0{display:none;}
	.st1{display:inline;}
	.st2{fill:#FFD02C;}
	.st3{display:inline;fill:none;stroke:#FFD02C;stroke-width:2;stroke-miterlimit:10;}
	.st4{fill:#8C9E48;}
</style>
<g id="Layer_1" class="st0">
	<g id="XMLID_1_" class="st1">
		<g id="XMLID_81_">
			<path id="XMLID_82_" class="st2" d="M512,2c68.9,0,135.6,13.5,198.5,40.1c60.7,25.7,115.3,62.5,162.1,109.3
				s83.6,101.4,109.3,162.1c26.6,62.9,40.1,129.7,40.1,198.5s-13.5,135.6-40.1,198.5c-25.7,60.7-62.5,115.3-109.3,162.1
				s-101.4,83.6-162.1,109.3c-62.9,26.6-129.7,40.1-198.5,40.1s-135.6-13.5-198.5-40.1c-60.7-25.7-115.3-62.5-162.1-109.3
				S67.8,771.2,42.1,710.5C15.5,647.6,2,580.9,2,512s13.5-135.6,40.1-198.5c25.7-60.7,62.5-115.3,109.3-162.1S252.8,67.8,313.5,42.1
				C376.4,15.5,443.1,2,512,2 M512,0C229.2,0,0,229.2,0,512s229.2,512,512,512s512-229.2,512-512S794.8,0,512,0L512,0z"/>
		</g>
	</g>
	<rect id="XMLID_22_" x="160.5" y="160" class="st3" width="704" height="704"/>
	<circle id="XMLID_24_" class="st3" cx="512.5" cy="512" r="352"/>
	<rect id="XMLID_33_" x="288" y="288" class="st3" width="448" height="449.6"/>
	<circle id="XMLID_34_" class="st3" cx="512" cy="513.6" r="224"/>
	<rect id="XMLID_35_" x="352" y="352" class="st3" width="318.3" height="318.3"/>
	<circle id="XMLID_36_" class="st3" cx="511.2" cy="511.2" r="159.2"/>
</g>
<g id="Layer_2">
	<path id="XMLID_40_" class="st4" d="M974,362.8L974,362.8l-1.3,0c-0.2,0-1,0-1.1,0c-3.2,0-33.9,5.4-33.9,5.4s0.2-39.6,0.2-41.5
		c0-41.8-114.8-77.4-271.8-90.7v-70.4c0,0-5-38-139-38s-134,38-134,38v70.4c-157,13.3-274.2,48.9-274.2,90.7
		c0,0.3-0.2,179.3-0.2,179.3s-67.2,10.2-67.9,10.2C22.8,516.2,0,560.6,0,615.4s22.7,99.2,50.7,99.2c0.2,0,68.3-10.5,68.3-10.5
		s0,135.9,0,136.4c0,52.9,183.9,111.2,410.1,111.2S938,893.3,938,840.5c0-2.3,0-274,0-274l36-5.3v0c26-0.5,50.1-44.7,50.1-99.2
		S1000,363.4,974,362.8z M734,661c-84.3,25.8-136,18.5-136,18.5V423l-22-103h65l93,88.9C734,408.9,734,655.5,734,661z M869,624.3
		c0,0-2,13.4-67,23.3c0-11.2,0-249.7,0-249.7l-115.7-78H736l133,59.9V624.3z"/>
</g>
</svg>
