<?xml version="1.0" encoding="utf-8"?>
<!-- Generator: Adobe Illustrator 19.0.0, SVG Export Plug-In . SVG Version: 6.00 Build 0)  -->
<svg version="1.1" xmlns="http://www.w3.org/2000/svg" xmlns:xlink="http://www.w3.org/1999/xlink" x="0px" y="0px"
	 viewBox="0 0 1024 1024" style="enable-background:new 0 0 1024 1024;" xml:space="preserve">
<style type="text/css">
	.st0{display:none;}
	.st1{display:inline;}
	.st2{fill:#FFD02C;}
	.st3{display:inline;fill:none;stroke:#FFD02C;stroke-width:2;stroke-miterlimit:10;}
	.st4{fill:#8A994E;}
</style>
<g id="Layer_1" class="st0">
	<g id="XMLID_1_" class="st1">
		<g id="XMLID_81_">
			<path id="XMLID_82_" class="st2" d="M512,2c68.9,0,135.6,13.5,198.5,40.1c60.7,25.7,115.3,62.5,162.1,109.3
				s83.6,101.4,109.3,162.1c26.6,62.9,40.1,129.7,40.1,198.5s-13.5,135.6-40.1,198.5c-25.7,60.7-62.5,115.3-109.3,162.1
				s-101.4,83.6-162.1,109.3c-62.9,26.6-129.7,40.1-198.5,40.1s-135.6-13.5-198.5-40.1c-60.7-25.7-115.3-62.5-162.1-109.3
				S67.8,771.2,42.1,710.5C15.5,647.6,2,580.9,2,512s13.5-135.6,40.1-198.5c25.7-60.7,62.5-115.3,109.3-162.1S252.8,67.8,313.5,42.1
				C376.4,15.5,443.1,2,512,2 M512,0C229.2,0,0,229.2,0,512s229.2,512,512,512s512-229.2,512-512S794.8,0,512,0L512,0z"/>
		</g>
	</g>
	<rect id="XMLID_22_" x="160.5" y="160" class="st3" width="704" height="704"/>
	<circle id="XMLID_24_" class="st3" cx="512.5" cy="512" r="352"/>
	<rect id="XMLID_33_" x="288" y="288" class="st3" width="448" height="449.6"/>
	<circle id="XMLID_34_" class="st3" cx="512" cy="513.6" r="224"/>
	<rect id="XMLID_35_" x="352" y="352" class="st3" width="318.3" height="318.3"/>
	<circle id="XMLID_36_" class="st3" cx="511.2" cy="511.2" r="159.2"/>
</g>
<g id="Layer_2">
	<path id="XMLID_40_" class="st4" d="M928,324L928,324L928,324c-0.2,0-0.3,0-0.5,0c-3,0-31.5,5.4-31.5,5.4s0.9-39.5,0.9-41.4
		c0-41.7-106.9-77.2-254.9-90.5V128H383v69.5c-148,13.2-255.2,48.7-255.2,90.5c0,0.3-0.8,178.9-0.8,178.9S64.2,477,63.5,477
		c-26.2,0-47.5,44.3-47.5,98.9s21.2,98.9,47.5,98.9c0.2,0,63.5-10.4,63.5-10.4s1,135.5,1,136c0,52.7,172.1,95.5,384.5,95.5
		S897,853.2,897,800.5c0-2.3-1-273.4-1-273.4l32-5.2v0c26-0.5,47-44.6,47-98.9S954,324.5,928,324z M704,627
		c-31.3,10.3-128,13-128,13V384l-63.5-96l31.5-4.3L704,370C704,370,704,621.5,704,627z M833,596.5c0,0-2.9,7.7-65,17.6
		c0-11.1,0-255,0-255l-185.1-81.9l37.6-7.2L833,341V596.5z"/>
</g>
</svg>
