<?xml version="1.0" encoding="utf-8"?>
<!-- Generator: Adobe Illustrator 19.0.0, SVG Export Plug-In . SVG Version: 6.00 Build 0)  -->
<svg version="1.1" xmlns="http://www.w3.org/2000/svg" xmlns:xlink="http://www.w3.org/1999/xlink" x="0px" y="0px"
	 viewBox="0 0 1024 1024" style="enable-background:new 0 0 1024 1024;" xml:space="preserve">
<style type="text/css">
	.st0{display:none;}
	.st1{display:inline;}
	.st2{fill:#FFD02C;}
	.st3{display:inline;fill:none;}
	.st4{display:inline;fill:none;stroke:#FFD02C;stroke-width:2;stroke-miterlimit:10;}
	.st5{fill:#7CF2B7;}
</style>
<g id="Layer_1" class="st0">
	<g id="XMLID_1_" class="st1">
		<g id="XMLID_81_">
			<path id="XMLID_82_" class="st2" d="M512,2c68.9,0,135.6,13.5,198.5,40.1c60.7,25.7,115.3,62.5,162.1,109.3
				s83.6,101.4,109.3,162.1c26.6,62.9,40.1,129.7,40.1,198.5s-13.5,135.6-40.1,198.5c-25.7,60.7-62.5,115.3-109.3,162.1
				s-101.4,83.6-162.1,109.3c-62.9,26.6-129.7,40.1-198.5,40.1s-135.6-13.5-198.5-40.1c-60.7-25.7-115.3-62.5-162.1-109.3
				S67.8,771.2,42.1,710.5C15.5,647.6,2,580.9,2,512s13.5-135.6,40.1-198.5c25.7-60.7,62.5-115.3,109.3-162.1S252.8,67.8,313.5,42.1
				C376.4,15.5,443.1,2,512,2 M512,0C229.2,0,0,229.2,0,512s229.2,512,512,512s512-229.2,512-512S794.8,0,512,0L512,0z"/>
		</g>
	</g>
	<circle id="XMLID_5_" class="st3" cx="32" cy="32" r="32"/>
	<rect id="XMLID_22_" x="160.5" y="160" class="st4" width="704" height="704"/>
	<circle id="XMLID_24_" class="st4" cx="512.5" cy="512" r="352"/>
	<rect id="XMLID_33_" x="288" y="288" class="st4" width="448" height="449.6"/>
	<circle id="XMLID_34_" class="st4" cx="512" cy="513.6" r="224"/>
	<rect id="XMLID_35_" x="352" y="352" class="st4" width="318.3" height="321"/>
	<circle id="XMLID_36_" class="st4" cx="511.2" cy="511.2" r="159.2"/>
</g>
<g id="Layer_2">
	<g id="XMLID_37_">
		<path id="XMLID_38_" class="st5" d="M879.7,689.7c11.9-12.9,36-43.3,17.4-61.9c-17.6-17.6-45.8,3-59.5,15.2
			c-14.3-15.8-29.2-32.1-43.9-48.2c0.8-0.4,1.3-0.8,1.5-1l11.3-11.3c11.3-11.3,37.4-53.1,22.7-68c-14.7-14.9-56.2,11-68,22.7
			c-6.7,6.7-9.5,9.5-10.6,10.6c-7.5-8.1-14.9-16.2-21.7-23.6l9.6-9.6c11.3-11.3,37.4-53.1,22.7-68c-14.7-14.9-56.2,11-68,22.7
			c-3.6,3.6-6.1,6.1-7.8,7.8c-15.6-16.9-24.8-26.9-24.8-26.9s40.7-48.5,87.2-97.9c46.6-49.4,19.2-80.8,12.1-87.9
			c-7.1-7.1-38.7-34.3-87.8,12.5c-49.2,46.8-97.4,87.7-97.4,87.7s-9.7-9-25.8-23.9l7.9-7.9c11.3-11.3,37.4-53.1,22.7-68
			s-56.2,11-68,22.7c-5.4,5.4-8.3,8.3-9.8,9.8c-7.5-6.9-15.5-14.2-23.6-21.7l10.7-10.7c11.3-11.3,37.4-53.1,22.7-68
			c-14.7-14.9-56.2,11-68,22.7c-10.6,10.6-11.3,11.3-11.3,11.3c-0.2,0.2-0.6,0.7-1,1.6c-16.1-14.7-32.3-29.5-48.1-43.8
			c12.3-14,32.8-42,15.3-59.5c-18.8-18.8-49.3,5.8-61.9,17.4c-41.3-37-71.8-63.5-73.9-62.7c-16.1,5.8-47.6,39.9-45.3,45.3
			c0.4,1,24,36.1,56,83.7c-23.6,33.9-56,97.4-56,97.4s53.4-26.7,88.3-49.5C373.4,361,454.9,481.7,454.9,481.7S294.4,651.7,253,709.2
			c0,0,31.7-13.5,54.3,9.1c22.6,22.6,10.2,55.5,10.2,55.5c57.2-41.6,226.9-203,226.9-203S665.8,652.9,766,720.5
			c-22.7,35-49.9,88.3-49.9,88.3s64.3-32.1,97.9-56c47,31.6,81.4,54.8,82.4,55.2c5.4,2.3,39.6-29.1,45.3-45.3
			C942.4,760.7,916.3,730.5,879.7,689.7z"/>
		<path id="XMLID_51_" class="st5" d="M284,741.6c-22.6-22.6-49.8-4.6-49.8-4.6c-35.1,52.9-93.2,134.8-85.9,142.1
			c7.3,7.3,88.8-51.1,141.5-86.5C289.8,792.6,306.6,764.2,284,741.6z"/>
		<path id="XMLID_55_" class="st5" d="M276.9,833.6C247,854,225,868.8,208.6,879.2c0,0,113.9,82.2,136.5,59.6
			c22.6-22.6-50.7-117.1-50.7-117.1C288.7,825.5,282.9,829.5,276.9,833.6z"/>
		<path id="XMLID_56_" class="st5" d="M203.9,731.1c0,0-94.5-73.4-117.1-50.7C64.2,703,146.4,817,146.4,817
			c10.4-16.4,25.1-38.4,45.5-68.3C196,742.7,200,736.8,203.9,731.1z"/>
	</g>
</g>
</svg>
