<?xml version="1.0" encoding="utf-8"?>
<!-- Generator: Adobe Illustrator 19.0.0, SVG Export Plug-In . SVG Version: 6.00 Build 0)  -->
<svg version="1.1" xmlns="http://www.w3.org/2000/svg" xmlns:xlink="http://www.w3.org/1999/xlink" x="0px" y="0px"
	 viewBox="0 0 1024 1024" style="enable-background:new 0 0 1024 1024;" xml:space="preserve">
<style type="text/css">
	.st0{display:none;}
	.st1{display:inline;}
	.st2{fill:#FFD02C;}
	.st3{display:inline;fill:none;}
	.st4{display:inline;fill:none;stroke:#FFD02C;stroke-width:2;stroke-miterlimit:10;}
	.st5{fill:#A2EBAD;}
</style>
<g id="Layer_1" class="st0">
	<g id="XMLID_1_" class="st1">
		<g id="XMLID_81_">
			<path id="XMLID_82_" class="st2" d="M512,2c68.9,0,135.6,13.5,198.5,40.1c60.7,25.7,115.3,62.5,162.1,109.3
				s83.6,101.4,109.3,162.1c26.6,62.9,40.1,129.7,40.1,198.5s-13.5,135.6-40.1,198.5c-25.7,60.7-62.5,115.3-109.3,162.1
				s-101.4,83.6-162.1,109.3c-62.9,26.6-129.7,40.1-198.5,40.1s-135.6-13.5-198.5-40.1c-60.7-25.7-115.3-62.5-162.1-109.3
				S67.8,771.2,42.1,710.5C15.5,647.6,2,580.9,2,512s13.5-135.6,40.1-198.5c25.7-60.7,62.5-115.3,109.3-162.1S252.8,67.8,313.5,42.1
				C376.4,15.5,443.1,2,512,2 M512,0C229.2,0,0,229.2,0,512s229.2,512,512,512s512-229.2,512-512S794.8,0,512,0L512,0z"/>
		</g>
	</g>
	<circle id="XMLID_5_" class="st3" cx="32" cy="32" r="32"/>
	<rect id="XMLID_22_" x="160.5" y="160" class="st4" width="704" height="704"/>
	<circle id="XMLID_24_" class="st4" cx="512.5" cy="512" r="352"/>
	<rect id="XMLID_33_" x="288" y="288" class="st4" width="448" height="449.6"/>
	<circle id="XMLID_34_" class="st4" cx="512" cy="513.6" r="224"/>
	<rect id="XMLID_35_" x="352" y="352" class="st4" width="318.3" height="321"/>
	<circle id="XMLID_36_" class="st4" cx="511.2" cy="511.2" r="159.2"/>
</g>
<g id="Layer_2">
	<path id="XMLID_40_" class="st5" d="M1016.5,833.5c0.9-2.5-30.9-39.3-75.5-89.1c14.5-15.8,43.8-52.8,21.2-75.4
		c-21.5-21.5-55.8,3.7-72.5,18.6c-17.4-19.2-35.6-39.2-53.6-58.9c0.9-0.5,1.4-1,1.7-1.3l13.8-13.8c13.8-13.8,45.6-64.7,27.7-82.9
		s-68.5,13.4-82.9,27.7c-8.2,8.2-11.5,11.5-12.9,12.9c-9.1-9.9-18.2-19.8-26.4-28.7l11.7-11.7c13.8-13.8,45.6-64.7,27.7-82.9
		c-17.9-18.1-68.5,13.4-82.9,27.7c-4.4,4.4-7.4,7.4-9.5,9.5c-19-20.6-30.2-32.7-30.2-32.7s49.6-59,106.4-119.2
		c56.8-60.2,23.4-98.5,14.7-107.1c-8.7-8.6-47.1-41.8-107,15.2c-59.9,57.1-118.8,106.9-118.8,106.9s-11.9-11-31.6-29.2l9.7-9.7
		c13.8-13.8,45.6-64.7,27.7-82.9c-17.9-18.1-68.5,13.4-82.9,27.7c-6.6,6.6-10.1,10.1-11.9,11.9c-9-8.3-18.8-17.4-28.7-26.4l13-13
		c13.8-13.8,45.6-64.7,27.7-82.9c-17.9-18.1-68.5,13.4-82.9,27.7c-12.9,12.9-13.8,13.8-13.8,13.8c-0.3,0.3-0.6,1-1.2,2
		c-19.6-17.9-39.4-36-58.6-53.4c15-17.1,39.9-51.2,18.6-72.5c-22.9-22.9-60.1,7.1-75.4,21.2C229,37.6,191.8,5.3,189.2,6.3
		c-19.6,7-58,48.6-55.1,55.2c0.5,1.2,29.2,44,68.3,102c-28.8,41.3-68.2,118.7-68.2,118.7s65.1-32.5,107.6-60.3
		C324,343.9,423.4,491,423.4,491s-218.5,241.2-269,311.2c0,0.1-0.1,0.1-0.1,0.2C115.3,773,31.6,714.2,10.6,735.1
		C-10.7,756.4,58.7,853.1,91.5,896c-26.4,40.3-46.8,74.3-41.8,79.4c5.1,5,38.9-15.5,79.1-42.1c43,32.8,139.4,102,160.6,80.7
		c21-21-38.1-105.1-67.4-143.9c0.1,0,0.1-0.1,0.2-0.1c69.7-50.7,310.3-270.4,310.3-270.4s147.9,100.1,270,182.5
		c-27.7,42.6-60.8,107.7-60.8,107.7s78.3-39.2,119.3-68.2c57.2,38.6,99.2,66.7,100.4,67.3C967.9,891.5,1009.6,853.2,1016.5,833.5z"
		/>
</g>
</svg>
