<?xml version="1.0" encoding="UTF-8"?>
<svg width="640px" height="640px" viewBox="0 0 640 640" version="1.1" xmlns="http://www.w3.org/2000/svg" xmlns:xlink="http://www.w3.org/1999/xlink">
    <!-- Generator: Sketch 46.2 (44496) - http://www.bohemiancoding.com/sketch -->
    <title>35</title>
    <desc>Created with Sketch.</desc>
    <defs>
        <polygon id="path-1" points="320 60 160 120 320 180 480 120"></polygon>
        <filter x="-4.7%" y="-12.5%" width="118.8%" height="150.0%" filterUnits="objectBoundingBox" id="filter-2">
            <feOffset dx="20" dy="20" in="SourceAlpha" result="shadowOffsetOuter1"></feOffset>
            <feGaussianBlur stdDeviation="5" in="shadowOffsetOuter1" result="shadowBlurOuter1"></feGaussianBlur>
            <feColorMatrix values="0 0 0 0 0   0 0 0 0 0   0 0 0 0 0  0 0 0 0.25 0" type="matrix" in="shadowBlurOuter1"></feColorMatrix>
        </filter>
        <path d="M160,140 L319.454703,201.155237 L480,140 L480,520 L320,580 L160,520 L160,140 Z M160,320 L160,340 L320,400 L480,340 L480,320 L320,380 L160,320 Z" id="path-3"></path>
        <filter x="-4.7%" y="-3.4%" width="118.8%" height="113.6%" filterUnits="objectBoundingBox" id="filter-4">
            <feOffset dx="20" dy="20" in="SourceAlpha" result="shadowOffsetOuter1"></feOffset>
            <feGaussianBlur stdDeviation="5" in="shadowOffsetOuter1" result="shadowBlurOuter1"></feGaussianBlur>
            <feColorMatrix values="0 0 0 0 0   0 0 0 0 0   0 0 0 0 0  0 0 0 0.25 0" type="matrix" in="shadowBlurOuter1"></feColorMatrix>
        </filter>
    </defs>
    <g id="Page-1" stroke="none" stroke-width="1" fill="none" fill-rule="evenodd">
        <g id="35">
            <g id="Path-14">
                <use fill="black" fill-opacity="1" filter="url(#filter-2)" xlink:href="#path-1"></use>
                <use fill="#6FDBB1" fill-rule="evenodd" xlink:href="#path-1"></use>
            </g>
            <g id="Combined-Shape">
                <use fill="black" fill-opacity="1" filter="url(#filter-4)" xlink:href="#path-3"></use>
                <use fill="#5DC19A" fill-rule="evenodd" xlink:href="#path-3"></use>
            </g>
            <polygon id="Path-44" fill="#78E3B9" points="320 200 320.037109 380 480.037109 320 480.037109 140"></polygon>
            <polygon id="Path-44" fill="#78E3B9" points="320 400 320.037109 580 480.037109 520 480.037109 340"></polygon>
        </g>
    </g>
</svg>