<?xml version="1.0" encoding="UTF-8"?>
<svg width="640px" height="640px" viewBox="0 0 640 640" version="1.1" xmlns="http://www.w3.org/2000/svg" xmlns:xlink="http://www.w3.org/1999/xlink">
    <!-- Generator: Sketch 46.2 (44496) - http://www.bohemiancoding.com/sketch -->
    <title>36</title>
    <desc>Created with Sketch.</desc>
    <defs>
        <filter x="-2.8%" y="-5.4%" width="111.1%" height="121.4%" filterUnits="objectBoundingBox" id="filter-1">
            <feOffset dx="20" dy="20" in="SourceAlpha" result="shadowOffsetOuter1"></feOffset>
            <feGaussianBlur stdDeviation="5" in="shadowOffsetOuter1" result="shadowBlurOuter1"></feGaussianBlur>
            <feColorMatrix values="0 0 0 0 0   0 0 0 0 0   0 0 0 0 0  0 0 0 0.25 0" type="matrix" in="shadowBlurOuter1" result="shadowMatrixOuter1"></feColorMatrix>
            <feMerge>
                <feMergeNode in="shadowMatrixOuter1"></feMergeNode>
                <feMergeNode in="SourceGraphic"></feMergeNode>
            </feMerge>
        </filter>
        <linearGradient x1="0%" y1="0%" x2="34.5670573%" y2="100%" id="linearGradient-2">
            <stop stop-color="#747D45" offset="0%"></stop>
            <stop stop-color="#9AA55D" offset="100%"></stop>
        </linearGradient>
        <linearGradient x1="0%" y1="0%" x2="25.4140625%" y2="59.8144531%" id="linearGradient-3">
            <stop stop-color="#747D45" offset="0%"></stop>
            <stop stop-color="#7F894C" offset="45.061849%"></stop>
            <stop stop-color="#9AA55D" offset="100%"></stop>
        </linearGradient>
        <linearGradient x1="73.9510995%" y1="-43.1315104%" x2="79.5334201%" y2="184.492188%" id="linearGradient-4">
            <stop stop-color="#9AA55D" offset="0%"></stop>
            <stop stop-color="#757E46" offset="100%"></stop>
        </linearGradient>
    </defs>
    <g id="Page-1" stroke="none" stroke-width="1" fill="none" fill-rule="evenodd">
        <g id="36">
            <g id="Group" filter="url(#filter-1)" transform="translate(50.000000, 180.000000)">
                <polygon id="Path-25" fill="#9AA55D" transform="translate(270.000000, 140.000000) scale(-1, 1) translate(-270.000000, -140.000000) " points="-9.09494702e-13 100 -9.09494702e-13 180 140 240 140 260 160 280 480 280 500 260 500 240 540 180 540 80 480 80 480 20 420 20 420 80 380 80 380 0 280 0 280 100"></polygon>
                <rect id="Rectangle" fill="#9AA55D" x="240" y="40" width="200" height="20"></rect>
                <rect id="Rectangle-2" fill="url(#linearGradient-2)" x="60" y="20" width="60" height="60"></rect>
                <rect id="Rectangle-2-Copy" fill="url(#linearGradient-3)" x="160" y="0" width="100" height="100"></rect>
                <polygon id="Path-2" fill="url(#linearGradient-4)" points="0 180 40 240 400 240 540 180"></polygon>
            </g>
        </g>
    </g>
</svg>