<?xml version="1.0" encoding="utf-8"?>
<svg width="688px" height="688px" viewBox="0 0 688 688" xmlns="http://www.w3.org/2000/svg">
  <title>Combined Shape</title>
  <desc>Created with Sketch.</desc>
  <defs>
    <pattern id="pattern-0" x="0" y="0" width="20" height="20" patternUnits="userSpaceOnUse" viewBox="0 0 100 100">
      <path d="M 0 0 L 50 0 L 50 100 L 0 100 Z" style="fill: black;"/>
    </pattern>
  </defs>
  <path id="XMLID_40_" class="st5" d="M 546.995 684.641 C 545.369 685.24 426.634 576.625 413.824 564.654 C 413.499 565.253 413.173 565.585 412.979 565.784 L 404.005 574.964 C 396.371 582.772 371.277 599.246 356.669 596.657 C 358.04 597.411 359.425 598.358 360.751 599.479 L 399.77 632.465 C 405.159 637.019 405.497 644.741 400.525 649.713 C 395.554 654.684 387.836 654.351 383.277 648.959 L 350.292 609.939 C 345.845 604.681 344.131 598.486 346.35 595.893 C 346.346 595.89 346.344 595.888 346.342 595.886 C 346.34 595.884 346.337 595.881 346.335 595.879 C 343.743 598.097 337.552 596.386 332.289 591.937 L 293.27 558.951 C 287.882 554.396 287.543 546.675 292.515 541.703 C 297.486 536.732 305.204 537.065 309.762 542.457 L 342.749 581.477 C 344.334 583.352 345.571 585.346 346.408 587.252 C 346.523 587.001 346.646 586.749 346.775 586.496 C 344.333 571.676 360.247 546.349 368.113 538.248 C 373.443 532.793 375.59 530.599 376.501 529.668 C 370.062 523.615 363.624 517.563 357.837 512.109 C 357.837 512.109 319.149 478.254 320.514 476.858 C 307.118 464.22 299.251 456.771 299.251 456.771 C 299.251 456.771 260.886 489.76 221.74 527.539 C 182.596 565.317 157.692 543.103 152.099 537.316 C 146.507 531.53 124.919 505.99 161.983 466.15 C 199.112 426.31 231.494 387.134 231.494 387.134 C 231.494 387.134 224.342 379.217 212.507 366.117 C 212.507 366.117 176.874 329.134 178.044 327.938 C 172.648 321.952 166.73 315.434 160.877 308.85 L 152.425 317.495 C 144.865 325.226 120.187 341.454 105.522 339.261 C 106.869 340.008 108.227 340.942 109.529 342.042 L 148.548 375.028 C 153.937 379.582 154.275 387.304 149.303 392.276 C 144.331 397.247 136.614 396.913 132.055 391.522 L 99.07 352.502 C 94.623 347.243 92.909 341.049 95.128 338.456 C 95.124 338.453 95.122 338.451 95.12 338.448 C 95.118 338.446 95.115 338.444 95.113 338.442 C 92.521 340.66 86.33 338.948 81.067 334.499 L 42.048 301.514 C 36.66 296.959 36.321 289.238 41.293 284.266 C 46.264 279.295 53.982 279.628 58.54 285.02 L 91.527 324.04 C 93.112 325.914 94.349 327.908 95.186 329.815 C 95.226 329.727 95.267 329.639 95.309 329.551 C 92.422 314.81 108.572 288.977 116.53 280.781 C 124.919 272.201 125.504 271.603 125.504 271.603 C 125.699 271.402 126.155 271.203 126.805 270.803 C 115.165 257.768 8.459 136.116 9.109 134.388 C 13.662 121.351 40.711 95.812 45.003 97.74 C 45.784 98.072 324.285 290.16 324.285 290.16 C 324.285 290.16 481.125 144.829 526.641 111.241 C 526.708 111.241 526.708 111.175 526.774 111.175 C 507.656 85.235 469.421 29.565 483.012 15.598 C 496.861 1.43 559.739 47.59 587.636 69.405 C 613.842 51.846 635.95 38.278 639.265 41.603 C 642.516 44.996 629.186 67.476 611.89 94.215 C 633.218 122.815 678.215 186.932 664.365 201.033 C 650.709 215 596.024 175.691 570.794 156.204 C 570.794 156.269 570.73 156.269 570.73 156.337 C 537.762 202.695 394.902 362.724 394.902 362.724 C 394.902 362.724 582.628 647.193 583.019 647.992 C 584.709 652.315 559.805 680.051 546.995 684.641 Z" style="fill: rgb(69, 184, 255);"/>
</svg>