<?xml version="1.0" encoding="UTF-8" standalone="no"?>
<svg width="688px" height="688px" viewBox="0 0 688 688" version="1.1" xmlns="http://www.w3.org/2000/svg" xmlns:xlink="http://www.w3.org/1999/xlink">
    <!-- Generator: Sketch 3.7.2 (28276) - http://www.bohemiancoding.com/sketch -->
    <title>Combined Shape</title>
    <desc>Created with Sketch.</desc>
    <defs></defs>
    <g id="Page-1" stroke="none" stroke-width="1" fill="none" fill-rule="evenodd">
        <g id="Group" transform="translate(370.622979, 317.622979) rotate(315.000000) translate(-370.622979, -317.622979) translate(21.622979, -82.377021)" fill="#45B8FF">
            <path d="M373.617945,649.987492 L403.403728,346.096297 C405.245153,346.174372 407.110696,346.168041 408.996562,346.073702 L549,339.070112 L689.005846,332.066402 C722.146822,330.408544 749,311.160991 749,289.074995 C749,266.984142 722.135067,247.740858 688.995492,246.08307 C688.995492,246.08307 604.642022,241.863337 549,239.079878 C491.311103,236.194024 408.998964,232.076408 408.998964,232.076408 C406.325036,231.942646 403.691995,231.985816 401.110651,232.195644 C395.51691,190.937977 389,140.421112 389,129.002888 C389,112.842435 376.46405,96.6838665 360.682557,91.0722609 L360.573776,89.0001277 C360.37519,85.2173518 359.637428,81.6807891 358.51976,78.6651327 C361.567582,79.8546208 365.157635,80.6942766 369.000865,81.0163051 L448.999135,87.7194479 C460.054067,88.6457528 469,80.4410373 469,69.3953423 C469,58.3472186 460.045308,50.1456658 448.999135,51.0712367 L369.000865,57.7743795 C358.211532,58.6784295 349.431077,63.6553333 349.015397,69.0000209 C349.010267,69.000007 349.005138,69 349.000008,69 C348.994867,69 348.989728,69.000007 348.984589,69.000021 C348.568513,63.6542326 339.779919,58.6777971 328.999135,57.7744633 L249.000865,51.0713206 C237.945933,50.1450156 229,58.3497311 229,69.3954261 C229,80.4435498 237.954692,88.6451026 249.000865,87.7195317 L328.999135,81.0163889 C332.843799,80.6942403 336.433381,79.8549298 339.480293,78.6661014 C338.362518,81.6820508 337.624763,85.2185237 337.42624,89.0001277 L337.317428,91.0728358 C321.536122,96.6857712 309,112.847157 309,129.002888 C309,140.417963 302.482921,190.936457 296.889131,232.195427 C294.308599,231.985785 291.676432,231.942693 289.003438,232.076408 L149,239.079998 L8.99415358,246.083709 C-24.1468221,247.741566 -51,266.989119 -51,289.075115 C-51,311.165968 -24.1350669,330.409252 9.00450752,332.06704 C9.00450752,332.06704 93.3579784,336.286773 149,339.070232 C206.688897,341.956086 289.001036,346.073702 289.001036,346.073702 C290.887723,346.168083 292.754053,346.174377 294.596231,346.096195 L324.420043,650.377084 L254.400727,710.070524 C229.185741,731.567009 235.603322,749 268.744412,749 L348.737161,749 C348.824792,748.997661 348.912393,749 349,749 C349.252589,749 349.505117,748.980566 349.757447,748.942099 L349.757813,749 L429.750561,749 C462.891651,749 469.309232,731.567009 444.094246,710.070524 L373.617945,649.987492 Z" id="Combined-Shape" transform="translate(349.000000, 400.000000) rotate(-90.000000) translate(-349.000000, -400.000000) "></path>
        </g>
    </g>
</svg>