<?xml version="1.0" encoding="UTF-8" standalone="no"?>
<svg width="688px" height="688px" viewBox="0 0 688 688" version="1.1" xmlns="http://www.w3.org/2000/svg" xmlns:xlink="http://www.w3.org/1999/xlink">
    <!-- Generator: Sketch 3.7.2 (28276) - http://www.bohemiancoding.com/sketch -->
    <title>Group</title>
    <desc>Created with Sketch.</desc>
    <defs></defs>
    <g id="Page-1" stroke="none" stroke-width="1" fill="none" fill-rule="evenodd">
        <g id="Group" transform="translate(370.622979, 317.622979) rotate(-135.000000) translate(-370.622979, -317.622979) translate(-29.377021, -31.377021)" fill="#30B847">
            <path d="M360,78.0028877 C360,58.0057755 379.206337,38 400,38 C420.79406,38 440,58 440,78.0028877 C440,98.0057755 460,238 460,238 L420.794061,638.000891 C418.698659,671.137484 409.390905,698 400,698 C390.611159,698 381.301259,671.136195 379.206337,638.007184 L340,238 C340,238 360,98 360,78.0028877 Z" id="Rectangle-3"></path>
            <path d="M400.000008,18 C405.812152,18 410.993647,26.9494658 411.573776,38.0001277 L419.973312,197.999872 C420.553184,209.045638 411.613384,218 400.000008,218 C388.389185,218 379.446575,209.050534 380.026703,197.999872 L388.42624,38.0001277 C389.006111,26.9543622 394.186586,18 400.000008,18 Z" id="Rectangle-3-Copy"></path>
            <path d="M400,18.3953423 C400,29.4410373 391.054067,37.6457528 379.999135,36.7194479 L300.000865,30.0163051 C288.954692,29.0907341 280,23.8890595 280,18.3953423 C280,12.9028327 288.945933,7.7006844 300.000865,6.7743795 L379.999135,0.0712367221 C391.045308,-0.854334216 400,7.34721865 400,18.3953423 Z" id="Rectangle-3-Copy" transform="translate(340.000000, 18.395384) rotate(-180.000000) translate(-340.000000, -18.395384) "></path>
            <path d="M520,18.3953423 C520,29.4410373 511.054067,37.6457528 499.999135,36.7194479 L420.000865,30.0163051 C408.954692,29.0907341 400,23.8890595 400,18.3953423 C400,12.9028327 408.945933,7.7006844 420.000865,6.7743795 L499.999135,0.0712367221 C511.045308,-0.854334216 520,7.34721865 520,18.3953423 Z" id="Rectangle-3-Copy"></path>
            <path d="M340.003438,181.076408 C373.138624,179.41884 400,204.930744 400,238.075115 C400,271.2122 373.140695,296.731494 340.001036,295.073702 C340.001036,295.073702 257.688897,290.956086 200,288.070232 C144.357978,285.286773 60.0045075,281.06704 60.0045075,281.06704 C26.8649331,279.409252 0,260.165968 0,238.075115 C0,215.989119 26.8531779,196.741566 59.9941536,195.083709 L200,188.079998 L340.003438,181.076408 Z" id="Rectangle-3"></path>
            <path d="M740.003438,181.076408 C773.138624,179.41884 800,204.930744 800,238.075115 C800,271.2122 773.140695,296.731494 740.001036,295.073702 C740.001036,295.073702 657.688897,290.956086 600,288.070232 C544.357978,285.286773 460.004508,281.06704 460.004508,281.06704 C426.864933,279.409252 400,260.165968 400,238.075115 C400,215.989119 426.853178,196.741566 459.994154,195.083709 L600,188.079998 L740.003438,181.076408 Z" id="Rectangle-3-Copy-2" transform="translate(600.000000, 238.075055) rotate(-180.000000) translate(-600.000000, -238.075055) "></path>
            <path d="M399.737161,698 L319.744412,698 C286.603322,698 280.185741,680.567009 305.400727,659.070524 L400.494973,578 L399.737161,698 Z" id="Triangle-1"></path>
            <path d="M509.737161,698 L429.744412,698 C396.603322,698 390.185741,680.567009 415.400727,659.070524 L510.494973,578 L509.737161,698 Z" id="Triangle-1" transform="translate(455.247487, 638.000000) scale(-1, 1) translate(-455.247487, -638.000000) "></path>
        </g>
    </g>
</svg>