<?xml version="1.0" encoding="UTF-8"?>
<svg width="640px" height="640px" viewBox="0 0 640 640" version="1.1" xmlns="http://www.w3.org/2000/svg" xmlns:xlink="http://www.w3.org/1999/xlink">
    <!-- Generator: Sketch 46.2 (44496) - http://www.bohemiancoding.com/sketch -->
    <title>4</title>
    <desc>Created with Sketch.</desc>
    <defs>
        <polygon id="path-1" points="379 220 298.993315 300 78.5118408 140 60 161.181457 279 320 279 340 238.701414 380 238.701414 420 298.993315 479.298201 298.993315 500 499.69445 500 499.69445 479.298201 559.923613 440 559.923613 320 580 300 580 260 499.69445 220"></polygon>
        <filter x="-2.9%" y="-4.2%" width="111.5%" height="116.7%" filterUnits="objectBoundingBox" id="filter-2">
            <feOffset dx="20" dy="20" in="SourceAlpha" result="shadowOffsetOuter1"></feOffset>
            <feGaussianBlur stdDeviation="5" in="shadowOffsetOuter1" result="shadowBlurOuter1"></feGaussianBlur>
            <feColorMatrix values="0 0 0 0 0   0 0 0 0 0   0 0 0 0 0  0 0 0 0.25 0" type="matrix" in="shadowBlurOuter1"></feColorMatrix>
        </filter>
        <linearGradient x1="50%" y1="50%" x2="100%" y2="50%" id="linearGradient-3">
            <stop stop-color="#E9E100" offset="0%"></stop>
            <stop stop-color="#FFEA00" offset="100%"></stop>
        </linearGradient>
        <linearGradient x1="50%" y1="50%" x2="100%" y2="50%" id="linearGradient-4">
            <stop stop-color="#E9E100" offset="0%"></stop>
            <stop stop-color="#FFEA00" offset="100%"></stop>
        </linearGradient>
    </defs>
    <g id="Page-1" stroke="none" stroke-width="1" fill="none" fill-rule="evenodd">
        <g id="4">
            <g id="Path-4">
                <use fill="black" fill-opacity="1" filter="url(#filter-2)" xlink:href="#path-1"></use>
                <use fill="#FFEA00" fill-rule="evenodd" xlink:href="#path-1"></use>
            </g>
            <rect id="Rectangle-12" fill="url(#linearGradient-3)" x="299" y="480" width="120" height="20"></rect>
            <rect id="Rectangle-12-Copy" fill="url(#linearGradient-4)" x="279" y="320" width="140" height="20"></rect>
            <rect id="Rectangle-12-Copy-2" fill="url(#linearGradient-3)" x="239" y="380" width="180" height="40"></rect>
        </g>
    </g>
</svg>