<?xml version="1.0" encoding="UTF-8" standalone="no"?>
<!-- Generator: Adobe Illustrator 19.0.0, SVG Export Plug-In . SVG Version: 6.00 Build 0)  -->

<svg
   xmlns:dc="http://purl.org/dc/elements/1.1/"
   xmlns:cc="http://creativecommons.org/ns#"
   xmlns:rdf="http://www.w3.org/1999/02/22-rdf-syntax-ns#"
   xmlns:svg="http://www.w3.org/2000/svg"
   xmlns="http://www.w3.org/2000/svg"
   xmlns:sodipodi="http://sodipodi.sourceforge.net/DTD/sodipodi-0.dtd"
   xmlns:inkscape="http://www.inkscape.org/namespaces/inkscape"
   version="1.1"
   x="0px"
   y="0px"
   viewBox="0 0 1024 1024"
   style="enable-background:new 0 0 1024 1024;"
   xml:space="preserve"
   id="svg2"
   inkscape:version="0.91 r13725"
   sodipodi:docname="39.svg"><metadata
     id="metadata24"><rdf:RDF><cc:Work
         rdf:about=""><dc:format>image/svg+xml</dc:format><dc:type
           rdf:resource="http://purl.org/dc/dcmitype/StillImage" /><dc:title></dc:title></cc:Work></rdf:RDF></metadata><defs
     id="defs22" /><sodipodi:namedview
     pagecolor="#ffffff"
     bordercolor="#666666"
     borderopacity="1"
     objecttolerance="10"
     gridtolerance="10"
     guidetolerance="10"
     inkscape:pageopacity="0"
     inkscape:pageshadow="2"
     inkscape:window-width="1920"
     inkscape:window-height="1016"
     id="namedview20"
     showgrid="false"
     inkscape:zoom="0.32593203"
     inkscape:cx="1305.104"
     inkscape:cy="199.64344"
     inkscape:window-x="0"
     inkscape:window-y="0"
     inkscape:window-maximized="1"
     inkscape:current-layer="svg2" /><style
     type="text/css"
     id="style4">
	.st0{display:none;}
	.st1{display:inline;}
	.st2{fill:#FFD02C;}
	.st3{display:inline;fill:none;}
	.st4{display:inline;fill:none;stroke:#FFD02C;stroke-width:2;stroke-miterlimit:10;}
	.st5{fill:#294754;}
	.st6{fill:#E54E4E;}
</style><g
     id="Layer_1"
     class="st0"><g
       id="XMLID_1_"
       class="st1"><g
         id="XMLID_81_"><path
           id="XMLID_82_"
           class="st2"
           d="M512,2c68.9,0,135.6,13.5,198.5,40.1c60.7,25.7,115.3,62.5,162.1,109.3     s83.6,101.4,109.3,162.1c26.6,62.9,40.1,129.7,40.1,198.5s-13.5,135.6-40.1,198.5c-25.7,60.7-62.5,115.3-109.3,162.1     s-101.4,83.6-162.1,109.3c-62.9,26.6-129.7,40.1-198.5,40.1s-135.6-13.5-198.5-40.1c-60.7-25.7-115.3-62.5-162.1-109.3     S67.8,771.2,42.1,710.5C15.5,647.6,2,580.9,2,512s13.5-135.6,40.1-198.5c25.7-60.7,62.5-115.3,109.3-162.1S252.8,67.8,313.5,42.1     C376.4,15.5,443.1,2,512,2 M512,0C229.2,0,0,229.2,0,512s229.2,512,512,512s512-229.2,512-512S794.8,0,512,0L512,0z" /></g></g><circle
       id="XMLID_5_"
       class="st3"
       cx="32"
       cy="32"
       r="32" /><rect
       id="XMLID_22_"
       x="160.5"
       y="160"
       class="st4"
       width="704"
       height="704" /><circle
       id="XMLID_24_"
       class="st4"
       cx="512.5"
       cy="512"
       r="352" /><rect
       id="XMLID_33_"
       x="288"
       y="288"
       class="st4"
       width="448"
       height="449.6" /><circle
       id="XMLID_34_"
       class="st4"
       cx="512"
       cy="513.6"
       r="224" /><rect
       id="XMLID_35_"
       x="352"
       y="352"
       class="st4"
       width="318.3"
       height="318.3" /><circle
       id="XMLID_36_"
       class="st4"
       cx="511.2"
       cy="511.2"
       r="159.2" /></g><g
     id="Layer_2"
     transform="translate(0,-4.3860765e-5)"><path
       id="XMLID_37_"
       class="st5"
       d="M 299.2,331.3"
       inkscape:connector-curvature="0"
       style="fill:#294754" /><path
       id="XMLID_40_"
       class="st6"
       d="M 989.7,724 C 978.5,722.6 841.2,758.2 804.3,767.8 702.7,640 575.2,480.4 578.5,459.5 584.4,422.2 824.7,185.8 870.1,96.6 915.5,7.4 875.5,-17.8 813.1,16.1 750.7,50.1 433.6,329.8 433.6,329.8 L 217.3356,166.72881 c -26.67746,-23.30728 -71.08042,19.76453 -45.54341,49.8678 L 327,437.4 c 0,0 -272.8,315 -306.2,377.7 -33.4,62.7 -13.5,108.1 75.3,62 C 184.9,831 417.2,591 454.5,584.8 c 20.9,-3.5 181.2,123.6 309.4,224.8 -10.2,39.2 -44.8,172.7 -43.4,183.7 2.3,18.1 26.6,60.6 112.5,-11 29.9,-24.9 64.7,-69 64.7,-69 L 909,901.8 c 0,0 44.3,-34.7 69.7,-65.3 71.7,-85.9 29.1,-110.2 11,-112.5 z"
       inkscape:connector-curvature="0"
       style="fill:#e54e4e"
       sodipodi:nodetypes="cccscccccsscccccccc" /></g><ellipse
     style="fill:#e54e4e;fill-opacity:1"
     id="path3390"
     cx="252.93408"
     cy="653.89563"
     rx="54.952435"
     ry="221.28813"
     transform="matrix(0.70066388,-0.7134915,0.7134915,0.70066388,0,0)" /><ellipse
     style="fill:#e54e4e;fill-opacity:1"
     id="path3390-6"
     cx="-260.57602"
     cy="631.15302"
     rx="54.952435"
     ry="221.28813"
     transform="matrix(0.70066388,-0.7134915,0.7134915,0.70066388,0,0)" /></svg>