<?xml version="1.0" encoding="UTF-8" standalone="no"?>
<!-- Generator: Adobe Illustrator 19.0.0, SVG Export Plug-In . SVG Version: 6.00 Build 0)  -->

<svg
   xmlns:dc="http://purl.org/dc/elements/1.1/"
   xmlns:cc="http://creativecommons.org/ns#"
   xmlns:rdf="http://www.w3.org/1999/02/22-rdf-syntax-ns#"
   xmlns:svg="http://www.w3.org/2000/svg"
   xmlns="http://www.w3.org/2000/svg"
   xmlns:sodipodi="http://sodipodi.sourceforge.net/DTD/sodipodi-0.dtd"
   xmlns:inkscape="http://www.inkscape.org/namespaces/inkscape"
   version="1.1"
   x="0px"
   y="0px"
   viewBox="0 0 1024 1024"
   style="enable-background:new 0 0 1024 1024;"
   xml:space="preserve"
   id="svg17"
   sodipodi:docname="41.svg"
   inkscape:version="0.92.0 r15299"><metadata
     id="metadata23"><rdf:RDF><cc:Work
         rdf:about=""><dc:format>image/svg+xml</dc:format><dc:type
           rdf:resource="http://purl.org/dc/dcmitype/StillImage" /><dc:title></dc:title></cc:Work></rdf:RDF></metadata><defs
     id="defs21" /><sodipodi:namedview
     pagecolor="#ffffff"
     bordercolor="#666666"
     borderopacity="1"
     objecttolerance="10"
     gridtolerance="10"
     guidetolerance="10"
     inkscape:pageopacity="0"
     inkscape:pageshadow="2"
     inkscape:window-width="1920"
     inkscape:window-height="1016"
     id="namedview19"
     showgrid="false"
     inkscape:measure-start="0,0"
     inkscape:measure-end="0,0"
     showguides="true"
     inkscape:guide-bbox="true"
     inkscape:zoom="0.057617188"
     inkscape:cx="-2353.6298"
     inkscape:cy="3795.7022"
     inkscape:window-x="0"
     inkscape:window-y="0"
     inkscape:window-maximized="1"
     inkscape:current-layer="Layer_2"><sodipodi:guide
       position="1739.9322,1006.6441"
       orientation="1,0"
       id="guide4584"
       inkscape:locked="false" /></sodipodi:namedview><style
     type="text/css"
     id="style2">
	.st0{display:none;}
	.st1{display:inline;}
	.st2{fill:#FFD02C;}
	.st3{display:inline;fill:none;}
	.st4{display:inline;fill:none;stroke:#FFD02C;stroke-width:2;stroke-miterlimit:10;}
	.st5{fill:#FFCF00;}
</style><g
     id="Layer_1"
     class="st0"><g
       id="XMLID_1_"
       class="st1"><g
         id="XMLID_81_"><path
           id="XMLID_82_"
           class="st2"
           d="M512,2c68.9,0,135.6,13.5,198.5,40.1c60.7,25.7,115.3,62.5,162.1,109.3     s83.6,101.4,109.3,162.1c26.6,62.9,40.1,129.7,40.1,198.5s-13.5,135.6-40.1,198.5c-25.7,60.7-62.5,115.3-109.3,162.1     s-101.4,83.6-162.1,109.3c-62.9,26.6-129.7,40.1-198.5,40.1s-135.6-13.5-198.5-40.1c-60.7-25.7-115.3-62.5-162.1-109.3     S67.8,771.2,42.1,710.5C15.5,647.6,2,580.9,2,512s13.5-135.6,40.1-198.5c25.7-60.7,62.5-115.3,109.3-162.1S252.8,67.8,313.5,42.1     C376.4,15.5,443.1,2,512,2 M512,0C229.2,0,0,229.2,0,512s229.2,512,512,512s512-229.2,512-512S794.8,0,512,0L512,0z" /></g></g><circle
       id="XMLID_5_"
       class="st3"
       cx="32"
       cy="32"
       r="32" /><rect
       id="XMLID_22_"
       x="160.5"
       y="160"
       class="st4"
       width="704"
       height="704" /><circle
       id="XMLID_24_"
       class="st4"
       cx="512.5"
       cy="512"
       r="352" /><rect
       id="XMLID_33_"
       x="288"
       y="288"
       class="st4"
       width="448"
       height="449.6" /><circle
       id="XMLID_34_"
       class="st4"
       cx="512"
       cy="513.6"
       r="224" /><rect
       id="XMLID_35_"
       x="352"
       y="352"
       class="st4"
       width="318.3"
       height="318.3" /><circle
       id="XMLID_36_"
       class="st4"
       cx="511.2"
       cy="511.2"
       r="159.2" /></g><g
     id="Layer_2"><path
       id="XMLID_39_"
       class="st5"
       d="m 567.54453,560.3068 c 35.98451,17.12823 246.9318,130.90189 321.98684,146.44843 75.05515,15.54654 88.03875,-21.17715 52.48932,-62.22367 C 906.39504,603.5072 643.85718,418.75331 643.85718,418.75331 c -71.41586,50.27531 -119.5066,58.20959 -98.60329,-59.09782 0,0 -282.55086,-142.44275 -335.53968,-154.52854 -52.98881,-12.08578 -84.49715,13.475 -35.54051,72.36267 48.95667,58.8877 246.75244,191.37944 278.56857,214.10332 z"
       inkscape:connector-curvature="0"
       style="fill:#ffcf00;stroke-width:0.79232532"
       sodipodi:nodetypes="cscccsscc" /><path
       id="XMLID_39_-3-6"
       class="st5"
       d="m 698.12802,762.58267 c -24.79072,4.09395 -76.99653,15.85477 -103.4555,30.5857 -36.23338,-20.0164 -126.08845,-84.5292 -192.02582,-132.49347 -29.16544,-21.21554 10.79547,-45.32864 -8.54455,-58.56248 l -112.71909,-77.1308 c -32.55573,-22.27704 -36.68345,4.33164 -58.9713,5.26052 0,0 -47.89693,-21.14887 -90.61099,-44.4609 -20.07847,-11.94619 -37.18561,-0.70451 -47.82028,10.50128 l -0.096,-0.0583 c -19.8421,33.93867 0.096,0.0583 -19.8421,33.93867 -4.40495,14.35069 -5.37391,34.04675 15.01485,46.24079 40.07684,25.80027 82.82633,57.80001 82.82633,57.80001 l 379.34571,224.904 124.57515,77.72985 c 35.14102,-11.63525 78.666,-92.74769 76.64304,-125.58689 -8.75478,-36.37417 -20.5784,-50.0454 -44.31945,-48.66798 z"
       inkscape:connector-curvature="0"
       style="fill:#ffcf00;stroke-width:0.79424733"
       sodipodi:nodetypes="ccsssccccccccccc" /><g
       id="g4613"
       transform="matrix(0.71002745,0,0,0.71002745,-746.46142,-43.490241)"><g
         transform="translate(383.85311,-12.83304)"
         id="g4606"><path
           inkscape:tile-y0="-162.42869"
           inkscape:tile-x0="1717.3827"
           sodipodi:nodetypes="scscs"
           inkscape:connector-curvature="0"
           id="use4589"
           d="m 1807.5809,399.81016 c 0,67.097 -10.0957,56.2923 -22.5495,56.29259 -12.4538,0 -22.5496,10.80462 -22.5496,-56.29259 0,-67.0972 10.0957,-252.65254 22.5495,-252.65254 12.4538,3e-4 22.5496,185.55555 22.5496,252.65254 z"
           inkscape:transform-center-y="-121.44967"
           inkscape:transform-center-x="0.18212145"
           style="fill:#ffcc00;fill-opacity:1;stroke:none;stroke-width:51.65727997;stroke-miterlimit:4;stroke-dasharray:none;stroke-opacity:1" /><path
           inkscape:tile-y0="-162.42869"
           inkscape:tile-x0="1717.3827"
           sodipodi:nodetypes="scscs"
           inkscape:connector-curvature="0"
           id="use4591"
           d="m 1794.4596,454.56631 c -58.1077,-33.5485 -43.7027,-36.88928 -37.476,-47.67474 6.2269,-10.7853 1.9177,-24.93083 60.0256,8.61777 58.1078,33.5486 213.7556,135.06941 207.5287,145.85471 -6.2271,10.78516 -171.9706,-73.24925 -230.0783,-106.79774 z"
           inkscape:transform-center-y="-121.44967"
           inkscape:transform-center-x="0.18212145"
           style="fill:#ffcc00;fill-opacity:1;stroke:none;stroke-width:51.65727997;stroke-miterlimit:4;stroke-dasharray:none;stroke-opacity:1" /><path
           inkscape:tile-y0="-162.42869"
           inkscape:tile-x0="1717.3827"
           sodipodi:nodetypes="scscs"
           inkscape:connector-curvature="0"
           id="use4593"
           d="m 1753.6,415.82483 c 58.1077,-33.5485 53.7984,-19.40302 60.0255,-8.61785 6.2269,10.7853 20.6319,14.12621 -37.476,47.67482 -58.1078,33.5486 -223.8513,117.58314 -230.0782,106.79783 -6.2267,-10.78546 149.421,-112.3063 207.5287,-145.8548 z"
           inkscape:transform-center-y="-121.44967"
           inkscape:transform-center-x="0.18212145"
           style="fill:#ffcc00;fill-opacity:1;stroke:none;stroke-width:51.65727997;stroke-miterlimit:4;stroke-dasharray:none;stroke-opacity:1" /></g><circle
         r="60.232307"
         cy="418.05994"
         cx="2169.1577"
         id="path4601"
         style="fill:#ffcc00;fill-opacity:1;stroke:none;stroke-width:50;stroke-miterlimit:4;stroke-dasharray:none;stroke-opacity:1" /></g></g></svg>