<?xml version="1.0" encoding="UTF-8"?>
<svg width="640px" height="640px" viewBox="0 0 640 640" version="1.1" xmlns="http://www.w3.org/2000/svg" xmlns:xlink="http://www.w3.org/1999/xlink">
    <!-- Generator: Sketch 46.2 (44496) - http://www.bohemiancoding.com/sketch -->
    <title>43</title>
    <desc>Created with Sketch.</desc>
    <defs>
        <path d="M403.636364,148.636364 L240,185 L220,165 L185.714286,173.571429 L100,105 L40,105 L20,125 L130.526316,203.947368 L120,225 L80,245 L60,285 L40,305 L80,305 L260,285 L451.611519,180.484626 L540,205 L560,185 L478.904853,165.597353 L480,165 L520,45 L480,65 L428.571429,133.571429 L400,105 L360,105 L403.636364,148.636364 Z" id="path-1"></path>
        <filter x="-2.8%" y="-5.8%" width="111.1%" height="123.1%" filterUnits="objectBoundingBox" id="filter-2">
            <feOffset dx="20" dy="20" in="SourceAlpha" result="shadowOffsetOuter1"></feOffset>
            <feGaussianBlur stdDeviation="5" in="shadowOffsetOuter1" result="shadowBlurOuter1"></feGaussianBlur>
            <feColorMatrix values="0 0 0 0 0   0 0 0 0 0   0 0 0 0 0  0 0 0 0.25 0" type="matrix" in="shadowBlurOuter1"></feColorMatrix>
        </filter>
        <linearGradient x1="0%" y1="50%" x2="50%" y2="100%" id="linearGradient-3">
            <stop stop-color="#B6EFBF" offset="0%"></stop>
            <stop stop-color="#A2D3AA" offset="100%"></stop>
        </linearGradient>
        <path d="M420,155 L640,375 L420,595 L200,375 L420,155 Z M314.08,275.74 L314.08,322.82 L356.54,322.82 L356.54,275.74 L314.08,275.74 Z M344,310.94 L326.62,310.94 L326.62,287.4 L344,287.4 L344,310.94 Z M369.74,275.74 L369.74,322.82 L411.98,322.82 L411.98,275.74 L369.74,275.74 Z M399.44,310.94 L382.28,310.94 L382.28,287.4 L399.44,287.4 L399.44,310.94 Z M318.26,334.48 L318.26,408.84 L356.1,408.84 L356.1,425.12 L310.12,425.12 L310.12,438.76 L356.1,438.76 L356.1,470 L370.18,470 L370.18,438.76 L414.62,438.76 L414.62,425.12 L370.18,425.12 L370.18,408.84 L407.8,408.84 L407.8,334.48 L318.26,334.48 Z M393.5,395.86 L370.18,395.86 L370.18,377.38 L393.5,377.38 L393.5,395.86 Z M356.1,395.86 L332.34,395.86 L332.34,377.38 L356.1,377.38 L356.1,395.86 Z M332.34,365.06 L332.34,347.46 L356.1,347.46 L356.1,365.06 L332.34,365.06 Z M370.18,347.46 L393.5,347.46 L393.5,365.06 L370.18,365.06 L370.18,347.46 Z M504.16,316.44 L453.12,328.32 C452.24,311.16 451.8,291.14 451.8,268.7 L435.74,268.7 C435.74,292.02 436.18,313.14 437.5,332.06 L413.74,337.56 L416.16,352.74 L438.6,347.46 C439.92,361.98 441.68,374.96 443.88,386.4 C445.86,396.96 448.06,406.64 450.7,415.44 C438.38,429.96 424.3,441.4 408.68,449.76 L418.36,462.52 C431.78,455.92 444.54,445.8 456.64,432.6 C458.62,437.44 460.82,442.06 463.24,446.46 C471.16,459.66 478.42,466.26 485.46,466.26 C496.24,466.26 504.6,450.86 510.32,420.5 L496.9,413.24 C492.5,436.56 487.88,448.22 482.82,448.22 C479.96,448.22 476.22,442.94 471.38,432.6 C469.62,429.08 468.08,424.9 466.76,420.06 C479.08,403.34 490.74,382.66 501.3,357.58 L488.76,349 C480.84,368.8 471.82,385.96 461.7,400.92 C460.38,395.2 459.06,388.82 457.96,381.78 C456.2,371.66 454.88,358.9 454,343.94 L506.58,331.84 L504.16,316.44 Z M474.02,273.32 L461.92,281.02 C470.5,291.58 477.32,301.48 482.38,310.28 L494.92,301.48 C490.08,293.34 483.04,283.88 474.02,273.32 Z" id="path-4"></path>
        <filter x="-3.4%" y="-3.4%" width="113.6%" height="113.6%" filterUnits="objectBoundingBox" id="filter-5">
            <feOffset dx="20" dy="20" in="SourceAlpha" result="shadowOffsetOuter1"></feOffset>
            <feGaussianBlur stdDeviation="5" in="shadowOffsetOuter1" result="shadowBlurOuter1"></feGaussianBlur>
            <feColorMatrix values="0 0 0 0 0   0 0 0 0 0   0 0 0 0 0  0 0 0 0.25 0" type="matrix" in="shadowBlurOuter1"></feColorMatrix>
        </filter>
    </defs>
    <g id="Page-1" stroke="none" stroke-width="1" fill="none" fill-rule="evenodd">
        <g id="43">
            <g id="Combined-Shape">
                <use fill="black" fill-opacity="1" filter="url(#filter-2)" xlink:href="#path-1"></use>
                <use fill="#A2D3AA" fill-rule="evenodd" xlink:href="#path-1"></use>
            </g>
            <g id="Combined-Shape">
                <use fill="black" fill-opacity="1" filter="url(#filter-5)" xlink:href="#path-4"></use>
                <use fill="url(#linearGradient-3)" fill-rule="evenodd" xlink:href="#path-4"></use>
            </g>
        </g>
    </g>
</svg>