<?xml version="1.0" encoding="utf-8"?>
<!-- Generator: Adobe Illustrator 21.0.2, SVG Export Plug-In . SVG Version: 6.00 Build 0)  -->
<svg version="1.1" id="layer_5" xmlns="http://www.w3.org/2000/svg" xmlns:xlink="http://www.w3.org/1999/xlink" x="0px" y="0px"
	 viewBox="0 0 1024 1024" style="enable-background:new 0 0 1024 1024;" xml:space="preserve">
<style type="text/css">
	.st0{display:none;}
	.st1{display:inline;fill:#518C5B;}
	.st2{fill:#91D39B;}
</style>
<g>
	<g class="st0">
		<path class="st1" d="M311.5,181.1c-32.8-28.2-95.4-53-123.1-50.9c-27.7,2.1-56.2,30.6-58.3,58.3c-2.1,27.7,22.8,90.3,50.9,123.1
			c28.2,32.8,70.1,78.3,144.9,147.1S766.7,875,820.9,820.9c54.2-54.2-293.4-420.2-362.2-494.9S344.3,209.2,311.5,181.1z"/>
	</g>
	<path class="st2" d="M962.5,649.1c-22.3,8-205.9,107.5-205.9,107.5s-99.5,183.6-107.5,205.9c-8,22.3,0,48,28.6,50.5
		c28.6,2.5,39.1-1.3,54.7-16c15.6-14.7,139-125.6,139-125.6S982.3,748,997,732.4c14.7-15.6,18.5-26.1,16-54.7
		C1010.5,649.1,984.8,641.1,962.5,649.1z"/>
	<g>
		<path class="st2" d="M169.7,622.2c-44.1-20.9-70.7-9-70.7-9s-11.9,26.6,9,70.7C121.1,711.7,259,814.3,259,814.3l20.5-20.5
			l20.5-20.5C300,773.4,197.4,635.4,169.7,622.2z"/>
		<path class="st2" d="M622.2,169.7c-20.9-44.1-9-70.7-9-70.7s26.6-11.9,70.7,9C711.7,121.1,814.3,259,814.3,259l-20.5,20.5
			L773.4,300C773.4,300,635.4,197.4,622.2,169.7z"/>
	</g>
	<g>
		<g>
			<path id="XMLID_8_" class="st2" d="M282.5,291.3c-14.3-14.3-145.2,78.1-119.7,103.6S296.8,305.6,282.5,291.3z"/>
		</g>
		<g>
			<path id="XMLID_7_" class="st2" d="M394.9,162.8c-25.6-25.6-118,105.3-103.6,119.7C305.6,296.8,420.5,188.4,394.9,162.8z"/>
		</g>
	</g>
	<path class="st2" d="M886.3,10.7c-43.9,4.9-63.4,22.4-92.9,43.4C764,75.2,608.3,206.5,524.1,278C440,349.5,404,381.4,392.7,392.7
		S349.5,440,278,524.1C206.5,608.3,75.2,764,54.2,793.4c-21,29.5-38.5,49-43.4,92.9c-4.9,43.9,28.3,56.1,40.1,56.9
		c11.8,0.8,42.4-3.9,60.9-11.4c18.6-7.5,404.4-287.3,404.4-287.3l51.3-4.2c0,0,143.1,127.1,202.8,172.5
		c59.7,45.4,153.3,110.9,153.3,110.9S858.2,830,812.8,770.3c-45.4-59.7-172.5-202.8-172.5-202.8l4.2-51.3
		c0,0,279.8-385.8,287.3-404.4c7.5-18.6,12.3-49.2,11.4-60.9C942.3,39,930.1,5.8,886.3,10.7z"/>
	<g>
		<path class="st2" d="M347.1,283.1c-15.6,3.8-25.7,9.2-40.3,23.8c-14.6,14.6-20,24.7-23.8,40.3c-3.8,15.6,8.6,25,96.7,104.9
			s171.8,99.6,171.8,99.6s-19.7-83.8-99.6-171.8S362.7,279.3,347.1,283.1z"/>
		<path class="st2" d="M286,274.5c-7.1-5.7-14.1-7.5-16.6-5.1c-2.5,2.5-0.6,9.5,5.1,16.6s27.2,29.9,27.2,29.9l7.1-7.1l7.1-7.1
			C316,301.7,293.1,280.2,286,274.5z"/>
	</g>
</g>
</svg>
