<?xml version="1.0" encoding="UTF-8"?>
<svg width="640px" height="640px" viewBox="0 0 640 640" version="1.1" xmlns="http://www.w3.org/2000/svg" xmlns:xlink="http://www.w3.org/1999/xlink">
    <!-- Generator: Sketch 46.2 (44496) - http://www.bohemiancoding.com/sketch -->
    <title>46</title>
    <desc>Created with Sketch.</desc>
    <defs>
        <filter x="-2.8%" y="-5.8%" width="111.1%" height="123.5%" filterUnits="objectBoundingBox" id="filter-1">
            <feOffset dx="20" dy="20" in="SourceAlpha" result="shadowOffsetOuter1"></feOffset>
            <feGaussianBlur stdDeviation="5" in="shadowOffsetOuter1" result="shadowBlurOuter1"></feGaussianBlur>
            <feColorMatrix values="0 0 0 0 0   0 0 0 0 0   0 0 0 0 0  0 0 0 0.25 0" type="matrix" in="shadowBlurOuter1" result="shadowMatrixOuter1"></feColorMatrix>
            <feMerge>
                <feMergeNode in="shadowMatrixOuter1"></feMergeNode>
                <feMergeNode in="SourceGraphic"></feMergeNode>
            </feMerge>
        </filter>
        <linearGradient x1="0%" y1="50%" x2="34.9697541%" y2="84.2534448%" id="linearGradient-2">
            <stop stop-color="#9DA0BF" offset="0%"></stop>
            <stop stop-color="#5FAFEB" offset="100%"></stop>
        </linearGradient>
        <path d="M420,155 L640,375 L420,595 L200,375 L420,155 Z M353.675,296.975 L353.675,409.475 C342.2,412.625 330.5,415.1 318.8,417.35 L322.625,433.775 C352.325,427.025 380,418.475 405.65,408.125 L405.65,391.925 C393.95,396.875 381.8,401.15 369.65,404.975 L369.65,296.975 L404.3,296.975 L404.3,281.225 L320.825,281.225 L320.825,296.975 L353.675,296.975 Z M431.525,309.125 L483.95,309.125 C482.6,341.975 474.05,370.325 457.85,394.4 C443,375.95 431.075,355.7 422.075,333.65 C425.45,326 428.6,317.9 431.525,309.125 Z M499.025,309.125 L518.6,309.125 L518.6,293.6 L436.025,293.6 C438.725,283.25 440.975,272.45 443,261.2 L427.25,258.5 C420.5,300.575 407.675,334.1 388.55,359.075 L398.9,371.45 C403.85,365.15 408.8,358.175 413.3,350.525 C422.3,370.775 433.775,389.675 447.95,407.225 C432.2,425.225 411.275,440.075 384.95,451.775 L393.725,465.95 C420.05,453.35 441.425,437.6 458.075,418.925 C473.6,436.025 492.05,451.55 513.425,465.725 L524.225,453.35 C502.85,439.4 484.175,423.875 468.2,406.325 C487.325,379.55 497.675,347.15 499.025,309.125 Z" id="path-3"></path>
        <filter x="-3.4%" y="-3.4%" width="113.6%" height="113.6%" filterUnits="objectBoundingBox" id="filter-4">
            <feOffset dx="20" dy="20" in="SourceAlpha" result="shadowOffsetOuter1"></feOffset>
            <feGaussianBlur stdDeviation="5" in="shadowOffsetOuter1" result="shadowBlurOuter1"></feGaussianBlur>
            <feColorMatrix values="0 0 0 0 0   0 0 0 0 0   0 0 0 0 0  0 0 0 0.25 0" type="matrix" in="shadowBlurOuter1"></feColorMatrix>
        </filter>
    </defs>
    <g id="Page-1" stroke="none" stroke-width="1" fill="none" fill-rule="evenodd">
        <g id="46">
            <g id="Group" filter="url(#filter-1)" transform="translate(20.000000, 45.000000)" fill="#7F819B">
                <polygon id="Path-35" points="40 240 60 200 100 180 120 140 200 120 220 140 400 100 460 20 500 2.84217094e-14 460 120 240 240 60 260 20 260"></polygon>
                <polygon id="Path-34" points="140 180 0 80 20 60 80 60 180 140"></polygon>
                <polygon id="Path-37" points="428.712891 134.680664 520 160 540 140 440 116.074219"></polygon>
                <polygon id="Path-36" points="400 120 340 60 380 60 420 100"></polygon>
            </g>
            <g id="Combined-Shape">
                <use fill="black" fill-opacity="1" filter="url(#filter-4)" xlink:href="#path-3"></use>
                <use fill="url(#linearGradient-2)" fill-rule="evenodd" xlink:href="#path-3"></use>
            </g>
        </g>
    </g>
</svg>