<?xml version="1.0" encoding="UTF-8"?>
<svg width="640px" height="640px" viewBox="0 0 640 640" version="1.1" xmlns="http://www.w3.org/2000/svg" xmlns:xlink="http://www.w3.org/1999/xlink">
    <!-- Generator: Sketch 46.2 (44496) - http://www.bohemiancoding.com/sketch -->
    <title>5</title>
    <desc>Created with Sketch.</desc>
    <defs>
        <polygon id="path-1" points="180 210 180 290 20 350 20 390 40 410 60 410 60 430 80 450 99.8575458 450 100 470 120 490 160 490 320 410 360 430 420 430 560 310 580 270 620 250 620 227.484375 520 170 480 190 360 150"></polygon>
        <filter x="-2.5%" y="-4.4%" width="110.0%" height="117.6%" filterUnits="objectBoundingBox" id="filter-2">
            <feOffset dx="20" dy="20" in="SourceAlpha" result="shadowOffsetOuter1"></feOffset>
            <feGaussianBlur stdDeviation="5" in="shadowOffsetOuter1" result="shadowBlurOuter1"></feGaussianBlur>
            <feColorMatrix values="0 0 0 0 0   0 0 0 0 0   0 0 0 0 0  0 0 0 0.25 0" type="matrix" in="shadowBlurOuter1"></feColorMatrix>
        </filter>
        <linearGradient x1="63.9105903%" y1="33.306108%" x2="0%" y2="0%" id="linearGradient-3">
            <stop stop-color="#5785A9" offset="0%"></stop>
            <stop stop-color="#3A5A74" offset="100%"></stop>
        </linearGradient>
        <linearGradient x1="31.9304791%" y1="22.9568657%" x2="29.6981534%" y2="39.5859375%" id="linearGradient-4">
            <stop stop-color="#436783" offset="0%"></stop>
            <stop stop-color="#5785A9" offset="100%"></stop>
        </linearGradient>
    </defs>
    <g id="Page-1" stroke="none" stroke-width="1" fill="none" fill-rule="evenodd">
        <g id="5">
            <g id="Path-5">
                <use fill="black" fill-opacity="1" filter="url(#filter-2)" xlink:href="#path-1"></use>
                <use fill="#5785A9" fill-rule="evenodd" xlink:href="#path-1"></use>
            </g>
            <polygon id="Path-41" fill="url(#linearGradient-3)" points="180 210 180 290 360 430 360 330"></polygon>
            <polygon id="Path-48" fill="url(#linearGradient-4)" points="360 150 500 230 580 250 480 190"></polygon>
        </g>
    </g>
</svg>