<?xml version="1.0" encoding="utf-8"?>
<!-- Generator: Adobe Illustrator 19.0.0, SVG Export Plug-In . SVG Version: 6.00 Build 0)  -->
<svg version="1.1" xmlns="http://www.w3.org/2000/svg" xmlns:xlink="http://www.w3.org/1999/xlink" x="0px" y="0px"
	 viewBox="0 0 1024 1024" style="enable-background:new 0 0 1024 1024;" xml:space="preserve">
<style type="text/css">
	.st0{display:none;}
	.st1{display:inline;}
	.st2{fill:#FFD02C;}
	.st3{display:inline;fill:none;}
	.st4{display:inline;fill:none;stroke:#FFD02C;stroke-width:2;stroke-miterlimit:10;}
	.st5{fill:#0074FF;}
</style>
<g id="Layer_1" class="st0">
	<g id="XMLID_1_" class="st1">
		<g id="XMLID_81_">
			<path id="XMLID_82_" class="st2" d="M512,2c68.9,0,135.6,13.5,198.5,40.1c60.7,25.7,115.3,62.5,162.1,109.3
				s83.6,101.4,109.3,162.1c26.6,62.9,40.1,129.7,40.1,198.5s-13.5,135.6-40.1,198.5c-25.7,60.7-62.5,115.3-109.3,162.1
				s-101.4,83.6-162.1,109.3c-62.9,26.6-129.7,40.1-198.5,40.1s-135.6-13.5-198.5-40.1c-60.7-25.7-115.3-62.5-162.1-109.3
				S67.8,771.2,42.1,710.5C15.5,647.6,2,580.9,2,512s13.5-135.6,40.1-198.5c25.7-60.7,62.5-115.3,109.3-162.1S252.8,67.8,313.5,42.1
				C376.4,15.5,443.1,2,512,2 M512,0C229.2,0,0,229.2,0,512s229.2,512,512,512s512-229.2,512-512S794.8,0,512,0L512,0z"/>
		</g>
	</g>
	<circle id="XMLID_5_" class="st3" cx="32" cy="32" r="32"/>
	<rect id="XMLID_22_" x="160.5" y="160" class="st4" width="704" height="704"/>
	<circle id="XMLID_24_" class="st4" cx="512.5" cy="512" r="352"/>
	<rect id="XMLID_33_" x="288" y="288" class="st4" width="448" height="449.6"/>
	<circle id="XMLID_34_" class="st4" cx="512" cy="513.6" r="224"/>
	<rect id="XMLID_35_" x="352" y="352" class="st4" width="318.3" height="321"/>
	<circle id="XMLID_36_" class="st4" cx="511.2" cy="511.2" r="159.2"/>
</g>
<g id="Layer_2">
	<g id="XMLID_72_">
		<path id="XMLID_73_" class="st5" d="M586.3,682.1l3.4,3.4C588.5,684.4,587.4,683.2,586.3,682.1z"/>
		<path id="XMLID_74_" class="st5" d="M670.9,602.7L337.5,276.1c-16-15.7-124.5-122-158.1-87.7s75,140.6,91,156.3
			c0,0,286.9,281.1,333.4,326.5c46.4,45.5,247,174.7,247,174.7S716.6,647.4,670.9,602.7z"/>
		<path id="XMLID_75_" class="st5" d="M671.2,738.1l-10.1,10.4l0,0L627.3,783c21.4,21,84.8,113.2,84.8,113.2l25.1-25.5l0.1,0.1
			l11.9-12.2l11.9-12.1l-0.1-0.1l25.1-25.7C786.1,820.6,692.7,759.1,671.2,738.1z"/>
		<path id="XMLID_76_" class="st5" d="M559,717L225.6,390.4c-16-15.7-124.5-122-158.1-87.7c-33.6,34.3,75,140.6,91,156.3
			c0,0,286.9,281.1,333.4,326.5c46.4,45.5,247,174.7,247,174.7S604.7,761.7,559,717z"/>
		<path id="XMLID_77_" class="st5" d="M525.4,887l100,98l48.8-50.1c0,0-93.4-61.5-114.9-82.5L525.4,887z"/>
		<path id="XMLID_78_" class="st5" d="M783.6,487.6L450.2,161.1c-16-15.7-124.5-122-158.1-87.7c-33.6,34.3,75,140.6,91,156.3
			c0,0,286.9,281.1,333.4,326.5c46.4,45.5,247,174.7,247,174.7S829.3,532.4,783.6,487.6z"/>
		<path id="XMLID_79_" class="st5" d="M985.7,617.1l-100-98l-33.8,34.5c21.4,21,84.8,113.2,84.8,113.2L985.7,617.1z"/>
		<path id="XMLID_85_" class="st5" d="M783.9,623.1l-10.8,11.1l0,0l-33.8,34.5c21.4,21,84.8,113.2,84.8,113.2l25.9-26.2l0.1,0.1
			l11.5-11.8l11.6-11.7L873,732l25.8-26.4C898.8,705.6,805.3,644.1,783.9,623.1z"/>
		
			<rect id="XMLID_86_" x="165.1" y="562.5" transform="matrix(-0.7144 -0.6997 0.6997 -0.7144 -22.4294 1179.8425)" class="st5" width="129" height="64"/>
		
			<rect id="XMLID_87_" x="523.6" y="196.2" transform="matrix(0.7144 0.6997 -0.6997 0.7144 327.9492 -346.0131)" class="st5" width="128.5" height="65"/>
		
			<rect id="XMLID_88_" x="335.9" y="404.6" transform="matrix(0.6998 -0.7144 0.7144 0.6998 -229.3353 392.5869)" class="st5" width="33" height="129"/>
		
			<rect id="XMLID_89_" x="448.2" y="290" transform="matrix(0.6997 -0.7144 0.7144 0.6997 -113.703 438.3939)" class="st5" width="33" height="129"/>
	</g>
</g>
</svg>
