<?xml version="1.0" encoding="UTF-8"?>
<svg width="640px" height="640px" viewBox="0 0 640 640" version="1.1" xmlns="http://www.w3.org/2000/svg" xmlns:xlink="http://www.w3.org/1999/xlink">
    <!-- Generator: Sketch 46.2 (44496) - http://www.bohemiancoding.com/sketch -->
    <title>54</title>
    <desc>Created with Sketch.</desc>
    <defs>
        <filter x="-4.7%" y="-3.4%" width="118.8%" height="113.6%" filterUnits="objectBoundingBox" id="filter-4">
            <feOffset dx="20" dy="20" in="SourceAlpha" result="shadowOffsetOuter1"></feOffset>
            <feGaussianBlur stdDeviation="5" in="shadowOffsetOuter1" result="shadowBlurOuter1"></feGaussianBlur>
            <feColorMatrix values="0 0 0 0 0   0 0 0 0 0   0 0 0 0 0  0 0 0 0.2 0" type="matrix" in="shadowBlurOuter1"></feColorMatrix>
            <feMerge>
                <feMergeNode in="shadowMatrixOuter1"></feMergeNode>
                <feMergeNode in="SourceGraphic"></feMergeNode>
            </feMerge>
        </filter>
        <linearGradient x1="50%" y1="0%" x2="85%" y2="0%" id="linearGradient-2">
            <stop stop-color="#9B9B9B" offset="0%"></stop>
            <stop stop-color="#7B7B7B" offset="100%"></stop>
        </linearGradient>
    </defs>
    <g id="Page-1" stroke="none" stroke-width="1" fill="none" fill-rule="evenodd">
        <g id="54">
            <polyline id="Path-50" points="440 280 440 200 520 20 580 20" style="fill:none;stroke:#9B9B9B;stroke-width:12"></polyline>
            <polyline id="Path-51" points="280 280 280 240 480 240" style="fill:none;stroke:#9B9B9B;stroke-width:12"></polyline>
            <polyline id="Path-52" points="360 240 360 200 470 40 504.33 55.258" style="fill:none;stroke:#9B9B9B;stroke-width:12"></polyline>
            <polyline id="Path-53" points="200 280 200 220 150 220 150 570" style="fill:none;stroke:#9B9B9B;stroke-width:12"></polyline>

            <g id="Box" filter="url(#filter-4)">
                <polygon fill="url(#linearGradient-2)" points="170 280 470 280 470 570 170 570"></polygon>
                <path fill="url(#linearGradient-2)" d="M 170 280 Q 320 240 470 280 Z"></path>
                <polygon fill="#9B9B9B" points="135 570 505 570 505 555 135 555"></polygon>
            </g>
        </g>
    </g>
</svg>