<?xml version="1.0" encoding="UTF-8"?>
<svg width="640px" height="640px" viewBox="0 0 640 640" version="1.1" xmlns="http://www.w3.org/2000/svg" xmlns:xlink="http://www.w3.org/1999/xlink">
    <!-- Generator: Sketch 46.2 (44496) - http://www.bohemiancoding.com/sketch -->
    <title>56</title>
    <desc>Created with Sketch.</desc>
    <defs>
        <filter x="-2.8%" y="-5.8%" width="111.1%" height="123.5%" filterUnits="objectBoundingBox" id="filter-1">
            <feOffset dx="20" dy="20" in="SourceAlpha" result="shadowOffsetOuter1"></feOffset>
            <feGaussianBlur stdDeviation="5" in="shadowOffsetOuter1" result="shadowBlurOuter1"></feGaussianBlur>
            <feColorMatrix values="0 0 0 0 0   0 0 0 0 0   0 0 0 0 0  0 0 0 0.25 0" type="matrix" in="shadowBlurOuter1" result="shadowMatrixOuter1"></feColorMatrix>
            <feMerge>
                <feMergeNode in="shadowMatrixOuter1"></feMergeNode>
                <feMergeNode in="SourceGraphic"></feMergeNode>
            </feMerge>
        </filter>
        <linearGradient x1="0%" y1="50%" x2="50%" y2="100%" id="linearGradient-2">
            <stop stop-color="#4EA915" offset="0%"></stop>
            <stop stop-color="#267009" offset="100%"></stop>
        </linearGradient>
        <path d="M420,155 L640,375 L420,595 L200,375 L420,155 Z M373.48,385.08 L373.48,438.54 L448.5,438.54 L448.5,385.08 L373.48,385.08 Z M437.72,428.2 L384.48,428.2 L384.48,395.42 L437.72,395.42 L437.72,428.2 Z M474.68,289.82 L474.68,317.54 L350.16,317.54 L350.16,289.82 L474.68,289.82 Z M350.16,328.76 L486.34,328.76 L486.34,278.38 L338.28,278.38 L338.28,363.08 C338.06,402.68 328.82,435.02 310.56,460.1 L319.8,468.24 C339.82,438.98 349.94,404 350.16,363.08 L350.16,361.98 L485.68,361.98 C485.24,409.06 484.36,437.44 482.82,447.34 C481.5,454.38 476.88,458.12 468.74,458.12 C459.94,458.12 449.6,457.9 437.72,457.46 L440.36,467.58 C454.44,468.02 464.34,468.24 470.06,468.24 C484.36,468.24 492.28,462.3 493.82,450.86 C496.02,438.1 497.12,404.66 497.12,350.98 L350.16,350.98 L350.16,328.76 Z" id="path-3"></path>
        <filter x="-3.4%" y="-3.4%" width="113.6%" height="113.6%" filterUnits="objectBoundingBox" id="filter-4">
            <feOffset dx="20" dy="20" in="SourceAlpha" result="shadowOffsetOuter1"></feOffset>
            <feGaussianBlur stdDeviation="5" in="shadowOffsetOuter1" result="shadowBlurOuter1"></feGaussianBlur>
            <feColorMatrix values="0 0 0 0 0   0 0 0 0 0   0 0 0 0 0  0 0 0 0.25 0" type="matrix" in="shadowBlurOuter1"></feColorMatrix>
        </filter>
    </defs>
    <g id="Page-1" stroke="none" stroke-width="1" fill="none" fill-rule="evenodd">
        <g id="38">
            <g id="Group" filter="url(#filter-1)" fill="#267009">
                <path id="Path-wing1" d="M 83.99,71.63 113.2,149.16 c -17.33,4.16 -32.86,11.02 -47.19,19.66 0,0 -6.43,4.37 -8.43,7.58 -5.83,9.38 -3.92,20.58 8.71,23.88 3.81,1 11.8,0.84 11.8,0.84 L 216.01,160.67 202.53,138.76 182.58,130.06 121.63,68.26 c -7.11,-1.33 -30.95,-4.26 -37.64,3.37 z"></path>
                <path id="Path-wing2" d="m 170.51,225 76.12,30.62 c -18.3,6.96 -32.1,16.49 -45.22,26.4 0,0 -8.86,7.2 -10.39,12.36 -3.29,11.1 0.85,23.62 12.92,27.81 5.19,1.8 22.87,2.18 22.87,2.18 l 88.33,-40.06 44.42,-32.07 -16.85,-8.43 -67.42,-55.34 z"></path>
                <path id="Path-body" d="m 58.18,199.39 c -14.55,8.53 -41.07,22.37 -36.97,34.55 4.94,14.65 36.04,12.16 49.65,12.28 C 108.19,246.55 176.2,233.52 175.75,232.73 l 104.85,-36.97 132.12,-63.03 0.73,-3.58 54.12,19.42 c 5.45,-1.23 12.14,-2 11.89,-5.38 L 417.47,109.44 430.9,43.63 c -1.59,-6.4 -4.69,-13.53 -12.73,-6.06 l -38.32,50.76 -32.46,-19.5 c -3.45,-1.79 -10.63,-3.72 -16.76,1.69 l 34.08,37.85 -11.99,15.88 -72.12,9.7 c -28.35,1.39 -58.47,-24.33 -95.76,14.55 0,0 -86.87,27.6 -126.67,50.91 z"></path>
            </g>
            <g id="Combined-Shape">
                <use fill="black" fill-opacity="1" filter="url(#filter-4)" xlink:href="#path-3"></use>
                <use fill="url(#linearGradient-2)" fill-rule="evenodd" xlink:href="#path-3"></use>
            </g>
        </g>
    </g>
</svg>
