<?xml version="1.0" encoding="utf-8"?>
<!-- Generator: Adobe Illustrator 19.0.0, SVG Export Plug-In . SVG Version: 6.00 Build 0)  -->
<svg version="1.1" xmlns="http://www.w3.org/2000/svg" xmlns:xlink="http://www.w3.org/1999/xlink" x="0px" y="0px"
	 viewBox="0 0 1024 1024" style="enable-background:new 0 0 1024 1024;" xml:space="preserve">
<style type="text/css">
	.st0{display:none;}
	.st1{display:inline;}
	.st2{fill:#FFD02C;}
	.st3{display:inline;fill:none;}
	.st4{display:inline;fill:none;stroke:#FFD02C;stroke-width:2;stroke-miterlimit:10;}
	.st5{fill:#00FF0C;}
</style>
<g id="Layer_1" class="st0">
	<g id="XMLID_1_" class="st1">
		<g id="XMLID_81_">
			<path id="XMLID_82_" class="st2" d="M512,2c68.9,0,135.6,13.5,198.5,40.1c60.7,25.7,115.3,62.5,162.1,109.3
				s83.6,101.4,109.3,162.1c26.6,62.9,40.1,129.7,40.1,198.5s-13.5,135.6-40.1,198.5c-25.7,60.7-62.5,115.3-109.3,162.1
				s-101.4,83.6-162.1,109.3c-62.9,26.6-129.7,40.1-198.5,40.1s-135.6-13.5-198.5-40.1c-60.7-25.7-115.3-62.5-162.1-109.3
				S67.8,771.2,42.1,710.5C15.5,647.6,2,580.9,2,512s13.5-135.6,40.1-198.5c25.7-60.7,62.5-115.3,109.3-162.1S252.8,67.8,313.5,42.1
				C376.4,15.5,443.1,2,512,2 M512,0C229.2,0,0,229.2,0,512s229.2,512,512,512s512-229.2,512-512S794.8,0,512,0L512,0z"/>
		</g>
	</g>
	<circle id="XMLID_5_" class="st3" cx="32" cy="32" r="32"/>
	<rect id="XMLID_22_" x="160.5" y="160" class="st4" width="704" height="704"/>
	<circle id="XMLID_24_" class="st4" cx="512.5" cy="512" r="352"/>
	<rect id="XMLID_33_" x="288" y="288" class="st4" width="448" height="449.6"/>
	<circle id="XMLID_34_" class="st4" cx="512" cy="513.6" r="224"/>
	<rect id="XMLID_35_" x="352" y="352" class="st4" width="318.3" height="318.3"/>
	<circle id="XMLID_36_" class="st4" cx="511.2" cy="511.2" r="159.2"/>
</g>
<g id="Layer_2">
	<g id="XMLID_57_">
		<path id="XMLID_60_" class="st5" d="M658.4,733.5c-13,48-35.5,133.5-34.3,143c1.7,13.3,19.4,44.7,82.8-7.9
			c28.3-23.5,43.8-40.5,52.2-52.2c-18-13.1-46-36.2-90.7-74.4C665,739.1,661.7,736.3,658.4,733.5z"/>
		<path id="XMLID_61_" class="st5" d="M871.2,633.1c-9.5-1.3-95.2,20.1-143.4,32.5c2.7,3.3,5.5,6.6,8.4,10.1
			c37.6,45.2,60.3,73.5,73.2,91.7c11.8-8.3,29.1-23.6,52.9-51.5C915.6,653.2,884.4,635,871.2,633.1z"/>
		<path id="XMLID_64_" class="st5" d="M661.7,667.7c20.7-20.4,37.9-2.5,37.9-2.5c-34-44.7-138.4-179.6-134.1-205.4
			c4.6-27.4,173-189.3,207.1-254.6c34.1-65.3,4.9-84.1-41.3-59.7c-46.2,24.5-281.7,227.8-281.7,227.8s-37.7-30.5-70.3-61.7
			c-15.1-15.5-33.1-9.7-45.3-2.2c0,0-0.1-0.1-0.1-0.1c-13.6-13.8-30.5-19.3-37.6-12.3c-7.1,7-1.9,23.9,11.7,37.7
			c-7.4,11.8-13.1,29.1,2.2,45c29.6,32.8,60,71.8,60,71.8S167.2,681.2,142.1,727.1c-25.1,45.9-10.8,79.4,54.9,46.2
			c65.7-33.2,229-198.6,256.5-202.9c25.9-4,162.1,100.1,206.2,134.2C659.7,704.6,641,688.1,661.7,667.7z"/>
		<path id="XMLID_65_" class="st5" d="M681,687.4c-13.5,13.3,2.7,35.6,2.7,35.6s118.7,101.8,125.9,94.8
			c7.2-7.1-93.1-126.5-93.1-126.5S694.5,674.1,681,687.4z"/>
		<path id="XMLID_66_" class="st5" d="M188.4,445c13.7-4.6,74.7-100.6,79.4-119.6c0.3-0.2,0.5-0.4,0.8-0.6l-15.9-5.3
			c-22.1,12.6-104.6,74.3-106.3,88.2C144.2,426.7,171.3,450.7,188.4,445z"/>
		<path id="XMLID_67_" class="st5" d="M315.3,275.5c19.1-4.5,115.9-64.1,120.7-77.8c6-16.9-17.8-44.4-36.9-42.4
			c-13.9,1.4-76.7,83.1-89.6,105.1l5.1,15.9C314.9,276.1,315,275.8,315.3,275.5z"/>
	</g>
</g>
</svg>
