<?xml version="1.0" encoding="utf-8"?>
<!-- Generator: Adobe Illustrator 19.0.0, SVG Export Plug-In . SVG Version: 6.00 Build 0)  -->
<svg version="1.1" xmlns="http://www.w3.org/2000/svg" xmlns:xlink="http://www.w3.org/1999/xlink" x="0px" y="0px"
	 viewBox="0 0 1024 1024" style="enable-background:new 0 0 1024 1024;" xml:space="preserve">
<style type="text/css">
	.st0{display:none;}
	.st1{display:inline;}
	.st2{fill:#FFD02C;}
	.st3{display:inline;fill:none;}
	.st4{display:inline;fill:none;stroke:#FFD02C;stroke-width:2;stroke-miterlimit:10;}
	.st5{fill:#FF0000;}
</style>
<g id="Layer_1" class="st0">
	<g id="XMLID_1_" class="st1">
		<g id="XMLID_81_">
			<path id="XMLID_82_" class="st2" d="M512,2c68.9,0,135.6,13.5,198.5,40.1c60.7,25.7,115.3,62.5,162.1,109.3
				s83.6,101.4,109.3,162.1c26.6,62.9,40.1,129.7,40.1,198.5s-13.5,135.6-40.1,198.5c-25.7,60.7-62.5,115.3-109.3,162.1
				s-101.4,83.6-162.1,109.3c-62.9,26.6-129.7,40.1-198.5,40.1s-135.6-13.5-198.5-40.1c-60.7-25.7-115.3-62.5-162.1-109.3
				S67.8,771.2,42.1,710.5C15.5,647.6,2,580.9,2,512s13.5-135.6,40.1-198.5c25.7-60.7,62.5-115.3,109.3-162.1S252.8,67.8,313.5,42.1
				C376.4,15.5,443.1,2,512,2 M512,0C229.2,0,0,229.2,0,512s229.2,512,512,512s512-229.2,512-512S794.8,0,512,0L512,0z"/>
		</g>
	</g>
	<circle id="XMLID_5_" class="st3" cx="32" cy="32" r="32"/>
	<rect id="XMLID_22_" x="160.5" y="160" class="st4" width="704" height="704"/>
	<circle id="XMLID_24_" class="st4" cx="512.5" cy="512" r="352"/>
	<rect id="XMLID_33_" x="288" y="288" class="st4" width="448" height="449.6"/>
	<circle id="XMLID_34_" class="st4" cx="512" cy="513.6" r="224"/>
	<rect id="XMLID_35_" x="352" y="352" class="st4" width="318.3" height="318.3"/>
	<circle id="XMLID_36_" class="st4" cx="511.2" cy="511.2" r="159.2"/>
</g>
<g id="Layer_2">
	<g id="XMLID_57_">
		<path id="XMLID_60_" class="st5" d="M658.7,728.5c-12.6,48.2-34.5,133.8-33.2,143.3c1.8,13.3,19.8,44.5,82.8-8.5
			c28.1-23.7,43.4-40.9,51.8-52.6c-18.1-13-46.3-35.8-91.3-73.7C665.3,734,662,731.2,658.7,728.5z"/>
		<path id="XMLID_61_" class="st5" d="M870.7,626.4c-9.5-1.3-95,20.9-143.2,33.6c2.7,3.3,5.6,6.6,8.5,10c38,44.9,60.9,73,73.9,91.1
			c11.8-8.4,28.9-23.8,52.5-52C915.2,646,883.9,628.1,870.7,626.4z"/>
		<path id="XMLID_64_" class="st5" d="M661.5,662.6c20.5-20.6,37.9-2.8,37.9-2.8C665,615.4,559.5,481.3,563.7,455.5
			c4.4-27.4,171.5-190.7,205-256.2c33.6-65.6,4.2-84.2-41.8-59.3C680.9,164.8,447.1,370,447.1,370s-38-30.2-70.8-61.1
			c-15.2-15.4-33.1-9.4-45.3-1.8c0,0-0.1-0.1-0.1-0.1c-13.8-13.7-30.6-19.1-37.7-12c-7.1,7.1-1.7,23.9,12,37.6
			c-7.3,11.8-12.8,29.2,2.6,45c29.9,32.6,60.6,71.3,60.6,71.3s-201.3,231.2-226,277.3c-24.7,46.1-10.2,79.5,55.3,45.8
			C263.1,738.2,425,571.4,452.5,567c25.9-4.2,162.9,98.8,207.3,132.6C659.8,699.6,641,683.2,661.5,662.6z"/>
		<path id="XMLID_65_" class="st5" d="M680.9,682.2c-13.4,13.4,3,35.6,3,35.6s119.5,100.9,126.7,93.7c7.1-7.2-94.1-125.7-94.1-125.7
			S694.3,668.8,680.9,682.2z"/>
		<path id="XMLID_66_" class="st5" d="M186.3,443.7c13.7-4.7,73.9-101.2,78.4-120.3c0.3-0.2,0.5-0.4,0.8-0.6l-15.9-5.2
			c-22,12.7-104,75.2-105.5,89C142,425.7,169.4,449.6,186.3,443.7z"/>
		<path id="XMLID_67_" class="st5" d="M311.9,273.2c19.1-4.6,115.3-65.1,120-78.8c5.8-17-18.1-44.3-37.2-42.1
			c-13.8,1.5-76,83.7-88.7,105.8l5.3,15.9C311.5,273.8,311.7,273.5,311.9,273.2z"/>
	</g>
</g>
</svg>
