<?xml version="1.0" encoding="UTF-8"?>
<svg width="640px" height="640px" viewBox="0 0 640 640" version="1.1" xmlns="http://www.w3.org/2000/svg" xmlns:xlink="http://www.w3.org/1999/xlink">
    <!-- Generator: Sketch 46.2 (44496) - http://www.bohemiancoding.com/sketch -->
    <title>7</title>
    <desc>Created with Sketch.</desc>
    <defs>
        <filter x="-2.8%" y="-5.8%" width="111.1%" height="123.5%" filterUnits="objectBoundingBox" id="filter-1">
            <feOffset dx="20" dy="20" in="SourceAlpha" result="shadowOffsetOuter1"></feOffset>
            <feGaussianBlur stdDeviation="5" in="shadowOffsetOuter1" result="shadowBlurOuter1"></feGaussianBlur>
            <feColorMatrix values="0 0 0 0 0   0 0 0 0 0   0 0 0 0 0  0 0 0 0.25 0" type="matrix" in="shadowBlurOuter1" result="shadowMatrixOuter1"></feColorMatrix>
            <feMerge>
                <feMergeNode in="shadowMatrixOuter1"></feMergeNode>
                <feMergeNode in="SourceGraphic"></feMergeNode>
            </feMerge>
        </filter>
        <linearGradient x1="0%" y1="50%" x2="50%" y2="100%" id="linearGradient-2">
            <stop stop-color="#FF7A7A" offset="0%"></stop>
            <stop stop-color="#ED6B6B" offset="100%"></stop>
        </linearGradient>
        <path d="M420,155 L640,375 L420,595 L200,375 L420,155 Z M315.18,310.28 C314.74,331.4 312.54,351.42 309.02,370.34 L321.34,373.86 C325.3,354.06 327.5,333.16 327.94,311.16 L315.18,310.28 Z M340.04,270.02 L340.04,349.88 C339.6,400.48 329.92,437 310.56,459.88 L322,470 C334.98,454.6 344,433.48 349.28,406.86 C355,415.88 362.04,427.98 369.96,443.16 L378.76,429.96 C369.52,415.66 360.72,402.68 351.92,391.24 C353.46,378.48 354.34,364.84 354.56,349.88 L354.56,344.6 C366,334.04 375.46,323.26 382.94,312.04 L374.14,301.04 C368.86,310.28 362.26,319.08 354.56,327.44 L354.56,270.02 L340.04,270.02 Z M392.62,274.64 L392.62,332.5 L414.84,332.5 L414.84,345.7 L384.7,345.7 L384.7,357.58 L414.84,357.58 L414.84,371.66 L376.12,371.66 L376.12,383.98 L412.2,383.98 C404.06,393 391.74,400.48 375.46,406.64 L383.16,419.4 C389.76,416.32 395.7,412.8 401.42,409.06 C408.46,414.34 414.18,419.62 418.58,424.46 L427.16,415.88 C422.76,411.26 417.26,406.64 410.88,401.8 C417.04,396.52 422.32,390.58 426.28,383.98 L462.8,383.98 C465.88,389.26 469.84,394.76 475.12,400.26 C470.28,405.54 464.78,410.38 458.62,414.56 L465.66,424.02 C472.7,419.4 478.86,414.34 484.36,408.62 C489.64,413.02 495.8,417.64 502.84,422.04 L511.86,410.6 C495.58,402.68 483.92,393.66 476.44,383.98 L509,383.98 L509,371.66 L475.34,371.66 L475.34,357.58 L505.04,357.58 L505.04,345.7 L475.34,345.7 L475.34,332.5 L497.56,332.5 L497.56,274.64 L392.62,274.64 Z M428.92,371.66 L428.92,357.58 L461.48,357.58 L461.48,371.66 L428.92,371.66 Z M461.48,345.7 L428.92,345.7 L428.92,332.5 L461.48,332.5 L461.48,345.7 Z M483.48,321.72 L406.48,321.72 L406.48,309.18 L483.48,309.18 L483.48,321.72 Z M406.48,298.84 L406.48,286.08 L483.48,286.08 L483.48,298.84 L406.48,298.84 Z M436.18,469.78 C446.52,469.78 451.8,464.5 451.8,454.16 L451.8,391.68 L436.84,391.68 L436.84,450.64 C436.84,455.04 434.86,457.24 431.34,457.24 C426.5,457.24 421.66,456.8 416.38,456.14 L419.46,469.78 L436.18,469.78 Z M424.74,427.76 C411.98,434.8 396.8,440.96 379.2,445.8 L385.14,459.44 C402.3,453.72 416.6,446.9 428.04,439.42 L424.74,427.76 Z M464.56,429.3 L457.3,440.08 C471.16,445.8 484.8,453.72 498,464.06 L506.14,451.3 C493.6,442.72 479.74,435.46 464.56,429.3 Z" id="path-3"></path>
        <filter x="-3.4%" y="-3.4%" width="113.6%" height="113.6%" filterUnits="objectBoundingBox" id="filter-4">
            <feOffset dx="20" dy="20" in="SourceAlpha" result="shadowOffsetOuter1"></feOffset>
            <feGaussianBlur stdDeviation="5" in="shadowOffsetOuter1" result="shadowBlurOuter1"></feGaussianBlur>
            <feColorMatrix values="0 0 0 0 0   0 0 0 0 0   0 0 0 0 0  0 0 0 0.25 0" type="matrix" in="shadowBlurOuter1"></feColorMatrix>
        </filter>
    </defs>
    <g id="Page-1" stroke="none" stroke-width="1" fill="none" fill-rule="evenodd">
        <g id="7">
            <g id="Group" filter="url(#filter-1)" transform="translate(20.000000, 45.000000)" fill="#ED6B6B">
                <polygon id="Path-35" points="40 240 60 200 100 180 120 140 200 120 220 140 400 100 460 20 500 2.84217094e-14 460 120 240 240 60 260 20 260"></polygon>
                <polygon id="Path-34" points="140 180 0 80 20 60 80 60 180 140"></polygon>
                <polygon id="Path-37" points="428.712891 134.680664 520 160 540 140 440 116.074219"></polygon>
                <polygon id="Path-36" points="400 120 340 60 380 60 420 100"></polygon>
            </g>
            <g id="Combined-Shape">
                <use fill="black" fill-opacity="1" filter="url(#filter-4)" xlink:href="#path-3"></use>
                <use fill="url(#linearGradient-2)" fill-rule="evenodd" xlink:href="#path-3"></use>
            </g>
        </g>
    </g>
</svg>