<?xml version="1.0" encoding="UTF-8"?>
<svg width="640px" height="640px" viewBox="0 0 640 640" version="1.1" xmlns="http://www.w3.org/2000/svg" xmlns:xlink="http://www.w3.org/1999/xlink">
    <!-- Generator: Sketch 46.2 (44496) - http://www.bohemiancoding.com/sketch -->
    <title>8</title>
    <desc>Created with Sketch.</desc>
    <defs>
        <filter x="-2.8%" y="-5.8%" width="111.1%" height="123.5%" filterUnits="objectBoundingBox" id="filter-1">
            <feOffset dx="20" dy="20" in="SourceAlpha" result="shadowOffsetOuter1"></feOffset>
            <feGaussianBlur stdDeviation="5" in="shadowOffsetOuter1" result="shadowBlurOuter1"></feGaussianBlur>
            <feColorMatrix values="0 0 0 0 0   0 0 0 0 0   0 0 0 0 0  0 0 0 0.25 0" type="matrix" in="shadowBlurOuter1" result="shadowMatrixOuter1"></feColorMatrix>
            <feMerge>
                <feMergeNode in="shadowMatrixOuter1"></feMergeNode>
                <feMergeNode in="SourceGraphic"></feMergeNode>
            </feMerge>
        </filter>
        <linearGradient x1="0%" y1="50%" x2="50%" y2="100%" id="linearGradient-2">
            <stop stop-color="#8BBDFF" offset="0%"></stop>
            <stop stop-color="#5FAFEB" offset="100%"></stop>
        </linearGradient>
        <path d="M420,155 L640,375 L420,595 L200,375 L420,155 Z M344.66,305.22 L344.66,415.22 C333.44,418.3 322,420.72 310.56,422.92 L314.3,438.98 C343.34,432.38 370.4,424.02 395.48,413.9 L395.48,398.06 C384.04,402.9 372.16,407.08 360.28,410.82 L360.28,305.22 L394.16,305.22 L394.16,289.82 L312.54,289.82 L312.54,305.22 L344.66,305.22 Z M420.78,317.1 L472.04,317.1 C470.72,349.22 462.36,376.94 446.52,400.48 C432,382.44 420.34,362.64 411.54,341.08 C414.84,333.6 417.92,325.68 420.78,317.1 Z M486.78,317.1 L505.92,317.1 L505.92,301.92 L425.18,301.92 C427.82,291.8 430.02,281.24 432,270.24 L416.6,267.6 C410,308.74 397.46,341.52 378.76,365.94 L388.88,378.04 C393.72,371.88 398.56,365.06 402.96,357.58 C411.76,377.38 422.98,395.86 436.84,413.02 C421.44,430.62 400.98,445.14 375.24,456.58 L383.82,470.44 C409.56,458.12 430.46,442.72 446.74,424.46 C461.92,441.18 479.96,456.36 500.86,470.22 L511.42,458.12 C490.52,444.48 472.26,429.3 456.64,412.14 C475.34,385.96 485.46,354.28 486.78,317.1 Z" id="path-3"></path>
        <filter x="-3.4%" y="-3.4%" width="113.6%" height="113.6%" filterUnits="objectBoundingBox" id="filter-4">
            <feOffset dx="20" dy="20" in="SourceAlpha" result="shadowOffsetOuter1"></feOffset>
            <feGaussianBlur stdDeviation="5" in="shadowOffsetOuter1" result="shadowBlurOuter1"></feGaussianBlur>
            <feColorMatrix values="0 0 0 0 0   0 0 0 0 0   0 0 0 0 0  0 0 0 0.25 0" type="matrix" in="shadowBlurOuter1"></feColorMatrix>
        </filter>
    </defs>
    <g id="Page-1" stroke="none" stroke-width="1" fill="none" fill-rule="evenodd">
        <g id="8">
            <g id="Group" filter="url(#filter-1)" transform="translate(20.000000, 45.000000)" fill="#5FAFEB">
                <polygon id="Path-35" points="40 240 60 200 100 180 120 140 200 120 220 140 400 100 460 20 500 2.84217094e-14 460 120 240 240 60 260 20 260"></polygon>
                <polygon id="Path-34" points="140 180 0 80 20 60 80 60 180 140"></polygon>
                <polygon id="Path-37" points="428.712891 134.680664 520 160 540 140 440 116.074219"></polygon>
                <polygon id="Path-36" points="400 120 340 60 380 60 420 100"></polygon>
            </g>
            <g id="Combined-Shape">
                <use fill="black" fill-opacity="1" filter="url(#filter-4)" xlink:href="#path-3"></use>
                <use fill="url(#linearGradient-2)" fill-rule="evenodd" xlink:href="#path-3"></use>
            </g>
        </g>
    </g>
</svg>