<?xml version="1.0" encoding="utf-8"?>
<!-- Generator: Adobe Illustrator 19.0.0, SVG Export Plug-In . SVG Version: 6.00 Build 0)  -->
<svg version="1.1" xmlns="http://www.w3.org/2000/svg" xmlns:xlink="http://www.w3.org/1999/xlink" x="0px" y="0px"
	 viewBox="0 0 1024 1024" style="enable-background:new 0 0 1024 1024;" xml:space="preserve">
<style type="text/css">
	.st0{display:none;}
	.st1{display:inline;}
	.st2{fill:#FFD02C;}
	.st3{display:inline;fill:none;}
	.st4{display:inline;fill:none;stroke:#FFD02C;stroke-width:2;stroke-miterlimit:10;}
	.st5{fill:#0074FF;}
</style>
<g id="Layer_1" class="st0">
	<g id="XMLID_1_" class="st1">
		<g id="XMLID_81_">
			<path id="XMLID_82_" class="st2" d="M512,2c68.9,0,135.6,13.5,198.5,40.1c60.7,25.7,115.3,62.5,162.1,109.3
				s83.6,101.4,109.3,162.1c26.6,62.9,40.1,129.7,40.1,198.5s-13.5,135.6-40.1,198.5c-25.7,60.7-62.5,115.3-109.3,162.1
				s-101.4,83.6-162.1,109.3c-62.9,26.6-129.7,40.1-198.5,40.1s-135.6-13.5-198.5-40.1c-60.7-25.7-115.3-62.5-162.1-109.3
				S67.8,771.2,42.1,710.5C15.5,647.6,2,580.9,2,512s13.5-135.6,40.1-198.5c25.7-60.7,62.5-115.3,109.3-162.1S252.8,67.8,313.5,42.1
				C376.4,15.5,443.1,2,512,2 M512,0C229.2,0,0,229.2,0,512s229.2,512,512,512s512-229.2,512-512S794.8,0,512,0L512,0z"/>
		</g>
	</g>
	<circle id="XMLID_5_" class="st3" cx="32" cy="32" r="32"/>
	<rect id="XMLID_22_" x="160.5" y="160" class="st4" width="704" height="704"/>
	<circle id="XMLID_24_" class="st4" cx="512.5" cy="512" r="352"/>
	<rect id="XMLID_33_" x="288" y="288" class="st4" width="448" height="449.6"/>
	<circle id="XMLID_34_" class="st4" cx="512" cy="513.6" r="224"/>
	<rect id="XMLID_35_" x="352" y="352" class="st4" width="318.3" height="318.3"/>
	<circle id="XMLID_36_" class="st4" cx="511.2" cy="511.2" r="159.2"/>
</g>
<g id="Layer_2">
	<g id="XMLID_57_">
		<path id="XMLID_60_" class="st5" d="M667.2,730.5c-11.9,48.3-32.5,134.3-31.1,143.7c2,13.2,20.4,44.2,82.6-9.7
			c27.8-24.1,42.8-41.5,51-53.4c-18.3-12.7-46.8-35.1-92.4-72.3C673.9,736,670.5,733.2,667.2,730.5z"/>
		<path id="XMLID_61_" class="st5" d="M877.7,625.3c-9.5-1.1-94.7,22.2-142.7,35.7c2.8,3.2,5.7,6.5,8.6,9.9
			c38.6,44.4,62,72.1,75.2,90c11.6-8.6,28.6-24.2,51.7-52.7C922.5,644.4,891,626.9,877.7,625.3z"/>
		<path id="XMLID_64_" class="st5" d="M669,664.7c20.2-20.9,37.9-3.4,37.9-3.4c-35-43.9-142.4-176.5-138.7-202.3
			c4-27.5,168.7-193.2,201.3-259.2c32.6-66,3-84.2-42.6-58.7c-45.6,25.5-276.5,234.1-276.5,234.1s-38.4-29.6-71.7-60.1
			c-15.4-15.2-33.3-8.9-45.3-1.2c0,0-0.1-0.1-0.1-0.1c-14-13.5-30.9-18.6-37.9-11.4c-7,7.2-1.3,23.9,12.6,37.4
			c-7.2,11.9-12.4,29.4,3.3,45c30.3,32.1,61.7,70.4,61.7,70.4S175,689.3,150.9,735.7c-24,46.4-9,79.6,56,45
			c65-34.7,224.4-203.8,251.8-208.6c25.8-4.6,164.3,96.5,209.2,129.5C667.8,701.6,648.8,685.5,669,664.7z"/>
		<path id="XMLID_65_" class="st5" d="M688.8,683.9c-13.2,13.6,3.5,35.6,3.5,35.6s121,99.1,128,91.9c7-7.3-96-124.4-96-124.4
			S701.9,670.3,688.8,683.9z"/>
		<path id="XMLID_66_" class="st5" d="M190.8,452.7c13.6-4.9,72.4-102.2,76.7-121.4c0.3-0.2,0.5-0.4,0.8-0.7l-16-5
			c-21.8,13.1-102.9,76.7-104.2,90.5C146.2,435.3,173.9,458.8,190.8,452.7z"/>
		<path id="XMLID_67_" class="st5" d="M313.8,280.4c19-4.9,114.4-66.7,118.9-80.5c5.6-17.1-18.7-44-37.8-41.6
			c-13.8,1.8-74.8,84.8-87.2,107.1l5.5,15.8C313.4,280.9,313.6,280.6,313.8,280.4z"/>
	</g>
</g>
</svg>
