<?xml version="1.0" encoding="UTF-8"?>
<svg width="640px" height="640px" viewBox="0 0 640 640" version="1.1" xmlns="http://www.w3.org/2000/svg" xmlns:xlink="http://www.w3.org/1999/xlink">
    <!-- Generator: Sketch 46.2 (44496) - http://www.bohemiancoding.com/sketch -->
    <title>9</title>
    <desc>Created with Sketch.</desc>
    <defs>
        <filter x="-2.8%" y="-5.8%" width="111.1%" height="123.5%" filterUnits="objectBoundingBox" id="filter-1">
            <feOffset dx="20" dy="20" in="SourceAlpha" result="shadowOffsetOuter1"></feOffset>
            <feGaussianBlur stdDeviation="5" in="shadowOffsetOuter1" result="shadowBlurOuter1"></feGaussianBlur>
            <feColorMatrix values="0 0 0 0 0   0 0 0 0 0   0 0 0 0 0  0 0 0 0.25 0" type="matrix" in="shadowBlurOuter1" result="shadowMatrixOuter1"></feColorMatrix>
            <feMerge>
                <feMergeNode in="shadowMatrixOuter1"></feMergeNode>
                <feMergeNode in="SourceGraphic"></feMergeNode>
            </feMerge>
        </filter>
        <linearGradient x1="0%" y1="50%" x2="50%" y2="100%" id="linearGradient-2">
            <stop stop-color="#FFE400" offset="0%"></stop>
            <stop stop-color="#FDC61E" offset="100%"></stop>
        </linearGradient>
        <path d="M420,155 L640,375 L420,595 L200,375 L420,155 Z M383.38,318.64 L383.38,426.66 L492.06,426.66 L492.06,318.64 L443,318.64 L443,298.84 L505.26,298.84 L505.26,284.54 L443,284.54 L443,267.38 L426.94,267.38 L426.94,318.64 L383.38,318.64 Z M476.66,413.68 L398.78,413.68 L398.78,394.1 L476.66,394.1 L476.66,413.68 Z M398.78,381.34 L398.78,363.52 L476.66,363.52 L476.66,381.34 L398.78,381.34 Z M398.78,350.98 L398.78,331.84 L476.66,331.84 L476.66,350.98 L398.78,350.98 Z M417.7,428.2 C404.06,439.64 387.56,449.76 367.76,458.56 L376.78,470.44 C397.02,460.98 414.18,449.98 428.26,437.44 L417.7,428.2 Z M459.28,428.2 L449.6,437.44 C470.28,449.32 486.34,460.32 498.22,470.66 L508.56,460.1 C495.36,449.54 478.86,438.76 459.28,428.2 Z M337.18,347.02 L337.18,470.44 L353.02,470.44 L353.02,324.8 C362.92,309.18 371.06,292.46 377.44,274.86 L362.7,268.04 C351.48,301.7 333.44,331.62 308.36,357.58 L312.98,373.42 C321.56,365.06 329.7,356.26 337.18,347.02 Z" id="path-3"></path>
        <filter x="-3.4%" y="-3.4%" width="113.6%" height="113.6%" filterUnits="objectBoundingBox" id="filter-4">
            <feOffset dx="20" dy="20" in="SourceAlpha" result="shadowOffsetOuter1"></feOffset>
            <feGaussianBlur stdDeviation="5" in="shadowOffsetOuter1" result="shadowBlurOuter1"></feGaussianBlur>
            <feColorMatrix values="0 0 0 0 0   0 0 0 0 0   0 0 0 0 0  0 0 0 0.25 0" type="matrix" in="shadowBlurOuter1"></feColorMatrix>
        </filter>
    </defs>
    <g id="Page-1" stroke="none" stroke-width="1" fill="none" fill-rule="evenodd">
        <g id="9">
            <g id="Group" filter="url(#filter-1)" transform="translate(20.000000, 45.000000)" fill="#FDC61E">
                <polygon id="Path-35" points="40 240 60 200 100 180 120 140 200 120 220 140 400 100 460 20 500 2.84217094e-14 460 120 240 240 60 260 20 260"></polygon>
                <polygon id="Path-34" points="140 180 0 80 20 60 80 60 180 140"></polygon>
                <polygon id="Path-37" points="428.712891 134.680664 520 160 540 140 440 116.074219"></polygon>
                <polygon id="Path-36" points="400 120 340 60 380 60 420 100"></polygon>
            </g>
            <g id="Combined-Shape">
                <use fill="black" fill-opacity="1" filter="url(#filter-4)" xlink:href="#path-3"></use>
                <use fill="url(#linearGradient-2)" fill-rule="evenodd" xlink:href="#path-3"></use>
            </g>
        </g>
    </g>
</svg>