<?xml version="1.0" encoding="utf-8"?>
<!-- Generator: Adobe Illustrator 19.0.0, SVG Export Plug-In . SVG Version: 6.00 Build 0)  -->
<svg version="1.1" xmlns="http://www.w3.org/2000/svg" xmlns:xlink="http://www.w3.org/1999/xlink" x="0px" y="0px"
	 viewBox="0 0 1024 1024" style="enable-background:new 0 0 1024 1024;" xml:space="preserve">
<style type="text/css">
	.st0{display:none;}
	.st1{display:inline;}
	.st2{fill:#FFD02C;}
	.st3{display:inline;fill:none;}
	.st4{display:inline;fill:none;stroke:#FFD02C;stroke-width:2;stroke-miterlimit:10;}
	.st5{fill:#F9FF00;}
</style>
<g id="Layer_1" class="st0">
	<g id="XMLID_1_" class="st1">
		<g id="XMLID_81_">
			<path id="XMLID_82_" class="st2" d="M512,2c68.9,0,135.6,13.5,198.5,40.1c60.7,25.7,115.3,62.5,162.1,109.3
				s83.6,101.4,109.3,162.1c26.6,62.9,40.1,129.7,40.1,198.5s-13.5,135.6-40.1,198.5c-25.7,60.7-62.5,115.3-109.3,162.1
				s-101.4,83.6-162.1,109.3c-62.9,26.6-129.7,40.1-198.5,40.1s-135.6-13.5-198.5-40.1c-60.7-25.7-115.3-62.5-162.1-109.3
				S67.8,771.2,42.1,710.5C15.5,647.6,2,580.9,2,512s13.5-135.6,40.1-198.5c25.7-60.7,62.5-115.3,109.3-162.1S252.8,67.8,313.5,42.1
				C376.4,15.5,443.1,2,512,2 M512,0C229.2,0,0,229.2,0,512s229.2,512,512,512s512-229.2,512-512S794.8,0,512,0L512,0z"/>
		</g>
	</g>
	<circle id="XMLID_5_" class="st3" cx="32" cy="32" r="32"/>
	<rect id="XMLID_22_" x="160.5" y="160" class="st4" width="704" height="704"/>
	<circle id="XMLID_24_" class="st4" cx="512.5" cy="512" r="352"/>
	<rect id="XMLID_33_" x="288" y="288" class="st4" width="448" height="449.6"/>
	<circle id="XMLID_34_" class="st4" cx="512" cy="513.6" r="224"/>
	<rect id="XMLID_35_" x="352" y="352" class="st4" width="318.3" height="318.3"/>
	<circle id="XMLID_36_" class="st4" cx="511.2" cy="511.2" r="159.2"/>
</g>
<g id="Layer_2">
	<g id="XMLID_57_">
		<path id="XMLID_60_" class="st5" d="M668.2,730.7c-12.5,48.2-34.1,133.9-32.8,143.3c1.8,13.3,19.9,44.5,82.7-8.7
			c28-23.8,43.3-41,51.7-52.8c-18.2-12.9-46.4-35.7-91.5-73.4C674.8,736.2,671.5,733.4,668.2,730.7z"/>
		<path id="XMLID_61_" class="st5" d="M879.8,628c-9.5-1.2-95,21.1-143.1,34c2.8,3.2,5.6,6.6,8.5,10c38.1,44.8,61.1,72.9,74.2,90.9
			c11.7-8.4,28.8-23.9,52.4-52.1C924.5,647.6,893.1,629.7,879.8,628z"/>
		<path id="XMLID_64_" class="st5" d="M670.8,664.9c20.4-20.6,37.9-2.9,37.9-2.9c-34.5-44.4-140.3-178.1-136.3-204
			c4.3-27.5,171-191.1,204.3-256.8c33.4-65.7,4-84.2-41.9-59.2c-45.9,25-279.2,230.8-279.2,230.8s-38.1-30.1-70.9-60.9
			c-15.3-15.4-33.2-9.3-45.3-1.7c0,0-0.1-0.1-0.1-0.1c-13.8-13.7-30.7-19-37.7-11.9c-7,7.1-1.6,23.9,12.1,37.6
			c-7.3,11.9-12.8,29.3,2.7,45c30,32.5,60.8,71.1,60.8,71.1S176.4,683.6,151.8,729.8c-24.6,46.1-10,79.5,55.4,45.6
			c65.4-33.9,226.8-201.1,254.3-205.6c25.9-4.3,163.1,98.4,207.6,132C669.1,701.8,650.3,685.5,670.8,664.9z"/>
		<path id="XMLID_65_" class="st5" d="M690.3,684.4c-13.3,13.4,3.1,35.6,3.1,35.6s119.8,100.6,126.9,93.4
			c7.1-7.2-94.5-125.5-94.5-125.5S703.6,670.9,690.3,684.4z"/>
		<path id="XMLID_66_" class="st5" d="M195.1,447.2c13.7-4.8,73.6-101.4,78.1-120.5c0.3-0.2,0.5-0.4,0.8-0.6l-15.9-5.2
			c-22,12.8-103.8,75.5-105.3,89.3C150.7,429.4,178.1,453.1,195.1,447.2z"/>
		<path id="XMLID_67_" class="st5" d="M320.1,276.4c19-4.7,115.2-65.4,119.8-79.1c5.8-17-18.2-44.2-37.3-42
			c-13.8,1.6-75.8,83.9-88.4,106l5.3,15.9C319.7,276.9,319.9,276.7,320.1,276.4z"/>
	</g>
</g>
</svg>
