<?xml version="1.0" encoding="UTF-8"?>
<!-- Generator: visioncortex VTracer 0.6.12 -->
<svg version="1.1" xmlns="http://www.w3.org/2000/svg" width="1862" height="1862">
<path d="M0 0 C1.7 1.5 1.7 1.5 10 9 C12.6 11.3 15.3 13.6 18 16 C35.6 32.4 53.2 48.9 69 67 C73 71 73 71 97 76 C142.3 86.9 176.4 102.7 213 132 C214 132.7 215 133.3 216 134 C216 134.7 216 135.3 216 136 C217.3 136.7 218.6 137.3 220 138 C223.6 141.3 227.3 144.6 231 148 C248.1 161.1 263.8 170.6 283 181 C290 185.7 297 190.3 304 195 C304 195.7 304 196.3 304 197 C305.7 197.7 307.3 198.3 309 199 C309.7 199.3 310.3 199.7 311 200 C311 200.7 311 201.3 311 202 C312.7 202.7 314.3 203.3 316 204 C324.6 209.7 333 215.6 341 222 C366.7 237.7 386.4 238.7 416 240 C416 242 416 244 416 246 C415.3 246 414.7 246 414 246 C413.3 247.3 412.7 248.6 412 250 C399.7 261.1 386.6 270.5 373 280 C368.6 283.9 364.2 287.8 360 292 C346.3 302.7 331.2 309.8 315 316 C307.7 319 300.5 321.9 293 325 C246.6 338 246.6 338 234 338 C237 346.2 239.9 354.5 243 363 C276.3 469.5 317.4 701.1 264 808 C264.7 808 265.3 808 266 808 C266 809 266 810 266 811 C272.3 809 278.5 807 285 805 C291.6 803 298.2 801 305 799 C309.6 797.3 314.2 795.7 319 794 C321.5 793.5 321.5 793.5 334 791 C342.4 788.8 350.7 786.5 359 784 C381.9 780.7 381.9 780.7 389 785 C392 790 392 790 392 792 C393 792.3 394 792.7 395 793 C399.1 801.2 396.7 809.4 395 818 C380.3 845.4 380.3 845.4 369 851 C364.7 855 360.4 858.9 356 863 C353.7 864.7 351.4 866.3 349 868 C347.7 869.7 346.4 871.3 345 873 C342.4 875 339.7 877 337 879 C335.3 880.7 333.7 882.3 332 884 C329.7 885.7 327.4 887.3 325 889 C323.3 890.7 321.7 892.3 320 894 C318.3 895.3 316.7 896.6 315 898 C313.7 899.7 312.4 901.3 311 903 C310.3 903.7 309.7 904.3 309 905 C309 906 309 907 309 908 C307.5 909 307.5 909 300 914 C294.1 918.6 288.1 923.2 282 928 C223.9 969 223.9 969 209 969 C208.3 971 207.7 973 207 975 C172.2 1047.8 128 1115 74 1175 C71.7 1177.6 69.4 1180.3 67 1183 C57.8 1192.8 48.5 1202.5 39 1212 C39 1223.7 40 1235.4 41 1247 C41 1249.3 41 1251.6 41 1254 C37.4 1257.6 31 1255.6 26 1256 C17 1256 8 1255.6 -1 1255 C-8 1255 -8 1255 -22 1267 C-201.6 1404.3 -417.3 1469.1 -643 1443.8 C-810.2 1420.8 -966.2 1352.2 -1092 1239 C-1094.6 1236.7 -1097.3 1234.4 -1100 1232 C-1117.6 1215.6 -1135.2 1199.1 -1151 1181 C-1153 1178.9 -1153 1178.9 -1163 1168 C-1166 1164.4 -1168.9 1160.7 -1172 1157 C-1176 1152.4 -1179.9 1147.8 -1184 1143 C-1265.8 1036 -1357 885.5 -1357 746 C-1358.7 745.7 -1360.3 745.3 -1362 745 C-1365.5 743.5 -1365.5 743.5 -1383 736 C-1383 735.3 -1383 734.7 -1383 734 C-1384.7 733.3 -1386.3 732.7 -1388 732 C-1391.3 730.7 -1394.6 729.4 -1398 728 C-1398 727.3 -1398 726.7 -1398 726 C-1399.3 725.7 -1400.6 725.3 -1402 725 C-1403.7 723.3 -1405.3 721.7 -1407 720 C-1406 715 -1406 715 -1401 709 C-1390 702 -1390 702 -1376 695 C-1372.4 692.7 -1368.7 690.4 -1365 688 C-1365.2 684.2 -1365.2 684.2 -1366 665 C-1366.6 567.9 -1361 472 -1330 379 C-1335.3 376.4 -1340.6 373.7 -1346 371 C-1378.8 352.3 -1407.4 329.7 -1427 297 C-1430.6 292 -1434.3 287.1 -1438 282 C-1439.3 280 -1440.6 278 -1442 276 C-1443 275.3 -1444 274.7 -1445 274 C-1445.3 272.7 -1445.7 271.4 -1446 270 C-1436.9 254.9 -1414.4 245.7 -1399 238 C-1396 236 -1393.1 234 -1390 232 C-1383.7 228.7 -1377.5 225.4 -1371 222 C-1365.4 218.7 -1359.8 215.4 -1354 212 C-1313.6 193.9 -1274.3 179.3 -1231 170 C-1227 164.1 -1223.1 158.1 -1219 152 C-1199.2 124.6 -1178.6 98.1 -1156 73 C-1154.8 71.7 -1154.8 71.7 -1149 65 C-1132.6 47.4 -1116.1 29.8 -1098 14 C-1093.7 10 -1089.4 6.1 -1085 2 C-1081.4 -1 -1077.7 -3.9 -1074 -7 C-1069.4 -11 -1064.8 -14.9 -1060 -19 C-743.2 -261.3 -306.1 -262.4 0 0 Z " fill="#402E2A" transform="translate(1446,303)"/>
<path d="M0 0 C1.3 0.3 2.6 0.7 4 1 C4 2 4 3 4 4 C4.7 4 5.3 4 6 4 C15 18 15 18 15 21 C16.3 21.7 17.6 22.3 19 23 C19.7 25 20.3 27 21 29 C21.7 29.3 22.3 29.7 23 30 C27 40 27 40 27 43 C28.3 43.3 29.6 43.7 31 44 C31.5 45.2 31.5 45.2 34 51 C38.9 57 43.9 63.1 49 69 C49.3 70 49.7 71 50 72 C51 73 52 74 53 75 C54 76 55 77 56 78 C56 79 56 80 56 81 C57.3 81.7 58.6 82.3 60 83 C62.3 85.6 64.6 88.3 67 91 C68.8 92.5 68.8 92.5 78 100 C79.3 101.3 80.6 102.6 82 104 C83.3 104.7 84.6 105.3 86 106 C86 106.7 86 107.3 86 108 C87.3 108.7 88.6 109.3 90 110 C99.6 115.2 106.3 120.3 114 128 C118 130.6 121.9 133.3 126 136 C126 136.7 126 137.3 126 138 C127.5 138.5 127.5 138.5 135 141 C136.3 141.8 136.3 141.8 143 146 C154 152 154 152 164 156 C168 157.6 171.9 159.3 176 161 C182.6 163.3 189.2 165.6 196 168 C196 168.7 196 169.3 196 170 C197.7 170.3 199.3 170.7 201 171 C209.6 173.3 218.2 175.6 227 178 C236.6 180.3 246.1 182.6 256 185 C273.4 189.4 283.8 194.7 300 204 C300 204.7 300 205.3 300 206 C302 206.3 304 206.7 306 207 C307 207.7 308 208.3 309 209 C309 209.7 309 210.3 309 211 C309.7 211 310.3 211 311 211 C311.5 211.5 311.5 211.5 314 214 C318.3 216.3 322.6 218.6 327 221 C345.1 237.9 352 247.9 362 271 C363.7 274 365.3 276.9 367 280 C371 292 371 292 371 295 C371.7 295 372.3 295 373 295 C374 298 374 298 374 307 C375 307 376 307 377 307 C377.7 309 378.3 311 379 313 C380.3 313 381.6 313 383 313 C383.5 310.5 383.5 310.5 386 298 C395.8 266.5 412.2 244.3 441 227 C442 226.3 442 226.3 447 223 C473.9 211.5 495.7 206.1 525 211 C555.8 227.3 580.5 246.6 593 280 C594 281.6 595 283.3 596 285 C600.6 310.5 597.6 334.3 591 359 C591.7 359 592.3 359 593 359 C591 369 591 369 588 376 C586.7 380 585.4 383.9 584 388 C573 407 573 407 562 422 C560.5 424.1 560.5 424.1 553 435 C537 450 537 450 527 457 C526.3 457.7 525.7 458.3 525 459 C527.3 461 529.6 463 532 465 C543 480 543 480 546 487 C556 485.6 565.4 483.2 575 480 C580.3 478.7 585.6 477.4 591 476 C595.1 474.7 595.1 474.7 616 468 C620 467 623.9 466 628 465 C630.5 463.8 630.5 463.8 643 458 C647.3 456.7 651.6 455.4 656 454 C658.6 452.7 661.3 451.4 664 450 C708.3 431 708.3 431 719 431 C720 425.7 721 420.4 722 415 C723 414.7 724 414.3 725 414 C725 414.7 725 415.3 725 416 C727.3 415.7 729.6 415.3 732 415 C732.3 414.3 732.7 413.7 733 413 C738.3 411.3 743.6 409.7 749 408 C759.1 404.8 769.1 401.6 779 398 C781.5 397.5 781.5 397.5 794 395 C802.4 392.8 810.7 390.5 819 388 C841.9 384.7 841.9 384.7 849 389 C852 394 852 394 852 396 C853 396.3 854 396.7 855 397 C859.1 405.2 856.7 413.4 855 422 C840.3 449.4 840.3 449.4 829 455 C826.9 457 826.9 457 816 467 C814.8 467.8 814.8 467.8 809 472 C807.7 473.7 806.4 475.3 805 477 C802.4 479 799.7 481 797 483 C795.3 484.7 793.7 486.3 792 488 C790.8 488.8 790.8 488.8 785 493 C783.3 494.7 781.7 496.3 780 498 C778.3 499.3 776.7 500.6 775 502 C773.7 503.7 772.4 505.3 771 507 C770.3 507.7 769.7 508.3 769 509 C769 510 769 511 769 512 C767.5 513 767.5 513 760 518 C757 520.3 757 520.3 742 532 C715.8 550.5 690.8 568.1 659 576 C656.4 577.7 653.7 579.3 651 581 C638.1 586.5 625.2 592.1 612 597 C602 605 602 605 596 613 C595 613.3 594 613.7 593 614 C592.7 618.3 592.3 622.6 592 627 C591 628 590 629 589 630 C587.4 634.8 587.4 640 587 645 C586 648 585 650.9 584 654 C583.3 657.6 582.7 661.3 582 665 C573.6 685.3 563.5 696.1 545 708 C543.5 708.5 543.5 708.5 536 711 C533.4 713 530.7 715 528 717 C525.4 718.3 522.7 719.6 520 721 C519.7 721.3 519.3 721.7 519 722 C517.3 722 515.7 722 514 722 C513.7 723.7 513.3 725.3 513 727 C512 728.3 511 729.6 510 731 C509.3 734.3 508.7 737.6 508 741 C507 744 506 746.9 505 750 C503.7 755.9 502.4 761.9 501 768 C500 771.3 499 774.6 498 778 C494.9 799.9 497.4 822.1 499 844 C499 847.6 499 851.3 499 855 C483.6 861.6 466.8 859 451 855 C446 855.3 441.1 855.7 436 856 C400.5 856 381.3 854.2 353 833 C348 828 343.1 823.1 338 818 C334.4 815.7 330.7 813.4 327 811 C324 807.4 321.1 803.7 318 800 C313.7 797 309.4 794.1 305 791 C301.7 786.7 298.4 782.4 295 778 C292 775.4 289.1 772.7 286 770 C276 757 276 757 276 755 C274 754.3 272 753.7 270 753 C269.7 752.3 269.3 751.7 269 751 C268.3 751 267.7 751 267 751 C265.7 752.3 264.4 753.6 263 755 C261.3 756 259.7 757 258 758 C256.7 760 255.4 762 254 764 C252 765 252 765 246 765 C241 762.7 236.1 760.4 231 758 C209 752 209 752 200 750 C196.7 747.4 193.4 744.7 190 742 C188.7 741.3 187.4 740.7 186 740 C183.4 741.3 183.4 741.3 170 748 C142.9 760.9 125.6 759.3 95 759 C94 758 93 757 92 756 C95.9 760.4 99.8 764.8 104 769 C105 770 106 771 107 772 C107 772.7 107 773.3 107 774 C65 788 65 788 59 788 C52 777 52 777 52 775 C51 774.7 50 774.3 49 774 C48.7 772.7 48.3 771.4 48 770 C38.1 768.4 28 768.4 18 768 C14.4 767.7 10.7 767.3 7 767 C7 770 7 772.9 7 776 C5.7 781.3 4.4 786.6 3 792 C2.7 794.3 2.3 796.6 2 799 C-7 801 -7 801 -13 801 C-11.2 791.1 -9 782.3 -5 773 C-3.6 767.5 -3.4 761.7 -3 756 C-2.7 754.7 -2.3 753.4 -2 752 C-2.7 752 -3.3 752 -4 752 C-4 754 -4 756 -4 758 C-10.3 761 -16.5 763.9 -23 767 C-34.2 773.7 -45.3 780.6 -56 788 C-56.7 788 -57.3 788 -58 788 C-58 788.7 -58 789.3 -58 790 C-61.6 792.3 -65.3 794.6 -69 797 C-70.6 798.3 -70.6 798.3 -79 805 C-90.3 805 -101.7 804.9 -113 804 C-108 797 -108 797 -102 794 C-101 793 -100 792 -99 791 C-87.7 783.2 -75.9 776 -64 769 C-61 767.2 -61 767.2 -46 758 C-36 752 -36 752 -29 749 C-27 748 -25 747 -23 746 C-22 746 -21 746 -20 746 C-20 745.3 -20 744.7 -20 744 C-16.7 742.3 -13.4 740.7 -10 739 C-7.7 737.7 -5.4 736.4 -3 735 C-8 735.3 -12.9 735.7 -18 736 C-24.6 736 -31.2 736 -38 736 C-38 735.3 -38 734.7 -38 734 C-43.9 734 -49.9 734 -56 734 C-86 730 -86 730 -101 726 C-105.5 725 -105.5 725 -128 720 C-147 715 -147 715 -156 710 C-156 709.3 -156 708.7 -156 708 C-156.7 708 -157.3 708 -158 708 C-157.8 734.8 -157.3 761.3 -155 788 C-154.3 788 -153.7 788 -153 788 C-152 789.7 -151 791.3 -150 793 C-149.3 793.5 -149.3 793.5 -146 796 C-145.7 797.7 -145.3 799.3 -145 801 C-147 801 -149 801 -151 801 C-151.7 800 -152.3 799 -153 798 C-153.3 798.7 -153.7 799.3 -154 800 C-163 800 -163 800 -166 799 C-166.3 797 -166.7 795 -167 793 C-167.3 794.7 -167.7 796.3 -168 798 C-206.5 798 -249.8 783.1 -285 768 C-282 753 -282 753 -279 744 C-277.3 737 -275.6 730 -274 723 C-272 716 -272 716 -269 709 C-266.5 700.4 -264.3 691.7 -262 683 C-261.3 681 -260.7 679 -260 677 C-259.3 677 -258.7 677 -258 677 C-257.7 673.7 -257.3 670.4 -257 667 C-255.7 664.4 -254.4 661.7 -253 659 C-252.7 657.3 -252.3 655.7 -252 654 C-251.3 653.7 -250.7 653.3 -250 653 C-249 654 -248 655 -247 656 C-247 653.7 -247 651.4 -247 649 C-254 651 -254 651 -256 652 C-272 652 -272 652 -282 651 C-286 655 -286 655 -288 659 C-290.6 663.4 -293.3 667.7 -296 672 C-298.6 676.6 -301.3 681.2 -304 686 C-306 689.3 -308 692.6 -310 696 C-315 705 -315 705 -318 712 C-321 717 -323.9 721.9 -327 727 C-330.3 732.9 -333.6 738.9 -337 745 C-338.3 744.7 -339.6 744.3 -341 744 C-339.1 732.8 -332.8 723.6 -327 714 C-331 718 -331 718 -339 734 C-340.3 736.6 -341.6 739.3 -343 742 C-344.6 741.3 -346.3 740.7 -348 740 C-344.8 730.4 -339 721.8 -334 713 C-333.3 712.7 -332.7 712.3 -332 712 C-313.1 669.1 -313.1 669.1 -309 654 C-318.2 654 -327.5 654 -337 654 C-374.5 650.8 -374.5 650.8 -385 649 C-384 653 -383 656.9 -382 661 C-379.2 683.1 -377 701.2 -377 723 C-382 721 -382 721 -389 716 C-392 704 -392 704 -393 687 C-393.3 686 -393.7 685 -394 684 C-394.3 672.1 -394.7 660.2 -395 648 C-399 647.7 -402.9 647.3 -407 647 C-407 646.3 -407 645.7 -407 645 C-409.6 645 -412.3 645 -415 645 C-429.4 642.5 -443.7 639.8 -458 637 C-458 636.3 -458 635.7 -458 635 C-461.3 634.7 -464.6 634.3 -468 634 C-470.8 633 -470.8 633 -485 628 C-485.3 626.7 -485.7 625.4 -486 624 C-496 621 -496 621 -505 619 C-515.5 608.5 -524.7 597.6 -534 586 C-534 585.3 -534 584.7 -534 584 C-533.3 583.7 -532.7 583.3 -532 583 C-535.3 579.4 -538.6 575.7 -542 572 C-543 570.3 -544 568.7 -545 567 C-545.7 566.5 -545.7 566.5 -549 564 C-549.2 563 -549.2 563 -550 558 C-551 557.7 -552 557.3 -553 557 C-558.6 548.6 -557 537.5 -557 528 C-554.2 521.3 -551.3 514.5 -548 508 C-547.3 508 -546.7 508 -546 508 C-545.7 506.3 -545.3 504.7 -545 503 C-532.7 485.2 -532.7 485.2 -524 480 C-514.9 467.3 -519.9 455.5 -522 440 C-522.7 436.4 -523.3 432.7 -524 429 C-524 427 -524 425 -524 423 C-524.7 423 -525.3 423 -526 423 C-529.6 395.7 -529.2 368.3 -529.2 340.8 C-529.2 333.1 -529.2 325.4 -529.2 317.4 C-529 298 -529 298 -527 286 C-514.5 281.6 -501.8 277.4 -489 274 C-487.4 273.3 -485.7 272.7 -484 272 C-445.1 263.4 -404 264.9 -364.4 265.8 C-352.1 265.5 -339.7 265.3 -327 265 C-327 248 -327 248 -330 231 C-332.7 209.4 -332.3 188.1 -332.2 166.3 C-332.3 157.6 -332.3 148.9 -332.3 139.9 C-332 118 -332 118 -330 105 C-329.3 105 -328.7 105 -328 105 C-325.4 113.9 -322.7 122.8 -320 132 C-319.2 134 -319.2 134 -315 144 C-313.7 147.3 -312.4 150.6 -311 154 C-310 156.3 -309 158.6 -308 161 C-305.2 167.6 -302.6 174.3 -300 181 C-299.5 181.5 -299.5 181.5 -297 184 C-290.2 195.9 -283.6 207.9 -277 220 C-258.4 243.9 -258.4 243.9 -245 247 C-241.7 248 -238.4 249 -235 250 C-235 250.7 -235 251.3 -235 252 C-163.8 250.1 -163.8 250.1 -145 245 C-106.6 239 -106.6 239 -100 239 C-100 238.3 -100 237.7 -100 237 C-85 234 -85 234 -81 234 C-81 233.3 -81 232.7 -81 232 C-72.1 229.7 -63.2 227.4 -54 225 C-52.4 224.3 -50.7 223.7 -49 223 C-43.7 222.3 -38.4 221.7 -33 221 C-33 220.3 -33 219.7 -33 219 C-26.1 216.7 -19.1 214.4 -12 212 C-9.4 210.7 -6.7 209.4 -4 208 C14 201 14 201 17 201 C17 200.3 17 199.7 17 199 C26 194 26 194 28 194 C26.7 191.4 25.4 188.7 24 186 C19.9 177.8 18 169.4 18 160 C17.3 160 16.7 160 16 160 C12 147 12 147 10 135 C9.7 134.3 9.3 133.7 9 133 C8.3 126.1 7.7 119.1 7 112 C6 105.4 5 98.8 4 92 C3.3 84.7 2.7 77.5 2 70 C1.7 69.3 1.3 68.7 1 68 C-4.5 18.2 -4.5 18.2 0 0 Z M-255 657 C-253 658 -253 658 -253 658 Z " fill="#B79B8F" transform="translate(986,699)"/>
<path d="M0 0 C2.3 1.6 4.6 3.3 7 5 C9 5.7 11 6.3 13 7 C13 7.7 13 8.3 13 9 C8 10.3 3.1 11.6 -2 13 C-15 17 -15 17 -16 18 C-13.7 19 -11.4 20 -9 21 C8 33.7 20.6 46.7 33 64 C33 74 33 74 31 87 C22.4 90.6 13.7 93.9 5 97 C3.4 98 1.7 99 0 100 C-3.3 101 -6.6 102 -10 103 C-14.6 105.6 -19.2 108.3 -24 111 C-25.5 111.3 -25.5 111.3 -33 113 C-36.3 114.3 -39.6 115.6 -43 117 C-44.8 117.7 -44.8 117.7 -54 121 C-70 127 -70 127 -74 130 C-79 131.6 -83.9 133.3 -89 135 C-95.4 137.8 -101.7 140.9 -108 144 C-110.3 145 -112.6 146 -115 147 C-118 149 -120.9 151 -124 153 C-128 155 -128 155 -145 155 C-156.6 148.1 -170.8 139 -176 126 C-176.7 126 -177.3 126 -178 126 C-179.6 121.7 -181.3 117.4 -183 113 C-184 110.7 -185 108.4 -186 106 C-192 83 -192 83 -192 76 C-173 66 -173 66 -164 63 C-159 60.7 -154.1 58.4 -149 56 C-141.7 53.7 -134.5 51.4 -127 49 C-106 42 -106 42 -99 39 C-80.7 34 -62.4 29.2 -44 25 C-38.4 23.7 -32.8 22.4 -27 21 C-36.2 14.9 -46.7 11.7 -57 8 C-60 6.7 -62.9 5.4 -66 4 C-85 -2 -85 -2 -94 -4 C-97.3 -5 -100.6 -6 -104 -7 C-129.7 -9.3 -153.7 -9.9 -176 5 C-195.4 27.2 -192.2 50 -193 79 C-198 82 -198 82 -208 86 C-209.6 87 -211.3 88 -213 89 C-209 121.3 -194.8 144.5 -171 166 C-164 171 -164 171 -157 174 C-154.7 175 -152.4 176 -150 177 C-128.2 180.1 -116.3 175.2 -98 164 C-80.9 155.9 -63.8 149.4 -46 143 C-32.1 137.7 -18.6 132.1 -5 126 C-2.4 125.3 0.3 124.7 3 124 C3 123.3 3 122.7 3 122 C7 120.7 10.9 119.4 15 118 C19 116.4 22.9 114.7 27 113 C28.3 113 29.6 113 31 113 C30 123 30 123 29 126 C28.3 126 27.7 126 27 126 C26.7 128.6 26.3 131.3 26 134 C23 149 23 149 21 154 C20.7 156.6 20.3 159.3 20 162 C19.3 163.3 18.7 164.6 18 166 C17.3 171 16.7 175.9 16 181 C14.7 185.6 13.4 190.2 12 195 C-2 298.9 -2 298.9 5 327 C6.3 327.7 7.6 328.3 9 329 C9.3 329.3 9.7 329.7 10 330 C20 330 20 330 24 328 C30.9 310.7 27.5 275.2 28 257 C33.8 173.2 33.8 173.2 43 164 C43.7 160 44.3 156.1 45 152 C46.6 145.7 48.3 139.5 50 133 C51 128.7 51 128.7 56 107 C59 104 59 104 61 103 C63.3 103 65.6 103 68 103 C91.2 130.8 103.8 156.5 112 192 C114.3 199.3 116.6 206.5 119 214 C121.3 221.6 123.6 229.2 126 237 C129.5 247.1 133 257.1 137 267 C140 277 140 277 141 290 C143 299 143 299 146 303 C146 303.7 146 304.3 146 305 C150 305 153.9 305 158 305 C158.8 304.2 158.8 304.2 163 300 C163.3 299.7 163.7 299.3 164 299 C164 278.5 160.1 261 152 242 C145.9 223.8 140.2 205.6 134.9 187.1 C125.9 155.7 113.8 126.5 100 97 C100 96.3 100 95.7 100 95 C106 96 106 96 117 100 C123 102 123 102 137 104 C141.6 105.3 146.2 106.6 151 108 C158.6 109.3 166.2 110.6 174 112 C174.8 112.3 174.8 112.3 179 114 C184.4 114.8 184.4 114.8 212 119 C212.7 119.3 213.3 119.7 214 120 C307.3 120.6 307.3 120.6 343 92 C350 84 350 84 353 75 C354 72.2 354 72.2 359 58 C363.4 42 366.9 27.4 369 11 C373 -10 373 -10 374 -11 C385 -11 385 -11 401 -8 C406.9 -7 412.9 -6 419 -5 C421.1 -4.3 421.1 -4.3 432 -1 C437.3 0.5 437.3 0.5 464 8 C470.6 10.6 477.2 13.3 484 16 C486.6 17 486.6 17 500 22 C505.6 24.6 511.2 27.3 517 30 C524.6 32.2 532.3 34.3 540 36 C543 37.3 545.9 38.6 549 40 C549 40.7 549 41.3 549 42 C551.6 42.7 554.3 43.3 557 44 C557.7 44.3 558.3 44.7 559 45 C559 45.7 559 46.3 559 47 C560.7 47.7 562.3 48.3 564 49 C564.3 49.3 564.7 49.7 565 50 C588.8 50 614.3 39.8 637 33 C639.6 32.5 639.6 32.5 653 30 C654.3 29.3 655.6 28.7 657 28 C715.4 19.1 778.6 12.9 836 32 C842.5 33.6 849 35.2 855.8 36.9 C876.6 42.2 889.3 47.2 908 58 C922 65 922 65 926 66 C926 66.7 926 67.3 926 68 C928 68.7 930 69.3 932 70 C947.4 80.9 962.2 92.3 977 104 C985.9 110.8 994.8 117.6 1004 124 C1011.8 129.5 1019.4 135.2 1027 141 C1031 144 1034.9 146.9 1039 150 C1039 150.7 1039 151.3 1039 152 C1041 152.3 1043 152.7 1045 153 C1045 153.7 1045 154.3 1045 155 C1046.7 155.7 1048.3 156.3 1050 157 C1052.5 158.6 1052.5 158.6 1065 167 C1070 169 1070 169 1079 171 C1081.3 172 1083.6 173 1086 174 C1100 178 1100 178 1112 179 C1112 179.7 1112 180.3 1112 181 C1109.4 182.3 1106.7 183.6 1104 185 C1102.3 186.6 1100.7 188.3 1099 190 C1097.3 191.6 1095.7 193.3 1094 195 C1093.3 195 1092.7 195 1092 195 C1091.3 196.3 1090.7 197.6 1090 199 C1088.3 200.3 1086.7 201.6 1085 203 C1084 204.2 1084 204.2 1079 210 C1072 213 1072 213 1070 213 C1069.7 214 1069.3 215 1069 216 C1066.4 217 1063.7 218 1061 219 C1059.5 219.7 1059.5 219.7 1052 223 C1043.4 226.3 1034.8 229.6 1026 233 C1024.3 233.7 1022.7 234.3 1021 235 C1019.3 235 1017.7 235 1016 235 C1016 235.7 1016 236.3 1016 237 C992.8 243.8 970 247.5 946 250 C943.5 250.5 943.5 250.5 931 253 C907.9 256.4 885.3 258.5 862 260 C859.4 260.3 856.7 260.7 854 261 C822 261 822 261 799 259 C771 259 771 259 765 262 C769.7 266.7 774.9 270.8 780 275 C803.8 303.6 810.4 349.8 813 386 C813.3 387 813.7 388 814 389 C815.1 411.5 815.2 433.8 815.2 456.3 C815.2 464.7 815.2 473.1 815.2 481.7 C815 502 815 502 813 509 C801.1 508.7 789.2 508.3 777 508 C777.3 498.1 777.7 488.2 778 478 C778 467.4 778 456.9 778 446 C777.3 446 776.7 446 776 446 C773.3 438 773.8 429.4 773 421 C768 400 768 400 763 390 C761.7 389.7 760.4 389.3 759 389 C760.3 394.9 761.6 400.9 763 407 C767.9 476.2 767.9 476.2 756 508 C753.7 508.3 751.4 508.7 749 509 C745.7 510.3 742.4 511.6 739 513 C738 513 737 513 736 513 C736 513.7 736 514.3 736 515 C732.7 516.3 729.4 517.6 726 519 C720.3 521.9 714.6 524.9 709 528 C707 529 705 530 703 531 C700.4 533 697.7 535 695 537 C692.7 537 690.4 537 688 537 C688 522 688 522 689 516 C689 446 689 446 682 425 C679.4 414.1 676.7 403.2 674 392 C673 389.4 672 386.7 671 384 C668.4 376.1 665.7 368.2 663 360 C654 336 654 336 650 326 C648.3 321.7 646.7 317.4 645 313 C644.5 312 644.5 312 642 307 C637.3 297.7 632.7 288.3 628 279 C623.2 270.6 618.2 262.2 613 254 C613 253.3 613 252.7 613 252 C612.3 252 611.7 252 611 252 C609.5 249.9 609.5 249.9 602 239 C579.7 211.6 556.2 184.1 524 168 C525.7 169.6 527.3 171.3 529 173 C538 182 538 182 545 192 C546.7 193.3 548.3 194.6 550 196 C551.2 197.5 551.2 197.5 557 205 C560 208.6 562.9 212.3 566 216 C567.7 218.5 567.7 218.5 576 231 C577.2 232.6 577.2 232.6 583 241 C584.7 243.6 584.7 243.6 593 257 C594.2 258.8 594.2 258.8 600 268 C610.7 285 620.3 300.4 628 319 C629.3 321.6 630.6 324.3 632 327 C649 378 649 378 649 385 C649.7 385 650.3 385 651 385 C655.6 404.4 658.5 423.2 661 443 C662 446.3 663 449.6 664 453 C664 479.7 663.7 506.3 662 533 C655.8 529.9 650.5 525.2 645 521 C643.7 520.3 642.4 519.7 641 519 C641 518.3 641 517.7 641 517 C639 516.3 637 515.7 635 515 C626.7 511.7 618.3 508.3 610 505 C610 504.3 610 503.7 610 503 C608.3 502.7 606.7 502.3 605 502 C601 500.4 597.1 498.7 593 497 C593 496.3 593 495.7 593 495 C590.7 494.3 588.4 493.7 586 493 C583 492 580.1 491 577 490 C575.3 489.5 575.3 489.5 567 487 C568 484 568 484 576 477 C588.9 463.1 599.5 449.8 610 434 C612.6 430.7 615.3 427.4 618 424 C621 418 621 418 621 407 C612.2 397.2 602.9 388.6 593 380 C585.4 372.4 577.8 364.8 570 357 C564.4 353 558.8 349.1 553 345 C548.2 340.2 543.5 335.1 539 330 C534 325 534 325 530 324 C522 324 522 324 514 327 C513.3 327.7 512.7 328.3 512 329 C510.3 329.7 508.7 330.3 507 331 C502.2 335.2 497.5 339.5 493 344 C487 349 487 349 480 352 C477.7 354.3 475.4 356.6 473 359 C471.3 360.3 469.7 361.6 468 363 C466.7 364.6 465.4 366.3 464 368 C458.7 371.6 453.4 375.3 448 379 C445.5 380.8 445.5 380.8 433 390 C430.7 391 428.4 392 426 393 C422 395 422 395 420 398 C418.3 398.7 416.7 399.3 415 400 C403 412 403 412 402 414 C388.4 411.3 373.9 394.9 364 385 C352 374 352 374 346 369 C345 367.4 344 365.7 343 364 C336.7 357.7 330.5 351.5 324 345 C319 339 319 339 319 337 C318 337.3 317 337.7 316 338 C308 328 308 328 308 326 C306.7 325.3 305.4 324.7 304 324 C291.9 307.9 284 288.9 275 271 C274 269.4 273 267.7 272 266 C271.2 263 271.2 263 267 248 C266.5 246.5 266.5 246.5 264 239 C263.3 234.7 262.7 230.4 262 226 C261.3 226 260.7 226 260 226 C259.3 224 258.7 222 258 220 C257 219 256 218 255 217 C254.2 214.4 254.2 214.4 250 201 C249.3 199.7 248.7 198.4 248 197 C248 196 248 195 248 194 C246.4 195.3 244.7 196.6 243 198 C243.6 212 244.5 226.1 246 240 C246 242.3 246 244.6 246 247 C246.7 247 247.3 247 248 247 C255.5 276.9 253.9 307.9 254.2 338.5 C255 421.9 255 421.9 259 434 C259 436.6 259 439.3 259 442 C259.7 442 260.3 442 261 442 C261.7 447.3 262.3 452.6 263 458 C270 496 270 496 272 502 C274 510 274 510 274 514 C270.7 514.7 267.4 515.3 264 516 C261.4 517 258.7 518 256 519 C255 519 254 519 253 519 C253 519.7 253 520.3 253 521 C245.4 522.3 237.8 523.6 230 525 C223.1 527.3 216.1 529.6 209 532 C205.5 532.8 205.5 532.8 188 537 C186.5 537.5 186.5 537.5 179 540 C149 545 149 545 134 547 C131.7 547.7 129.4 548.3 127 549 C53.2 556.1 53.2 556.1 38 546 C27.8 535.8 18.6 524.8 14 511 C13.3 511 12.7 511 12 511 C9 504.4 6.1 497.8 3 491 C1.4 487.7 -0.3 484.4 -2 481 C-4 475.4 -6 469.8 -8 464 C-9.3 461 -10.6 458.1 -12 455 C-14.3 447.1 -16.6 439.2 -19 431 C-19.8 428.2 -19.8 428.2 -24 414 C-24.3 410.4 -24.7 406.7 -25 403 C-25.7 403 -26.3 403 -27 403 C-30.4 387.4 -33.4 371.7 -36 356 C-38 350 -38 350 -40 348 C-47.8 324.6 -43.1 295.2 -43 271 C-43.3 270 -43.7 269 -44 268 C-47 269 -47 269 -50 274 C-51 289 -52 304 -53 319 C-53.7 319 -54.3 319 -55 319 C-55 322.6 -55 326.3 -55 330 C-57 346 -57 346 -61 365 C-61.7 365 -62.3 365 -63 365 C-63.3 369.3 -63.7 373.6 -64 378 C-64.5 382.2 -64.5 382.2 -66.9 403.2 C-71.2 445.1 -72 486.4 -71.9 528.5 C-71.9 541.5 -72 554.6 -72 568 C-76 570 -76 570 -92 570 C-106.3 570.6 -120.7 571.3 -135 572 C-143.6 572.3 -152.2 572.7 -161 573 C-182 575 -182 575 -183 576 C-186.3 576.5 -186.3 576.5 -203 579 C-209.9 580.3 -216.9 581.6 -224 583 C-251 587 -251 587 -257 587 C-257 587.7 -257 588.3 -257 589 C-259.8 589.8 -259.8 589.8 -274 594 C-283.4 596.9 -292.7 599.9 -302 603 C-304 603 -306 603 -308 603 C-316 580 -316 580 -319 561 C-319.7 559.4 -320.3 557.7 -321 556 C-324.4 533.6 -326.4 511.5 -328.1 488.9 C-328.7 481.7 -329.2 474.6 -329.8 467.2 C-333.5 409.6 -329.6 349 -308 295 C-307.5 293.4 -307.5 293.4 -305 285 C-308 289 -308 289 -312 301 C-312.7 303 -312.7 303 -316 313 C-316.7 313 -317.3 313 -318 313 C-320.1 322.3 -321.5 331.6 -323 341 C-323.7 341 -324.3 341 -325 341 C-325.3 344 -325.7 346.9 -326 350 C-326.7 352 -326.7 352 -330 362 C-334 382 -334 382 -335 390 C-335.7 392.3 -336.3 394.6 -337 397 C-336.3 397 -335.7 397 -335 397 C-337 401 -337 401 -340 405 C-343 421 -343 421 -344 442 C-344.5 442.7 -344.5 442.7 -347 446 C-352.1 523.1 -352.1 523.1 -341 551 C-339 562.9 -337 574.8 -335 587 C-331 605 -331 605 -326 615 C-320.8 628.8 -325.4 636.7 -329 652 C-329.3 654 -329.7 656 -330 658 C-330.7 658 -331.3 658 -332 658 C-332.3 661 -332.7 663.9 -333 667 C-335.4 680.1 -338 693.1 -341 706 C-345 731 -345 731 -346 743 C-346.7 743 -347.3 743 -348 743 C-368.1 682.8 -379.3 620.9 -378.8 557.4 C-378.8 549 -378.9 540.6 -379 532 C-384 537 -384 537 -393 550 C-395.6 553.3 -398.3 556.6 -401 560 C-404.3 565 -407.6 569.9 -411 575 C-412.3 577 -413.6 579 -415 581 C-421.1 591.2 -427.3 601.5 -433 612 C-434.6 614.3 -436.3 616.6 -438 619 C-439.3 621.3 -440.6 623.6 -442 626 C-452.5 635 -452.5 635 -457 635 C-457 635.7 -457 636.3 -457 637 C-460.1 638.5 -460.1 638.5 -476 646 C-476.7 646.7 -477.3 647.3 -478 648 C-480.3 649 -482.6 650 -485 651 C-485.3 651.7 -485.7 652.3 -486 653 C-508 661 -508 661 -519 663 C-520 663.3 -521 663.7 -522 664 C-600 664 -600 664 -634 647 C-634 646.3 -634 645.7 -634 645 C-629 642 -624.1 639.1 -619 636 C-596.3 617.8 -579.4 597.3 -562 574 C-560.8 573.2 -560.8 573.2 -555 569 C-552.4 564 -549.7 559.1 -547 554 C-543.4 549 -539.7 544.1 -536 539 C-528.3 526.6 -520.8 513.9 -514 501 C-512.2 497.9 -512.2 497.9 -503 482 C-500.4 476.4 -497.7 470.8 -495 465 C-488.7 452.3 -482.3 439.7 -476 427 C-472.7 418.8 -469.4 410.5 -466 402 C-464.4 398 -462.7 394.1 -461 390 C-459 385 -457 380.1 -455 375 C-453.7 373 -452.4 371 -451 369 C-450.2 366.5 -450.2 366.5 -446 354 C-424.9 310.2 -398.6 267.2 -366 231 C-364 228.7 -362 226.4 -360 224 C-359.3 224 -358.7 224 -358 224 C-357.3 222.7 -356.7 221.4 -356 220 C-352 216 -348.1 212.1 -344 208 C-343.3 207 -343.3 207 -340 202 C-338 199 -338 199 -334 197 C-333.7 196 -333.3 195 -333 194 C-346.4 198.5 -354.8 206.6 -364 217 C-365.6 218 -367.3 219 -369 220 C-370.2 221.3 -370.2 221.3 -376 228 C-379 231.3 -381.9 234.6 -385 238 C-387.3 241 -389.6 243.9 -392 247 C-394.6 250.3 -397.3 253.6 -400 257 C-409 269 -409 269 -415 279 C-415.7 279 -416.3 279 -417 279 C-417.7 280.3 -418.3 281.6 -419 283 C-420.2 284.3 -420.2 284.3 -426 291 C-428.3 294.3 -430.6 297.6 -433 301 C-434.3 302.6 -435.6 304.3 -437 306 C-438.3 306 -439.6 306 -441 306 C-441.7 307.3 -442.3 308.6 -443 310 C-462.8 319.9 -483 318 -505 318 C-520.4 312.9 -535.3 307.9 -550 301 C-553.3 299.7 -556.6 298.4 -560 297 C-563.3 295 -566.6 293 -570 291 C-578.9 286.1 -587.9 281.5 -597 277 C-624.3 260.3 -645.2 242.9 -664 217 C-667.3 213 -670.6 209.1 -674 205 C-674 203.7 -674 202.4 -674 201 C-659.5 191.8 -645.6 183.3 -630 176 C-607 165 -607 165 -597 160 C-595.7 160 -594.4 160 -593 160 C-593 159.3 -593 158.7 -593 158 C-591.2 157.3 -591.2 157.3 -582 154 C-574.6 151.1 -567.3 148 -560 145 C-522.5 132.9 -522.5 132.9 -508 130 C-504.4 129 -500.7 128 -497 127 C-480.1 124.6 -463 123.1 -446 122 C-445.3 121.7 -444.7 121.3 -444 121 C-395.5 120.6 -395.5 120.6 -386 123 C-379.9 123.8 -379.9 123.8 -349 128 C-334.2 131 -323.2 133.4 -310 140 C-304.1 141.5 -299.5 141.7 -294 139 C-293.7 138 -293.3 137 -293 136 C-269.6 120.4 -245.3 106.2 -221 92 C-221.3 88 -221.7 84.1 -222 80 C-222.4 39.6 -222.4 39.6 -220 29 C-219.7 26 -219.3 23.1 -219 20 C-208 -6.3 -195.9 -19.7 -170 -31 C-112.7 -50.1 -51.7 -25.9 0 0 Z " fill="#DBD2BC" transform="translate(707,373)"/>
<path d="M0 0 C1.7 1.5 1.7 1.5 10 9 C12.6 11.3 15.3 13.6 18 16 C35.6 32.4 53.2 48.9 69 67 C70.3 68.3 71.6 69.6 73 71 C73 71.7 73 72.3 73 73 C74.7 73 76.3 73 78 73 C78 73.3 78 73.7 78 74 C66 74 66 74 59 73 C55.4 73 51.7 73 48 73 C47.7 73.3 47.3 73.7 47 74 C40 74.3 32.9 74.5 25.7 74.8 C-76.4 79.2 -76.4 79.2 -92 87 C-96.3 87.7 -100.6 88.3 -105 89 C-106.3 89.7 -107.6 90.3 -109 91 C-119 93 -119 93 -133 93 C-135.6 94 -138.3 95 -141 96 C-149 99 -149 99 -158 99 C-158.7 100.3 -159.3 101.6 -160 103 C-160.5 103.7 -160.5 103.7 -163 107 C-172.2 106.7 -181.5 106.3 -191 106 C-192.7 106 -194.3 106 -196 106 C-196 106.7 -196 107.3 -196 108 C-214.1 103.5 -229.1 98 -246 90 C-251.6 88 -257.2 86 -263 84 C-268.3 82 -273.6 80 -279 78 C-288.2 75.4 -297.5 72.7 -307 70 C-309.1 69.3 -309.1 69.3 -320 66 C-325.9 65 -331.9 64 -338 63 C-340.6 62.5 -340.6 62.5 -354 60 C-357.6 60 -361.3 60 -365 60 C-367.6 74 -370.1 87.9 -372 102 C-375.7 116.8 -379.3 130.8 -385 145 C-386 148 -387 150.9 -388 154 C-408 176.8 -432.8 188.3 -463 191 C-523.2 191.4 -523.2 191.4 -535 189 C-544.6 187.4 -554.1 185.7 -564 184 C-566 183.3 -568 182.7 -570 182 C-576.9 180.7 -583.9 179.4 -591 178 C-596.3 176.7 -601.6 175.4 -607 174 C-611 173.3 -614.9 172.7 -619 172 C-625.7 169.8 -632.4 167.5 -639 165 C-633.3 177 -627.7 189 -622 201 C-613.1 224.2 -605.7 247.1 -599 271 C-592.9 291.4 -586.5 311.1 -579 331 C-575.2 343.8 -574 355.7 -574 369 C-579 375 -579 375 -581 376 C-584.3 376 -587.6 376 -591 376 C-599.5 367.5 -599.1 359 -600 347 C-606 328 -606 328 -610 319 C-615.9 300.7 -621.6 282.4 -627 264 C-627.5 262.5 -627.5 262.5 -630 255 C-631.3 249.7 -632.6 244.4 -634 239 C-642 217 -642 217 -645 212 C-646 209.7 -647 207.4 -648 205 C-656 193 -656 193 -668 178 C-669 176.7 -670 175.4 -671 174 C-678 174 -678 174 -682 175 C-682.5 177.5 -682.5 177.5 -685 190 C-686.5 195.9 -686.5 195.9 -694 226 C-694.3 228.6 -694.7 231.3 -695 234 C-695.7 235.6 -696.3 237.3 -697 239 C-705.9 280.2 -709.8 319.5 -710.9 361.5 C-712 393 -712 393 -715 398 C-719 401 -719 401 -729 401 C-734 397 -734 397 -736 393 C-736 293 -736 293 -724 251 C-723.3 246 -722.7 241.1 -722 236 C-721.3 234.7 -720.7 233.4 -720 232 C-719.3 228 -718.7 224.1 -718 220 C-717.3 218.4 -716.7 216.7 -716 215 C-715.3 211.4 -714.7 207.7 -714 204 C-713.3 201.4 -712.7 198.7 -712 196 C-711.3 196 -710.7 196 -710 196 C-709.3 191.7 -708.7 187.4 -708 183 C-716.4 185.8 -724.8 188.7 -733 192 C-734 192 -735 192 -736 192 C-736 192.7 -736 193.3 -736 194 C-745.7 198 -755.3 202 -765 206 C-767.3 207 -769.6 208 -772 209 C-777.6 211 -783.2 213 -789 215 C-792.3 216.3 -795.6 217.6 -799 219 C-805.9 221.6 -812.9 224.3 -820 227 C-841 237 -841 237 -854 245 C-867.1 250.3 -878.2 249.8 -892 247 C-894.3 245.7 -896.6 244.4 -899 243 C-900.6 242.3 -902.3 241.7 -904 241 C-932.7 218.6 -944.2 198.2 -953 163 C-952.7 161.4 -952.3 159.7 -952 158 C-943 153 -943 153 -933 149 C-932.7 136.5 -932.3 123.9 -932 111 C-928.8 93.9 -925.6 85.9 -914 73 C-886.8 59.4 -859.2 57 -830 66 C-828 66.5 -828 66.5 -818 69 C-805 73 -805 73 -793 78 C-790.5 79 -790.5 79 -778 84 C-773.4 86 -768.8 88 -764 90 C-769.5 95.5 -810.9 102.5 -813 103 C-844 112 -844 112 -854 116 C-865.2 120 -876.6 123.6 -888 127 C-891.3 128.6 -894.6 130.3 -898 132 C-903.3 134 -908.6 136 -914 138 C-916.5 139.3 -916.5 139.3 -929 146 C-929.7 146 -930.3 146 -931 146 C-928.5 160.8 -924.9 175.1 -919 189 C-918.3 191.3 -917.7 193.6 -917 196 C-916.3 196 -915.7 196 -915 196 C-913 198.6 -911 201.3 -909 204 C-894 219 -894 219 -884 224 C-867 224 -867 224 -851 214 C-849.4 213.3 -849.4 213.3 -841 210 C-839.8 209.3 -839.8 209.3 -834 206 C-828.7 204.4 -823.4 202.7 -818 201 C-815.4 199.7 -812.7 198.4 -810 197 C-801 193 -801 193 -786 188 C-784.5 187.3 -784.5 187.3 -777 184 C-769 181 -769 181 -762 179 C-757 176.4 -752.1 173.7 -747 171 C-744 170 -741.1 169 -738 168 C-733.4 166 -728.8 164 -724 162 C-710 157 -710 157 -708 157 C-708 154 -708 151.1 -708 148 C-707.7 146.7 -707.3 145.4 -707 144 C-707 125.9 -721.2 115.6 -733 103 C-750.6 90.1 -750.6 90.1 -756 89 C-747.9 80.9 -736.8 80.2 -726 79 C-726 78.3 -726 77.7 -726 77 C-728.3 76.3 -730.6 75.7 -733 75 C-737.3 72.4 -741.6 69.7 -746 67 C-752.6 64.4 -759.2 61.7 -766 59 C-771.6 56.7 -777.2 54.4 -783 52 C-830.9 34.9 -872.2 25.5 -921 45 C-940 55.4 -949.1 70.2 -957 90 C-957.7 94.9 -958.3 99.9 -959 105 C-959.3 106 -959.7 107 -960 108 C-959.7 115.8 -959.3 123.6 -959 131.7 C-959.3 139.7 -959.7 147.7 -960 156 C-962.8 157.3 -962.8 157.3 -977 164 C-980.3 166 -983.6 168 -987 170 C-991.3 171.6 -995.6 173.3 -1000 175 C-1017.1 183.9 -1028.7 192.5 -1043 205 C-1048 204 -1048 204 -1065 196 C-1094.3 189.6 -1120.8 189.9 -1150.9 189.9 C-1160.3 189.9 -1169.7 189.9 -1179.4 189.9 C-1200.6 190 -1221.8 190.4 -1243 191 C-1239 183 -1239 183 -1234 175 C-1236 175 -1238 175 -1240 175 C-1240.3 175.3 -1240.7 175.7 -1241 176 C-1243.6 176.3 -1246.3 176.7 -1249 177 C-1250.3 177.7 -1251.6 178.3 -1253 179 C-1257 179.7 -1260.9 180.3 -1265 181 C-1269 182 -1272.9 183 -1277 184 C-1277 184.7 -1277 185.3 -1277 186 C-1280 186.7 -1282.9 187.3 -1286 188 C-1291.3 190 -1296.6 192 -1302 194 C-1307.6 196 -1313.2 198 -1319 200 C-1321.5 201.3 -1321.5 201.3 -1334 208 C-1345 212 -1345 212 -1349 211 C-1347.7 210.7 -1346.4 210.3 -1345 210 C-1345 209.3 -1345 208.7 -1345 208 C-1307.6 191.5 -1271.1 178.6 -1231 170 C-1227 164.1 -1223.1 158.1 -1219 152 C-1199.2 124.6 -1178.6 98.1 -1156 73 C-1154.8 71.7 -1154.8 71.7 -1149 65 C-1132.6 47.4 -1116.1 29.8 -1098 14 C-1093.7 10 -1089.4 6.1 -1085 2 C-1081.4 -1 -1077.7 -3.9 -1074 -7 C-1069.4 -11 -1064.8 -14.9 -1060 -19 C-743.2 -261.3 -306.1 -262.4 0 0 Z " fill="#4D3F3B" transform="translate(1446,303)"/>
<path d="M0 0 C2 1 2 1 2 1 Z " fill="#2A0000" transform="translate(1800,1282)"/>
</svg>
