<?xml version="1.0" encoding="UTF-8"?>
<!-- Generator: visioncortex VTracer 0.6.12 -->
<svg version="1.1" xmlns="http://www.w3.org/2000/svg" width="1862" height="1862">
<path d="M0 0 C0.91 0 0.91 0 5.5 0.01 C31.34 0.05 56.99 0.4 82.69 3.31 C84.29 3.48 85.89 3.66 87.53 3.83 C195.31 15.56 301.99 46.94 396.69 100.31 C400 102.11 403.31 103.9 406.62 105.69 C458.79 134.51 507.54 170.34 551.69 210.31 C552.9 211.36 554.12 212.42 555.38 213.5 C567.23 223.98 578.49 235.02 589.69 246.19 C590.32 246.82 590.32 246.82 593.52 250.01 C599.45 255.95 605.23 261.92 610.69 268.31 C615.51 273.14 617.8 273.24 624.44 274.44 C636.11 276.72 647.64 279.39 659.19 282.25 C660.87 282.66 662.54 283.06 664.27 283.48 C687.91 289.37 707.76 299.46 727.69 313.31 C729.13 314.31 730.56 315.3 732.05 316.33 C739.81 321.75 747.35 327.31 754.69 333.31 C755.68 333.97 756.67 334.63 757.69 335.31 C757.69 335.97 757.69 336.63 757.69 337.31 C759.01 337.97 760.33 338.63 761.69 339.31 C764.32 341.71 766.95 344.11 769.57 346.53 C774.7 351.11 780.16 355.22 785.69 359.31 C787.56 360.71 789.44 362.12 791.38 363.56 C799.89 369.42 809.14 374.01 818.29 378.79 C824.68 382.31 830.67 386.18 836.69 390.31 C838.42 391.47 840.15 392.62 841.94 393.81 C842.56 394.23 842.56 394.23 845.69 396.31 C845.69 396.97 845.69 397.63 845.69 398.31 C847.34 398.97 848.99 399.63 850.69 400.31 C851.35 400.64 852.01 400.97 852.69 401.31 C852.69 401.97 852.69 402.63 852.69 403.31 C854.34 403.97 855.99 404.63 857.69 405.31 C866.36 410.83 874.66 416.89 882.69 423.31 C899.74 435.1 915.12 439.81 935.69 440.31 C939.71 440.49 943.73 440.68 947.75 440.88 C951.06 441.02 954.37 441.17 957.69 441.31 C957.69 443.29 957.69 445.27 957.69 447.31 C957.03 447.31 956.37 447.31 955.69 447.31 C955.03 448.63 954.37 449.95 953.69 451.31 C943.2 461.66 931.17 469.85 919.06 478.19 C912.71 482.73 907.21 487.79 901.69 493.31 C888.56 504.26 872.69 511.56 856.69 517.31 C853.27 518.77 849.85 520.23 846.44 521.69 C825.44 530.27 798.68 539.31 775.69 539.31 C775.95 540.03 775.95 540.03 777.3 543.66 C810.37 633.81 826.2 728.68 826 824.62 C826 826.44 826 828.25 825.99 830.12 C825.95 855.96 825.6 881.61 822.69 907.31 C822.52 908.91 822.34 910.51 822.17 912.16 C813.24 994.21 813.24 994.21 805.69 1009.31 C806.35 1009.31 807.01 1009.31 807.69 1009.31 C807.69 1010.3 807.69 1011.29 807.69 1012.31 C808.83 1011.95 809.97 1011.59 811.14 1011.21 C819.74 1008.48 828.35 1005.81 837 1003.25 C842.77 1001.54 848.34 999.7 854 997.62 C861.18 995.14 868.22 993.73 875.69 992.31 C882.44 990.65 889.13 988.81 895.75 986.69 C905.53 983.96 915.55 982.67 925.69 983.31 C930.69 986.31 930.69 986.31 933.69 991.31 C933.69 991.97 933.69 992.63 933.69 993.31 C934.68 993.64 935.67 993.97 936.69 994.31 C940.58 1002.1 938.98 1011.15 936.69 1019.31 C930.91 1031.61 923.17 1046.07 910.69 1052.31 C908.55 1054.21 906.45 1056.15 904.38 1058.12 C901.03 1061.32 897.81 1064.23 894.02 1066.89 C890.69 1069.31 890.69 1069.31 886.69 1074.31 C884.04 1076.33 881.37 1078.33 878.69 1080.31 C877.04 1081.96 875.39 1083.61 873.69 1085.31 C871.35 1086.98 869.02 1088.65 866.69 1090.31 C865.04 1091.96 863.39 1093.61 861.69 1095.31 C860.04 1096.63 858.39 1097.95 856.69 1099.31 C855.37 1100.96 854.05 1102.61 852.69 1104.31 C852.03 1104.97 851.37 1105.63 850.69 1106.31 C850.69 1107.3 850.69 1108.29 850.69 1109.31 C849.38 1110.17 848.07 1111.02 846.72 1111.9 C842.04 1115.08 837.62 1118.42 833.19 1121.94 C824.55 1128.7 815.72 1135.08 806.69 1141.31 C805.93 1141.86 805.93 1141.86 802.11 1144.64 C765.79 1170.31 765.79 1170.31 750.69 1170.31 C750.03 1172.29 749.37 1174.27 748.69 1176.31 C741.76 1191.72 733.89 1206.56 725.69 1221.31 C724.79 1222.97 723.9 1224.62 722.98 1226.33 C693.72 1280.38 656.9 1330.79 615.69 1376.31 C614.64 1377.53 613.58 1378.75 612.5 1380 C609.09 1383.86 605.63 1387.66 602.12 1391.44 C600.92 1392.74 599.72 1394.03 598.49 1395.37 C595.96 1397.99 593.36 1400.53 590.67 1402.97 C580.95 1411.86 580.95 1411.86 579.69 1418.75 C580.02 1420.92 580.35 1423.08 580.69 1425.31 C581.04 1429.25 581.37 1433.19 581.69 1437.12 C581.87 1439.07 582.06 1441.02 582.25 1443.02 C582.69 1448.31 582.69 1448.31 582.69 1455.31 C579.05 1458.95 566.8 1457.33 561.75 1457.44 C554.71 1457.29 547.71 1456.8 540.69 1456.31 C532.99 1456.31 532.54 1456.6 527.31 1461.5 C520.87 1467.31 514.21 1472.62 507.28 1477.84 C504.1 1480.25 500.93 1482.68 497.78 1485.13 C484.82 1495.18 471.4 1504.33 457.69 1513.31 C455.27 1514.96 452.85 1516.6 450.44 1518.25 C430.2 1531.71 409.04 1543.74 387.69 1555.31 C385.91 1556.28 384.14 1557.24 382.31 1558.23 C286.47 1609.41 178.72 1639.07 70.69 1648.31 C68.65 1648.49 66.61 1648.67 64.5 1648.85 C43.47 1650.51 22.52 1650.67 1.44 1650.62 C-0.38 1650.62 -2.2 1650.62 -4.07 1650.62 C-29.92 1650.58 -55.59 1650.23 -81.31 1647.31 C-82.91 1647.14 -84.51 1646.97 -86.16 1646.79 C-193.94 1635.06 -300.62 1603.69 -395.31 1550.31 C-398.62 1548.52 -401.94 1546.73 -405.25 1544.94 C-457.42 1516.11 -506.17 1480.28 -550.31 1440.31 C-551.53 1439.26 -552.75 1438.21 -554 1437.12 C-565.85 1426.65 -577.12 1415.61 -588.31 1404.44 C-589.58 1403.18 -590.84 1401.92 -592.15 1400.62 C-598.08 1394.68 -603.86 1388.71 -609.31 1382.31 C-611.26 1380.2 -613.22 1378.1 -615.19 1376 C-620.48 1370.29 -625.42 1364.37 -630.31 1358.31 C-632.22 1356.1 -634.14 1353.89 -636.06 1351.69 C-642.83 1343.82 -649.08 1335.61 -655.31 1327.31 C-656.52 1325.72 -657.73 1324.13 -658.98 1322.49 C-685.37 1287.6 -708.48 1250.75 -729.31 1212.31 C-730.28 1210.54 -731.24 1208.77 -732.23 1206.94 C-771.13 1134.09 -815.31 1032.02 -815.31 947.31 C-816.96 946.98 -818.61 946.65 -820.31 946.31 C-823.94 944.84 -827.54 943.31 -831.12 941.75 C-833.03 940.92 -834.93 940.1 -836.89 939.25 C-837.62 938.93 -837.62 938.93 -841.31 937.31 C-841.31 936.65 -841.31 935.99 -841.31 935.31 C-842.96 934.65 -844.61 933.99 -846.31 933.31 C-849.65 931.98 -852.98 930.65 -856.31 929.31 C-856.31 928.65 -856.31 927.99 -856.31 927.31 C-857.63 926.98 -858.95 926.65 -860.31 926.31 C-861.96 924.66 -863.61 923.01 -865.31 921.31 C-863.87 914.1 -860.28 910.99 -854.38 906.88 C-847.83 903.03 -841.1 899.71 -834.31 896.31 C-830.61 894.03 -826.94 891.71 -823.31 889.31 C-823.38 888.11 -823.45 886.92 -823.52 885.68 C-824.53 865.94 -824.56 846.2 -824.56 826.44 C-824.56 824.61 -824.56 822.77 -824.56 820.89 C-824.55 794.91 -824.24 769.15 -821.31 743.31 C-821.14 741.71 -820.97 740.11 -820.79 738.47 C-814.99 685.11 -805.32 631.33 -788.31 580.31 C-789.49 579.74 -789.49 579.74 -795.44 576.81 C-809.63 569.69 -822.49 561.65 -835.31 552.31 C-836.34 551.57 -836.34 551.57 -841.56 547.81 C-859.3 533.93 -873.77 517.63 -885.31 498.31 C-888.07 494.45 -890.89 490.63 -893.73 486.83 C-896.01 483.72 -898.17 480.52 -900.31 477.31 C-901.3 476.65 -902.29 475.99 -903.31 475.31 C-903.64 473.99 -903.97 472.67 -904.31 471.31 C-896.42 458.17 -877.49 449.28 -864.06 442.69 C-857.31 439.31 -857.31 439.31 -853.12 436.5 C-847.07 432.49 -840.69 429.28 -834.24 425.94 C-829.86 423.6 -825.66 421.11 -821.44 418.5 C-786.1 397.52 -742.56 381.27 -702 374.81 C-690.56 372.5 -690.56 372.5 -685.37 367.58 C-682.31 362.96 -679.82 358.25 -677.31 353.31 C-675.29 350.33 -673.2 347.4 -671.06 344.5 C-669.98 343.02 -668.91 341.54 -667.8 340.02 C-650.95 317.26 -633.32 295.31 -614.31 274.31 C-613.26 273.1 -612.21 271.88 -611.12 270.62 C-600.65 258.77 -589.61 247.51 -578.44 236.31 C-577.18 235.05 -575.92 233.78 -574.62 232.48 C-568.68 226.55 -562.71 220.76 -556.31 215.31 C-554.2 213.36 -552.1 211.4 -550 209.44 C-544.29 204.15 -538.37 199.21 -532.31 194.31 C-530.1 192.4 -527.89 190.48 -525.69 188.56 C-517.82 181.8 -509.61 175.54 -501.31 169.31 C-500.52 168.71 -500.52 168.71 -496.49 165.65 C-461.6 139.26 -424.75 116.15 -386.31 95.31 C-384.54 94.35 -382.76 93.38 -380.94 92.39 C-290.68 44.2 -189.75 15.26 -88.25 4.06 C-86.89 3.91 -85.53 3.76 -84.12 3.6 C-56.07 0.68 -28.18 -0.06 0 0 Z " fill="#86756B" transform="translate(904.3125,101.6875)"/>
<path d="M0 0 C5.53 0.07 11.06 0.1 16.59 0.14 C42.92 0.39 69.28 1.61 95.3 5.94 C95.3 6.6 95.3 7.26 95.3 7.94 C95.96 8.27 95.96 8.27 99.3 9.94 C101.4 12.05 100.72 16.76 100.86 19.51 C100.9 20.29 100.9 20.29 101.11 24.26 C101.17 25.48 101.23 26.69 101.3 27.94 C101.63 27.94 101.96 27.94 102.3 27.94 C104.18 37.36 103.01 45.98 101.42 55.38 C101.07 57.48 100.73 59.59 100.37 61.75 C99.3 66.94 99.3 66.94 97.3 69.94 C96.64 69.94 95.98 69.94 95.3 69.94 C95.09 70.66 95.09 70.66 94.02 74.29 C89 90.76 82.67 105.91 74.3 120.94 C73.79 121.93 73.79 121.93 71.23 126.94 C66.08 135.72 59.45 142.79 52.3 149.94 C51.22 151.39 50.15 152.83 49.05 154.32 C44.65 159.74 39.79 163.65 34.3 167.94 C32.65 169.3 31 170.67 29.3 172.07 C24.14 176.06 18.85 179.52 13.3 182.94 C12.06 183.77 10.82 184.59 9.55 185.44 C-22.74 204.44 -69.3 212.71 -106.03 204.33 C-112.68 202.41 -119.18 200.27 -125.7 197.94 C-128.88 197.03 -132.07 196.13 -135.27 195.26 C-141.76 193.24 -147.59 190.89 -153.7 187.94 C-155.25 187.39 -156.8 186.83 -158.39 186.26 C-171.87 180.39 -183.17 172.17 -192.7 160.94 C-192.7 160.28 -192.7 159.62 -192.7 158.94 C-194.02 158.28 -195.34 157.62 -196.7 156.94 C-198.71 154.38 -200.61 151.75 -202.45 149.07 C-202.99 148.29 -202.99 148.29 -205.68 144.38 C-206.68 142.92 -207.67 141.45 -208.7 139.94 C-209.38 138.97 -209.38 138.97 -212.83 134.07 C-227.23 111.3 -242.24 79.56 -240.7 51.94 C-225.22 39.48 -203.66 33.66 -184.49 29.97 C-179.42 28.88 -174.58 27.44 -169.64 25.88 C-160.4 23.01 -151.26 21.35 -141.7 19.94 C-138.36 19.31 -135.03 18.64 -131.7 17.94 C-130.18 17.66 -128.66 17.37 -127.09 17.07 C-125.39 16.74 -123.7 16.41 -121.95 16.07 C-120.35 15.76 -118.75 15.45 -117.09 15.14 C-112.7 13.94 -112.7 13.94 -106.7 9.94 C-105.55 9.78 -105.55 9.78 -99.7 8.94 C-97.39 8.28 -95.08 7.62 -92.7 6.94 C-87 6.05 -81.3 5.22 -75.58 4.44 C-74.82 4.34 -74.82 4.34 -71 3.8 C-66.24 3.14 -61.47 2.54 -56.7 1.94 C-55.98 1.84 -55.98 1.84 -52.29 1.34 C-34.92 -0.73 -17.46 -0.23 0 0 Z " fill="#681D0B" transform="translate(1213.702880859375,948.056640625)"/>
<path d="M0 0 C1.28 -0 1.28 -0 7.77 -0 C8.42 -0 8.42 -0 11.75 0 C15.77 0.01 19.79 0 23.8 -0 C26.36 -0 28.92 -0 31.56 0 C32.72 0 32.72 0 38.59 0 C46.9 0.17 54.96 0.77 63.15 2.13 C67.58 2.33 72.02 2.5 76.46 2.63 C104.51 3.5 104.51 3.5 107.15 6.13 C111.58 6.46 116.02 6.75 120.46 7.01 C159.93 9.52 159.93 9.52 173.15 16.13 C181.95 33.73 178.88 54.97 173.15 73.13 C172.34 76.05 171.52 78.97 170.71 81.88 C168.81 88.37 166.44 94.2 163.15 100.13 C162.49 100.13 161.83 100.13 161.15 100.13 C160.49 101.78 159.83 103.43 159.15 105.13 C158.15 106.63 158.15 106.63 153.15 114.13 C152.49 115.78 151.83 117.43 151.15 119.13 C149.17 120.78 147.19 122.43 145.15 124.13 C140.34 128.28 135.63 132.52 130.96 136.82 C124.9 142.36 120.72 145.89 113.15 149.13 C111.52 150.21 109.89 151.28 108.21 152.38 C101.11 156.77 93.84 159.94 86.15 163.13 C84.09 164.02 82.02 164.91 79.9 165.82 C57.54 174.81 36.12 176.85 12.15 177.13 C9.83 177.16 7.51 177.19 5.12 177.22 C-25.24 177.4 -56.42 170.33 -80.85 151.13 C-80.85 150.47 -80.85 149.81 -80.85 149.13 C-82.17 148.47 -83.49 147.81 -84.85 147.13 C-86.5 145.48 -88.15 143.83 -89.85 142.13 C-91.4 140.79 -92.95 139.45 -94.54 138.07 C-98.85 134.13 -98.85 134.13 -100.85 130.13 C-102.17 128.81 -103.49 127.49 -104.85 126.13 C-120.74 93.96 -124.36 54.39 -118.85 19.13 C-115.85 13.13 -115.85 13.13 -111.54 10.89 C-104.97 8.86 -98.61 7.85 -91.79 6.95 C-78.93 5.22 -78.93 5.22 -77.85 4.13 C-63.58 2.19 -49.21 1.77 -34.82 1.38 C-30.31 1.22 -25.79 0.97 -21.28 0.63 C-14.16 0.15 -7.13 0 0 0 Z " fill="#450B08" transform="translate(621.8515625,1015.8671875)"/>
<path d="M0 0 C10.67 5.54 17.78 12.54 25 22 C28.33 25.67 31.66 29.34 35 33 C36.48 34.84 37.97 36.67 39.5 38.56 C44.05 44.06 48.92 48.99 54 54 C55.09 55.26 56.18 56.52 57.3 57.81 C67.88 69.8 79.89 79.92 93 89 C95.85 91.02 98.71 93.04 101.56 95.06 C102.98 96.06 104.4 97.06 105.86 98.09 C109.67 100.77 113.46 103.47 117.25 106.19 C118.4 107 119.54 107.81 120.72 108.64 C123.77 110.83 126.73 113.13 129.69 115.44 C145.98 126.7 166.44 132.8 185.94 135.12 C187.12 135.27 188.31 135.42 189.53 135.57 C201.86 136.76 214.05 137.13 226.44 137.06 C227.94 137.06 229.45 137.05 231 137.05 C234.67 137.04 238.33 137.02 242 137 C240.12 147.06 237.37 156.83 234.66 166.69 C231.18 182.05 230.65 197.42 230.38 213.12 C230.34 214.95 230.3 216.78 230.26 218.66 C230.16 223.11 230.08 227.55 230 232 C226.37 232 222.74 232 219 232 C218.67 231.34 218.34 230.68 218 230 C216.35 230.99 214.7 231.98 213 233 C203.19 235.2 193.62 235.31 183.62 235.25 C182.04 235.24 180.45 235.24 178.82 235.23 C164.04 235.12 149.36 234.75 135 231 C133.49 230.79 131.99 230.59 130.44 230.38 C119.27 227.55 109.76 221.35 101 214 C99.18 212.54 97.37 211.07 95.5 209.56 C87.71 203.1 80.55 196.72 74 189 C69.2 183.64 64.37 178.3 59.5 173 C51.73 164.52 44.12 156.04 37 147 C35 144.5 33 142 31 139.5 C29.98 138.22 28.96 136.95 27.91 135.63 C25.43 132.54 22.94 129.46 20.44 126.38 C17 122 17 122 14 117 C12.62 115.29 11.24 113.58 9.81 111.81 C6 107 6 107 6 105 C5.34 104.67 5.34 104.67 2 103 C-0.03 100.66 -1.97 98.25 -3.88 95.81 C-9.58 88.64 -15.6 81.92 -21.91 75.28 C-24.28 72.77 -26.56 70.18 -28.81 67.56 C-39.33 55.81 -52.99 46 -68 41 C-67 39 -67 39 -63.95 37.27 C-58.09 33.9 -53.01 29.6 -47.74 25.39 C-44 23 -44 23 -39 24 C-17.07 33.99 -1.36 50.71 13.2 69.42 C23.43 82.48 34.13 93.76 48 103 C48.99 103.99 49.98 104.98 51 106 C49.01 102.33 47.01 98.66 45 95 C44.35 93.78 43.69 92.56 43.02 91.3 C33.36 73.61 21.34 57.41 7.8 42.48 C5 39 5 39 2 32 C-4.48 24.25 -9.98 18.75 -19 14 C-20.65 13.01 -22.3 12.02 -24 11 C-16.27 4.82 -10.09 0 0 0 Z " fill="#F0EDE9" transform="translate(1242,1310)"/>
<path d="M0 0 C2.34 0.92 4.68 1.85 7.09 2.8 C19.81 7.88 31.81 12.97 43 21 C43.66 21.33 44.32 21.66 45 22 C45 22.66 45 23.32 45 24 C43.47 24.4 41.94 24.8 40.36 25.21 C38.37 25.74 36.37 26.27 34.31 26.81 C32.33 27.33 30.34 27.86 28.3 28.39 C23 30 23 30 18 33 C20.31 33.99 22.62 34.98 25 36 C41.39 47.61 57.08 62.36 67 80 C67.68 87.19 66.3 93.92 65 101 C57.7 104.52 50.44 107.63 42.81 110.38 C30.98 114.65 19.62 119.82 8.25 125.19 C1.6 128.18 -5.11 130.61 -12 133 C-15.25 134.18 -18.5 135.37 -21.75 136.56 C-22.51 136.84 -22.51 136.84 -26.36 138.25 C-31.27 140.1 -36.13 142.04 -41 144 C-42.95 144.76 -44.91 145.52 -46.92 146.3 C-59.99 151.41 -72.68 156.5 -84.44 164.27 C-91.36 168.85 -95.69 171.08 -104 170 C-105.63 169.84 -107.26 169.67 -108.94 169.5 C-119.44 166.39 -126.55 158.68 -134 151 C-135.65 149.68 -137.3 148.36 -139 147 C-149.75 131.22 -157.54 110.12 -157 91 C-148.27 85.39 -139.74 81.54 -130 78 C-128.78 77.38 -127.57 76.76 -126.31 76.12 C-115.32 70.71 -103.82 67.31 -92.03 64.14 C-87.19 62.77 -82.65 60.93 -78 59 C-49.88 48.42 -20.34 42.22 9 36 C7.91 35.55 6.82 35.11 5.7 34.64 C4.23 34.04 2.76 33.44 1.25 32.81 C-0.31 32.17 -1.87 31.53 -3.47 30.87 C-7.05 29.39 -10.62 27.89 -14.19 26.38 C-20.72 23.7 -27.34 21.34 -34 19 C-35.25 18.52 -36.51 18.04 -37.8 17.54 C-42.47 15.83 -47.17 14.36 -51.94 12.94 C-53.62 12.43 -55.3 11.92 -57.03 11.4 C-71.78 7.24 -85.75 6.8 -101 7 C-103.25 6.98 -105.5 6.96 -107.81 6.94 C-122.59 9.12 -136.38 14.31 -147 25 C-157.41 41.19 -158.3 56.52 -158.62 75.25 C-158.66 77.06 -158.7 78.86 -158.74 80.72 C-158.84 85.15 -158.92 89.57 -159 94 C-162.93 95.87 -166.87 97.72 -170.81 99.56 C-173.01 100.6 -175.2 101.63 -177.46 102.69 C-183 105 -183 105 -186 104 C-193.55 73.6 -188.99 37.75 -173 11 C-158.8 -7.93 -137.95 -17.41 -115 -22 C-74.01 -25.92 -37.76 -15.18 0 0 Z " fill="#F9F4E6" transform="translate(673,358)"/>
<path d="M0 0 C1 1 1 1 1 9 C0.46 12.47 -0.15 15.93 -0.81 19.38 C-2.14 26.36 -3.4 33.35 -4.5 40.38 C-7.34 57.33 -12.29 72.58 -20 88 C-20.62 88.37 -20.62 88.37 -23.75 90.25 C-28 93 -28 93 -30.62 96.88 C-38.43 106.41 -51.33 109.6 -63 112 C-68.53 112.34 -73.84 112.52 -79.36 112.46 C-80.86 112.46 -82.36 112.46 -83.91 112.46 C-87.07 112.45 -90.22 112.44 -93.38 112.41 C-98.18 112.38 -102.99 112.37 -107.79 112.37 C-110.88 112.36 -113.96 112.35 -117.04 112.34 C-118.47 112.33 -119.89 112.33 -121.35 112.33 C-129.44 112.25 -137.06 111.54 -145 110 C-147.09 109.64 -149.19 109.29 -151.35 108.92 C-167.68 106.07 -183.85 102.73 -200 99 C-201.11 98.75 -201.11 98.75 -206.72 97.46 C-222.46 93.8 -237.73 89.27 -253 84 C-253.25 81.65 -253.5 79.3 -253.75 76.88 C-255 69 -255 69 -259 63 C-257.67 57.68 -254.41 54.91 -250.74 50.99 C-248.27 48.29 -245.94 45.46 -243.62 42.62 C-240.24 38.51 -236.84 34.67 -233.19 30.81 C-227.47 24.71 -222.5 18.2 -217.59 11.43 C-211.95 3.97 -207.56 2.87 -198.37 1.59 C-187.37 0.57 -176.35 0.46 -165.31 0.25 C-156.72 0.07 -148.17 -0.32 -139.59 -0.78 C-93.41 -3.2 -46.11 -3.89 0 0 Z " fill="#F8F0DD" transform="translate(1055,357)"/>
<path d="M0 0 C2.81 5.63 2.49 9.76 2 16 C-1.13 21.67 -4.84 26.01 -9 31 C-10.32 31.33 -11.64 31.66 -13 32 C-13.66 33.32 -14.32 34.64 -15 36 C-19.29 39.75 -23.6 43.4 -28 47 C-29.96 48.61 -31.92 50.22 -33.94 51.88 C-34.77 52.56 -34.77 52.56 -39 56 C-40.98 57.65 -42.96 59.3 -45 61 C-45.99 61.33 -46.98 61.66 -48 62 C-49.05 63.21 -50.1 64.42 -51.19 65.67 C-54.88 69.86 -58.52 72.94 -63 76.25 C-68.57 80.42 -74.09 84.63 -79.5 89 C-121.5 122.77 -121.5 122.77 -138.11 131.05 C-143.53 133.77 -148.13 137.4 -153 141 C-171.43 154 -171.43 154 -179 154 C-179 154.66 -179 155.32 -179 156 C-179.57 156.25 -179.57 156.25 -182.44 157.5 C-202.03 166.3 -221.04 175.93 -239.82 186.34 C-245 189 -245 189 -250 190 C-252.78 182.18 -254.74 174.25 -256.69 166.19 C-257 164.91 -257 164.91 -258.57 158.42 C-260 152 -260 152 -260 148 C-260.66 148 -261.32 148 -262 148 C-262.32 146.93 -262.64 145.86 -262.96 144.76 C-264.4 139.92 -265.86 135.08 -267.31 130.25 C-267.81 128.57 -268.31 126.88 -268.83 125.15 C-269.07 124.34 -269.07 124.34 -270.3 120.27 C-270.75 118.78 -271.19 117.29 -271.65 115.76 C-273 112 -273 112 -276 108 C-280.16 99.8 -280.16 99.8 -279 94 C-274.43 87.14 -272.76 86.73 -265.19 84.38 C-258.96 82.41 -253.6 80.34 -248 77 C-235.73 72 -235.73 72 -232 72 C-232 71.34 -232 70.68 -232 70 C-217.29 63.43 -217.29 63.43 -209 62 C-209 61.34 -209 60.68 -209 60 C-205.61 58.66 -202.21 57.33 -198.81 56 C-197.87 55.63 -197.87 55.63 -193.08 53.75 C-188 52 -188 52 -183 52 C-183 51.34 -183 50.68 -183 50 C-179.19 48.68 -175.38 47.37 -171.56 46.06 C-169.44 45.33 -167.32 44.6 -165.13 43.85 C-159.94 42.28 -155.38 41.36 -150 41 C-150 40.34 -150 39.68 -150 39 C-148.29 38.53 -146.58 38.06 -144.81 37.57 C-142.56 36.95 -140.32 36.33 -138 35.69 C-135.77 35.07 -133.55 34.46 -131.25 33.82 C-126.37 32.4 -121.75 30.78 -117 29 C-113.05 27.87 -109.09 26.76 -105.12 25.69 C-97.78 23.66 -90.51 21.57 -83.31 19.06 C-73.72 15.76 -63.92 13.24 -54.1 10.72 C-44.4 8.2 -44.4 8.2 -40 6 C-35.97 5.27 -31.93 4.54 -27.89 3.87 C-21.2 2.68 -14.58 1.18 -7.95 -0.33 C-4 -1 -4 -1 0 0 Z " fill="#F6E7D3" transform="translate(1826,1106)"/>
<path d="M0 0 C-4.21 3.73 -8.44 7.35 -12.88 10.81 C-18.11 15.01 -22.53 19.74 -27.12 24.62 C-35.85 33.49 -45.24 39.41 -56.01 45.54 C-62.65 49.37 -68.79 53.63 -74.99 58.12 C-82.18 63.29 -89.6 68.12 -97 73 C-98.78 74.2 -100.57 75.4 -102.41 76.63 C-115.88 85.6 -129.69 93.46 -144 101 C-147.84 103.08 -151.67 105.16 -155.5 107.25 C-157.3 108.23 -159.09 109.21 -160.95 110.22 C-165.44 112.69 -169.91 115.21 -174.38 117.75 C-203.95 134.41 -233.96 145.15 -267.43 150.75 C-274 152 -274 152 -278.93 153.63 C-296.49 158.37 -318.13 155.22 -336 153 C-337.54 152.85 -339.08 152.7 -340.66 152.55 C-353.86 151.09 -366.7 148.18 -379.62 145.19 C-380.52 144.98 -380.52 144.98 -385.07 143.93 C-401.74 139.99 -418.11 135.43 -434 129 C-433.34 123.06 -432.68 117.12 -432 111 C-429.36 109.68 -426.72 108.36 -424 107 C-418 102 -418 102 -416 99 C-413.57 100.21 -411.17 101.47 -408.81 102.81 C-402.87 105.51 -396.82 107.2 -390.54 108.95 C-387 110 -387 110 -386 111 C-340.75 118.94 -295.92 123.67 -251 112 C-249.68 112 -248.36 112 -247 112 C-247 111.34 -247 110.68 -247 110 C-244.52 109.17 -242.05 108.35 -239.5 107.5 C-215.09 98.86 -187.49 84.17 -172 62.88 C-168.26 58.05 -163.81 54.72 -159 51 C-158.67 50.34 -158.34 49.68 -158 49 C-159.22 49.6 -160.43 50.2 -161.69 50.81 C-167 53 -167 53 -173.44 54.44 C-179.78 55.95 -184.3 57.91 -190 61 C-221.45 77 -221.45 77 -225 77 C-225 77.66 -225 78.32 -225 79 C-228.31 80.58 -231.62 82.17 -234.94 83.75 C-235.86 84.19 -235.86 84.19 -240.53 86.42 C-262.98 97 -262.98 97 -271 97 C-271 97.66 -271 98.32 -271 99 C-274.14 99.96 -277.29 100.92 -280.44 101.88 C-282.19 102.41 -283.94 102.94 -285.75 103.49 C-313.55 111.47 -344.5 106.24 -372.81 102.62 C-374.38 102.43 -375.94 102.23 -377.56 102.03 C-401.3 98.85 -401.3 98.85 -411 94 C-411 93.01 -411 92.02 -411 91 C-404.76 87.88 -400.32 87.63 -393.46 87.32 C-385.92 86.78 -378.59 85.22 -371.19 83.75 C-356.61 80.94 -342.03 78.58 -327.31 76.69 C-320.19 75.74 -313.76 74.37 -307 72 C-302.68 71.11 -298.34 70.28 -294 69.5 C-292.8 69.28 -292.8 69.28 -286.71 68.18 C-281.7 67.3 -276.7 66.43 -271.69 65.56 C-263.73 64.17 -255.8 62.63 -247.88 61.06 C-245.42 60.58 -242.96 60.1 -240.43 59.6 C-232.87 57.97 -225.46 56.01 -218 54 C-212.66 52.74 -207.3 51.55 -201.94 50.38 C-187.81 47.27 -187.81 47.27 -181 45 C-175.44 43.79 -169.89 42.63 -164.31 41.5 C-162.81 41.19 -161.31 40.88 -159.76 40.57 C-153.45 39.28 -147.15 38.03 -140.79 36.97 C-136 36 -136 36 -130 33 C-126.17 31.87 -122.31 30.81 -118.44 29.81 C-116.41 29.28 -114.39 28.75 -112.31 28.21 C-107 27 -107 27 -102 27 C-102 26.34 -102 25.68 -102 25 C-98.04 24.34 -94.08 23.68 -90 23 C-99.29 32.29 -109.54 39.95 -120.2 47.57 C-132.65 56.47 -144.92 65.6 -157 75 C-158.13 75.87 -159.25 76.74 -160.41 77.64 C-168.83 84.18 -176.95 91.02 -185 98 C-187.62 100.25 -190.25 102.5 -192.88 104.75 C-194.05 105.76 -195.22 106.76 -196.43 107.8 C-197.28 108.52 -198.13 109.25 -199 110 C-191.58 106.42 -184.5 102.57 -177.52 98.18 C-173.71 95.82 -169.83 93.6 -165.94 91.38 C-150.57 82.37 -136.28 71.62 -122 61 C-121 60.26 -121 60.26 -115.94 56.5 C-81.02 30.03 -81.02 30.03 -76 20 C-71.88 18.88 -67.72 17.86 -63.56 16.88 C-47.57 12.98 -31.91 8.24 -16.26 3.12 C-14.54 2.57 -12.83 2.01 -11.06 1.44 C-10.32 1.19 -10.32 1.19 -6.54 -0.07 C-3 -1 -3 -1 0 0 Z " fill="#EBE7E2" transform="translate(1264,1264)"/>
<path d="M0 0 C9.08 5.33 13.78 10.3 17.81 20.06 C20.01 25.29 22.08 30.07 25 34.94 C27.48 41.28 28 44.89 28 51.94 C25 57.94 25 57.94 20 59.94 C16.01 60.33 12.01 60.67 8 60.94 C8 62.59 8 64.24 8 65.94 C10.9 68.83 14.08 69.05 18 69.94 C17.53 75.72 17.04 81.51 16.47 87.28 C14.91 103.73 14.73 120.05 14.81 136.56 C14.81 139.24 14.81 141.93 14.81 144.61 C14.86 164.09 14.86 164.09 16 170.94 C16.07 174.23 16.09 177.52 16.06 180.81 C16.05 182.52 16.04 184.23 16.04 185.99 C16.02 187.29 16.01 188.6 16 189.94 C-70.31 180.63 -70.31 180.63 -86 164.94 C-85.44 158.31 -84.48 152.01 -82.97 145.54 C-82.57 143.82 -82.17 142.11 -81.76 140.34 C-81.35 138.58 -80.93 136.82 -80.5 135 C-80.08 133.21 -79.67 131.42 -79.24 129.58 C-76.17 116.46 -76.17 116.46 -75 112.94 C-74.34 112.94 -73.68 112.94 -73 112.94 C-72.91 111.74 -72.81 110.53 -72.71 109.3 C-71.84 102.76 -70.24 96.57 -68.56 90.19 C-67.95 87.82 -67.33 85.45 -66.69 83.02 C-65 76.94 -65 76.94 -63 71.94 C-62.34 71.94 -61.68 71.94 -61 71.94 C-60.73 70.56 -60.46 69.17 -60.19 67.75 C-59 62.94 -59 62.94 -56 57.94 C-55.01 55.63 -54.02 53.32 -53 50.94 C-50.67 46.27 -48.33 41.6 -46 36.94 C-45.01 34.63 -44.02 32.32 -43 29.94 C-41.68 27.96 -40.36 25.98 -39 23.94 C-38.01 21.63 -37.02 19.32 -36 16.94 C-35.01 15.95 -34.02 14.96 -33 13.94 C-32.34 12.29 -31.68 10.64 -31 8.94 C-23.09 -0.55 -11.91 -4.91 0 0 Z " fill="#F6E7D3" transform="translate(802,1307.0625)"/>
<path d="M0 0 C6.82 0.3 13.62 0.14 20.44 -0.05 C24.83 0.21 24.83 0.21 31.83 3.21 C36.83 18.21 28.4 35.4 21.83 48.71 C20.5 51.22 19.17 53.72 17.83 56.21 C16.69 58.48 15.56 60.75 14.39 63.09 C10.75 69.35 6.81 73.97 1.83 79.21 C-0.04 81.43 -1.89 83.66 -3.73 85.9 C-7.87 90.83 -12.16 95.15 -17.17 99.21 C-17.5 98.55 -17.83 97.89 -18.17 97.21 C-17.63 96.18 -17.09 95.16 -16.53 94.1 C-15.81 92.71 -15.1 91.33 -14.36 89.9 C-13.65 88.54 -12.94 87.18 -12.21 85.79 C-5.29 70.28 -5.45 53.2 -8.61 36.71 C-13.41 26.4 -20.22 20.43 -30.17 15.21 C-31.76 14.26 -33.35 13.31 -34.98 12.34 C-51.61 6.63 -67.99 10.61 -83.73 17.09 C-93.01 22.82 -97.85 29.14 -102.17 39.21 C-103.1 48.83 -102.98 55.35 -97.17 63.21 C-88.98 72.33 -81.73 76.8 -69.23 77.59 C-60.85 77.07 -57.11 75.21 -51.3 69.21 C-48.17 65.21 -48.17 65.21 -46.17 61.21 C-45.51 61.21 -44.85 61.21 -44.17 61.21 C-44.8 52.59 -44.8 52.59 -48.17 49.21 C-50.81 49.21 -53.45 49.21 -56.17 49.21 C-56.83 50.86 -57.49 52.51 -58.17 54.21 C-61.17 59.21 -61.17 59.21 -65.17 62.21 C-74.28 62.66 -74.28 62.66 -77.17 61.21 C-77.17 60.55 -77.17 59.89 -77.17 59.21 C-77.83 59.21 -78.49 59.21 -79.17 59.21 C-79.17 58.55 -79.17 57.89 -79.17 57.21 C-80.49 56.55 -81.81 55.89 -83.17 55.21 C-84.16 54.22 -85.15 53.23 -86.17 52.21 C-86.17 51.55 -86.17 50.89 -86.17 50.21 C-86.83 50.21 -87.49 50.21 -88.17 50.21 C-88.17 42.02 -87.92 40.35 -83.17 34.21 C-72.6 24.89 -62.17 23.45 -48.5 23.69 C-39.23 24.6 -33.28 28.53 -26.17 34.21 C-18.8 45.27 -19.19 56.35 -20.17 69.21 C-23.47 84.27 -30.11 98.31 -42.17 108.21 C-55.77 116.91 -68.19 119.03 -84.17 117.21 C-96.97 114.04 -108.99 107.22 -116.61 96.27 C-123.21 85.05 -127.98 75.12 -130.17 62.21 C-130.29 61.57 -130.29 61.57 -130.86 58.34 C-132.3 39.35 -130.99 18.91 -121.17 2.21 C-120.07 2.18 -120.07 2.18 -114.48 2.04 C-106.25 1.84 -98.02 1.62 -89.79 1.41 C-86.23 1.32 -82.68 1.23 -79.12 1.14 C-74 1.01 -68.87 0.88 -63.75 0.75 C-62.96 0.73 -62.96 0.73 -58.97 0.63 C-10.63 -0.66 -10.63 -0.66 0 0 Z " fill="#B24510" transform="translate(749.171875,1042.7890625)"/>
<path d="M0 0 C4.04 3.11 6.93 5.91 10 10 C10.4 15.36 10.13 20.62 10 26 C8.68 26.33 7.36 26.66 6 27 C6 27.66 6 28.32 6 29 C-1.31 27.96 -4.15 26.21 -10 22 C-14.94 18.71 -19.19 19.56 -25 20 C-37.21 24.96 -47.89 32.55 -56 43 C-56.33 43.99 -56.66 44.98 -57 46 C-54.92 46.33 -52.83 46.66 -50.69 47 C-37.98 50.31 -28.13 58.84 -20 69 C-12.99 83.6 -15.02 100.02 -20 115 C-28.21 131.42 -41.15 143.16 -57 152 C-67.89 155.35 -75.71 153.62 -86 149 C-97.47 140.82 -104.2 133.02 -107 119 C-107.66 105.85 -107.1 94.52 -103 82 C-102.24 79.53 -101.47 77.05 -100.69 74.5 C-97.89 66.7 -94.62 59.45 -91 52 C-90.34 52 -89.68 52 -89 52 C-88.67 50.35 -88.34 48.7 -88 47 C-85.93 44.22 -83.75 41.52 -81.5 38.88 C-80.23 37.37 -78.96 35.86 -77.65 34.31 C-77.05 33.6 -77.05 33.6 -74 30 C-72.37 27.98 -70.74 25.96 -69.06 23.88 C-61.65 14.98 -54.98 9.01 -44 5 C-42.35 4.01 -40.7 3.02 -39 2 C-26.76 -2.9 -12.29 -6.47 0 0 Z " fill="#420403" transform="translate(1511,960)"/>
<path d="M0 0 C1.8 0 3.6 0 5.45 0 C28.46 0.08 28.46 0.08 33.12 3.19 C33.89 3.32 33.89 3.32 37.75 4.01 C55.2 7.84 77.41 23.25 87.12 38.19 C95.49 53.95 101.69 73.25 99.12 91.19 C91.54 90.86 83.94 90.53 76.12 90.19 C76.04 87.26 75.96 84.33 75.88 81.31 C75.38 71.85 73.89 64.87 68.12 57.19 C68.12 56.53 68.12 55.87 68.12 55.19 C66.81 54.53 65.49 53.87 64.12 53.19 C61.66 51.41 59.2 49.62 56.75 47.81 C53.54 45.6 50.33 43.4 47.12 41.19 C45.64 40.05 44.15 38.9 42.62 37.73 C20.92 23.08 -9.08 27.55 -33.88 31.19 C-55.36 35.88 -77.21 41.72 -94.88 55.19 C-97.38 57.06 -99.88 58.94 -102.38 60.81 C-103.76 61.85 -105.15 62.89 -106.57 63.96 C-109.41 66.09 -112.24 68.2 -115.08 70.32 C-134.38 84.7 -134.38 84.7 -138.88 89.19 C-142.89 89.43 -146.91 89.6 -150.94 89.75 C-153.16 89.83 -155.37 89.92 -157.66 90 C-159.38 90.06 -161.1 90.13 -162.88 90.19 C-163.88 85.19 -163.88 85.19 -161 80.25 C-159.64 78.25 -158.28 76.25 -156.88 74.19 C-155.33 71.73 -153.79 69.27 -152.25 66.81 C-144.85 55.6 -134.84 48 -124.07 40.22 C-121.18 38.13 -118.31 36.01 -115.46 33.87 C-100.81 22.96 -86.6 16.22 -69.38 10.38 C-68 9.91 -66.62 9.44 -65.2 8.95 C-43.87 1.95 -22.37 -0.15 0 0 Z " fill="#FDFDFD" transform="translate(982.875,268.8125)"/>
<path d="M0 0 C-1.88 11.5 -1.88 11.5 -3 16 C-6.22 62.59 -6.22 62.59 2 80 C2.29 80.64 2.29 80.64 3.75 83.88 C14.65 103.86 31.24 117.1 52 126 C51.67 127.32 51.34 128.64 51 130 C45.29 130.03 39.58 130.05 33.88 130.06 C32.26 130.07 30.64 130.08 28.97 130.09 C28.19 130.09 28.19 130.09 24.24 130.1 C22.81 130.1 21.37 130.11 19.89 130.11 C16 130 16 130 10 129 C10 128.34 10 127.68 10 127 C8.04 126.94 6.08 126.88 4.06 126.81 C-15.9 125.36 -31.64 116.75 -45.44 102.38 C-49 98 -49 98 -52 92 C-53.32 90.68 -54.64 89.36 -56 88 C-61 78.8 -61 78.8 -61 75 C-61.66 75 -62.32 75 -63 75 C-72.56 53.15 -76.75 31.94 -75 8 C-74.01 6.35 -73.02 4.7 -72 3 C-64.14 1.88 -56.3 1.38 -48.38 0.94 C-47.58 0.89 -47.58 0.89 -43.57 0.67 C-29.04 -0.1 -14.56 -0.2 0 0 Z " fill="#FCFBFB" transform="translate(596,1047)"/>
<path d="M0 0 C0.02 0.56 0.02 0.56 0.14 3.38 C2.44 59.07 2.44 59.07 9 75 C9.75 80.62 9.75 80.62 10 85 C10.66 85 11.32 85 12 85 C12.8 87.33 13.61 89.66 14.44 92.06 C17.3 99.29 20.42 102.68 27 107 C28.32 108.65 29.64 110.3 31 112 C43.45 122.31 55.01 127.99 71 131 C70.67 131.99 70.34 132.98 70 134 C50.73 140.42 22.96 134.25 4.8 127.4 C1.26 126.1 -2.37 125.04 -6 124 C-20.79 117.66 -30.73 110.11 -40.06 97.06 C-40.9 95.9 -41.74 94.73 -42.6 93.54 C-49 84.11 -49 84.11 -49 81 C-49.66 81 -50.32 81 -51 81 C-51.76 78.94 -52.53 76.88 -53.31 74.75 C-56 68 -56 68 -59 64 C-62.06 56.53 -64.12 48.92 -65.62 41 C-65.76 40.33 -65.76 40.33 -66.41 36.94 C-67.53 29.46 -68.34 19.51 -64 13 C-60.01 12.27 -56.01 11.62 -52 11 C-46.56 9.81 -41.14 8.56 -35.71 7.3 C-28.82 5.73 -21.9 4.3 -14.97 2.89 C-2.13 0 -2.13 0 0 0 Z " fill="#FCFBFB" transform="translate(1071,992)"/>
<path d="M0 0 C25.6 -0.37 49.69 6.19 73.17 16.11 C75.46 16.92 77.75 17.72 80.11 18.55 C87.01 21.05 93.53 24 100.17 27.11 C102.15 27.77 104.13 28.43 106.17 29.11 C105.84 29.77 105.51 30.43 105.17 31.11 C103.85 31.39 102.52 31.67 101.16 31.96 C37.3 45.63 37.3 45.63 8.17 58.11 C4.81 59.11 1.43 60.07 -1.95 60.99 C-11.56 63.69 -20.88 66.64 -29.83 71.11 C-33.83 73.11 -33.83 73.11 -40.02 75.43 C-45 77.39 -49.36 79.37 -54.02 81.93 C-59.83 85.11 -59.83 85.11 -61.83 85.11 C-61.83 86.43 -61.83 87.75 -61.83 89.11 C-62.49 88.78 -63.15 88.45 -63.83 88.11 C-63.75 81.93 -63.63 75.74 -63.52 69.55 C-63.49 67.82 -63.47 66.08 -63.45 64.29 C-63.03 43.94 -60.19 26.87 -44.83 12.11 C-40.27 9.36 -40.27 9.36 -34.83 7.11 C-33.61 6.59 -32.39 6.06 -31.13 5.52 C-20.59 1.21 -11.39 0.27 0 0 Z " fill="#392D2A" transform="translate(576.828125,363.88671875)"/>
<path d="M0 0 C13.12 8.42 17.38 23.51 23.35 37.24 C24.68 40.26 26.05 43.26 27.44 46.25 C33.35 59.52 38.45 73.11 43.42 86.76 C44.69 90.17 46.08 93.53 47.5 96.88 C50.51 104.26 52.98 111.76 55.45 119.34 C56.53 122.6 57.73 125.81 59 129 C61.9 146.25 62.44 163.54 62 181 C61.96 182.74 61.91 184.49 61.87 186.28 C60.4 194.24 55.09 197 49 202 C44.47 200.49 43.49 198.08 41 194 C39.26 189.36 37.59 184.69 36 180 C35.01 177.69 34.02 175.38 33 173 C31.91 168.74 30.99 164.46 30.06 160.16 C29 156 29 156 26 149 C24.11 140.71 26.06 134.74 28.59 126.89 C30.73 119.47 31.93 111.92 33.2 104.31 C34 100 34 100 35 99 C35.1 95.83 35.13 92.67 35.12 89.5 C35.13 87.76 35.13 86.01 35.13 84.22 C35 80 35 80 34 79 C25.86 77.8 17.65 77.68 9.44 77.44 C8.05 77.39 6.66 77.35 5.22 77.31 C1.82 77.2 -1.59 77.1 -5 77 C-5.33 74.03 -5.66 71.06 -6 68 C-6.66 68 -7.32 68 -8 68 C-10.14 58.13 -12.09 48.38 -13 38.31 C-13.84 29.26 -15.76 20.81 -18 12 C-18.33 10.35 -18.66 8.7 -19 7 C-7.54 -1.08 -7.54 -1.08 0 0 Z " fill="#E4E0DC" transform="translate(1502,1172)"/>
<path d="M0 0 C6.29 1.57 9.51 6.45 14 11 C16.62 13.06 19.27 15.08 22 17 C20.8 21.79 18.93 23.74 15.69 27.44 C15.14 28.06 15.14 28.06 12.4 31.2 C8.25 35.84 4.04 40.43 -0.21 44.99 C-2.63 47.6 -5.01 50.27 -7.38 52.94 C-15.79 62.15 -24.6 70.8 -34 79 C-38.09 82.8 -42.14 86.64 -46.2 90.48 C-49.37 93.42 -52.67 96.23 -56 99 C-64.69 97.76 -71.33 94.03 -79 90 C-80.78 89.08 -82.56 88.15 -84.39 87.2 C-92.65 82.9 -100.87 78.55 -109 74 C-108.51 73.84 -108.51 73.84 -106 73 C-106 72.34 -106 71.68 -106 71 C-107.32 71 -108.64 71 -110 71 C-110.16 71.33 -110.16 71.33 -111 73 C-111.33 72.01 -111.66 71.02 -112 70 C-111.45 69.87 -111.45 69.87 -108.7 69.19 C-81 61.99 -55.9 47.51 -35 28 C-27.19 21.45 -19.14 15.26 -11.02 9.11 C-7.24 6.18 -3.6 3.14 0 0 Z " fill="#98674A" transform="translate(1229,723)"/>
<path d="M0 0 C5.46 0.47 10.92 0.95 16.38 1.44 C17.93 1.57 19.49 1.71 21.09 1.85 C32.77 2.89 32.77 2.89 35 4 C39.64 4.21 44.29 4.37 48.94 4.5 C57.67 4.75 66.31 5.11 75 6 C71.39 28.73 60.5 51.85 48 71 C45.59 75.2 43.23 79.43 40.88 83.66 C39 87 39 87 37 90 C32.29 88.12 27.98 85.95 23.5 83.56 C22.03 82.78 20.55 82 19.03 81.19 C15.98 79.53 12.98 77.79 10 76 C9.8 74.29 9.61 72.57 9.41 70.81 C8.67 64.39 7.92 57.98 7.17 51.56 C6.85 48.8 6.53 46.03 6.22 43.26 C5.76 39.27 5.29 35.27 4.82 31.27 C4.69 30.07 4.69 30.07 3.98 24.01 C2.99 16.91 1.54 10 0 3 C0 2.01 0 1.02 0 0 Z " fill="#ADA087" transform="translate(601,1348)"/>
<path d="M0 0 C2.29 0.95 4.58 1.9 6.94 2.88 C12.61 5.15 18.02 6.72 24 8 C25.79 8.76 27.59 9.53 29.44 10.31 C40.13 14.58 51.72 15.98 63 18 C77.81 20.81 77.81 20.81 79 22 C83.68 22.73 88.37 23.41 93.06 24.06 C95.65 24.42 98.24 24.79 100.91 25.16 C102.92 25.44 104.93 25.71 107 26 C107.05 28.42 107.1 30.83 107.15 33.32 C107.5 49.21 107.88 64.99 109.6 80.8 C110 85 110 85 110 92 C101.03 87.39 93.11 81.93 85 76 C82.63 74.33 80.25 72.67 77.88 71 C71.31 66.31 65.15 61.22 59 56 C58.11 55.28 58.11 55.28 53.62 51.62 C40.98 41.23 28.58 30.58 17 19 C15.61 17.63 14.22 16.27 12.79 14.86 C11.27 13.36 9.75 11.86 8.19 10.31 C6.65 8.8 5.12 7.29 3.54 5.74 C0 2 0 2 0 0 Z " fill="#C4B8A1" transform="translate(485,1321)"/>
<path d="M0 0 C0.83 0.16 0.83 0.16 5 1 C5.18 2.23 5.36 3.46 5.55 4.73 C6.95 13.97 8.62 22.95 11 32 C11 32.99 11 33.98 11 35 C11.66 35 12.32 35 13 35 C13.33 35.66 13.66 36.32 14 37 C22.85 38.26 31.66 38.38 40.59 38.61 C50.9 38.9 50.9 38.9 52 40 C51.67 57.36 48.21 74.46 43 91 C42.34 91 41.68 91 41 91 C41 96.28 41 101.56 41 107 C41.66 107 42.32 107 43 107 C47.55 118.71 50.37 130.74 53 143 C53.66 143 54.32 143 55 143 C55.72 144.67 56.44 146.34 57.19 148.06 C60 154 60 154 62.88 157.94 C63.23 158.44 63.23 158.44 65 161 C63.46 167.14 59.69 169.91 55 174 C50.44 175.06 50.44 175.06 47 175 C46.48 173.7 45.97 172.4 45.44 171.06 C44.04 167.58 42.63 164.11 41.18 160.66 C40.54 159.14 39.9 157.62 39.25 156.06 C38.64 154.61 38.02 153.16 37.39 151.66 C36 148 36 148 36 145 C35.34 145 34.68 145 34 145 C33.11 143.33 32.23 141.66 31.31 139.94 C28 134 28 134 25.24 130.67 C22.32 125.9 22.81 123.83 23.81 118.38 C24.13 116.56 24.44 114.74 24.76 112.87 C25.17 110.6 25.58 108.34 26 106 C26.51 102.85 27.02 99.69 27.52 96.54 C31.71 70.18 31.71 70.18 33 65 C33.66 65 34.32 65 35 65 C35 62.03 35 59.06 35 56 C25.73 53.6 20.13 57.72 12 62 C10.85 62.16 10.85 62.16 5 63 C1.36 47.1 -0.31 31.79 -0.12 15.5 C-0.12 14 -0.11 12.5 -0.1 10.95 C-0.07 7.3 -0.04 3.65 0 0 Z " fill="#FBF9F9" transform="translate(1480,1216)"/>
<path d="M0 0 C7.22 0.26 11.41 2.48 17 7 C22.92 16.69 22.32 27.37 20.15 38.25 C17.01 48.8 12.12 55.03 3.31 61.38 C-7.14 66.54 -17.83 68.71 -29.15 65.57 C-30.87 64.95 -32.6 64.33 -34.38 63.69 C-36.12 63.07 -37.86 62.46 -39.65 61.82 C-44 60 -44 60 -47 57 C-51.19 56.31 -51.19 56.31 -55 56 C-55.66 57.32 -56.32 58.64 -57 60 C-60.85 65.78 -62.95 67.98 -69 71 C-70.65 72.65 -72.3 74.3 -74 76 C-80.32 80.22 -88.67 79.37 -96 79 C-104.94 75.94 -110.22 70.29 -116 63 C-120 53.66 -120.9 45.03 -119 35 C-117.35 33.35 -115.7 31.7 -114 30 C-113.34 30 -112.68 30 -112 30 C-111.67 29.34 -111.34 28.68 -111 28 C-109 29 -109 29 -107 33 C-106.22 37.23 -105.6 41.48 -104.98 45.74 C-103.3 53.04 -100.3 56.7 -95 62 C-88.89 65.05 -83.9 64.22 -77.44 62.62 C-68.57 58.34 -65.77 51.8 -62 43 C-58 38 -58 38 -53 34 C-49 35 -49 35 -45.88 38.62 C-39.19 46.17 -30.95 52.31 -20.69 53.5 C-11.97 52.57 -5.06 48.18 1 42 C6.32 34.65 6.63 28.95 6 20 C3.67 14.18 0.78 11.93 -4 8 C-2 3 -2 3 0 0 Z " fill="#531A15" transform="translate(960,1204)"/>
<path d="M0 0 C6.55 0 11.02 2.4 17 5 C18.31 5.48 19.61 5.96 20.96 6.46 C30.08 9.94 38.7 14.77 47.3 19.36 C60.96 26.59 74.43 32.87 89 38 C92.23 39.21 95.46 40.41 98.69 41.62 C110.45 45.93 122.19 50.15 134.38 53.12 C141.07 54.77 147.5 56.72 154 59 C154 62.63 154 66.26 154 70 C144.72 76.19 136.41 76.17 125.42 74.16 C115.78 71.82 107.24 68.56 98.52 63.87 C95.1 62.06 91.55 60.52 88 59 C87.26 58.54 87.26 58.54 83.5 56.19 C78.18 53.11 72.84 50.96 67.12 48.75 C55.06 43.63 43.93 36.46 32.89 29.45 C28.97 26.98 24.99 24.61 21 22.25 C15.74 19.12 10.79 15.82 6 12 C6.33 10.68 6.66 9.36 7 8 C6.42 7.53 6.42 7.53 3.5 5.12 C2.35 4.09 1.19 3.06 0 2 C0 1.34 0 0.68 0 0 Z " fill="#450303" transform="translate(660,929)"/>
<path d="M0 0 C10.49 1.52 20.97 2.39 31.54 3.13 C36.56 3.56 36.56 3.56 39.56 4.56 C42.43 4.65 45.3 4.67 48.17 4.66 C49.87 4.66 51.58 4.65 53.33 4.65 C55.12 4.64 56.91 4.63 58.75 4.62 C60.55 4.62 62.35 4.62 64.2 4.61 C68.65 4.6 73.11 4.58 77.56 4.56 C77.56 5.22 77.56 5.88 77.56 6.56 C70.56 9.56 70.56 9.56 67.56 9.56 C67.56 10.22 67.56 10.88 67.56 11.56 C64.46 12.9 61.36 14.23 58.25 15.56 C56.52 16.31 54.79 17.05 53.01 17.81 C48.56 19.56 48.56 19.56 45.56 19.56 C45.56 20.22 45.56 20.88 45.56 21.56 C43.13 22.57 40.69 23.58 38.19 24.62 C31.34 27.62 25.55 31.05 19.56 35.56 C10.84 41.56 10.84 41.56 8.56 41.56 C7.9 42.88 7.24 44.2 6.56 45.56 C2.56 43.56 2.56 43.56 -2.44 38.56 C-2.44 37.9 -2.44 37.24 -2.44 36.56 C-3.76 35.9 -5.08 35.24 -6.44 34.56 C-12.35 27.82 -17.52 21.06 -22.44 13.56 C-23.76 12.24 -25.08 10.92 -26.44 9.56 C-20.42 -5.49 -13.45 -2.05 0 0 Z " fill="#FCFBFB" transform="translate(855.4375,1433.4375)"/>
<path d="M0 0 C4 1 4 1 6 2 C6 2.66 6 3.32 6 4 C6.66 4 7.32 4 8 4 C8 4.66 8 5.32 8 6 C9.32 6.66 10.64 7.32 12 8 C12.33 8.16 12.33 8.16 14 9 C14 9.66 14 10.32 14 11 C14.66 11 15.32 11 16 11 C16 11.66 16 12.32 16 13 C16.66 13 17.32 13 18 13 C18 19.03 16.57 20.65 13.12 25.5 C12.13 26.91 11.13 28.31 10.1 29.76 C-1.19 45.19 -1.19 45.19 -6 50 C-6.66 50 -7.32 50 -8 50 C-8.66 51.32 -9.32 52.64 -10 54 C-17.93 62.7 -26.23 70.44 -36 77 C-43.26 74.69 -50.52 72.38 -58 70 C-52.57 63.67 -46.89 57.89 -41 52 C-36.34 46.88 -32.09 41.59 -28 36 C-27.34 36 -26.68 36 -26 36 C-25.34 34.68 -24.68 33.36 -24 32 C-23.67 31.34 -23.34 30.68 -23 30 C-22.34 30 -21.68 30 -21 30 C-20.34 28.68 -19.68 27.36 -19 26 C-18.67 25.34 -18.34 24.68 -18 24 C-17.34 24 -16.68 24 -16 24 C-15.34 22.68 -14.68 21.36 -14 20 C-13.01 18.35 -12.02 16.7 -11 15 C-10.34 15 -9.68 15 -9 15 C-8.34 13.35 -7.68 11.7 -7 10 C-4.71 6.64 -2.38 3.3 0 0 Z " fill="#A57456" transform="translate(1282,772)"/>
<path d="M0 0 C5.85 5.02 10.36 10.87 15 17 C16.48 18.73 17.97 20.46 19.5 22.25 C20.65 23.82 21.81 25.38 23 27 C22 32 22 32 19 39 C18.34 39 17.68 39 17 39 C17 39.66 17 40.32 17 41 C11.87 40.15 7.79 38.9 3 37 C3 36.34 3 35.68 3 35 C2.29 34.87 2.29 34.87 -1.33 34.23 C-9.8 32.67 -18.24 31.02 -26.69 29.38 C-28.35 29.05 -30.02 28.73 -31.74 28.39 C-35.83 27.59 -39.91 26.8 -44 26 C-44 25.34 -44 24.68 -44 24 C-46.62 23.88 -49.24 23.75 -51.94 23.62 C-58.15 23.27 -63.97 22.64 -70 21 C-60.42 13.81 -49.25 9.82 -38 6 C-37.34 5.72 -37.34 5.72 -34 4.31 C-28.1 2.38 -22.15 1.76 -16 1 C-14.37 0.79 -12.74 0.59 -11.06 0.38 C-7 0 -7 0 0 0 Z " fill="#FCFAFA" transform="translate(1196,1378)"/>
<path d="M0 0 C6.82 0.3 13.62 0.14 20.44 -0.05 C24.83 0.21 24.83 0.21 31.83 3.21 C36.84 18.23 28.38 35.46 21.77 48.77 C20.46 51.26 19.15 53.74 17.83 56.21 C16.67 58.52 15.52 60.83 14.33 63.21 C13.5 64.86 12.68 66.51 11.83 68.21 C11.5 68.21 11.17 68.21 10.83 68.21 C10.73 66.33 10.62 64.46 10.52 62.52 C9.17 48.25 5.29 36.4 -2.17 24.21 C-3 23.55 -3 23.55 -7.17 20.21 C-8.49 18.89 -9.81 17.57 -11.17 16.21 C-14.48 14.16 -17.81 12.16 -21.17 10.21 C-21.17 9.55 -21.17 8.89 -21.17 8.21 C-22.49 7.88 -23.81 7.55 -25.17 7.21 C-27.07 6.53 -28.97 5.85 -30.92 5.15 C-39.18 2.94 -45.67 2.92 -54.17 3.21 C-53.84 2.55 -53.51 1.89 -53.17 1.21 C-35.31 -1.05 -17.95 -1.11 0 0 Z " fill="#B34A14" transform="translate(749.171875,1042.7890625)"/>
<path d="M0 0 C0.66 0.33 1.32 0.66 2 1 C2.09 2.12 2.17 3.23 2.26 4.38 C2.65 9.4 3.04 14.42 3.44 19.44 C3.57 21.19 3.71 22.95 3.85 24.76 C3.91 25.59 3.91 25.59 4.25 29.81 C4.37 31.35 4.49 32.9 4.61 34.49 C5 38 5 38 6 39 C8.2 53.82 9.17 68.45 9.12 83.44 C9.13 84.14 9.13 84.14 9.14 87.67 C9.11 113.78 9.11 113.78 4 121 C3.01 122.98 2.02 124.96 1 127 C-1.31 130.35 -3.64 133.69 -6 137 C-7.32 138.98 -8.64 140.96 -10 143 C-10.66 143 -11.32 143 -12 143 C-13.13 95.18 -6.67 47.26 0 0 Z " fill="#E9DFCA" transform="translate(435,1054)"/>
<path d="M0 0 C1.38 0.27 2.76 0.54 4.19 0.81 C13.43 2.42 22.71 3.71 32 5 C32.05 7.42 32.1 9.83 32.15 12.32 C32.5 28.21 32.88 43.99 34.6 59.8 C35 64 35 64 35 71 C24.14 65.42 14.51 58.61 5 51 C4.32 46.09 4.32 46.09 4 40 C2.99 33.25 1.92 26.52 0.84 19.79 C0.01 13.11 -0.14 6.72 0 0 Z " fill="#AEA187" transform="translate(560,1342)"/>
<path d="M0 0 C-2.1 4.21 -4.39 6.73 -7.62 10.12 C-16.95 20.1 -25.36 30.6 -32.12 42.5 C-35 47 -35 47 -40 49 C-46.4 47.72 -48.15 45.19 -52.62 40.5 C-58.81 34.15 -65.03 28.45 -72 23 C-73.98 21.35 -75.96 19.7 -78 18 C-77.84 17.5 -77.84 17.5 -77 15 C-59.02 11.11 -41.04 7.35 -22.92 4.14 C-18.77 3.34 -14.65 2.4 -10.55 1.36 C-5 0 -5 0 0 0 Z " fill="#F6EFE1" transform="translate(807,367)"/>
<path d="M0 0 C1.32 0.33 2.64 0.66 4 1 C4 1.66 4 2.32 4 3 C4.66 3 5.32 3 6 3 C6 3.66 6 4.32 6 5 C6.66 5 7.32 5 8 5 C8 5.66 8 6.32 8 7 C8.66 7 9.32 7 10 7 C10 7.66 10 8.32 10 9 C10.99 9.33 11.98 9.66 13 10 C11.6 15.6 7.93 18.63 4.05 22.73 C1.88 25.06 -0.26 27.44 -2.36 29.84 C-6.22 34.26 -10.18 38.58 -14.19 42.88 C-15.56 44.36 -16.94 45.84 -18.36 47.37 C-22 51 -22 51 -26 53 C-26.66 54.32 -27.32 55.64 -28 57 C-30.35 59.46 -32.75 61.87 -35.19 64.25 C-40.35 69.34 -45.3 74.48 -50 80 C-51.65 81.65 -53.3 83.3 -55 85 C-61.39 84.09 -66.11 82.5 -72 80 C-67.96 75.13 -63.74 70.76 -59.06 66.5 C-37.11 46.23 -37.11 46.23 -35 42 C-34.34 42 -33.68 42 -33 42 C-32.34 40.68 -31.68 39.36 -31 38 C-30.34 37.01 -29.68 36.02 -29 35 C-28.34 35 -27.68 35 -27 35 C-27 34.34 -27 33.68 -27 33 C-26.34 33 -25.68 33 -25 33 C-24.34 31.68 -23.68 30.36 -23 29 C-22.67 28.34 -22.34 27.68 -22 27 C-21.34 27 -20.68 27 -20 27 C-19.34 25.68 -18.68 24.36 -18 23 C-17.67 22.34 -17.34 21.68 -17 21 C-16.34 21 -15.68 21 -15 21 C-14.34 19.35 -13.68 17.7 -13 16 C-12.34 16 -11.68 16 -11 16 C-10.34 14.68 -9.68 13.36 -9 12 C-6.03 7.98 -3.03 3.98 0 0 Z " fill="#A37355" transform="translate(1259,749)"/>
<path d="M0 0 C9.82 5.02 17.99 11.49 26 19 C26 19.33 26 19.66 26 20 C24.32 20.18 22.65 20.36 20.92 20.55 C18.7 20.8 16.48 21.05 14.19 21.31 C13.09 21.43 13.09 21.43 7.54 22.05 C-3.04 23.59 -12.22 26.75 -22 31 C-23.22 31.51 -24.44 32.02 -25.7 32.55 C-31.01 34.79 -36.05 37.03 -41 40 C-40.67 40.66 -40.34 41.32 -40 42 C-51.88 41.34 -63.76 40.68 -76 40 C-72.16 36.16 -68.05 34.19 -63.25 31.62 C-53.2 26.21 -43.25 20.65 -33.33 15.01 C-29.64 12.92 -25.92 10.88 -22.19 8.86 C-17 6 -17 6 -11.19 2.06 C-6 -1 -6 -1 0 0 Z " fill="#BDB6A9" transform="translate(1169,1358)"/>
<path d="M0 0 C4.29 0 8.58 0 13 0 C8.07 4.93 1.55 7.45 -4.62 10.56 C-15.99 16.36 -27.11 22.35 -38 29 C-40 30.18 -41.99 31.37 -44.05 32.59 C-70.11 48.08 -70.11 48.08 -82 57 C-82.66 57 -83.32 57 -84 57 C-84 57.66 -84 58.32 -84 59 C-89.64 57.87 -93.92 55.64 -99 53 C-99 52.34 -99 51.68 -99 51 C-99.99 50.67 -100.98 50.34 -102 50 C-98.8 43.6 -92.84 40.91 -87 37 C-85.68 36.01 -84.36 35.02 -83 34 C-81.68 34 -80.36 34 -79 34 C-79 33.34 -79 32.68 -79 32 C-64.75 25.12 -64.75 25.12 -58 24 C-58 23.34 -58 22.68 -58 22 C-43.75 16.12 -43.75 16.12 -37 15 C-37 14.34 -37 13.68 -37 13 C-8.02 2 -8.02 2 0 2 C0 1.34 0 0.68 0 0 Z " fill="#F8F5F5" transform="translate(969,1434)"/>
<path d="M0 0 C0 0.66 0 1.32 0 2 C1.15 2.06 2.31 2.12 3.5 2.19 C10.88 3.28 18.13 5.05 25 8 C25.33 8.66 25.33 8.66 27 12 C25.87 13.28 24.73 14.56 23.56 15.88 C20 20 20 20 19 22 C6.78 20.14 -5.13 17.39 -17 14 C-38.87 8.55 -60.46 3.68 -83 2 C-83 1.34 -83 0.68 -83 0 C-80.37 -1.69 -77.72 -3.35 -75.06 -5 C-73.59 -5.93 -72.12 -6.86 -70.6 -7.81 C-52.15 -16.59 -19.5 -4.07 0 0 Z " fill="#F9F7F7" transform="translate(1179,1416)"/>
<path d="M0 0 C0.66 0.33 0.66 0.33 4 2 C7.14 14.02 8.97 25.8 10.29 38.15 C10.94 43.52 11.92 48.71 13 54 C13 55.32 13 56.64 13 58 C13.66 58 14.32 58 15 58 C15.33 60.97 15.66 63.94 16 67 C17.03 66.99 17.03 66.99 22.25 66.96 C24.98 66.96 27.71 66.95 30.44 66.94 C31.12 66.93 31.12 66.93 34.54 66.91 C48.4 66.88 48.4 66.88 55 68 C57 70 57 70 57.23 74.32 C57.22 76.05 57.2 77.78 57.19 79.56 C57.18 81.3 57.17 83.03 57.17 84.82 C57 89 57 89 56 90 C55.39 93.33 54.81 96.66 54.25 100 C52.98 107.28 51.45 114.22 49.19 121.25 C45.87 132.03 47.85 138.74 52 149 C53 153.67 54 158.33 55 163 C56.23 166.37 57.57 169.71 59 173 C59.83 175.06 60.65 177.12 61.5 179.25 C64 185 64 185 68 191 C68 191.66 68 192.32 68 193 C68.66 193.33 69.32 193.66 70 194 C68.35 195.32 66.7 196.64 65 198 C54 183.39 54 183.39 54 177 C53.34 177 52.68 177 52 177 C48.15 165.1 44.46 153.28 42 141 C41.34 141 40.68 141 40 141 C38.9 135.51 38.19 130.43 40 125 C40.66 125 41.32 125 42 125 C42.28 123.6 42.55 122.2 42.84 120.76 C43.62 116.87 44.43 112.99 45.25 109.12 C47.72 97.33 49.65 86.04 50 74 C47.92 73.94 45.83 73.88 43.68 73.82 C40.93 73.73 38.19 73.65 35.44 73.56 C34.07 73.52 32.69 73.48 31.28 73.44 C25.09 73.25 19.14 72.88 13 72 C12.67 71.01 12.34 70.02 12 69 C11.34 69 10.68 69 10 69 C6.99 58.54 5.04 48.43 3.81 37.62 C2.11 23.11 2.11 23.11 1 22 C-0.1 14.66 -0.08 7.41 0 0 Z " fill="#892B38" transform="translate(1481,1182)"/>
<path d="M0 0 C0 0.66 0 1.32 0 2 C0.83 2.33 0.83 2.33 5 4 C19.25 12.91 27.37 24.93 31.25 41.25 C33.56 58.93 33.56 58.93 28.19 66.06 C26.48 67.69 24.76 69.32 23 71 C21.12 73.21 19.27 75.44 17.44 77.69 C13.3 82.62 9.01 86.93 4 91 C3.67 90.34 3.34 89.68 3 89 C3.54 87.97 4.09 86.95 4.64 85.89 C5.36 84.5 6.08 83.12 6.81 81.69 C7.52 80.33 8.23 78.97 8.96 77.57 C15.88 62.06 15.72 44.99 12.56 28.5 C7.76 18.19 0.95 12.22 -9 7 C-10.63 6.13 -12.26 5.25 -13.93 4.35 C-21.09 1.58 -26.54 1.5 -34.19 1.69 C-36.59 1.73 -39 1.78 -41.48 1.82 C-43.3 1.88 -45.12 1.94 -47 2 C-34.56 -10.44 -14.19 -7.09 0 0 Z " fill="#E1D884" transform="translate(728,1051)"/>
<path d="M0 0 C5 3 5 3 9 9 C9.46 13.16 9.46 13.16 9.38 17.62 C9.36 19.1 9.35 20.58 9.34 22.1 C9 26 9 26 7 30 C6.34 30 5.68 30 5 30 C4.67 31.65 4.34 33.3 4 35 C-1.63 43.24 -7.68 50.45 -16 56 C-17.65 56 -19.3 56 -21 56 C-27.15 49.85 -25.97 44.8 -26.31 36.19 C-26.21 23.52 -21.17 11.75 -12.69 2.31 C-8.05 -0.59 -5.38 -0.69 0 0 Z " fill="#E6CAAD" transform="translate(1459,1034)"/>
<path d="M0 0 C4.62 0.16 4.62 0.16 28 1 C24 3 24 3 21 3 C21 3.66 21 4.32 21 5 C19.54 5.48 18.08 5.96 16.58 6.46 C14.68 7.09 12.77 7.72 10.81 8.38 C9.87 8.69 9.87 8.69 5.08 10.27 C1.69 11.43 -1.67 12.67 -5 14 C-5.99 14 -6.98 14 -8 14 C-8 14.66 -8 15.32 -8 16 C-10.94 17.17 -13.87 18.34 -16.81 19.5 C-18.45 20.15 -20.08 20.8 -21.77 21.47 C-26 23 -26 23 -29 23 C-29 23.66 -29 24.32 -29 25 C-35.93 27.95 -42.82 30.73 -50 33 C-50 33.66 -50 34.32 -50 35 C-51.65 35.66 -53.3 36.32 -55 37 C-60.88 40.8 -66.53 44.63 -72 49 C-72 49.66 -72 50.32 -72 51 C-71.67 51.16 -71.67 51.16 -70 52 C-70 52.66 -70 53.32 -70 54 C-68.02 54.66 -66.04 55.32 -64 56 C-62.35 56.99 -60.7 57.98 -59 59 C-57.68 59.66 -56.36 60.32 -55 61 C-60 64 -60 64 -64 66 C-64.99 65.67 -65.98 65.34 -67 65 C-67 64.34 -67 63.68 -67 63 C-68.98 62.34 -70.96 61.68 -73 61 C-74.98 59.68 -76.96 58.36 -79 57 C-79 56.34 -79 55.68 -79 55 C-82 56 -82 56 -86 60 C-89.65 62.69 -93.31 65.36 -97 68 C-97.99 67.34 -98.98 66.68 -100 66 C-99 64 -99 64 -95.75 61.25 C-92 58 -92 58 -87 52 C-89.55 46.9 -93.32 43.31 -97.17 39.16 C-103.3 32.32 -107.56 25.88 -110 17 C-110.66 17 -111.32 17 -112 17 C-112 14.36 -112 11.72 -112 9 C-105.32 14.01 -101.55 20.07 -97 27 C-92.84 31.91 -88.55 36.45 -84 41 C-82.68 42.32 -81.36 43.64 -80 45 C-77 44 -77 44 -73 40 C-70.78 38.47 -68.53 37 -66.25 35.56 C-65 34.78 -63.76 33.99 -62.47 33.18 C-61.33 32.46 -60.18 31.74 -59 31 C-57.58 30.07 -56.15 29.14 -54.69 28.19 C-44.26 22 -44.26 22 -39 22 C-39 21.34 -39 20.68 -39 20 C-35.71 18.66 -32.42 17.33 -29.12 16 C-27.29 15.26 -25.46 14.52 -23.57 13.75 C-19 12 -19 12 -17 12 C-17 11.34 -17 10.68 -17 10 C-13.73 8.83 -10.46 7.66 -7.19 6.5 C-6.28 6.18 -6.28 6.18 -1.67 4.53 C3 3 3 3 6 3 C6 2.34 6 1.68 6 1 C4.02 1 2.04 1 0 1 C0 0.67 0 0.34 0 0 Z " fill="#862634" transform="translate(940,1433)"/>
<path d="M0 0 C0 0.66 0 1.32 0 2 C0.69 2.06 0.69 2.06 4.19 2.35 C10.52 3.06 16.68 4.16 22.94 5.38 C25.13 5.8 27.33 6.22 29.59 6.65 C35.47 7.89 41.22 9.35 47 11 C47 11.66 47 12.32 47 13 C48.65 13.33 50.3 13.66 52 14 C55.01 14.98 58.01 15.97 61 17 C61 16.34 61 15.68 61 15 C61.66 15 62.32 15 63 15 C63.45 13.58 63.91 12.15 64.38 10.69 C66 6 66 6 68 3 C70 5 70 5 70 12 C69.08 15.03 68.1 18.03 67 21 C69.37 22.09 71.74 23.19 74.19 24.31 C78.65 26.37 82.78 28.47 87 31 C87.99 31 88.98 31 90 31 C90.33 31.99 90.66 32.98 91 34 C88 39 88 39 86 41 C83.03 39.35 80.06 37.7 77 36 C77 35.34 77 34.68 77 34 C76.22 33.77 76.22 33.77 72.25 32.62 C67 31 67 31 63 29 C57.27 30.43 55.17 34.24 52 39 C49.69 38.34 47.38 37.68 45 37 C47.38 32.58 49.4 29.6 53 26 C52.84 25.51 52.84 25.51 52 23 C48.58 22.02 45.17 21.04 41.75 20.06 C39.85 19.52 37.94 18.97 35.98 18.41 C33 17.57 30.01 16.75 27 16 C27 15.34 27 14.68 27 14 C25.84 13.9 24.67 13.79 23.47 13.68 C15.02 12.63 6.7 10.9 -1.66 9.26 C-11.08 7.45 -20.47 6.11 -30 5 C-30 4.34 -30 3.68 -30 3 C-30.66 3.02 -30.66 3.02 -34.02 3.09 C-41.27 2.98 -48.42 2.27 -55.62 1.5 C-57.01 1.36 -58.4 1.21 -59.82 1.07 C-63.22 0.72 -66.61 0.36 -70 0 C-53.59 -12.31 -19.5 -2.12 0 0 Z " fill="#872836" transform="translate(1152,1402)"/>
<path d="M0 0 C3.3 1.65 6.6 3.3 10 5 C26.63 10.7 43.83 14.35 61 18 C62.95 18.46 64.91 18.91 66.92 19.38 C83.5 23.14 100.08 24.68 117 26 C117 26.66 117 27.32 117 28 C114.86 28.66 114.86 28.66 104 32 C104 31.34 104 30.68 104 30 C102.18 30.16 100.37 30.33 98.5 30.5 C70.54 32.51 70.54 32.51 63 30 C55.84 29.38 48.69 28.81 41.53 28.28 C34.25 27.7 27.46 26.88 20.3 25.34 C14 24 14 24 7 25 C3.56 29.06 3.56 29.06 1 33 C0.67 33 0.34 33 0 33 C0 22.11 0 11.22 0 0 Z " fill="#BEB7AA" transform="translate(829,1408)"/>
<path d="M0 0 C0.2 1.72 0.41 3.44 0.62 5.21 C0.89 7.43 1.16 9.65 1.44 11.94 C1.7 14.15 1.97 16.37 2.25 18.65 C3 24 3 24 4 25 C4.37 29 4.71 33 5 37 C3.35 36.67 1.7 36.34 0 36 C0.33 54.87 1.05 73.32 4 92 C4.33 94.31 4.66 96.62 5 99 C5.49 99.16 5.49 99.16 8 100 C4.7 100 1.4 100 -2 100 C-3.24 95.55 -4.47 91.11 -5.7 86.66 C-6.64 83.3 -7.62 79.96 -8.62 76.62 C-10.36 69.53 -11.35 62.41 -12.35 55.18 C-13 51 -13 51 -14 49 C-14.57 44.25 -15.09 39.51 -15.56 34.75 C-15.83 32.15 -16.1 29.54 -16.38 26.86 C-16.96 19.53 -17.11 12.35 -17 5 C-2.25 0 -2.25 0 0 0 Z " fill="#BEB7AA" transform="translate(1480,1180)"/>
<path d="M0 0 C0.63 0.96 1.26 1.91 1.91 2.89 C8.29 12.54 14.83 21.98 22 31.06 C25 35 25 35 25 37 C25.66 37 26.32 37 27 37 C27.66 38.65 28.32 40.3 29 42 C16.46 42 3.92 42 -9 42 C-9.33 39.03 -9.66 36.06 -10 33 C-10.66 33 -11.32 33 -12 33 C-12.68 29.81 -13.34 26.63 -14 23.44 C-14.37 21.66 -14.74 19.89 -15.12 18.06 C-16 13 -16 13 -16 6 C-2.25 0 -2.25 0 0 0 Z " fill="#FBF8F9" transform="translate(1506,1207)"/>
<path d="M0 0 C2.88 0.01 5.75 0.11 8.62 0.25 C10.21 0.32 11.79 0.38 13.41 0.45 C18 1 18 1 25 4 C25 5.98 25 7.96 25 10 C25.66 10 26.32 10 27 10 C29.39 13.59 29.99 16.83 31 21 C31.66 22.65 32.32 24.3 33 26 C32.86 37.78 30.08 49.86 24 60 C23.51 59.84 23.51 59.84 21 59 C18.7 52.43 17.54 46.06 16.62 39.19 C14.42 23.8 8.88 12.85 -1 1 C-0.67 0.67 -0.34 0.34 0 0 Z " fill="#E3D782" transform="translate(1259,970)"/>
<path d="M0 0 C11.59 2.32 19.52 10.19 26.25 19.5 C34.66 36.31 36.1 57.89 31 76 C25.27 82.5 19.61 87.83 12 92 C14 87 14 87 15.94 83.81 C25.41 66.3 23.5 43.36 18.62 24.75 C15.22 14.81 11.11 9.87 3 3 C2.01 2.01 1.02 1.02 0 0 Z " fill="#DDCC7B" transform="translate(1217,1006)"/>
<path d="M0 0 C3.69 2.29 7.36 4.62 11 7 C8 8 8 8 5 7 C-4.21 6.48 -12.93 7.29 -20.75 12.5 C-23.9 17.4 -23.42 21.3 -23 27 C-21.68 27.33 -20.36 27.66 -19 28 C-19 28.99 -19 29.98 -19 31 C-23.2 33.8 -26.03 33.47 -31 33 C-36 28 -36 28 -39 22 C-39 14.52 -38.29 12.78 -34 7 C-22.93 -2.22 -13.39 -5.74 0 0 Z " fill="#DECF7D" transform="translate(1203,1016)"/>
<path d="M0 0 C1.25 0.14 1.25 0.14 7.55 0.84 C9.43 1.06 11.31 1.28 13.25 1.5 C13.25 1.83 13.25 2.16 13.25 2.5 C12.66 2.49 12.66 2.49 9.69 2.44 C2.86 3.77 -1.79 6.84 -7.59 10.57 C-10.75 12.5 -10.75 12.5 -12.75 12.5 C-12.75 13.16 -12.75 13.82 -12.75 14.5 C-13.93 14.52 -15.12 14.54 -16.34 14.56 C-21.75 14.66 -27.15 14.77 -32.56 14.88 C-34.43 14.91 -36.29 14.94 -38.21 14.97 C-47.3 15.16 -55.81 15.69 -64.75 17.5 C-66.07 17.17 -67.39 16.84 -68.75 16.5 C-66.83 15.94 -64.91 15.39 -62.94 14.81 C-52.52 11.42 -43 6.21 -33.3 1.17 C-22.13 -3.38 -11.77 -1.33 0 0 Z " fill="#BCB3A7" transform="translate(1108.75,1403.5)"/>
<path d="M0 0 C0.99 0 1.98 0 3 0 C2.97 1.13 2.93 2.25 2.89 3.41 C2.49 26.39 9.04 46.81 18.88 67.31 C26.13 82.46 26.13 82.46 25 87 C7.38 70.95 -0.96 46.22 -4 23 C-4.35 14.94 -4.59 8.33 -1 1 C-0.67 0.67 -0.34 0.34 0 0 Z " fill="#A59FA6" transform="translate(1326,1305)"/>
<path d="M0 0 C2 3 2 3 2 8 C-2.03 14.72 -5.73 15.15 -13.06 17.69 C-15.24 18.45 -17.42 19.22 -19.66 20.01 C-25.11 21.72 -30.38 23.02 -36 24 C-36 20.37 -36 16.74 -36 13 C-32.01 10.65 -28.01 8.32 -24 6 C-22.21 4.87 -20.41 3.73 -18.56 2.56 C-11.99 -0.47 -7.16 -0.46 0 0 Z " fill="#F9F7F7" transform="translate(1025,1435)"/>
<path d="M0 0 C4 4 4 4 6.56 7.94 C11.97 15.91 18.19 23.19 25 30 C22.53 34.94 19.17 37.43 15 41 C14.67 41.66 14.34 42.32 14 43 C10 41 10 41 4 36 C4 35.34 4 34.68 4 34 C3.34 34 2.68 34 2 34 C0.46 22.53 -0.19 11.58 0 0 Z " fill="#F8F4F4" transform="translate(829,1453)"/>
<path d="M0 0 C-2 4 -2 4 -5 9 C-5.12 12.66 -5.13 16.34 -5 20 C-4.34 20 -3.68 20 -3 20 C-2.34 21.65 -1.68 23.3 -1 25 C2.3 25.66 5.6 26.32 9 27 C9 28.32 9 29.64 9 31 C3.96 34.78 1.17 34.32 -5 34 C-5.66 33.67 -6.32 33.34 -7 33 C-7 32.34 -7 31.68 -7 31 C-7.66 31 -8.32 31 -9 31 C-9 30.34 -9 29.68 -9 29 C-10.32 28.34 -11.64 27.68 -13 27 C-13.99 26.01 -14.98 25.02 -16 24 C-16 23.34 -16 22.68 -16 22 C-16.66 22 -17.32 22 -18 22 C-18 13.81 -17.75 12.14 -13 6 C-6.14 0 -6.14 0 0 0 Z " fill="#E0D27F" transform="translate(679,1071)"/>
<path d="M0 0 C-2 5 -2 5 -6.38 11.62 C-13.45 22.56 -15.83 33.31 -18 46 C-18.33 46.16 -18.33 46.16 -20 47 C-21.19 38.69 -21.22 30.63 -21.25 22.25 C-21.27 20.64 -21.29 19.02 -21.31 17.36 C-21.33 13.24 -21.18 9.12 -21 5 C-15.54 -0.46 -7.41 0 0 0 Z " fill="#DECE7D" transform="translate(1130,981)"/>
<path d="M0 0 C0.66 0 1.32 0 2 0 C0.6 5.62 -2.35 6.96 -6.94 10.44 C-7.75 11.06 -7.75 11.06 -11.88 14.19 C-23.4 22.76 -34.98 31.16 -47 39 C-48.12 39.75 -49.24 40.5 -50.39 41.27 C-57.97 46.3 -65.53 50.58 -74 54 C-75.32 53.67 -76.64 53.34 -78 53 C-77.34 52.59 -77.34 52.59 -74 50.54 C-20.63 17.63 -20.63 17.63 -10 7 C-8.35 6.34 -6.7 5.68 -5 5 C-3.35 3.35 -1.7 1.7 0 0 Z " fill="#E8D19B" transform="translate(1749,1210)"/>
<path d="M0 0 C3.63 0 7.26 0 11 0 C9.8 2.31 8.61 4.62 7.38 7 C1.37 19.04 -2.78 30.94 -6 44 C-6.33 44.16 -6.33 44.16 -8 45 C-8.51 29.16 -7.65 14.18 0 0 Z " fill="#DFD17F" transform="translate(627,1046)"/>
<path d="M0 0 C4.12 -0 8.23 -0.02 12.35 -0.04 C41.04 -0.1 70.63 0.47 98.95 5.19 C98.95 5.52 98.95 5.85 98.95 6.19 C86.96 5.74 75.01 5.12 63.05 4.16 C46.39 2.99 29.77 2.92 13.07 2.98 C7.99 3 2.92 3 -2.16 3 C-17.38 3.02 -32.56 3.1 -47.76 4.02 C-53.93 4.26 -59.91 3.8 -66.05 3.19 C-66.05 2.86 -66.05 2.53 -66.05 2.19 C-44.11 0.03 -22.03 -0 0 0 Z " fill="#CCB4A6" transform="translate(638.050048828125,1013.814697265625)"/>
<path d="M0 0 C0.99 0 1.98 0 3 0 C4.32 1.32 5.64 2.64 7 4 C9.63 5.39 12.3 6.74 15 8 C15 8.66 15 9.32 15 10 C15.66 10.33 16.32 10.66 17 11 C10.32 16.35 7.06 15.08 -1.31 14.25 C-2.5 14.14 -2.5 14.14 -8.49 13.58 C-10.31 13.39 -12.13 13.2 -14 13 C-9 8 -9 8 -3 3 C-2.34 3 -1.68 3 -1 3 C-0.67 2.01 -0.34 1.02 0 0 Z " fill="#F7F2F3" transform="translate(858,1488)"/>
<path d="M0 0 C6.07 1.21 11.32 3.57 17 6 C17 6.66 17 7.32 17 8 C18.98 8.66 20.96 9.32 23 10 C23.99 10.99 24.98 11.98 26 13 C-2.94 11.35 -2.94 11.35 -7 10 C-5 6 -5 6 0 0 Z " fill="#F4EDEE" transform="translate(1212,1430)"/>
<path d="M0 0 C1.5 0.2 2.99 0.41 4.53 0.62 C6.5 0.89 8.47 1.16 10.5 1.44 C12.45 1.7 14.4 1.97 16.41 2.25 C20.93 2.86 25.46 3.44 30 4 C35.3 19.68 37.46 36.8 33 53 C32.51 55.45 32.01 57.91 31.5 60.44 C30 67 30 67 28 69 C28.48 65.62 28.96 62.25 29.44 58.88 C29.7 57 29.97 55.12 30.25 53.18 C30.79 49.45 31.38 45.72 32 42 C32.34 32.51 32.34 32.51 30 29 C29.7 25.78 29.51 22.55 29.38 19.31 C29.3 17.58 29.23 15.84 29.15 14.05 C29.1 12.71 29.05 11.38 29 10 C27.68 9.01 26.36 8.02 25 7 C25 6.34 25 5.68 25 5 C23.85 4.94 22.71 4.88 21.53 4.82 C20.77 4.77 20.77 4.77 16.94 4.56 C15.44 4.48 13.94 4.4 12.4 4.32 C8.59 4.04 4.79 3.54 1 3 C0.67 2.01 0.34 1.02 0 0 Z " fill="#BEB2AB" transform="translate(1284,949)"/>
<path d="M0 0 C1.29 5.17 0 7.09 -2 12 C-6.62 24.55 -11 37.18 -15.35 49.83 C-16.14 52.13 -16.93 54.44 -17.75 56.81 C-18.12 57.89 -18.12 57.89 -19.98 63.33 C-21.51 67.61 -23.21 71.83 -25 76 C-25.31 77.38 -25.62 78.76 -25.94 80.19 C-27 84 -27 84 -31 88 C-30.22 82.54 -29.21 78.01 -27.56 72.81 C-27.13 71.44 -26.7 70.06 -26.25 68.64 C-25 65 -25 65 -23 61 C-22.59 59.74 -22.18 58.48 -21.75 57.19 C-20 52.01 -18 46.98 -15.95 41.92 C-10.44 28.02 -5.24 14 0 0 Z " fill="#B8A492" transform="translate(408,631)"/>
<path d="M0 0 C1.59 4.77 -0.73 8.13 -2.5 12.75 C-9.5 31.6 -14.88 50.12 -18 70 C-18.99 70 -19.98 70 -21 70 C-22.54 63.83 -19.87 59 -18 53 C-17.72 51.15 -17.43 49.29 -17.14 47.38 C-15.92 40.55 -13.95 34.41 -11.62 27.88 C-11.24 26.78 -11.24 26.78 -9.29 21.24 C-3.86 6.43 -3.86 6.43 0 0 Z " fill="#5F352D" transform="translate(402,656)"/>
<path d="M0 0 C0.16 0.33 0.16 0.33 1 2 C-0.96 2.37 -2.92 2.74 -4.94 3.12 C-10.44 4.29 -15.5 5.86 -20.75 7.88 C-33.7 12.63 -48.17 16 -62 16 C-62.99 16.33 -63.98 16.66 -65 17 C-67.31 17.33 -69.62 17.66 -72 18 C-72.33 17.34 -72.66 16.68 -73 16 C-71.77 15.78 -70.55 15.56 -69.29 15.34 C-49.06 11.61 -29.19 6.75 -9.42 1.1 C-5 0 -5 0 0 0 Z " fill="#594036" transform="translate(929,902)"/>
<path d="M0 0 C0.33 0 0.66 0 1 0 C1 0.55 1 0.55 1 3.35 C1.04 23.38 1.18 42.31 6.72 61.68 C8.07 67.3 8.22 72.24 8 78 C0.22 66.33 -0.67 49.62 -1 36 C-1.18 34.66 -1.36 33.33 -1.54 31.95 C-2.2 26.24 -1.46 20.71 -1 15 C-1.33 14.01 -1.66 13.02 -2 12 C-1.39 7.99 -0.73 3.99 0 0 Z " fill="#B2988B" transform="translate(500,1045)"/>
<path d="M0 0 C7.59 0 15.18 0 23 0 C23.66 1.65 24.32 3.3 25 5 C18.1 8.28 11.37 10.97 4 13 C4.19 11.56 4.37 10.11 4.56 8.62 C5 4 5 4 4 2 C2.68 1.34 1.36 0.68 0 0 Z " fill="#BDB6A9" transform="translate(1021,1434)"/>
<path d="M0 0 C0.99 0.33 1.98 0.66 3 1 C3 1.66 3 2.32 3 3 C3.66 3 4.32 3 5 3 C6.61 5.23 8.21 7.46 9.81 9.69 C10.71 10.93 11.6 12.17 12.52 13.45 C14.46 16.22 16.26 19.1 18 22 C13.2 20.4 8.78 18.66 4.19 16.56 C2.86 15.97 1.53 15.37 0.17 14.75 C-3 13 -3 13 -4 10 C-2.74 6.64 -1.41 3.3 0 0 Z " fill="#F1E9EA" transform="translate(1222,1411)"/>
<path d="M0 0 C0.66 0.33 1.32 0.66 2 1 C-24.73 27.73 -24.73 27.73 -39.17 37.42 C-42.83 39.88 -46.42 42.42 -50 45 C-50.66 44.67 -51.32 44.34 -52 44 C-49.96 42.43 -47.92 40.87 -45.81 39.25 C-40.81 35.33 -36.06 31.29 -31.44 26.94 C-26.28 22.08 -20.9 17.78 -15.23 13.54 C-9.87 9.33 -4.97 4.67 0 0 Z " fill="#BFA496" transform="translate(1083,896)"/>
<path d="M0 0 C0.33 0 0.66 0 1 0 C1.04 1.12 1.09 2.23 1.14 3.38 C3.42 58.67 3.42 58.67 10 75 C9.67 75.99 9.34 76.98 9 78 C6 72 6 72 6 68 C5.34 68 4.68 68 4 68 C0.64 58.5 -0.12 49.98 -0.1 39.94 C-0.09 37.62 -0.09 35.29 -0.09 32.9 C-0.08 30.48 -0.07 28.06 -0.06 25.56 C-0.06 23.11 -0.05 20.67 -0.05 18.14 C-0.04 12.1 -0.02 6.05 0 0 Z " fill="#BEA7A6" transform="translate(1070,992)"/>
<path d="M0 0 C0.66 0 1.32 0 2 0 C1.42 4.73 0.77 9.42 0 14.12 C-1.52 25.54 -1.59 37.05 -1.89 48.54 C-2.01 53.42 -2.15 58.3 -2.28 63.17 C-2.53 72.11 -2.77 81.06 -3 90 C-3.33 90 -3.66 90 -4 90 C-4.19 42.84 -4.19 42.84 -3.56 20.69 C-3.52 19.24 -3.48 17.8 -3.44 16.31 C-3.13 6.53 -3.13 6.53 -2 2 C-1.34 2 -0.68 2 0 2 C0 1.34 0 0.68 0 0 Z " fill="#AF9581" transform="translate(658,813)"/>
<path d="M0 0 C0.33 0 0.66 0 1 0 C2.37 9.62 2.39 19.21 2.62 28.93 C2.94 34.87 3.64 40.23 5 46 C5.66 46 6.32 46 7 46 C6 52 6 52 3 57 C2.34 57.16 2.34 57.16 -1 58 C-0.93 56.75 -0.86 55.49 -0.78 54.2 C0.14 36.13 0.09 18.09 0 0 Z " fill="#AF9E8B" transform="translate(443,1113)"/>
<path d="M0 0 C0.66 0.66 1.32 1.32 2 2 C-7.7 6.49 -16.48 10.06 -27 12 C-28.32 12.33 -29.64 12.66 -31 13 C-34.33 13.04 -37.67 13.04 -41 13 C-40.67 12.34 -40.34 11.68 -40 11 C-38.12 10.61 -36.25 10.22 -34.31 9.81 C-27.24 8.06 -20.78 5.65 -14 3 C-8 2 -8 2 -6 3 C-4.02 2.01 -2.04 1.02 0 0 Z " fill="#DFD7C9" transform="translate(218,1023)"/>
<path d="M0 0 C-6.25 4.17 -14.92 3.9 -22.25 4.56 C-27 5 -27 5 -28 6 C-32.43 6.76 -36.87 7.46 -41.31 8.12 C-42.54 8.31 -42.54 8.31 -48.74 9.26 C-55 10 -55 10 -59 9 C-40.75 2.04 -19.46 0 0 0 Z " fill="#BEA093" transform="translate(571,1016)"/>
<path d="M0 0 C1.78 0 3.56 0 5.4 0 C11.07 0.01 16.73 0.02 22.39 0.04 C26.25 0.04 30.1 0.04 33.95 0.05 C43.37 0.06 52.79 0.08 62.21 0.1 C61.88 0.76 61.55 1.42 61.21 2.1 C59.66 2.09 58.11 2.09 56.51 2.08 C49.37 2.06 42.22 2.05 35.08 2.04 C32.64 2.03 30.2 2.02 27.69 2.01 C14.71 1.99 1.79 2.17 -11.18 2.92 C-17.47 3.16 -23.53 2.72 -29.79 2.1 C-29.79 1.77 -29.79 1.44 -29.79 1.1 C-19.84 -0.04 -10 -0.03 0 0 Z " fill="#AC897E" transform="translate(601.79296875,1014.90234375)"/>
<path d="M0 0 C4.07 5.09 5.97 9.29 8.38 15.31 C9.16 17.27 9.94 19.23 10.75 21.25 C21.55 48.82 21.55 48.82 20 55 C17.63 48.84 15.26 42.67 12.89 36.5 C10.98 31.53 9.05 26.56 7.11 21.59 C6.21 19.27 5.3 16.95 4.38 14.56 C3.54 12.42 2.7 10.28 1.84 8.07 C0 3 0 3 0 0 Z " fill="#E2DCD7" transform="translate(1354,688)"/>
<path d="M0 0 C9.62 1.75 9.62 1.75 13 4 C12.67 8.62 12.34 13.24 12 18 C11.01 18 10.02 18 9 18 C8.44 16.66 7.89 15.32 7.31 13.94 C5.23 9.49 2.89 5.93 0 2 C0 1.34 0 0.68 0 0 Z " fill="#D8C576" transform="translate(768,1045)"/>
<path d="M0 0 C0.66 0 1.32 0 2 0 C2.06 1.54 2.12 3.09 2.18 4.68 C2.27 6.72 2.35 8.77 2.44 10.88 C2.52 12.89 2.6 14.91 2.68 16.99 C2.88 20.8 3.2 24.6 3.66 28.38 C4 33 4 33 2 39 C1.67 39 1.34 39 1 39 C-1.53 27.6 -3.77 11.31 0 0 Z " fill="#765E56" transform="translate(519,1055)"/>
<path d="M0 0 C0.66 0.33 1.32 0.66 2 1 C-4.11 10.17 -14.73 15.19 -25 19 C-26.32 18.67 -27.64 18.34 -29 18 C-27.58 17.12 -26.15 16.24 -24.69 15.33 C-23.75 14.75 -23.75 14.75 -19 11.81 C-17.14 10.66 -15.29 9.52 -13.38 8.33 C-8.91 5.56 -4.45 2.79 0 0 Z " fill="#E7CFB5" transform="translate(1700,1245)"/>
<path d="M0 0 C0 0.33 0 0.66 0 1 C-2.31 1.66 -4.62 2.32 -7 3 C-7.66 3.33 -7.66 3.33 -11 5 C-11 4.34 -11 3.68 -11 3 C-12.21 3.41 -12.21 3.41 -18.31 5.5 C-25.62 8 -25.62 8 -29 8 C-29 8.66 -29 9.32 -29 10 C-36.34 12.1 -43.43 13.04 -51 14 C-52.65 14.33 -54.3 14.66 -56 15 C-55.67 14.34 -55.34 13.68 -55 13 C-46.75 10.37 -38.36 8.24 -30 6 C-27.84 5.41 -25.69 4.82 -23.47 4.21 C-22.46 3.94 -22.46 3.94 -17.38 2.56 C-16.46 2.32 -16.46 2.32 -11.84 1.07 C-7 0 -7 0 0 0 Z " fill="#B4A191" transform="translate(1083,962)"/>
<path d="M0 0 C0 0.66 0 1.32 0 2 C-1.98 2.66 -3.96 3.32 -6 4 C-7.65 4.99 -9.3 5.98 -11 7 C-12.65 7.33 -14.3 7.66 -16 8 C-16.69 8.24 -16.69 8.24 -20.19 9.44 C-28.04 11.99 -34.72 13 -43 13 C-38.35 9.9 -33.32 8.59 -28 7 C-26.68 7.33 -25.36 7.66 -24 8 C-22.35 7.01 -20.7 6.02 -19 5 C-17.35 5 -15.7 5 -14 5 C-14 4.34 -14 3.68 -14 3 C-2.25 0 -2.25 0 0 0 Z " fill="#A38E7E" transform="translate(1097,958)"/>
<path d="M0 0 C0.66 0 1.32 0 2 0 C2 0.66 2 1.32 2 2 C0.35 3.65 -1.3 5.3 -3 7 C-3.99 7 -4.98 7 -6 7 C-5.67 10.63 -5.34 14.26 -5 18 C-14.75 14.12 -14.75 14.12 -17 13 C-17 12.34 -17 11.68 -17 11 C-15.86 10.29 -14.71 9.58 -13.54 8.85 C-12.8 8.39 -12.8 8.39 -9.06 6.06 C-7.59 5.15 -6.12 4.23 -4.6 3.29 C-1 1 -1 1 0 0 Z " fill="#BCB1A0" transform="translate(91,1007)"/>
<path d="M0 0 C0.33 0 0.66 0 1 0 C1.19 1.84 1.39 3.67 1.59 5.56 C5.51 42.52 5.51 42.52 8 50 C8.08 54.33 8.09 58.67 8 63 C7.67 63 7.34 63 7 63 C2.9 42.22 -0.68 21.24 0 0 Z " fill="#644535" transform="translate(986,758)"/>
<path d="M0 0 C0.66 0 1.32 0 2 0 C6.13 7.67 10.19 15.35 14 23.19 C17.48 30.23 21.5 36.57 26 43 C25.67 43.66 25.34 44.32 25 45 C14.76 32.8 3.9 15.6 0 0 Z " fill="#CFC1BD" transform="translate(996,663)"/>
<path d="M0 0 C3.54 14.14 -9.15 33.97 -16 46 C-16.66 47.32 -17.32 48.64 -18 50 C-18.66 50 -19.32 50 -20 50 C-18 44 -18 44 -14.25 37.19 C-9.85 29.07 -6.85 20.76 -4 12 C-3.22 9.67 -2.43 7.34 -1.62 4.94 C-1.09 3.31 -0.55 1.68 0 0 Z " fill="#6A4B46" transform="translate(1307,1021)"/>
<path d="M0 0 C6.34 1.27 11.98 3.59 18 5.94 C19.15 6.39 19.15 6.39 25 8.65 C28.67 10.09 32.34 11.54 36 13 C36 13.66 36 14.32 36 15 C29 14 29 14 24 12 C24 11.34 24 10.68 24 10 C22.02 10 20.04 10 18 10 C17.01 9.34 16.02 8.68 15 8 C13.58 7.55 12.15 7.09 10.69 6.62 C6 5 6 5 0 1 C0 0.67 0 0.34 0 0 Z " fill="#B7978B" transform="translate(467,1290)"/>
<path d="M0 0 C37.7 -0.66 37.7 -0.66 54 4 C54 4.33 54 4.66 54 5 C52.84 4.85 51.69 4.69 50.5 4.53 C41.94 3.7 33.35 3.6 24.76 3.39 C14.21 3.1 14.21 3.1 12 2 C8 1.63 4 1.3 0 1 C0 0.67 0 0.34 0 0 Z " fill="#8E675E" transform="translate(667,1016)"/>
<path d="M0 0 C-1 2 -1 2 -4.39 3.29 C-13.19 5.95 -20.7 7.59 -30 7 C-25.74 4.87 -21.71 3.7 -17.12 2.44 C-15.56 2 -14 1.57 -12.38 1.12 C-2.71 -1.35 -2.71 -1.35 0 0 Z " fill="#60453C" transform="translate(848,941)"/>
<path d="M0 0 C0.33 0.99 0.66 1.98 1 3 C-5.37 11.86 -12.97 19.63 -21 27 C-21.66 27 -22.32 27 -23 27 C-20.66 22.32 -17.75 19.62 -14 16 C-8.93 10.93 -4.5 5.58 0 0 Z " fill="#B99E90" transform="translate(779,1126)"/>
<path d="M0 0 C0.33 0 0.66 0 1 0 C1.33 9.24 1.66 18.48 2 28 C2.99 27.01 3.98 26.02 5 25 C4.34 30.28 3.68 35.56 3 41 C2.67 41.16 2.67 41.16 1 42 C0.24 36.65 -0.12 32.01 -0.1 26.66 C-0.09 25.1 -0.09 23.55 -0.09 21.94 C-0.08 20.33 -0.07 18.72 -0.06 17.06 C-0.06 15.42 -0.05 13.79 -0.05 12.1 C-0.04 8.07 -0.02 4.03 0 0 Z " fill="#BE9E5D" transform="translate(1109,986)"/>
<path d="M0 0 C0.66 0.33 1.32 0.66 2 1 C-3.72 6.88 -9.38 12.17 -16 17 C-17.65 18.65 -19.3 20.3 -21 22 C-24.31 24.37 -27.64 26.71 -31 29 C-31.66 28.67 -32.32 28.34 -33 28 C-31.98 27.22 -31.98 27.22 -26.81 23.25 C-20.57 18.35 -14.7 13.18 -8.94 7.73 C-6.05 5.05 -3.03 2.52 0 0 Z " fill="#B18F84" transform="translate(1064,912)"/>
<path d="M0 0 C2.88 0.01 5.75 0.11 8.62 0.25 C10.21 0.32 11.79 0.38 13.41 0.45 C18 1 18 1 25 4 C24.67 5.32 24.34 6.64 24 8 C23.01 7.01 22.02 6.02 21 5 C17.28 4.52 17.28 4.52 12.94 4.38 C5 4 5 4 3 3 C2.67 3.66 2.34 4.32 2 5 C1.01 3.68 0.02 2.36 -1 1 C-0.67 0.67 -0.34 0.34 0 0 Z " fill="#9E7A4A" transform="translate(1259,970)"/>
<path d="M0 0 C0.33 0.66 0.66 1.32 1 2 C-2.1 3.15 -5.21 4.29 -8.31 5.44 C-9.18 5.76 -9.18 5.76 -13.55 7.37 C-19.91 9.7 -21.65 10 -29 10 C-28 8 -28 8 -22.19 6.06 C-15.82 4.23 -9.44 2.57 -3 1 C-2.01 0.67 -1.02 0.34 0 0 Z " fill="#B6A292" transform="translate(1025,976)"/>
<path d="M0 0 C6.71 8.38 11 14.1 11 25 C6.77 19.72 3 14 3 7 C2.34 7 1.68 7 1 7 C0.67 4.69 0.34 2.38 0 0 Z " fill="#9D7A78" transform="translate(1080,1070)"/>
<path d="M0 0 C1.37 5.5 0.13 9.7 -0.94 15.25 C-1.32 17.26 -1.7 19.26 -2.09 21.33 C-2.24 22.1 -2.24 22.1 -3 26 C-3.99 26 -4.98 26 -6 26 C-7.28 20.89 -6.14 18.04 -4.69 13 C-4.24 11.41 -3.79 9.82 -3.32 8.19 C-2 4 -2 4 0 0 Z " fill="#54231C" transform="translate(387,700)"/>
<path d="M0 0 C5.54 2.77 9.45 6.82 14 11 C15.38 12.15 16.76 13.31 18.19 14.5 C22.38 18.35 25.72 22.35 29 27 C29 27.99 29 28.98 29 30 C25.14 26.21 21.37 22.44 17.88 18.31 C13.16 13.07 8.03 8.4 2.82 3.66 C1.89 2.78 0.96 1.9 0 1 C0 0.67 0 0.34 0 0 Z " fill="#D8CEC9" transform="translate(1265,563)"/>
<path d="M0 0 C-0.33 0.66 -0.66 1.32 -1 2 C-2.31 2.19 -3.63 2.39 -4.98 2.59 C-6.7 2.85 -8.42 3.11 -10.19 3.38 C-11.04 3.5 -11.04 3.5 -15.36 4.15 C-20 5 -20 5 -25 7 C-27.31 6.67 -29.62 6.34 -32 6 C-27.95 3.3 -24.14 2.83 -19.38 1.88 C-17.65 1.52 -15.93 1.17 -14.15 0.8 C-9.33 0.05 -4.87 -0.15 0 0 Z " fill="#B19B8C" transform="translate(1135,952)"/>
<path d="M0 0 C0.33 0 0.66 0 1 0 C0.42 8.55 -1.1 16.65 -3 25 C-4.32 25.33 -5.64 25.66 -7 26 C-5.46 17.04 -2.78 8.64 0 0 Z " fill="#150406" transform="translate(980,1474)"/>
<path d="M0 0 C7.4 0.75 14.72 1.87 22.06 3.06 C24.3 3.42 26.54 3.79 28.85 4.16 C29.7 4.3 29.7 4.3 34 5 C34.16 5.49 34.16 5.49 35 8 C23.05 6.4 11.58 4.36 0 1 C0 0.67 0 0.34 0 0 Z " fill="#CDC0B9" transform="translate(91,1026)"/>
<path d="M0 0 C0.66 0.66 1.32 1.32 2 2 C-8.5 7.12 -8.5 7.12 -13 6 C-16.01 6.97 -19.01 7.98 -22 9 C-23.65 9 -25.3 9 -27 9 C-21.25 4.69 -14.89 3.72 -8 2 C-7.34 2.33 -6.68 2.66 -6 3 C-4.02 2.01 -2.04 1.02 0 0 Z " fill="#D7CDBD" transform="translate(218,1023)"/>
<path d="M0 0 C0.66 0 1.32 0 2 0 C4.14 9.23 1 16.3 -2 25 C-5.04 18.92 -2.61 14.44 -1 8 C-0.62 5.34 -0.26 2.67 0 0 Z " fill="#BCB098" transform="translate(381,992)"/>
<path d="M0 0 C1.16 0 1.16 0 7.01 0.03 C8.76 0.04 10.51 0.05 12.31 0.06 C11.98 0.72 11.65 1.38 11.31 2.06 C-0.8 2.77 -12.6 3.27 -24.69 2.06 C-24.69 1.73 -24.69 1.4 -24.69 1.06 C-16.42 0.18 -8.31 -0.04 0 0 Z " fill="#C2A598" transform="translate(596.6875,1014.9375)"/>
<path d="M0 0 C0.66 0.33 1.32 0.66 2 1 C-20.96 24.32 -20.96 24.32 -29 27 C-29 26.34 -29 25.68 -29 25 C-27.95 24.26 -26.9 23.51 -25.81 22.75 C-20.65 18.73 -15.92 14.39 -11.14 9.93 C-7.5 6.53 -3.77 3.25 0 0 Z " fill="#794F46" transform="translate(1092,886)"/>
<path d="M0 0 C0.66 0.33 1.32 0.66 2 1 C0.68 2.32 -0.64 3.64 -2 5 C-2 5.66 -2 6.32 -2 7 C-13.62 15 -13.62 15 -17 15 C-12.1 7.65 -7.32 4.83 0 0 Z " fill="#EAD79B" transform="translate(1716,1234)"/>
<path d="M0 0 C5 3 5 3 7 7 C6.34 6.67 5.68 6.34 5 6 C4.22 5.93 4.22 5.93 0.25 5.56 C-5 5 -5 5 -11 3 C-11 2.34 -11 1.68 -11 1 C-7.45 -0.78 -3.88 -0.21 0 0 Z " fill="#997965" transform="translate(1459,1034)"/>
<path d="M0 0 C1.7 3.41 0.15 6.64 -0.69 10.25 C-1.02 11.74 -1.36 13.23 -1.7 14.77 C-3 19 -3 19 -7 25 C-8.34 19.65 -6.88 16.59 -5.19 11.38 C-4.64 9.67 -4.1 7.97 -3.54 6.21 C-2 2 -2 2 0 0 Z " fill="#C1B29F" transform="translate(385,694)"/>
<path d="M0 0 C0.33 0 0.66 0 1 0 C1.08 3.87 1.14 7.75 1.19 11.62 C1.22 13.78 1.26 15.94 1.29 18.16 C1 24 1 24 -2 30 C-2.66 30 -3.32 30 -4 30 C-4.33 30.99 -4.66 31.98 -5 33 C-4 26 -4 26 -2.5 21 C-0.72 13.88 -0.34 7.32 0 0 Z " fill="#76473F" transform="translate(799,1060)"/>
<path d="M0 0 C-5.62 4.5 -8.82 5.05 -15.81 6.25 C-17.72 6.59 -19.62 6.92 -21.58 7.27 C-23.04 7.51 -24.5 7.75 -26 8 C-23 5 -23 5 -18 4 C-16.68 3.34 -15.36 2.68 -14 2 C-12.35 1.67 -10.7 1.34 -9 1 C-4 -1 -4 -1 0 0 Z " fill="#846B60" transform="translate(1106,959)"/>
<path d="M0 0 C0.66 0 1.32 0 2 0 C0.67 5.32 -1.73 6.47 -6.06 9.75 C-7.35 10.73 -8.64 11.72 -9.97 12.73 C-10.97 13.48 -11.97 14.23 -13 15 C-13.66 14.67 -14.32 14.34 -15 14 C-11 8 -11 8 -5 5 C-3.35 3.35 -1.7 1.7 0 0 Z " fill="#EED684" transform="translate(1749,1210)"/>
<path d="M0 0 C0.33 0 0.66 0 1 0 C1.17 1.62 1.34 3.23 1.52 4.9 C1.76 7.04 2 9.17 2.25 11.38 C2.48 13.49 2.71 15.6 2.95 17.77 C3.95 23.7 5.7 28.48 8 34 C7.67 34.99 7.34 35.98 7 37 C4 31 4 31 4 27 C3.34 27 2.68 27 2 27 C1.93 26.28 1.93 26.28 1.56 22.62 C1 18 1 18 0 16 C-0.14 10.66 -0.04 5.34 0 0 Z " fill="#977271" transform="translate(1072,1033)"/>
<path d="M0 0 C0.33 0 0.66 0 1 0 C0.98 2.62 0.96 5.24 0.94 7.94 C0.93 17 1.39 25.96 2 35 C-3.14 24.73 -2.33 13.11 -1 2 C-0.67 1.34 -0.34 0.68 0 0 Z " fill="#AA8D8C" transform="translate(1006,1006)"/>
<path d="M0 0 C0.33 0 0.66 0 1 0 C1.8 6.32 2.14 12.58 2.25 18.94 C2.28 20.39 2.3 21.84 2.33 23.34 C2 27 2 27 -1 30 C-1.1 19.94 -0.7 10.04 0 0 Z " fill="#5F4D44" transform="translate(1370,827)"/>
<path d="M0 0 C0.33 0.99 0.66 1.98 1 3 C-1.41 4.2 -3.83 5.39 -6.25 6.56 C-7.6 7.22 -8.94 7.89 -10.33 8.57 C-14 10 -14 10 -18 9 C-3.57 0 -3.57 0 0 0 Z " fill="#B6AA95" transform="translate(1689,1254)"/>
<path d="M0 0 C4.95 0 9.9 0 15 0 C15.33 0.66 15.66 1.32 16 2 C16.99 2.33 17.98 2.66 19 3 C18.67 3.66 18.34 4.32 18 5 C13.71 5 9.42 5 5 5 C4.67 4.01 4.34 3.02 4 2 C2.68 2 1.36 2 0 2 C0 1.34 0 0.68 0 0 Z " fill="#7B5E52" transform="translate(961,970)"/>
<path d="M0 0 C0.99 0.33 1.98 0.66 3 1 C2.31 1.66 2.31 1.66 -1.19 5 C-5.25 9.22 -8.05 13 -11 18 C-11.66 18.33 -12.32 18.66 -13 19 C-10.47 10.16 -7.14 5.71 0 0 Z " fill="#6B3F36" transform="translate(907,1238)"/>
<path d="M0 0 C8.74 0 13.44 2.74 21 7 C22.65 8.98 24.3 10.96 26 13 C22 11 22 11 18.06 8.12 C12.24 4.53 6.58 2.8 0 1 C0 0.67 0 0.34 0 0 Z " fill="#AA826F" transform="translate(1455,1005)"/>
<path d="M0 0 C0 0.66 0 1.32 0 2 C0.66 2.33 1.32 2.66 2 3 C-5.06 4.93 -10.61 6 -18 6 C-12.88 2.59 -6.19 0 0 0 Z " fill="#8B7163" transform="translate(1072,965)"/>
<path d="M0 0 C13.2 0 26.4 0 40 0 C40 0.33 40 0.66 40 1 C32.74 1 25.48 1 18 1 C18 1.66 18 2.32 18 3 C16.35 3 14.7 3 13 3 C13 2.34 13 1.68 13 1 C8.71 1 4.42 1 0 1 C0 0.67 0 0.34 0 0 Z " fill="#D8CBCB" transform="translate(1429,393)"/>
<path d="M0 0 C7.26 0 14.52 0 22 0 C21.34 2.97 20.68 5.94 20 9 C19 5 19 5 19 3 C12.73 2.34 6.46 1.68 0 1 C0 0.67 0 0.34 0 0 Z " fill="#D7D0C7" transform="translate(654,1354)"/>
<path d="M0 0 C-4.27 1.03 -8.54 2.05 -12.81 3.06 C-15.19 3.63 -17.57 4.2 -20.02 4.79 C-26 6 -26 6 -29 5 C-23.99 3.33 -19.15 2.12 -14 1 C-13.01 0.67 -12.02 0.34 -11 0 C-10.34 0.33 -9.68 0.66 -9 1 C-9 0.34 -9 -0.32 -9 -1 C-4 -2 -4 -2 0 0 Z " fill="#D6C8C3" transform="translate(1062,1289)"/>
<path d="M0 0 C0.66 0 1.32 0 2 0 C4.34 2.66 6.67 5.33 9 8 C10.98 9.65 12.96 11.3 15 13 C15 13.66 15 14.32 15 15 C15.99 15.33 16.98 15.66 18 16 C17.34 16.33 16.68 16.66 16 17 C8.02 13.01 5.22 8.19 0 1 C0 0.67 0 0.34 0 0 Z " fill="#B0A092" transform="translate(715,928)"/>
<path d="M0 0 C-4.1 1.03 -8.21 2.05 -12.31 3.06 C-13.46 3.35 -13.46 3.35 -19.24 4.79 C-25 6 -25 6 -28 5 C-23.31 3.12 -18.92 2.05 -14 1 C-13.01 0.67 -12.02 0.34 -11 0 C-10.34 0.33 -9.68 0.66 -9 1 C-9 0.34 -9 -0.32 -9 -1 C-4 -2 -4 -2 0 0 Z " fill="#D5C7C2" transform="translate(1104,1279)"/>
<path d="M0 0 C1.2 0 1.2 0 7.26 0.03 C9.11 0.04 10.97 0.05 12.88 0.06 C12.88 0.39 12.88 0.72 12.88 1.06 C11.73 1.12 10.58 1.18 9.4 1.25 C7.89 1.33 6.37 1.41 4.81 1.5 C3.32 1.58 1.82 1.66 0.28 1.75 C-3.54 2.02 -7.34 2.52 -11.12 3.06 C-12.12 4.38 -13.11 5.7 -14.12 7.06 C-14.46 5.08 -14.78 3.1 -15.12 1.06 C-10.82 -1.09 -4.66 -0.02 0 0 Z " fill="#7B5B57" transform="translate(535.125,1047.9375)"/>
<path d="M0 0 C-1 3 -1 3 -5 6 C-3.84 6.5 -3.84 6.5 2 9 C1.67 9.99 1.34 10.98 1 12 C-2.63 10.35 -6.26 8.7 -10 7 C-10 6.34 -10 5.68 -10 5 C-2.25 0 -2.25 0 0 0 Z " fill="#D4CBC4" transform="translate(84,1013)"/>
<path d="M0 0 C3 2 3 2 4 6 C4.25 12.56 4.25 12.56 4 19 C3.01 19.99 2.02 20.98 1 22 C1.02 19.86 1.04 17.71 1.06 15.5 C1.02 10.15 0.84 5.25 0 0 Z " fill="#775A4C" transform="translate(963,1218)"/>
<path d="M0 0 C0.66 0 1.32 0 2 0 C-0.34 4.69 -3.27 7.33 -7 11 C-8.26 12.44 -9.52 13.89 -10.81 15.38 C-14 19 -14 19 -16 20 C-13.62 15.24 -10.55 11.96 -7 8 C-5.74 6.52 -4.48 5.03 -3.19 3.5 C-2.14 2.35 -1.08 1.19 0 0 Z " fill="#CABDB7" transform="translate(1278,1084)"/>
<path d="M0 0 C1.65 0 3.3 0 5 0 C0.38 4.62 -4.71 8.17 -10 12 C-10.99 12.99 -11.98 13.98 -13 15 C-13.66 15 -14.32 15 -15 15 C-15.33 15.99 -15.66 16.98 -16 18 C-16.99 17.67 -17.98 17.34 -19 17 C-12.96 11.38 -6.99 6.39 0 2 C0 1.34 0 0.68 0 0 Z " fill="#CAB7A6" transform="translate(1813,553)"/>
<path d="M0 0 C5.06 1.01 8.32 2.6 12.81 5.06 C14.16 5.8 15.51 6.53 16.89 7.29 C17.92 7.85 18.94 8.42 20 9 C20 9.33 20 9.66 20 10 C17.36 9.67 14.72 9.34 12 9 C12 8.34 12 7.68 12 7 C10.02 6.34 8.04 5.68 6 5 C5.34 4.67 4.68 4.34 4 4 C4 3.34 4 2.68 4 2 C2.68 1.34 1.36 0.68 0 0 Z " fill="#7C5858" transform="translate(1592,393)"/>
<path d="M0 0 C1.32 0.66 2.64 1.32 4 2 C0.09 2.86 -3.83 3.72 -7.75 4.56 C-8.84 4.8 -8.84 4.8 -14.36 6 C-20 7 -20 7 -24 6 C-22.06 5.53 -20.12 5.05 -18.12 4.56 C-12 3 -12 3 -10 2 C-9.25 1.92 -9.25 1.92 -5.44 1.5 C-1 1 -1 1 0 0 Z " fill="#D1C1BA" transform="translate(960,1309)"/>
<path d="M0 0 C1.51 6.02 -0.9 10.29 -3 16 C-3.66 16.99 -4.32 17.98 -5 19 C-5.99 18.67 -6.98 18.34 -8 18 C-7 16 -7 16 -4 12 C-3.3 9.01 -2.64 6.01 -2 3 C-1.34 2.01 -0.68 1.02 0 0 Z " fill="#A38551" transform="translate(1288,1011)"/>
<path d="M0 0 C-7.98 2.85 -15.61 4.8 -24 6 C-23 4 -23 4 -17.38 1.94 C-6.04 -1.51 -6.04 -1.51 0 0 Z " fill="#8D6F62" transform="translate(1043,975)"/>
<path d="M0 0 C0.66 0.33 1.32 0.66 2 1 C2 1.99 2 2.98 2 4 C1.15 4.45 1.15 4.45 -3.12 6.75 C-9 10 -9 10 -15 14 C-15.66 14 -16.32 14 -17 14 C-17 13.34 -17 12.68 -17 12 C-16.47 11.69 -16.47 11.69 -13.79 10.14 C-13.1 9.73 -13.1 9.73 -9.62 7.69 C-8.26 6.89 -6.89 6.09 -5.48 5.26 C-2 3 -2 3 0 0 Z " fill="#CCBDBD" transform="translate(1064,1372)"/>
<path d="M0 0 C0.83 0.16 0.83 0.16 5 1 C5 8 5 8 4 13 C3.34 12.67 2.68 12.34 2 12 C1.34 8.04 0.68 4.08 0 0 Z " fill="#D8CDB9" transform="translate(601,1348)"/>
<path d="M0 0 C0.66 0.33 1.32 0.66 2 1 C1.34 1.33 1.34 1.33 -2 3 C-2 3.66 -2 4.32 -2 5 C-3.65 5.83 -3.65 5.83 -12 10 C-12.66 9.67 -13.32 9.34 -14 9 C-9.37 5.26 -5.55 2.22 0 0 Z " fill="#B7A293" transform="translate(992,986)"/>
<path d="M0 0 C0.33 0 0.66 0 1 0 C1.06 1.58 1.12 3.16 1.18 4.79 C1.27 6.86 1.35 8.93 1.44 11.06 C1.52 13.12 1.6 15.17 1.68 17.29 C2 23 2 23 3 30 C2.01 30 1.02 30 0 30 C0 20.1 0 10.2 0 0 Z " fill="#D1C1C0" transform="translate(734,666)"/>
<path d="M0 0 C3.22 6.44 5.78 13.9 4 21 C1.1 13.56 0 8.13 0 0 Z " fill="#AD9486" transform="translate(853,1237)"/>
<path d="M0 0 C0.66 0.66 1.32 1.32 2 2 C1.34 9.26 0.68 16.52 0 24 C-0.66 23.67 -1.32 23.34 -2 23 C-2.19 15.03 -1.64 7.8 0 0 Z " fill="#574135" transform="translate(1369,882)"/>
<path d="M0 0 C2 0.33 2 0.33 12 2 C12 2.66 12 3.32 12 4 C16.29 4.99 20.58 5.98 25 7 C24.67 7.66 24.34 8.32 24 9 C15.73 6.91 7.92 4.15 0 1 C0 0.67 0 0.34 0 0 Z " fill="#73413C" transform="translate(479,1298)"/>
<path d="M0 0 C0.66 0.33 1.32 0.66 2 1 C0.55 6.79 -3.09 7.95 -8 11 C-8.66 10.34 -9.32 9.68 -10 9 C-8.35 7.68 -6.7 6.36 -5 5 C-3.35 3.35 -1.7 1.7 0 0 Z " fill="#C8B38E" transform="translate(1723,1229)"/>
<path d="M0 0 C0.66 0.33 1.32 0.66 2 1 C-3.93 6.42 -9.86 11.82 -16 17 C-16.66 16.67 -17.32 16.34 -18 16 C-12.32 10.14 -6.55 4.88 0 0 Z " fill="#794942" transform="translate(1061,913)"/>
<path d="M0 0 C0.99 0.66 0.99 0.66 6 4 C5.01 4.33 4.02 4.66 3 5 C1.35 4.01 -0.3 3.02 -2 2 C-1.34 3.65 -0.68 5.3 0 7 C-2.31 5.35 -4.62 3.7 -7 2 C-7 1.34 -7 0.68 -7 0 C-5 -1 -5 -1 0 0 Z " fill="#E3DDD9" transform="translate(1232,538)"/>
<path d="M0 0 C-5 4 -5 4 -10 5 C-12.67 5.66 -15.34 6.32 -18 7 C-17 5 -17 5 -11 3 C-10.01 2.01 -9.02 1.02 -8 0 C-2 -1 -2 -1 0 0 Z " fill="#C2A799" transform="translate(730,1172)"/>
<path d="M0 0 C0.66 0 1.32 0 2 0 C1 5 1 5 -2 12 C-2.66 12 -3.32 12 -4 12 C-4.66 13.65 -5.32 15.3 -6 17 C-6.33 16.34 -6.66 15.68 -7 15 C-4.77 9.93 -2.48 4.95 0 0 Z " fill="#7E6354" transform="translate(406,644)"/>
<path d="M0 0 C0.66 0 1.32 0 2 0 C2.52 0.69 2.52 0.69 5.12 4.19 C9 9 9 9 15 14 C14.67 14.16 14.67 14.16 13 15 C6.49 12.83 3.07 5.79 0 0 Z " fill="#AD9385" transform="translate(843,1267)"/>
<path d="M0 0 C0.99 0.33 1.98 0.66 3 1 C-2.14 5.67 -7.25 10.09 -13 14 C-13.66 13.67 -14.32 13.34 -15 13 C-14.08 12.23 -13.17 11.46 -12.23 10.66 C-11.63 10.16 -11.63 10.16 -8.62 7.62 C-7.44 6.63 -6.26 5.63 -5.04 4.6 C-3.31 3.12 -1.61 1.61 0 0 Z " fill="#CDB3A5" transform="translate(1062,916)"/>
<path d="M0 0 C0.66 0.33 1.32 0.66 2 1 C0.72 2.26 -0.56 3.52 -1.88 4.81 C-6 9 -6 9 -8 12 C-8 10.02 -8 8.04 -8 6 C-8.33 6.16 -8.33 6.16 -10 7 C-9.67 6.01 -9.34 5.02 -9 4 C-7.68 3.34 -6.36 2.68 -5 2 C-5 2.66 -5 3.32 -5 4 C-3.35 2.68 -1.7 1.36 0 0 Z " fill="#5D2B29" transform="translate(12,564)"/>
<path d="M0 0 C2 1 2 1 2 1 Z " fill="#2A0000" transform="translate(1800,1282)"/>
</svg>
