<?xml version="1.0" encoding="UTF-8"?>
<svg xmlns="http://www.w3.org/2000/svg"
     viewBox="0 0 1024 1024" width="1024" height="1024">
  <g transform="translate(0,1024) scale(0.1,-0.1)">
    <path fill="#d1d5da" fill-rule="evenodd" stroke="none"
          d="M4620 9674 c-276 -25 -678 -94 -833 -143 -17 -6 -99 -31 -182 -56
-82 -26 -163 -52 -180 -60 -16 -7 -41 -16 -55 -20 -14 -4 -38 -13 -55 -20 -16
-7 -75 -32 -130 -55 -85 -36 -171 -77 -400 -192 -21 -11 -51 -28 -65 -38 -14
-9 -59 -37 -100 -61 -41 -24 -79 -47 -85 -52 -5 -4 -55 -37 -109 -73 -225
-149 -441 -328 -661 -548 -172 -173 -243 -252 -388 -436 -18 -23 -90 -121
-107 -146 -81 -119 -94 -135 -119 -140 -275 -61 -553 -170 -791 -308 -52 -31
-122 -69 -155 -86 -71 -36 -193 -124 -201 -145 -4 -8 20 -49 55 -96 34 -44 68
-93 76 -109 26 -51 172 -195 262 -259 48 -35 121 -80 161 -100 l73 -36 -6 -35
c-4 -19 -13 -54 -22 -78 -35 -105 -100 -414 -128 -612 -27 -193 -36 -392 -33
-687 l3 -291 -44 -29 c-25 -15 -54 -32 -65 -36 -44 -17 -114 -69 -119 -87 -3
-11 2 -29 11 -40 19 -22 139 -90 205 -115 50 -19 41 4 87 -230 26 -132 65
-300 86 -367 97 -314 166 -490 283 -733 111 -231 266 -493 385 -651 17 -23 40
-55 51 -70 45 -63 224 -282 285 -348 231 -251 467 -460 730 -647 121 -86 246
-168 310 -204 25 -14 77 -43 115 -65 93 -53 357 -183 425 -210 30 -11 64 -25
75 -30 11 -5 61 -24 110 -43 605 -227 1259 -321 1917 -277 232 16 620 71 698
99 14 5 50 15 80 22 109 23 388 107 465 139 11 5 74 30 140 55 155 60 489 225
630 310 193 118 361 235 531 372 l80 65 133 -1 132 -2 -6 118 -6 118 83 85
c108 110 244 270 356 416 156 207 294 427 417 667 l82 162 110 55 c61 30 137
74 169 97 197 142 273 199 273 209 1 7 26 34 57 60 173 150 265 231 313 276
58 55 96 125 106 200 6 39 3 53 -20 92 -14 25 -35 48 -46 51 -27 9 -109 -2
-189 -25 -36 -10 -101 -27 -145 -38 -44 -11 -100 -27 -125 -35 -140 -48 -183
-58 -191 -45 -5 7 -6 20 -3 28 15 39 69 381 86 540 26 249 13 877 -23 1070 -6
30 -21 118 -34 195 -34 199 -87 410 -156 619 -21 66 -36 123 -32 126 5 4 40
12 78 19 105 18 234 58 352 107 146 61 210 98 268 153 28 27 79 68 115 92 84
56 170 137 170 160 0 17 -9 19 -102 19 -146 0 -210 22 -340 117 -201 146 -256
182 -335 227 -112 62 -187 115 -304 216 -105 91 -305 222 -389 256 -54 22
-365 104 -394 104 -9 0 -35 21 -58 47 -155 169 -403 393 -607 545 -64 48 -120
91 -126 96 -5 4 -66 44 -135 88 -229 148 -428 255 -650 350 -58 25 -125 54
-150 64 -136 59 -409 144 -606 190 -66 15 -129 30 -140 34 -23 7 -236 42 -384
62 -101 14 -789 28 -900 18z M5235 8759 c-86 -11 -281 -72 -355 -110 -30 -15 -104 -65 -165 -111
-91 -69 -118 -96 -163 -163 -29 -43 -51 -86 -50 -95 2 -10 18 -16 53 -18 28
-2 54 -7 59 -12 8 -8 -32 -61 -172 -223 -72 -84 -72 -85 -57 -113 8 -16 15
-43 15 -61 0 -17 6 -35 13 -40 29 -19 194 -66 343 -98 266 -57 357 -68 554
-63 210 6 259 20 339 98 81 79 109 152 145 375 l21 130 53 3 c40 2 54 -1 58
-13 11 -28 -35 -277 -72 -396 -35 -110 -38 -116 -96 -172 -72 -67 -156 -111
-253 -132 -92 -19 -357 -19 -495 0 -115 16 -385 74 -495 105 -38 11 -72 16
-76 12 -4 -4 19 -63 52 -132 56 -119 87 -209 159 -453 18 -60 55 -173 82 -250
77 -221 76 -317 -2 -317 -37 0 -50 18 -60 88 -4 33 -40 156 -78 273 -39 118
-90 277 -112 354 -55 185 -88 246 -197 374 -26 30 -32 33 -58 24 -26 -8 -30
-17 -51 -104 -11 -52 -38 -165 -58 -252 -53 -226 -65 -322 -77 -592 -6 -132
-13 -250 -15 -263 -6 -31 -42 -46 -76 -33 -39 15 -43 53 -30 316 14 272 35
415 97 670 25 103 42 192 38 196 -10 10 -82 -16 -253 -89 -63 -27 -184 -75
-268 -107 -84 -32 -188 -79 -230 -104 -75 -45 -79 -46 -162 -46 -75 0 -91 3
-133 28 -63 37 -172 140 -202 191 -27 47 -85 213 -85 245 0 16 12 27 47 42 25
11 50 16 54 12 4 -4 19 -48 34 -98 32 -107 59 -156 117 -212 100 -96 173 -117
248 -71 86 52 146 80 315 143 99 37 228 89 287 116 59 27 112 49 117 49 6 0
35 11 65 24 53 24 54 25 66 81 11 54 11 58 -16 98 -15 23 -70 84 -122 134 -51
51 -91 97 -88 102 3 4 27 14 53 21 27 7 52 16 56 20 21 18 -223 131 -430 199
-135 44 -230 61 -344 61 -86 0 -114 -4 -193 -31 -112 -37 -164 -67 -208 -119
-87 -101 -124 -244 -115 -441 5 -102 4 -119 -11 -131 -9 -8 -83 -53 -163 -101
-80 -47 -167 -102 -192 -121 -54 -41 -77 -44 -149 -16 -101 39 -413 90 -551
90 -97 0 -337 -22 -437 -40 -111 -20 -308 -80 -440 -133 -194 -79 -501 -230
-528 -260 l-24 -25 77 -97 c135 -170 211 -231 420 -342 157 -84 263 -133 354
-164 72 -25 100 -29 185 -29 117 0 233 15 254 32 7 7 71 89 142 182 131 176
251 313 329 378 77 64 64 31 -32 -80 -160 -185 -343 -465 -453 -691 -37 -75
-75 -148 -85 -163 -11 -14 -19 -38 -19 -52 0 -84 -255 -598 -429 -864 -38 -59
-85 -123 -104 -142 -20 -19 -63 -72 -97 -117 -57 -77 -224 -243 -243 -243 -16
0 -67 -41 -62 -50 9 -14 116 -51 190 -65 39 -7 138 -19 220 -25 160 -13 246
-3 346 37 59 23 271 141 291 161 9 9 41 58 70 109 29 51 70 116 91 145 20 29
65 95 100 147 34 51 67 94 72 95 6 0 13 -64 17 -167 12 -301 45 -529 113 -772
43 -153 53 -181 65 -169 5 5 20 79 35 164 15 85 44 227 65 315 l39 161 -30 79
c-36 93 -59 191 -59 258 0 26 -7 58 -15 71 -10 15 -20 83 -31 207 -15 179 -13
301 6 364 5 17 14 77 19 135 9 87 27 171 57 259 3 9 8 11 13 5 5 -5 3 -77 -5
-169 -11 -125 -12 -192 -4 -305 6 -80 15 -207 21 -282 16 -221 84 -518 118
-518 5 0 45 11 88 24 166 51 220 66 268 72 28 3 102 17 165 29 63 13 160 28
215 34 131 14 477 33 512 29 l28 -3 -1 105 c-1 233 17 635 35 790 21 175 23
188 52 290 11 42 21 129 28 247 9 171 22 237 41 217 4 -5 10 -94 12 -199 3
-160 7 -200 25 -255 12 -36 33 -121 48 -190 61 -293 148 -535 259 -724 111
-188 166 -211 450 -182 183 19 432 53 456 63 17 7 36 12 65 17 11 2 27 6 35
10 8 3 47 12 86 20 39 8 109 29 155 47 46 17 100 37 119 44 21 8 36 21 38 32
2 11 -7 62 -18 114 -54 242 -72 402 -77 692 -4 190 -1 292 6 323 9 36 9 57 -3
102 -31 121 -73 419 -63 446 9 24 26 20 37 -9 6 -15 21 -49 34 -78 14 -29 32
-81 41 -117 27 -110 103 -276 216 -471 33 -57 99 -126 113 -117 7 5 56 -44 51
-52 -10 -15 206 -205 323 -284 l43 -29 47 45 c26 25 65 56 87 69 22 13 81 53
130 89 84 61 133 99 288 225 125 101 154 102 243 5 32 -34 70 -68 85 -76 16
-8 59 -45 96 -82 38 -38 102 -99 144 -135 80 -70 105 -110 95 -149 -8 -31
-142 -215 -221 -303 -48 -54 -61 -75 -53 -83 7 -7 16 -12 21 -12 8 0 146 -62
312 -139 33 -16 81 -45 107 -64 26 -20 49 -33 52 -29 2 4 7 93 11 197 6 151 4
212 -9 297 -26 170 -46 267 -73 353 -14 44 -36 116 -50 160 -52 164 -96 256
-220 450 -128 203 -203 309 -287 405 -41 46 -72 88 -70 92 9 15 98 -56 204
-162 209 -208 337 -414 457 -735 133 -354 159 -457 180 -714 11 -138 13 -218
6 -278 -7 -67 -6 -86 5 -95 10 -9 18 -9 33 0 10 7 25 12 32 12 7 0 48 22 91
49 66 42 132 73 197 94 10 3 25 30 35 59 16 46 19 85 19 278 0 124 -2 240 -5
257 -8 56 14 38 37 -28 33 -99 48 -236 45 -406 -2 -97 1 -154 7 -158 6 -3 47
-7 91 -7 120 -2 114 -16 115 275 0 358 -27 572 -104 830 -33 110 -53 144 -124
209 l-51 47 29 11 c22 9 72 8 194 -1 235 -17 428 -2 879 66 136 21 266 55 388
100 156 58 203 85 285 162 42 39 91 79 108 88 18 9 29 20 27 24 -3 4 -30 11
-60 14 -68 7 -205 65 -273 116 -28 22 -61 45 -74 51 -49 27 -180 130 -235 187
-56 56 -120 101 -131 90 -3 -3 -51 29 -108 71 -65 48 -165 108 -267 159 -154
77 -173 84 -338 122 -349 80 -576 94 -859 52 -126 -18 -364 -73 -437 -101 -13
-5 -67 -18 -119 -29 l-95 -19 -65 37 c-36 21 -98 46 -138 56 -39 9 -93 28
-119 41 -145 73 -433 164 -618 195 -103 17 -107 20 -114 81 -17 136 -43 204
-106 271 -42 46 -191 140 -246 157 -52 15 -282 21 -369 9z m393 -208 c44 -26
99 -63 121 -80 45 -36 74 -100 69 -151 l-3 -33 -350 2 c-290 1 -762 -11 -792
-21 -5 -2 -10 1 -13 6 -6 10 234 196 290 225 48 25 219 81 278 91 26 4 108 8
183 9 l136 1 81 -49z m-2323 -326 c82 -15 295 -85 358 -117 21 -10 37 -24 34
-31 -2 -7 -39 -20 -83 -30 -202 -47 -541 -158 -686 -225 -48 -22 -89 -37 -92
-34 -10 9 -7 145 5 207 20 111 66 168 165 207 44 18 125 33 196 37 14 0 61 -6
103 -14z M4218 8186 c-109 -22 -202 -46 -208 -51 -7 -7 14 -31 66 -75 42 -36
86 -78 99 -94 32 -40 56 -28 110 52 24 37 71 97 104 133 56 61 65 81 37 78 -6
-1 -100 -20 -208 -43z M8325 8190 c-10 -17 12 -37 25 -24 8 8 6 15 -4 23 -10 9 -16 9 -21 1z M5419 6349 c-8 -16 -9 -62 -5 -163 13 -261 48 -484 115 -740 27 -102
27 -110 11 -126 -20 -20 -245 -117 -309 -132 -26 -6 -95 -26 -156 -44 -60 -17
-184 -44 -275 -58 -91 -14 -195 -33 -231 -42 -84 -19 -307 -38 -379 -31 -106
10 -155 34 -223 107 -98 106 -229 351 -312 583 -18 50 -37 91 -41 90 -30 -8
-29 -579 1 -730 13 -71 15 -96 6 -107 -9 -11 -42 -13 -164 -9 -83 3 -206 0
-272 -5 -66 -6 -178 -16 -250 -23 -71 -6 -168 -22 -215 -35 -47 -12 -105 -28
-130 -35 -81 -21 -75 1 -78 -270 -3 -280 8 -453 38 -624 25 -135 24 -138 -47
-218 -18 -21 -54 -70 -80 -110 -42 -65 -57 -95 -76 -150 -6 -15 -10 -16 -28
-6 -18 9 -21 17 -16 49 8 62 50 140 111 210 32 36 62 75 67 88 11 30 12 78 0
100 -5 9 -16 85 -26 167 -9 83 -28 224 -42 315 -14 90 -28 212 -31 270 -7 104
-7 105 -32 104 -25 -2 -133 -43 -180 -69 -17 -9 -29 -28 -37 -62 -20 -75 -81
-446 -95 -569 -11 -108 -11 -113 11 -165 78 -182 200 -409 236 -439 10 -8 21
-25 26 -37 18 -49 120 -191 169 -237 67 -63 180 -115 360 -166 258 -73 573
-105 1009 -104 l263 0 19 25 c11 13 28 44 40 69 29 64 84 117 148 141 61 23
100 20 162 -11 46 -24 126 -113 151 -167 10 -23 22 -44 26 -47 17 -10 279 16
395 40 67 14 165 33 217 44 127 25 506 111 750 170 41 10 120 28 175 40 55 12
141 32 190 45 50 13 149 37 221 54 137 33 437 128 564 179 134 54 409 237 527
351 l42 41 46 -20 c72 -31 208 -22 320 22 88 34 247 115 300 153 182 129 288
328 311 581 19 204 -81 392 -277 526 -114 78 -178 94 -314 80 -170 -17 -299
-84 -436 -223 -64 -65 -82 -91 -111 -161 -20 -46 -39 -99 -43 -116 -14 -66
-35 -43 -74 78 -14 41 -30 82 -36 90 -6 8 -19 36 -29 61 -31 84 -86 155 -166
213 -217 158 -282 186 -655 280 -177 44 -202 53 -342 123 -137 69 -368 238
-465 342 -73 76 -220 263 -213 269 5 6 -88 144 -108 160 -13 11 -18 10 -28 -9z
m575 -977 c5 -9 -171 -160 -286 -246 -43 -31 -78 -61 -78 -66 0 -11 -94 -82
-169 -127 -45 -27 -65 -33 -112 -33 -66 0 -92 18 -67 48 9 9 13 22 11 29 -2 6
29 30 69 53 40 24 107 65 148 92 41 28 83 52 92 53 10 2 73 36 140 76 228 134
240 140 252 121z m-2100 -356 c95 -52 316 -138 436 -171 138 -38 142 -40 138
-77 -3 -28 -7 -33 -42 -40 -75 -16 -151 6 -336 98 -191 93 -400 219 -400 239
0 7 -7 18 -15 25 -8 7 -12 16 -10 20 7 11 127 -38 229 -94z m3186 -18 c25 -7
55 -11 67 -9 12 1 33 -5 47 -15 23 -14 26 -23 26 -75 0 -140 -49 -359 -105
-468 -67 -132 -224 -308 -344 -385 -156 -102 -270 -136 -476 -143 -110 -4
-154 -1 -205 12 -195 49 -343 111 -411 172 -56 50 -144 161 -196 248 -41 69
-113 267 -128 352 -7 42 -6 43 41 72 75 48 305 117 488 146 55 9 127 22 160
30 106 24 445 65 601 73 192 9 377 5 435 -10z m1250 -63 c24 -23 30 -37 30
-71 0 -64 -19 -73 -77 -35 -54 36 -84 38 -145 12 -55 -23 -157 -116 -143 -129
6 -5 32 -17 59 -27 30 -11 70 -38 102 -69 48 -47 53 -56 59 -109 18 -144 -68
-296 -207 -368 -67 -34 -139 -19 -216 46 -35 30 -72 118 -72 173 0 58 47 218
85 291 49 92 168 229 230 263 77 43 133 58 202 55 53 -3 67 -7 93 -32z m-4605
-316 c121 1 270 -3 330 -8 141 -13 295 -37 307 -49 6 -6 12 -30 13 -53 2 -24
7 -74 11 -110 5 -55 2 -80 -21 -154 -15 -48 -41 -113 -58 -144 -47 -83 -166
-203 -261 -261 -99 -61 -259 -126 -346 -139 -121 -18 -292 -23 -380 -11 -143
20 -302 91 -371 167 -33 35 -79 115 -79 136 0 8 -16 36 -35 61 -20 26 -41 71
-50 105 -18 72 -30 288 -18 350 7 39 14 48 52 69 36 20 66 26 160 33 212 16
235 17 381 12 80 -3 244 -4 365 -4z m1634 -1044 c18 -18 25 -38 29 -80 8 -99
-42 -181 -135 -220 -71 -30 -177 -11 -234 42 l-26 24 -37 -46 c-21 -25 -51
-52 -68 -61 -27 -14 -32 -14 -46 0 -14 13 -11 17 22 37 20 12 52 45 71 74 42
66 67 76 103 42 78 -73 144 -85 209 -38 58 42 73 68 73 126 0 44 -4 55 -30 80
-23 22 -27 31 -18 42 15 19 56 8 87 -22z m-601 -315 c43 -21 51 -41 20 -46
-38 -5 -119 71 -102 97 5 8 12 6 23 -9 9 -11 35 -30 59 -42z M6916 4908 c-13 -7 -71 -9 -175 -6 -86 3 -178 2 -206 -2 -27 -5 -90
-15 -140 -23 -49 -8 -97 -15 -105 -16 -137 -5 -176 -12 -197 -34 -22 -22 -22
-24 -12 -152 17 -208 85 -362 202 -457 78 -64 140 -92 214 -96 72 -5 110 13
168 80 70 83 93 204 59 319 -20 67 -33 86 -85 121 -85 57 -196 23 -236 -70
-12 -30 -12 -37 2 -58 22 -34 64 -60 80 -48 58 43 64 45 84 34 32 -16 28 -63
-8 -93 -80 -67 -204 -22 -247 90 -16 40 -16 46 1 89 36 96 114 153 220 161
139 12 246 -87 275 -257 14 -78 7 -144 -25 -221 -12 -32 -21 -60 -18 -62 11
-11 59 25 112 85 31 35 66 73 78 85 27 27 85 138 76 147 -3 3 5 23 19 43 41
61 60 133 61 241 2 95 1 97 -22 100 -13 2 -28 -1 -34 -7 -7 -7 -21 -6 -45 4
-41 18 -70 19 -96 3z M5805 4774 c-27 -7 -99 -23 -158 -35 -60 -12 -117 -29 -128 -38 -20
-16 -20 -17 0 -111 35 -176 119 -344 204 -411 108 -85 266 -150 365 -148 95 2
187 13 187 22 0 5 -23 17 -50 26 -98 35 -141 71 -221 186 -74 107 -96 187
-111 400 -9 135 -7 132 -88 109z M7959 4545 c-37 -20 -80 -106 -86 -173 -7 -76 15 -132 51 -132 60 0
156 136 156 220 0 33 -6 48 -29 71 -32 32 -53 35 -92 14z M3775 4509 c-110 -5 -227 -10 -260 -11 -59 -3 -60 -3 -85 -48 -23
-42 -25 -55 -25 -185 0 -138 1 -141 33 -210 47 -99 73 -129 143 -164 123 -61
273 -35 350 62 52 65 78 140 79 227 0 100 -19 136 -91 173 -48 25 -61 27 -114
21 -33 -3 -77 -15 -98 -26 -38 -19 -77 -69 -77 -100 0 -24 45 -73 80 -88 25
-10 34 -10 55 4 14 10 30 28 35 42 19 50 70 38 70 -17 0 -35 -68 -108 -102
-110 -125 -6 -231 95 -208 198 23 101 115 163 250 171 67 4 85 1 126 -18 67
-33 110 -74 130 -125 23 -62 16 -201 -14 -269 -13 -28 -19 -53 -14 -58 9 -9
121 110 145 153 7 13 25 43 40 65 60 90 98 264 63 293 -7 6 -60 14 -117 16
-57 3 -124 7 -149 8 -25 2 -135 0 -245 -4z M3000 4480 c-155 -6 -147 1 -149 -123 -2 -145 55 -314 138 -409 63
-72 164 -134 256 -159 104 -28 291 -37 319 -16 18 13 15 16 -50 48 -107 53
-226 184 -222 245 1 10 -7 45 -17 77 -15 48 -17 76 -12 165 4 59 11 121 16
139 5 17 7 34 3 37 -6 6 -56 6 -282 -4z M6700 6214 c-30 -24 -82 -68 -115 -97 -108 -97 -247 -182 -360 -222
-33 -11 -59 -25 -58 -30 0 -6 62 -41 136 -80 l134 -70 64 56 c95 83 278 266
334 332 l48 58 -54 49 c-30 27 -58 49 -64 49 -5 0 -35 -20 -65 -45z M6887 6081 c-57 -79 -209 -251 -287 -324 -40 -38 -68 -72 -64 -77 5
-4 25 -13 44 -19 l35 -12 179 183 c98 101 186 193 194 206 14 22 13 25 -18 57
-19 19 -37 35 -41 35 -4 0 -23 -22 -42 -49z M7014 5948 c-58 -80 -171 -216 -233 -280 -38 -40 -50 -59 -40 -62 8
-2 35 -12 61 -21 45 -17 49 -17 75 1 53 34 179 169 233 248 l53 80 -49 43
c-27 23 -52 43 -56 43 -3 0 -23 -24 -44 -52z M9925 4148 c-128 -31 -330 -87 -465 -128 -69 -21 -179 -55 -245 -76
-150 -46 -278 -94 -470 -177 -82 -35 -161 -67 -175 -70 -14 -4 -39 -20 -54
-36 l-29 -31 25 -52 c39 -80 122 -340 143 -445 9 -43 22 -50 49 -24 12 12 117
69 231 127 282 143 439 243 665 423 52 42 109 87 126 101 140 108 300 254 320
292 17 33 18 90 2 106 -15 15 -25 14 -123 -10z M9406 4132 c-3 -6 1 -15 8 -21 8 -7 17 -8 20 -3 3 6 -1 15 -8 21 -8
7 -17 8 -20 3z M8155 3769 c-33 -16 -67 -29 -76 -29 -33 0 -42 -26 -34 -107 15 -170
55 -379 81 -420 12 -19 17 -20 56 -11 23 5 57 18 75 30 19 11 41 17 50 14 18
-7 18 -4 -23 -239 l-27 -157 21 -23 c18 -19 67 -117 110 -220 16 -38 44 -30
97 27 22 23 56 55 77 70 34 25 37 32 43 94 11 112 -9 263 -50 381 -100 287
-221 557 -266 595 -38 33 -59 32 -134 -5z M9613 3592 c-62 -56 -170 -134 -315 -226 -118 -75 -137 -107 -30 -51
106 56 368 248 396 290 28 42 2 35 -51 -13z M6841 3270 c-47 -16 -132 -41 -190 -55 -92 -24 -111 -32 -141 -64
-109 -114 -518 -410 -544 -394 -14 9 38 52 282 235 117 87 210 163 207 167 -5
9 -184 -32 -215 -49 -9 -5 -70 -20 -135 -34 -66 -14 -167 -37 -225 -51 -357
-87 -914 -192 -1081 -204 -115 -8 -152 -37 -85 -65 77 -32 500 -75 596 -61 77
12 300 101 471 189 166 85 213 103 223 87 3 -5 -10 -21 -29 -36 -20 -14 -33
-30 -30 -35 6 -10 -50 -60 -120 -105 -106 -68 -312 -141 -438 -155 -178 -21
-579 31 -675 86 l-43 25 -33 -28 c-18 -15 -41 -33 -50 -38 -12 -7 -20 -27 -23
-57 -7 -59 -7 -59 182 -114 162 -47 391 -83 530 -84 109 0 331 41 459 86 141
49 509 250 731 399 83 56 201 132 263 169 77 47 112 74 112 87 0 10 25 39 55
65 30 26 52 51 49 56 -7 11 -5 11 -103 -22z M4301 3079 c-40 -15 -91 -61 -91 -82 0 -11 -25 -72 -56 -136 -31 -64
-67 -143 -81 -176 -46 -108 -150 -516 -137 -537 20 -33 544 -162 566 -140 5 5
4 72 -3 150 -8 106 -8 181 1 299 18 234 18 216 -8 222 -34 9 -30 25 10 36 59
17 71 32 66 90 -6 67 -72 199 -118 236 -39 32 -114 50 -149 38z M6743 3012 c-57 -37 -59 -40 -32 -51 44 -17 92 -60 138 -124 25 -36
74 -102 109 -148 172 -225 104 -229 -77 -4 -30 39 -75 89 -99 112 -49 48 -151
113 -177 113 -23 0 -156 -90 -149 -102 3 -4 10 -8 16 -8 27 0 134 -78 201
-148 83 -86 220 -243 245 -282 37 -57 167 -213 281 -336 117 -128 208 -207
281 -244 88 -44 340 -65 530 -44 l85 9 7 145 c5 111 14 172 36 260 16 63 28
118 26 121 -2 3 -79 9 -171 12 -241 9 -354 42 -488 142 -38 29 -103 76 -144
104 -110 75 -335 298 -418 414 -30 42 -100 87 -132 86 -14 0 -45 -12 -68 -27z M2674 2968 c-21 -33 568 -520 596 -492 5 5 5 43 0 84 -12 97 -12 237
-1 244 4 3 15 0 23 -7 17 -13 30 -81 48 -252 7 -60 15 -117 19 -125 10 -20
139 -92 151 -85 15 9 103 164 134 235 58 135 86 221 73 225 -10 3 -81 9 -397
30 -25 2 -52 6 -60 9 -8 3 -59 12 -113 21 -127 20 -294 60 -351 84 -68 30
-115 41 -122 29z M6374 2765 c-38 -26 -397 -220 -497 -268 -122 -59 -120 -71 12 -65
149 8 282 -7 466 -51 91 -23 185 -44 208 -47 23 -4 47 -10 52 -14 6 -5 50 -10
99 -12 88 -3 90 -2 105 23 14 25 12 28 -25 76 -169 217 -265 317 -344 358 -36
19 -50 19 -76 0z M4557 2493 c-8 -12 -8 -208 0 -327 l6 -99 41 -42 c39 -40 45 -43 112
-49 65 -6 74 -5 100 16 80 65 288 192 477 292 116 62 128 82 41 71 -67 -8
-275 11 -379 35 -44 10 -107 24 -140 29 -71 13 -225 59 -242 72 -6 6 -14 6
-16 2z M5566 2182 c-3 -2 -26 -5 -53 -6 l-47 -1 -13 -72 c-6 -40 -14 -77
-17 -82 -4 -5 -3 -12 2 -15 10 -6 269 42 293 54 18 10 18 12 -2 50 -11 21 -26
43 -33 49 -13 11 -123 31 -130 23z M8151 1696 c-9 -10 -9 -16 -1 -21 17 -10 37 12 24 25 -8 8 -15 6 -23
-4z"/>
  </g>
</svg>
